# Blender 4.4.1
# www.blender.org
mtllib ground.mtl
o 平面
v -15.000002 0.679721 15.000000
v 14.999999 0.679721 15.000000
v -15.000002 0.679721 -15.000000
v 14.999999 0.679721 -15.000000
v -15.000002 0.863587 -12.785013
v -15.000002 0.863587 -10.929604
v -15.000002 0.855487 -9.357563
v -15.000002 0.855487 -7.502154
v -15.000002 1.039581 -5.183895
v -15.000002 1.111710 -3.247971
v -15.000002 0.867679 -1.290669
v -15.000002 1.264002 0.301596
v -15.000002 0.739237 2.203549
v -15.000002 0.598697 3.685117
v -15.000002 1.113681 5.093220
v -15.000002 0.975957 7.047142
v -15.000002 0.918635 9.210438
v -15.000002 1.214042 11.166761
v -15.000002 1.015574 13.062168
v 14.999999 1.015574 13.062168
v 14.999999 1.214042 11.166761
v 14.999999 0.918635 9.210438
v 14.999999 0.975957 7.047142
v 14.999999 1.113681 5.093220
v 14.999999 0.598697 3.685117
v 14.999999 0.739237 2.203549
v 14.999999 1.264002 0.301596
v 14.999999 0.867679 -1.290669
v 14.999999 1.111710 -3.247971
v 14.999999 1.039581 -5.183895
v 14.999999 0.855487 -7.502154
v 14.999999 0.855487 -9.357563
v 14.999999 0.863587 -10.929604
v 14.999999 0.863587 -12.785013
v -12.869524 0.766098 15.000000
v -11.389706 1.020250 15.000000
v -9.718903 0.710232 15.000000
v -7.858746 0.710232 15.000000
v -5.580472 0.548503 15.000000
v -3.720315 0.548503 15.000000
v -1.860157 0.548503 15.000000
v -0.044348 0.689484 15.000000
v 1.531805 0.879676 15.000000
v 3.675967 0.689484 15.000000
v 5.831827 0.831245 15.000000
v 7.691984 0.831245 15.000000
v 9.552141 0.831245 15.000000
v 11.190638 0.601546 15.000000
v 13.036545 0.769111 15.000000
v 13.036545 0.769111 -15.000000
v 11.190638 0.601546 -15.000000
v 9.552141 0.831245 -15.000000
v 7.691984 0.831245 -15.000000
v 5.831827 0.831245 -15.000000
v 3.675967 0.689484 -15.000000
v 1.531805 0.879676 -15.000000
v -0.044348 0.689484 -15.000000
v -1.860157 0.548503 -15.000000
v -3.720315 0.548503 -15.000000
v -5.580472 0.548503 -15.000000
v -7.858746 0.710232 -15.000000
v -9.718903 0.710232 -15.000000
v -11.389706 1.020250 -15.000000
v -12.869524 0.766098 -15.000000
v 13.021102 0.548503 12.987868
v 11.160944 0.548503 12.987868
v 9.206494 1.508341 12.539892
v 7.943338 1.113986 12.604033
v 5.580472 0.548503 12.987868
v 3.631619 0.830465 12.883932
v 1.771462 0.830465 12.883932
v -0.147983 1.010766 13.507482
v -1.919445 0.728805 13.611418
v -3.720315 0.548503 12.987868
v -5.580472 0.548503 12.987868
v -7.160536 1.002679 13.313978
v -9.020694 1.002679 13.313978
v -10.880851 1.002679 13.313978
v -12.717945 0.983692 13.133570
v 13.021102 0.548503 11.132460
v 10.563943 0.942858 11.068317
v 9.300787 0.548503 11.132460
v 7.440629 0.548503 11.132460
v 5.580472 0.548503 11.132460
v 3.720315 0.548503 11.132460
v 1.771462 0.830465 11.028522
v -0.088696 0.830465 11.028522
v -2.008141 1.010766 11.652072
v -3.720315 0.548503 11.132460
v -5.580472 0.548503 11.132460
v -7.160536 1.002679 11.458569
v -9.020694 1.002679 11.458569
v -10.880851 1.002679 11.458569
v -12.437853 1.437868 11.604269
v 13.021102 0.548503 9.277049
v 10.563943 0.942858 9.212908
v 8.996943 1.355183 8.928465
v 8.037600 0.407207 9.234241
v 6.177443 0.407207 9.234241
v 4.317286 0.407207 9.234241
v 1.771462 0.830465 9.173113
v -0.088696 0.830465 9.173113
v -1.948853 0.830465 9.173113
v -3.720315 0.548503 9.277049
v -5.580472 0.548503 9.277049
v -7.160536 1.002679 9.603159
v -9.020694 1.002679 9.603159
v -10.732223 1.566251 8.855368
v -12.741008 1.002679 9.603159
v 12.424100 0.942858 7.357498
v 10.439745 1.325336 7.217175
v 8.996943 1.355183 7.073054
v 8.330758 0.819531 7.094388
v 6.470601 0.819531 7.094388
v 5.117398 0.876258 7.102714
v 2.571574 1.299515 7.041583
v 0.711417 1.299515 7.041583
v -1.754480 1.130708 7.694137
v -3.809011 0.830465 7.317702
v -5.817954 1.186854 8.551121
v -7.440629 0.548503 7.421639
v -9.020694 1.002679 7.747749
v -10.732223 1.566251 6.999958
v -12.592381 1.566251 6.999958
v 12.424100 0.942858 5.502089
v 10.439745 1.325336 5.361766
v 8.996943 1.355183 5.217645
v 8.330758 0.819531 5.238978
v 6.470601 0.819531 3.514978
v 5.117398 0.876258 5.247303
v 2.571574 1.299515 5.186174
v 0.905790 1.599759 5.562608
v -1.754480 1.130708 5.838726
v -3.809011 0.830465 5.462292
v -5.817954 1.186854 6.695711
v -7.678110 1.186854 6.695711
v -9.300787 0.548503 5.566230
v -11.012317 1.112075 4.818439
v -12.872474 1.112075 4.818439
v 12.424100 0.942858 3.646679
v 10.563943 0.942858 3.646679
v 8.996943 1.355183 3.362235
v 8.330758 0.819531 1.659569
v 6.470601 0.819531 1.659569
v 4.317286 0.407207 1.944012
v 2.571574 1.299515 3.330764
v 0.905790 1.599759 3.707199
v -1.754480 1.130708 3.983317
v -3.809011 0.830465 3.606882
v -5.817954 1.186854 4.840301
v -7.678110 1.186854 4.840301
v -9.538268 1.186854 4.840301
v -11.160944 0.548503 3.710820
v -13.021102 0.548503 3.710820
v 13.021102 0.548503 1.855410
v 10.042516 1.642564 1.606036
v 9.593945 0.960828 1.570966
v 8.330758 0.819531 -0.195842
v 6.470601 0.819531 -0.195842
v 4.317286 0.407207 0.088602
v 1.771462 0.830465 1.751473
v -0.088696 0.830465 1.751473
v -1.948853 0.830465 1.751473
v -3.809011 0.830465 1.751473
v -5.669168 0.830465 1.751473
v -7.678110 1.186854 2.984891
v -9.538268 1.186854 2.984891
v -11.398425 1.186854 2.984891
v -13.258583 1.186854 2.984891
v 13.021102 0.548503 0.000000
v 10.673628 1.657889 -0.185680
v 9.593945 0.960828 -0.284444
v 8.330758 0.819531 -0.327252
v 6.470601 0.819531 -0.327252
v 4.317286 0.407207 -0.042808
v 0.649949 1.183846 -0.865191
v -0.088696 0.830465 -0.103937
v -1.948853 0.830465 -0.103937
v -3.720315 0.548503 0.000000
v -5.580472 0.548503 0.000000
v -7.279461 1.674917 0.925698
v -9.416563 1.555566 0.926647
v -11.398425 1.186854 1.129481
v -13.258583 1.186854 1.129481
v 13.021102 0.548503 -1.855410
v 10.189857 1.058771 -1.278642
v 9.593945 0.960828 -2.139854
v 8.330758 0.819531 -2.182662
v 6.470601 0.819531 -2.182662
v 4.317286 0.407207 -1.898218
v 0.738644 0.901885 -2.616664
v -0.743414 1.236867 -2.875883
v -1.860157 0.548503 -1.855410
v -3.720315 0.548503 -1.855410
v -5.419304 1.674917 -0.929712
v -7.279461 1.674917 -0.929712
v -9.449396 2.000284 -0.695504
v -10.999776 1.674917 -0.929712
v -12.859934 1.674917 -0.929712
v 13.021102 0.548503 -3.710820
v 11.160944 0.548503 -3.710820
v 9.300787 0.548503 -3.710820
v 8.037600 0.407207 -3.753628
v 6.177443 0.407207 -3.753628
v 4.317286 0.407207 -3.753628
v 1.116743 1.236867 -4.731293
v -0.743414 1.236867 -4.731293
v -1.482059 0.883485 -3.970039
v -3.342216 0.883485 -3.970039
v -5.419304 1.674917 -2.785122
v -7.707964 1.937454 -2.556434
v -9.139619 1.674917 -2.785122
v -10.999776 0.916691 -2.785122
v -12.859934 0.916691 -2.785122
v 12.688680 1.162471 -5.727259
v 11.160944 0.548503 -5.566230
v 9.300787 0.548503 -5.566230
v 8.037600 0.407207 -5.609037
v 6.013202 0.951731 -5.397292
v 2.598802 0.901885 -6.327483
v 0.738644 0.901885 -6.327483
v -1.121513 0.901885 -6.327483
v -1.482059 0.883485 -5.825449
v -3.720315 0.548503 -5.566230
v -5.419304 1.674917 -4.640532
v -7.279461 1.674917 -4.640532
v -9.139619 0.916691 -4.640532
v -10.999776 0.916691 -4.640532
v -12.859934 0.916691 -4.640532
v 12.524440 1.706996 -7.370923
v 11.160944 0.548503 -7.421639
v 9.136547 1.093028 -7.209894
v 7.276389 1.093028 -7.209894
v 5.580472 0.548503 -7.421639
v 3.720315 0.548503 -7.421639
v 1.860157 0.548503 -7.421639
v -0.568010 0.928887 -7.589381
v -2.428167 0.928887 -7.589381
v -3.720315 0.548503 -7.421639
v -6.416705 0.871962 -6.983660
v -8.276862 0.871962 -6.983660
v -10.230485 1.192287 -6.773541
v -10.999776 0.916691 -6.495941
v -12.953399 1.237016 -6.285823
v 12.725961 1.723196 -8.659592
v 10.865803 1.723196 -8.659592
v 9.005646 1.723196 -8.659592
v 7.440629 0.548503 -9.277049
v 5.416232 1.093028 -9.065303
v 3.152305 0.928887 -9.444791
v 1.292148 0.928887 -9.444791
v -0.568010 0.928887 -9.444791
v -2.428167 0.928887 -9.444791
v -4.288325 0.928887 -9.444791
v -6.416705 0.871962 -8.839069
v -8.276862 0.871962 -8.839069
v -10.230485 1.192287 -8.628951
v -12.015088 1.377133 -8.547115
v -13.342086 1.034067 -8.903965
v 12.890201 1.178672 -10.726748
v 11.030043 1.178672 -10.726748
v 9.169886 1.178672 -10.726748
v 7.440629 0.548503 -11.132460
v 5.012463 0.928887 -11.300201
v 3.152305 0.928887 -11.300201
v 2.098654 1.452129 -11.300201
v 0.238496 1.452129 -11.300201
v -2.428167 0.928887 -11.300201
v -4.288325 0.928887 -11.300201
v -6.148482 0.928887 -11.300201
v -8.276862 0.871962 -10.694479
v -10.230485 1.192287 -10.484361
v -12.015088 1.377133 -10.402525
v -13.340672 1.034067 -10.759375
v 12.890201 1.178672 -12.582157
v 10.796563 1.498547 -12.829752
v 9.169886 1.178672 -12.582157
v 7.440629 0.548503 -12.987868
v 5.580472 0.548503 -12.987868
v 3.152305 0.928887 -13.155611
v 1.292148 0.928887 -13.155611
v -0.568010 0.928887 -13.155611
v -2.428167 0.928887 -13.155611
v -3.720315 0.548503 -12.987868
v -5.580472 0.548503 -12.987868
v -8.276862 0.871962 -12.549891
v -10.230485 1.192287 -12.339771
v -12.015088 1.377133 -12.257935
v -13.342086 1.034067 -12.614784
vn 0.1310 0.9787 -0.1579
vn -0.2247 0.9688 -0.1045
vn -0.2297 0.9733 -0.0000
vn -0.1839 0.9830 -0.0000
vn 0.0112 0.9802 0.1979
vn -0.0128 0.9999 -0.0000
vn -0.0662 0.9978 -0.0000
vn 0.1330 0.9763 -0.1706
vn -0.3400 0.9404 -0.0000
vn -0.1592 0.9872 -0.0000
vn -0.2737 0.9618 -0.0000
vn -0.0183 0.9556 0.2940
vn 0.3260 0.9066 0.2678
vn 0.3276 0.9427 0.0631
vn 0.2872 0.9317 -0.2226
vn 0.1477 0.9890 -0.0000
vn -0.1023 0.9948 -0.0000
vn -0.2503 0.9682 0.0002
vn 0.1030 0.9947 -0.0000
vn 0.1618 0.9868 -0.0000
vn -0.0267 0.9996 -0.0000
vn -0.0000 0.9755 -0.2199
vn -0.0000 1.0000 -0.0000
vn -0.0000 0.9625 -0.2714
vn 0.1637 0.9728 -0.1641
vn -0.3424 0.9396 -0.0000
vn 0.1341 0.9818 0.1344
vn -0.1027 0.9947 0.0051
vn -0.2505 0.9681 -0.0002
vn -0.0208 0.9996 0.0209
vn -0.0000 0.9625 0.2714
vn 0.1608 0.9818 -0.1012
vn -0.0000 0.9670 -0.2547
vn -0.1071 0.9942 -0.0000
vn -0.2401 0.9699 -0.0395
vn 0.1091 0.9801 0.1660
vn 0.1191 0.9929 -0.0000
vn -0.0000 0.9828 0.1848
vn -0.1060 0.9714 0.2124
vn 0.2765 0.9202 0.2772
vn -0.5135 0.8189 -0.2565
vn -0.0000 0.9171 0.3987
vn -0.5033 0.5637 0.6549
vn -0.1375 0.9874 -0.0784
vn -0.0000 0.9816 0.1911
vn -0.3373 0.9414 -0.0000
vn 0.1661 0.9852 0.0423
vn -0.0000 0.9460 -0.3242
vn 0.3260 0.8431 -0.4277
vn -0.2824 0.9593 -0.0000
vn -0.0087 0.9995 0.0304
vn -0.0000 0.9998 0.0214
vn -0.0000 0.9516 -0.3073
vn 0.0554 0.9653 -0.2550
vn -0.2888 0.9489 -0.1273
vn -0.0000 0.9192 0.3938
vn -0.3729 0.9279 -0.0000
vn 0.0667 0.9971 -0.0371
vn -0.3530 0.8661 -0.3539
vn 0.1031 0.9893 -0.1034
vn 0.3561 0.9345 -0.0000
vn -0.1647 0.9724 -0.1651
vn -0.4316 0.9021 -0.0000
vn -0.0000 0.9787 -0.2054
vn -0.0792 0.9678 0.2389
vn -0.1112 0.9938 -0.0000
vn 0.0635 0.9903 0.1235
vn -0.0000 0.9257 -0.3783
vn -0.1507 0.9732 -0.1739
vn 0.1255 0.9841 0.1258
vn 0.5526 0.8335 -0.0000
vn -0.0000 0.9877 0.1565
vn -0.4905 0.8700 0.0501
vn 0.1926 0.9633 0.1870
vn -0.0000 0.9672 -0.2539
vn -0.1002 0.9668 -0.2351
vn 0.1464 0.9783 -0.1468
vn -0.3093 0.9228 -0.2297
vn -0.0000 0.9730 0.2306
vn -0.1596 0.9671 0.1983
vn -0.0536 0.9627 0.2650
vn -0.0000 0.6366 0.7712
vn -0.1572 0.9876 -0.0000
vn -0.0000 0.9873 -0.1589
vn -0.2495 0.9479 0.1979
vn 0.1646 0.9751 -0.1486
vn -0.1881 0.9822 -0.0000
vn -0.1622 0.9868 -0.0000
vn 0.3877 0.7251 -0.5691
vn -0.0834 0.9606 0.2650
vn -0.0000 0.9843 0.1763
vn 0.3306 0.9020 0.2778
vn 0.1966 0.9793 0.0480
vn -0.8354 0.5497 -0.0000
vn 0.3328 0.9346 0.1252
vn -0.2858 0.9540 0.0905
vn -0.0000 0.7510 0.6604
vn 0.1085 0.9881 -0.1088
vn -0.0000 0.9911 -0.1333
vn -0.0000 0.9306 -0.3661
vn 0.1795 0.9145 -0.3625
vn -0.7669 0.5237 -0.3709
vn 0.3179 0.9188 0.2338
vn -0.0436 0.9383 -0.3432
vn -0.0000 0.8913 -0.4535
vn -0.0386 0.8927 -0.4490
vn 0.1747 0.9846 -0.0000
vn -0.1446 0.9895 -0.0000
vn -0.1736 0.9848 -0.0000
vn 0.1774 0.9841 -0.0000
vn 0.1640 0.9865 -0.0000
vn -0.1055 0.9878 -0.1147
vn -0.6266 0.7793 -0.0000
vn 0.2545 0.9671 -0.0000
vn 0.1990 0.9595 -0.1996
vn 0.0098 0.9975 0.0703
vn -0.0000 0.9790 -0.2038
vn 0.3953 0.8878 -0.2356
vn -0.2596 0.9515 -0.1648
vn -0.0683 0.9977 -0.0000
vn -0.0000 0.9800 0.1989
vn 0.0419 0.9991 -0.0000
vn 0.0207 0.9998 -0.0000
vn 0.1893 0.9819 -0.0000
vn -0.2376 0.9710 0.0257
vn -0.1963 0.9606 0.1968
vn 0.3128 0.9498 -0.0000
vn -0.1470 0.9781 0.1474
vn -0.0000 0.9766 0.2149
vn 0.1518 0.9518 0.2664
vn -0.0000 0.9819 0.1892
vn -0.6953 0.7175 0.0430
vn 0.1744 0.9690 0.1749
vn -0.0108 0.9887 -0.1493
vn 0.2403 0.9403 -0.2409
vn 0.2178 0.9512 0.2184
vn 0.2763 0.9611 -0.0000
vn 0.0705 0.9950 -0.0707
vn 0.1432 0.9897 -0.0000
vn -0.0000 0.9972 -0.0742
vn 0.1877 0.9305 0.3147
vn 0.1585 0.9874 -0.0000
vn 0.0106 0.9945 0.1041
vn -0.0372 0.9598 0.2782
vn -0.2607 0.9654 -0.0000
vn 0.1494 0.9774 -0.1498
vn -0.0000 0.9335 -0.3587
vn -0.2735 0.7860 -0.5544
vn 0.1527 0.9763 0.1531
vn -0.0399 0.9845 0.1706
vn -0.1684 0.9806 0.1006
vn 0.1823 0.9822 0.0448
vn -0.0000 0.9853 0.1709
vn 0.0694 0.9777 0.1983
vn -0.0996 0.9950 -0.0000
vn -0.0767 0.9883 0.1316
vn -0.1170 0.9692 0.2168
vn 0.0883 0.9960 -0.0132
vn 0.1396 0.9882 0.0629
vn -0.0000 0.9903 -0.1392
vn -0.0000 0.9931 0.1172
vn 0.3970 0.8977 0.1913
vn -0.0000 0.9997 -0.0264
vn -0.0936 0.9922 -0.0824
vn -0.2094 0.9662 -0.1500
vn 0.0976 0.9895 -0.1065
vn 0.1443 0.9782 -0.1495
vn 0.1115 0.9927 -0.0465
vn -0.0000 0.9794 -0.2020
vn -0.0000 0.9917 -0.1287
vn -0.0000 0.9996 -0.0267
vn 0.1598 0.9837 -0.0823
vn -0.0000 0.9903 0.1392
vn -0.3588 0.9295 0.0858
vn -0.2152 0.9613 -0.1722
vn 0.1816 0.9200 -0.3473
vn 0.0453 0.9955 -0.0826
vn 0.0448 0.9843 0.1706
vn -0.3188 0.9427 0.0987
vn -0.3133 0.9390 -0.1418
vn -0.1829 0.9828 0.0260
vn -0.0549 0.9960 0.0702
vn 0.1295 0.9313 -0.3406
vn -0.1119 0.9893 0.0938
vn -0.1384 0.9547 0.2634
vn -0.2996 0.9258 -0.2304
vn -0.1917 0.9739 0.1214
vn -0.2658 0.9634 -0.0359
vn 0.0714 0.9943 -0.0790
vn 0.3565 0.9343 -0.0000
vn 0.1482 0.9889 0.0051
vn -0.1022 0.9948 0.0001
vn -0.2505 0.9681 -0.0000
vn 0.0862 0.9777 -0.1914
vn -0.1891 0.9635 -0.1895
vn 0.4448 0.8956 -0.0000
vn -0.1658 0.9720 0.1663
vn -0.1071 0.9943 -0.0001
vn -0.2503 0.9682 -0.0000
vn -0.1891 0.9635 0.1895
vn -0.0618 0.9962 -0.0620
vn 0.2597 0.9657 -0.0000
vn -0.1519 0.9869 -0.0539
vn 0.1743 0.9757 0.1328
vn 0.0244 0.9837 0.1781
vn 0.1435 0.9792 0.1438
vn -0.0000 0.9493 0.3145
vn -0.2646 0.9272 -0.2653
vn 0.2624 0.7304 0.6305
vn -0.0000 0.9999 0.0126
vn 0.0080 0.9816 0.1907
vn -0.0000 0.9918 0.1281
vn -0.3729 0.9149 -0.1548
vn -0.1361 0.9858 0.0984
vn 0.1630 0.9755 -0.1479
vn -0.0000 0.9807 -0.1954
vn 0.2762 0.9240 0.2645
vn -0.1160 0.9393 0.3228
vn -0.6239 0.7211 0.3012
vn 0.0908 0.9959 -0.0000
vn -0.1543 0.9759 -0.1546
vn 0.4195 0.8633 -0.2805
vn -0.2474 0.9584 -0.1425
vn 0.2442 0.9694 0.0233
vn -0.3232 0.8891 0.3240
vn -0.2744 0.8902 -0.3638
vn -0.1765 0.9683 -0.1769
vn 0.1595 0.9803 0.1162
vn 0.4536 0.8641 0.2180
vn 0.1855 0.9649 0.1860
vn 0.1369 0.9906 -0.0000
vn -0.2107 0.9545 -0.2112
vn 0.0864 0.9814 -0.1714
vn -0.0610 0.9738 0.2190
vn -0.2359 0.9360 0.2614
vn 0.1483 0.9889 -0.0000
vn -0.3599 0.9071 0.2180
vn 0.2418 0.9598 -0.1423
vn 0.2072 0.9783 -0.0000
vn -0.5136 0.8276 -0.2263
vn -0.2489 0.9685 -0.0000
vn -0.1641 0.9726 0.1645
vn -0.0543 0.9739 0.2203
vn 0.5060 0.8552 -0.1121
vn -0.2232 0.9487 0.2238
vn -0.5224 0.8342 -0.1769
vn 0.4273 0.9041 -0.0000
vn 0.0105 0.7526 0.6584
vn -0.3661 0.9306 -0.0000
vn -0.1216 0.9851 -0.1219
vn -0.1944 0.9425 -0.2719
vn 0.0954 0.9400 -0.3275
vn -0.1251 0.9594 -0.2529
vn 0.1984 0.9416 0.2722
vn -0.0000 0.9766 -0.2150
vn 0.0285 0.8894 -0.4563
vn -0.0476 0.7423 0.6683
vn 0.3100 0.9280 -0.2069
vn 0.0416 0.9758 -0.2146
vn -0.2378 0.9566 -0.1686
vn 0.3336 0.7594 0.5586
vn -0.1530 0.9722 0.1773
vn -0.0723 0.9756 0.2071
vn 0.2257 0.9476 -0.2263
vn 0.2483 0.9603 0.1270
vn -0.1735 0.9693 0.1740
vn -0.0111 0.9774 0.2109
vn 0.0423 0.9800 0.1946
vn 0.2217 0.9601 0.1702
vn -0.0504 0.9775 -0.2049
vn -0.2383 0.9682 -0.0761
vn 0.1645 0.9861 -0.0217
vn -0.6012 0.7201 0.3464
vn -0.2980 0.9546 -0.0000
vn -0.1281 0.9569 0.2607
vn 0.2692 0.9631 -0.0000
vn -0.1490 0.9778 0.1475
vn -0.2650 0.9269 -0.2657
vn 0.4308 0.9010 0.0511
vn 0.0102 0.9931 0.1166
vn -0.0090 0.9999 -0.0131
vn -0.0000 0.9917 0.1288
vn -0.1410 0.9658 0.2177
vn 0.0893 0.9959 -0.0130
vn -0.0000 0.9978 0.0665
vn -0.0650 0.9893 -0.1309
vn -0.2176 0.9717 0.0918
vn -0.2717 0.9174 0.2907
vn 0.1388 0.9899 -0.0281
vn -0.0899 0.9901 -0.1079
vn -0.0402 0.9920 -0.1194
vn -0.1670 0.9721 -0.1646
vn 0.1806 0.9733 -0.1416
vn -0.0000 0.9978 -0.0659
vn 0.0708 0.9975 -0.0000
vn -0.0765 0.9858 -0.1497
vn -0.1197 0.9919 -0.0420
vn 0.0879 0.9907 -0.1036
vn -0.0650 0.9893 0.1309
vn -0.0000 0.9898 -0.1422
vn 0.1296 0.9245 -0.3586
vn -0.0891 0.9811 -0.1716
vt 0.077829 0.981980
vt 0.004704 0.920793
vt 0.084389 0.912686
vt 0.983577 0.920011
vt 0.923978 0.987468
vt 0.918317 0.920447
vt 0.858241 0.922240
vt 0.798020 0.990174
vt 0.799216 0.924391
vt 0.727269 0.991151
vt 0.734282 0.906723
vt 0.673662 0.908975
vt 0.663127 0.993891
vt 0.613156 0.910826
vt 0.610685 0.996629
vt 0.551913 0.931191
vt 0.495248 0.999901
vt 0.490038 0.926253
vt 0.443219 0.987853
vt 0.430977 0.921444
vt 0.380842 0.986260
vt 0.371566 0.917289
vt 0.319941 0.980599
vt 0.301450 0.908342
vt 0.246396 0.982757
vt 0.247139 0.899927
vt 0.210855 0.904538
vt 0.187132 0.982435
vt 0.144034 0.912735
vt 0.137285 0.982037
vt 0.132633 0.001225
vt 0.079630 0.056648
vt 0.072872 0.002671
vt 0.139189 0.054979
vt 0.093051 0.101214
vt 0.149782 0.158082
vt 0.151515 0.100196
vt 0.143391 0.223421
vt 0.090119 0.158340
vt 0.123891 0.293013
vt 0.082687 0.223434
vt 0.123950 0.353674
vt 0.066660 0.311981
vt 0.123303 0.415023
vt 0.066620 0.371150
vt 0.061922 0.475727
vt 0.062490 0.416029
vt 0.123193 0.503237
vt 0.061244 0.535288
vt 0.122947 0.557815
vt 0.063959 0.595450
vt 0.123239 0.654119
vt 0.122936 0.596711
vt 0.129166 0.731784
vt 0.069122 0.675375
vt 0.085002 0.795130
vt 0.071277 0.733426
vt 0.143772 0.853255
vt 0.144087 0.794573
vt 0.078033 0.846668
vt 0.183360 0.000280
vt 0.198408 0.053981
vt 0.209891 0.157187
vt 0.210411 0.098969
vt 0.204081 0.222859
vt 0.204733 0.283894
vt 0.184492 0.353745
vt 0.184988 0.415193
vt 0.185035 0.476122
vt 0.184690 0.535754
vt 0.181366 0.595375
vt 0.190500 0.665447
vt 0.186235 0.730150
vt 0.212717 0.849410
vt 0.211711 0.795138
vt 0.243299 0.000099
vt 0.281749 0.068131
vt 0.277343 0.130772
vt 0.264858 0.222084
vt 0.268815 0.157483
vt 0.266105 0.283416
vt 0.251731 0.371602
vt 0.245672 0.476794
vt 0.245722 0.416410
vt 0.249646 0.556908
vt 0.248579 0.615521
vt 0.246206 0.675215
vt 0.256154 0.735980
vt 0.260633 0.795008
vt 0.270329 0.850704
vt 0.318476 0.003183
vt 0.335099 0.130444
vt 0.335792 0.071686
vt 0.336770 0.188070
vt 0.348342 0.253056
vt 0.309484 0.372304
vt 0.349472 0.307265
vt 0.287492 0.458559
vt 0.304059 0.446478
vt 0.286694 0.519763
vt 0.288468 0.580101
vt 0.313125 0.691635
vt 0.316836 0.759122
vt 0.317473 0.798473
vt 0.317426 0.855740
vt 0.380810 0.003234
vt 0.392093 0.130424
vt 0.394883 0.072861
vt 0.402514 0.195400
vt 0.402561 0.308002
vt 0.411705 0.240010
vt 0.364472 0.382617
vt 0.340558 0.473641
vt 0.364831 0.444599
vt 0.339643 0.531178
vt 0.372762 0.638435
vt 0.372418 0.698477
vt 0.373505 0.758317
vt 0.375283 0.858341
vt 0.375905 0.798592
vt 0.444334 0.005063
vt 0.459886 0.136896
vt 0.461820 0.079517
vt 0.466892 0.187770
vt 0.462465 0.255764
vt 0.434135 0.375680
vt 0.453221 0.309517
vt 0.433334 0.431716
vt 0.398290 0.475289
vt 0.407018 0.523618
vt 0.431854 0.637771
vt 0.426074 0.708954
vt 0.426931 0.767707
vt 0.429875 0.809057
vt 0.458992 0.827842
vt 0.499187 0.010642
vt 0.528046 0.122681
vt 0.527325 0.065306
vt 0.520275 0.185202
vt 0.519496 0.250416
vt 0.499895 0.317076
vt 0.491345 0.370634
vt 0.489971 0.429749
vt 0.488554 0.489476
vt 0.462096 0.515996
vt 0.484106 0.706766
vt 0.491138 0.636292
vt 0.486121 0.764693
vt 0.489998 0.804540
vt 0.500413 0.844116
vt 0.565790 0.008530
vt 0.583254 0.121272
vt 0.582806 0.067534
vt 0.588273 0.179988
vt 0.589125 0.241439
vt 0.550136 0.309931
vt 0.550668 0.370071
vt 0.549677 0.430106
vt 0.548616 0.490620
vt 0.548004 0.551351
vt 0.488215 0.706642
vt 0.495264 0.636219
vt 0.490176 0.764495
vt 0.546862 0.828886
vt 0.542062 0.799513
vt 0.614375 0.013164
vt 0.617387 0.073733
vt 0.617707 0.125887
vt 0.650545 0.241227
vt 0.648743 0.182590
vt 0.651442 0.301962
vt 0.610933 0.369903
vt 0.623476 0.438070
vt 0.617666 0.523276
vt 0.553133 0.635290
vt 0.604201 0.573777
vt 0.546247 0.705285
vt 0.547289 0.763546
vt 0.600918 0.797443
vt 0.611898 0.851390
vt 0.659987 0.077777
vt 0.665383 0.011330
vt 0.657138 0.136316
vt 0.680839 0.190934
vt 0.711768 0.301926
vt 0.709795 0.243831
vt 0.671591 0.369942
vt 0.672619 0.523215
vt 0.683199 0.438201
vt 0.660861 0.575603
vt 0.660963 0.659203
vt 0.605407 0.703794
vt 0.662017 0.763427
vt 0.661549 0.796831
vt 0.668274 0.842706
vt 0.727139 0.009318
vt 0.728076 0.087834
vt 0.727704 0.141466
vt 0.745961 0.202095
vt 0.741500 0.252988
vt 0.732379 0.370276
vt 0.770234 0.304442
vt 0.720075 0.517341
vt 0.742544 0.439280
vt 0.718414 0.575556
vt 0.721272 0.702555
vt 0.721275 0.658914
vt 0.720653 0.796084
vt 0.722041 0.762588
vt 0.726338 0.841347
vt 0.796177 0.008145
vt 0.781400 0.142913
vt 0.809870 0.079533
vt 0.807397 0.262124
vt 0.806447 0.201674
vt 0.797888 0.373149
vt 0.803901 0.317065
vt 0.792661 0.432522
vt 0.792067 0.493224
vt 0.790968 0.553262
vt 0.793375 0.636501
vt 0.791970 0.694090
vt 0.790846 0.750947
vt 0.773545 0.797224
vt 0.791867 0.844316
vt 0.860836 0.007975
vt 0.867051 0.140063
vt 0.873855 0.087920
vt 0.867807 0.261397
vt 0.867288 0.201139
vt 0.858752 0.315812
vt 0.857727 0.374968
vt 0.851715 0.494416
vt 0.873340 0.433507
vt 0.850955 0.554278
vt 0.852969 0.618015
vt 0.852377 0.676813
vt 0.850824 0.735587
vt 0.846442 0.792441
vt 0.853055 0.837266
vt 0.925322 0.079515
vt 0.921930 0.006822
vt 0.928807 0.140284
vt 0.927867 0.201432
vt 0.926917 0.260961
vt 0.917301 0.315748
vt 0.917308 0.375730
vt 0.931396 0.493038
vt 0.937210 0.434731
vt 0.910706 0.554810
vt 0.909792 0.614062
vt 0.911611 0.677942
vt 0.901389 0.756972
vt 0.900797 0.796706
vt 0.916695 0.862190
vt 0.986424 0.074538
vt 0.986395 0.005810
vt 0.984591 0.124253
vt 0.984845 0.180299
vt 0.983401 0.240490
vt 0.982250 0.314965
vt 0.982645 0.375742
vt 0.981844 0.495704
vt 0.983085 0.436405
vt 0.979090 0.547680
vt 0.977765 0.617530
vt 0.976229 0.746714
vt 0.977488 0.687367
vt 0.977212 0.804559
vt 0.980791 0.859501
vt 0.000940 0.002969
vt 0.001544 0.071706
vt 0.004059 0.121363
vt 0.001919 0.177411
vt 0.002361 0.237514
vt 0.001724 0.311984
vt 0.002191 0.372402
vt 0.000099 0.432788
vt 0.000816 0.492179
vt 0.002052 0.544358
vt 0.003303 0.614940
vt 0.003380 0.685735
vt 0.006829 0.746311
vt 0.005665 0.806293
vt 0.000099 0.861357
vt 0.006041 0.984101
vt 0.988606 0.983458
vt 0.862297 0.993933
vt 0.562094 0.996622
s 0
usemtl マテリアル
f 34/1/1 50/2/1 275/3/1
f 49/4/2 20/5/2 65/6/2
f 20/5/3 80/7/3 65/6/3
f 80/7/4 22/8/4 95/9/4
f 95/9/5 23/10/5 110/11/5
f 23/10/6 125/12/6 110/11/6
f 24/13/7 140/14/7 125/12/7
f 25/15/8 155/16/8 140/14/8
f 155/16/9 27/17/9 170/18/9
f 170/18/10 28/19/10 185/20/10
f 185/20/11 29/21/11 200/22/11
f 200/22/12 30/23/12 215/24/12
f 215/24/13 31/25/13 230/26/13
f 31/25/14 245/27/14 230/26/14
f 32/28/15 260/29/15 245/27/15
f 33/30/16 275/3/16 260/29/16
f 6/31/17 289/32/17 5/33/17
f 274/34/18 288/35/18 289/32/18
f 272/36/19 288/35/19 273/37/19
f 271/38/20 287/39/20 272/36/20
f 270/40/21 286/41/21 271/38/21
f 269/42/22 285/43/22 270/40/22
f 268/44/22 284/45/22 269/42/22
f 268/44/23 282/46/23 283/47/23
f 267/48/24 281/49/24 282/46/24
f 266/50/24 280/51/24 281/49/24
f 264/52/23 280/51/23 265/53/23
f 263/54/25 279/55/25 264/52/25
f 263/54/26 277/56/26 278/57/26
f 261/58/23 277/56/23 262/59/23
f 261/58/27 275/3/27 276/60/27
f 7/61/28 274/34/28 6/31/28
f 259/62/29 273/37/29 274/34/29
f 257/63/19 273/37/19 258/64/19
f 256/65/20 272/36/20 257/63/20
f 255/66/23 271/38/23 256/65/23
f 254/67/30 270/40/30 255/66/30
f 253/68/23 269/42/23 254/67/23
f 252/69/23 268/44/23 253/68/23
f 251/70/31 267/48/31 252/69/31
f 250/71/31 266/50/31 251/70/31
f 250/71/23 264/52/23 265/53/23
f 249/72/32 263/54/32 264/52/32
f 248/73/26 262/59/26 263/54/26
f 246/74/33 262/59/33 247/75/33
f 245/27/33 261/58/33 246/74/33
f 8/76/34 259/62/34 7/61/34
f 244/77/35 258/64/35 259/62/35
f 243/78/36 257/63/36 258/64/36
f 241/79/20 257/63/20 242/80/20
f 240/81/23 256/65/23 241/79/23
f 239/82/37 255/66/37 240/81/37
f 239/82/38 253/68/38 254/67/38
f 237/83/23 253/68/23 238/84/23
f 237/83/23 251/70/23 252/69/23
f 236/85/38 250/71/38 251/70/38
f 235/86/39 249/72/39 250/71/39
f 234/87/40 248/73/40 249/72/40
f 233/88/41 247/75/41 248/73/41
f 232/89/42 246/74/42 247/75/42
f 230/26/43 246/74/43 231/90/43
f 9/91/44 244/77/44 8/76/44
f 228/92/45 244/77/45 229/93/45
f 228/92/46 242/80/46 243/78/46
f 227/94/47 241/79/47 242/80/47
f 226/95/48 240/81/48 241/79/48
f 224/96/49 240/81/49 225/97/49
f 224/96/50 238/84/50 239/82/50
f 222/98/51 238/84/51 223/99/51
f 221/100/52 237/83/52 222/98/52
f 220/101/53 236/85/53 221/100/53
f 219/102/54 235/86/54 220/101/54
f 219/102/55 233/88/55 234/87/55
f 218/103/56 232/89/56 233/88/56
f 217/104/40 231/90/40 232/89/40
f 215/24/57 231/90/57 216/105/57
f 10/106/58 229/93/58 9/91/58
f 213/107/23 229/93/23 214/108/23
f 213/107/23 227/94/23 228/92/23
f 212/109/59 226/95/59 227/94/59
f 210/110/60 226/95/60 211/111/60
f 209/112/61 225/97/61 210/110/61
f 209/112/62 223/99/62 224/96/62
f 207/113/63 223/99/63 208/114/63
f 207/113/64 221/100/64 222/98/64
f 206/115/64 220/101/64 221/100/64
f 205/116/65 219/102/65 220/101/65
f 204/117/40 218/103/40 219/102/40
f 203/118/66 217/104/66 218/103/66
f 201/119/23 217/104/23 202/120/23
f 200/22/23 216/105/23 201/119/23
f 11/121/67 214/108/67 10/106/67
f 198/122/68 214/108/68 199/123/68
f 198/122/59 212/109/59 213/107/59
f 197/124/69 211/111/69 212/109/69
f 196/125/70 210/110/70 211/111/70
f 194/126/71 210/110/71 195/127/71
f 193/128/72 209/112/72 194/126/72
f 192/129/73 208/114/73 193/128/73
f 192/129/23 206/115/23 207/113/23
f 191/130/74 205/116/74 206/115/74
f 190/131/23 204/117/23 205/116/23
f 189/132/75 203/118/75 204/117/75
f 188/133/76 202/120/76 203/118/76
f 187/134/75 201/119/75 202/120/75
f 185/20/77 201/119/77 186/135/77
f 12/136/78 199/123/78 11/121/78
f 183/137/79 199/123/79 184/138/79
f 182/139/80 198/122/80 183/137/80
f 181/140/81 197/124/81 182/139/81
f 180/141/71 196/125/71 181/140/71
f 179/142/82 195/127/82 180/141/82
f 178/143/83 194/126/83 179/142/83
f 177/144/84 193/128/84 178/143/84
f 176/145/85 192/129/85 177/144/85
f 176/145/86 190/131/86 191/130/86
f 174/146/87 190/131/87 175/147/87
f 173/148/23 189/132/23 174/146/23
f 173/148/66 187/134/66 188/133/66
f 172/149/88 186/135/88 187/134/88
f 170/18/89 186/135/89 171/150/89
f 13/151/90 184/138/90 12/136/90
f 168/152/23 184/138/23 169/153/23
f 167/154/23 183/137/23 168/152/23
f 166/155/91 182/139/91 167/154/91
f 165/156/92 181/140/92 166/155/92
f 164/157/84 180/141/84 165/156/84
f 163/158/84 179/142/84 164/157/84
f 162/159/23 178/143/23 163/158/23
f 161/160/23 177/144/23 162/159/23
f 161/160/93 175/147/93 176/145/93
f 159/161/87 175/147/87 160/162/87
f 158/163/23 174/146/23 159/161/23
f 158/163/66 172/149/66 173/148/66
f 156/164/94 172/149/94 157/165/94
f 155/16/95 171/150/95 156/164/95
f 14/166/96 169/153/96 13/151/96
f 154/167/97 168/152/97 169/153/97
f 153/168/97 167/154/97 168/152/97
f 151/169/23 167/154/23 152/170/23
f 150/171/23 166/155/23 151/169/23
f 149/172/98 165/156/98 150/171/98
f 149/172/23 163/158/23 164/157/23
f 148/173/99 162/159/99 163/158/99
f 147/174/100 161/160/100 162/159/100
f 145/175/101 161/160/101 146/176/101
f 144/177/87 160/162/87 145/175/87
f 143/178/23 159/161/23 144/177/23
f 143/178/66 157/165/66 158/163/66
f 142/179/102 156/164/102 157/165/102
f 141/180/103 155/16/103 156/164/103
f 139/181/104 14/166/104 15/182/104
f 139/181/105 153/168/105 154/167/105
f 138/183/106 152/170/106 153/168/106
f 137/184/97 151/169/97 152/170/97
f 135/185/23 151/169/23 136/186/23
f 134/187/107 150/171/107 135/185/107
f 134/187/108 148/173/108 149/172/108
f 132/188/109 148/173/109 133/189/109
f 131/190/110 147/174/110 132/188/110
f 130/191/111 146/176/111 131/190/111
f 129/192/112 145/175/112 130/191/112
f 129/192/23 143/178/23 144/177/23
f 128/193/113 142/179/113 143/178/113
f 127/194/114 141/180/114 142/179/114
f 125/12/115 141/180/115 126/195/115
f 16/196/116 139/181/116 15/182/116
f 124/197/117 138/183/117 139/181/117
f 123/198/118 137/184/118 138/183/118
f 122/199/119 136/186/119 137/184/119
f 121/200/97 135/185/97 136/186/97
f 119/201/107 135/185/107 120/202/107
f 119/201/108 133/189/108 134/187/108
f 117/203/120 133/189/120 118/204/120
f 116/205/121 132/188/121 117/203/121
f 116/205/111 130/191/111 131/190/111
f 114/206/122 130/191/122 115/207/122
f 114/206/23 128/193/23 129/192/23
f 112/208/113 128/193/113 113/209/113
f 112/208/123 126/195/123 127/194/123
f 111/210/124 125/12/124 126/195/124
f 17/211/125 124/197/125 16/196/125
f 108/212/126 124/197/126 109/213/126
f 108/212/127 122/199/127 123/198/127
f 106/214/23 122/199/23 107/215/23
f 106/214/119 120/202/119 121/200/119
f 104/216/97 120/202/97 105/217/97
f 103/218/128 119/201/128 104/216/128
f 102/219/121 118/204/121 103/218/121
f 101/220/129 117/203/129 102/219/129
f 100/221/130 116/205/130 101/220/130
f 99/222/129 115/207/129 100/221/129
f 98/223/131 114/206/131 99/222/131
f 97/224/132 113/209/132 98/223/132
f 97/224/123 111/210/123 112/208/123
f 96/225/133 110/11/133 111/210/133
f 18/226/134 109/213/134 17/211/134
f 93/227/135 109/213/135 94/228/135
f 93/227/136 107/215/136 108/212/136
f 91/229/23 107/215/23 92/230/23
f 90/231/137 106/214/137 91/229/137
f 89/232/23 105/217/23 90/231/23
f 89/232/83 103/218/83 104/216/83
f 87/233/138 103/218/138 88/234/138
f 86/235/23 102/219/23 87/233/23
f 85/236/139 101/220/139 86/235/139
f 84/237/140 100/221/140 85/236/140
f 83/238/140 99/222/140 84/237/140
f 82/239/140 98/223/140 83/238/140
f 82/239/141 96/225/141 97/224/141
f 81/240/142 95/9/142 96/225/142
f 79/241/143 18/226/143 19/242/143
f 78/243/144 94/228/144 79/241/144
f 77/244/23 93/227/23 78/243/23
f 76/245/23 92/230/23 77/244/23
f 75/246/137 91/229/137 76/245/137
f 74/247/23 90/231/23 75/246/23
f 74/247/145 88/234/145 89/232/145
f 72/248/128 88/234/128 73/249/128
f 71/250/138 87/233/138 72/248/138
f 70/251/23 86/235/23 71/250/23
f 69/252/146 85/236/146 70/251/146
f 69/252/23 83/238/23 84/237/23
f 68/253/147 82/239/147 83/238/147
f 67/254/148 81/240/148 82/239/148
f 66/255/149 80/7/149 81/240/149
f 35/256/150 19/242/150 1/257/150
f 36/258/151 79/241/151 35/256/151
f 37/259/152 78/243/152 36/258/152
f 38/260/153 77/244/153 37/259/153
f 39/261/154 76/245/154 38/260/154
f 40/262/23 75/246/23 39/261/23
f 40/262/155 73/249/155 74/247/155
f 42/263/156 73/249/156 41/264/156
f 43/265/157 72/248/157 42/263/157
f 44/266/158 71/250/158 43/265/158
f 44/266/159 69/252/159 70/251/159
f 46/267/160 69/252/160 45/268/160
f 47/269/161 68/253/161 46/267/161
f 47/269/162 66/255/162 67/254/162
f 48/270/163 65/6/163 66/255/163
f 289/32/164 3/271/164 5/33/164
f 288/35/165 64/272/165 289/32/165
f 287/39/166 63/273/166 288/35/166
f 286/41/167 62/274/167 287/39/167
f 285/43/168 61/275/168 286/41/168
f 284/45/23 60/276/23 285/43/23
f 283/47/50 59/277/50 284/45/50
f 282/46/169 58/278/169 283/47/169
f 281/49/170 57/279/170 282/46/170
f 280/51/171 56/280/171 281/49/171
f 279/55/172 55/281/172 280/51/172
f 278/57/173 54/282/173 279/55/173
f 277/56/174 53/283/174 278/57/174
f 276/60/175 52/284/175 277/56/175
f 275/3/176 51/285/176 276/60/176
f 34/1/177 4/286/177 50/2/177
f 49/4/178 2/287/178 20/5/178
f 20/5/179 21/288/179 80/7/179
f 80/7/180 21/288/180 22/8/180
f 95/9/181 22/8/181 23/10/181
f 23/10/182 24/13/182 125/12/182
f 24/13/183 25/15/183 140/14/183
f 25/15/184 26/289/184 155/16/184
f 155/16/185 26/289/185 27/17/185
f 170/18/186 27/17/186 28/19/186
f 185/20/187 28/19/187 29/21/187
f 200/22/188 29/21/188 30/23/188
f 215/24/189 30/23/189 31/25/189
f 31/25/190 32/28/190 245/27/190
f 32/28/191 33/30/191 260/29/191
f 33/30/16 34/1/16 275/3/16
f 6/31/192 274/34/192 289/32/192
f 274/34/193 273/37/193 288/35/193
f 272/36/19 287/39/19 288/35/19
f 271/38/20 286/41/20 287/39/20
f 270/40/194 285/43/194 286/41/194
f 269/42/22 284/45/22 285/43/22
f 268/44/50 283/47/50 284/45/50
f 268/44/195 267/48/195 282/46/195
f 267/48/24 266/50/24 281/49/24
f 266/50/196 265/53/196 280/51/196
f 264/52/25 279/55/25 280/51/25
f 263/54/23 278/57/23 279/55/23
f 263/54/26 262/59/26 277/56/26
f 261/58/197 276/60/197 277/56/197
f 261/58/23 260/29/23 275/3/23
f 7/61/198 259/62/198 274/34/198
f 259/62/199 258/64/199 273/37/199
f 257/63/19 272/36/19 273/37/19
f 256/65/20 271/38/20 272/36/20
f 255/66/30 270/40/30 271/38/30
f 254/67/23 269/42/23 270/40/23
f 253/68/23 268/44/23 269/42/23
f 252/69/200 267/48/200 268/44/200
f 251/70/31 266/50/31 267/48/31
f 250/71/196 265/53/196 266/50/196
f 250/71/201 249/72/201 264/52/201
f 249/72/202 248/73/202 263/54/202
f 248/73/41 247/75/41 262/59/41
f 246/74/33 261/58/33 262/59/33
f 245/27/33 260/29/33 261/58/33
f 8/76/203 244/77/203 259/62/203
f 244/77/204 243/78/204 258/64/204
f 243/78/46 242/80/46 257/63/46
f 241/79/20 256/65/20 257/63/20
f 240/81/23 255/66/23 256/65/23
f 239/82/205 254/67/205 255/66/205
f 239/82/50 238/84/50 253/68/50
f 237/83/23 252/69/23 253/68/23
f 237/83/206 236/85/206 251/70/206
f 236/85/38 235/86/38 250/71/38
f 235/86/207 234/87/207 249/72/207
f 234/87/208 233/88/208 248/73/208
f 233/88/42 232/89/42 247/75/42
f 232/89/209 231/90/209 246/74/209
f 230/26/210 245/27/210 246/74/210
f 9/91/211 229/93/211 244/77/211
f 228/92/20 243/78/20 244/77/20
f 228/92/212 227/94/212 242/80/212
f 227/94/213 226/95/213 241/79/213
f 226/95/48 225/97/48 240/81/48
f 224/96/37 239/82/37 240/81/37
f 224/96/214 223/99/214 238/84/214
f 222/98/52 237/83/52 238/84/52
f 221/100/215 236/85/215 237/83/215
f 220/101/53 235/86/53 236/85/53
f 219/102/216 234/87/216 235/86/216
f 219/102/217 218/103/217 233/88/217
f 218/103/218 217/104/218 232/89/218
f 217/104/23 216/105/23 231/90/23
f 215/24/219 230/26/219 231/90/219
f 10/106/220 214/108/220 229/93/220
f 213/107/23 228/92/23 229/93/23
f 213/107/59 212/109/59 227/94/59
f 212/109/221 211/111/221 226/95/221
f 210/110/23 225/97/23 226/95/23
f 209/112/222 224/96/222 225/97/222
f 209/112/23 208/114/23 223/99/23
f 207/113/223 222/98/223 223/99/223
f 207/113/64 206/115/64 221/100/64
f 206/115/224 205/116/224 220/101/224
f 205/116/207 204/117/207 219/102/207
f 204/117/23 203/118/23 218/103/23
f 203/118/66 202/120/66 217/104/66
f 201/119/23 216/105/23 217/104/23
f 200/22/225 215/24/225 216/105/225
f 11/121/226 199/123/226 214/108/226
f 198/122/68 213/107/68 214/108/68
f 198/122/227 197/124/227 212/109/227
f 197/124/228 196/125/228 211/111/228
f 196/125/23 195/127/23 210/110/23
f 194/126/229 209/112/229 210/110/229
f 193/128/72 208/114/72 209/112/72
f 192/129/63 207/113/63 208/114/63
f 192/129/230 191/130/230 206/115/230
f 191/130/231 190/131/231 205/116/231
f 190/131/232 189/132/232 204/117/232
f 189/132/75 188/133/75 203/118/75
f 188/133/76 187/134/76 202/120/76
f 187/134/233 186/135/233 201/119/233
f 185/20/23 200/22/23 201/119/23
f 12/136/234 184/138/234 199/123/234
f 183/137/79 198/122/79 199/123/79
f 182/139/235 197/124/235 198/122/235
f 181/140/236 196/125/236 197/124/236
f 180/141/82 195/127/82 196/125/82
f 179/142/71 194/126/71 195/127/71
f 178/143/84 193/128/84 194/126/84
f 177/144/237 192/129/237 193/128/237
f 176/145/238 191/130/238 192/129/238
f 176/145/239 175/147/239 190/131/239
f 174/146/87 189/132/87 190/131/87
f 173/148/23 188/133/23 189/132/23
f 173/148/66 172/149/66 187/134/66
f 172/149/240 171/150/240 186/135/240
f 170/18/110 185/20/110 186/135/110
f 13/151/241 169/153/241 184/138/241
f 168/152/23 183/137/23 184/138/23
f 167/154/242 182/139/242 183/137/242
f 166/155/243 181/140/243 182/139/243
f 165/156/244 180/141/244 181/140/244
f 164/157/84 179/142/84 180/141/84
f 163/158/83 178/143/83 179/142/83
f 162/159/23 177/144/23 178/143/23
f 161/160/245 176/145/245 177/144/245
f 161/160/111 160/162/111 175/147/111
f 159/161/87 174/146/87 175/147/87
f 158/163/23 173/148/23 174/146/23
f 158/163/66 157/165/66 172/149/66
f 156/164/246 171/150/246 172/149/246
f 155/16/247 170/18/247 171/150/247
f 14/166/248 154/167/248 169/153/248
f 154/167/97 153/168/97 168/152/97
f 153/168/249 152/170/249 167/154/249
f 151/169/23 166/155/23 167/154/23
f 150/171/98 165/156/98 166/155/98
f 149/172/23 164/157/23 165/156/23
f 149/172/250 148/173/250 163/158/250
f 148/173/251 147/174/251 162/159/251
f 147/174/252 146/176/252 161/160/252
f 145/175/111 160/162/111 161/160/111
f 144/177/87 159/161/87 160/162/87
f 143/178/23 158/163/23 159/161/23
f 143/178/253 142/179/253 157/165/253
f 142/179/254 141/180/254 156/164/254
f 141/180/255 140/14/255 155/16/255
f 139/181/256 154/167/256 14/166/256
f 139/181/105 138/183/105 153/168/105
f 138/183/257 137/184/257 152/170/257
f 137/184/249 136/186/249 151/169/249
f 135/185/23 150/171/23 151/169/23
f 134/187/107 149/172/107 150/171/107
f 134/187/108 133/189/108 148/173/108
f 132/188/109 147/174/109 148/173/109
f 131/190/110 146/176/110 147/174/110
f 130/191/258 145/175/258 146/176/258
f 129/192/87 144/177/87 145/175/87
f 129/192/23 128/193/23 143/178/23
f 128/193/113 127/194/113 142/179/113
f 127/194/259 126/195/259 141/180/259
f 125/12/23 140/14/23 141/180/23
f 16/196/260 124/197/260 139/181/260
f 124/197/117 123/198/117 138/183/117
f 123/198/118 122/199/118 137/184/118
f 122/199/261 121/200/261 136/186/261
f 121/200/249 120/202/249 135/185/249
f 119/201/107 134/187/107 135/185/107
f 119/201/108 118/204/108 133/189/108
f 117/203/262 132/188/262 133/189/262
f 116/205/110 131/190/110 132/188/110
f 116/205/111 115/207/111 130/191/111
f 114/206/122 129/192/122 130/191/122
f 114/206/23 113/209/23 128/193/23
f 112/208/113 127/194/113 128/193/113
f 112/208/123 111/210/123 126/195/123
f 111/210/124 110/11/124 125/12/124
f 17/211/263 109/213/263 124/197/263
f 108/212/23 123/198/23 124/197/23
f 108/212/127 107/215/127 122/199/127
f 106/214/264 121/200/264 122/199/264
f 106/214/261 105/217/261 120/202/261
f 104/216/265 119/201/265 120/202/265
f 103/218/266 118/204/266 119/201/266
f 102/219/267 117/203/267 118/204/267
f 101/220/129 116/205/129 117/203/129
f 100/221/130 115/207/130 116/205/130
f 99/222/268 114/206/268 115/207/268
f 98/223/131 113/209/131 114/206/131
f 97/224/113 112/208/113 113/209/113
f 97/224/269 96/225/269 111/210/269
f 96/225/149 95/9/149 110/11/149
f 18/226/270 94/228/270 109/213/270
f 93/227/126 108/212/126 109/213/126
f 93/227/23 92/230/23 107/215/23
f 91/229/23 106/214/23 107/215/23
f 90/231/137 105/217/137 106/214/137
f 89/232/23 104/216/23 105/217/23
f 89/232/271 88/234/271 103/218/271
f 87/233/23 102/219/23 103/218/23
f 86/235/23 101/220/23 102/219/23
f 85/236/272 100/221/272 101/220/272
f 84/237/140 99/222/140 100/221/140
f 83/238/140 98/223/140 99/222/140
f 82/239/273 97/224/273 98/223/273
f 82/239/274 81/240/274 96/225/274
f 81/240/142 80/7/142 95/9/142
f 79/241/275 94/228/275 18/226/275
f 78/243/276 93/227/276 94/228/276
f 77/244/23 92/230/23 93/227/23
f 76/245/23 91/229/23 92/230/23
f 75/246/137 90/231/137 91/229/137
f 74/247/23 89/232/23 90/231/23
f 74/247/277 73/249/277 88/234/277
f 72/248/138 87/233/138 88/234/138
f 71/250/23 86/235/23 87/233/23
f 70/251/146 85/236/146 86/235/146
f 69/252/23 84/237/23 85/236/23
f 69/252/278 68/253/278 83/238/278
f 68/253/148 67/254/148 82/239/148
f 67/254/279 66/255/279 81/240/279
f 66/255/23 65/6/23 80/7/23
f 35/256/280 79/241/280 19/242/280
f 36/258/281 78/243/281 79/241/281
f 37/259/153 77/244/153 78/243/153
f 38/260/153 76/245/153 77/244/153
f 39/261/137 75/246/137 76/245/137
f 40/262/23 74/247/23 75/246/23
f 40/262/282 41/264/282 73/249/282
f 42/263/283 72/248/283 73/249/283
f 43/265/284 71/250/284 72/248/284
f 44/266/285 70/251/285 71/250/285
f 44/266/286 45/268/286 69/252/286
f 46/267/287 68/253/287 69/252/287
f 47/269/288 67/254/288 68/253/288
f 47/269/289 48/270/289 66/255/289
f 48/270/290 49/4/290 65/6/290
f 289/32/291 64/272/291 3/271/291
f 288/35/292 63/273/292 64/272/292
f 287/39/293 62/274/293 63/273/293
f 286/41/294 61/275/294 62/274/294
f 285/43/295 60/276/295 61/275/295
f 284/45/23 59/277/23 60/276/23
f 283/47/169 58/278/169 59/277/169
f 282/46/296 57/279/296 58/278/296
f 281/49/297 56/280/297 57/279/297
f 280/51/298 55/281/298 56/280/298
f 279/55/299 54/282/299 55/281/299
f 278/57/173 53/283/173 54/282/173
f 277/56/300 52/284/300 53/283/300
f 276/60/301 51/285/301 52/284/301
f 275/3/302 50/2/302 51/285/302
