# Blender 4.4.1
# www.blender.org
mtllib item.mtl
o 球
v 0.000000 0.593383 -0.334483
v 0.000000 0.420870 -0.500589
v 0.000000 0.195471 -0.590485
v 0.000000 0.073486 -0.602053
v 0.000000 -0.048499 -0.590485
v 0.000000 -0.273898 -0.500589
v 0.004873 0.686747 -0.115198
v 0.009558 0.651165 -0.225969
v 0.013876 0.593383 -0.328056
v 0.017660 0.515622 -0.417536
v 0.020767 0.420870 -0.490970
v 0.023075 0.312769 -0.545537
v 0.024496 0.195471 -0.579139
v 0.024976 0.073486 -0.590485
v 0.024496 -0.048499 -0.579139
v 0.023075 -0.165796 -0.545537
v 0.020767 -0.273898 -0.490970
v 0.017660 -0.368650 -0.417536
v 0.013876 -0.446411 -0.328056
v 0.009558 -0.504193 -0.225969
v 0.004873 -0.539774 -0.115198
v 0.022975 0.686747 -0.108514
v 0.045066 0.651165 -0.212858
v 0.065426 0.593383 -0.309022
v 0.083272 0.515622 -0.393310
v 0.097917 0.420870 -0.462484
v 0.108800 0.312769 -0.513884
v 0.115501 0.195471 -0.545537
v 0.117764 0.073486 -0.556225
v 0.115501 -0.048499 -0.545537
v 0.108800 -0.165796 -0.513884
v 0.097917 -0.273898 -0.462484
v 0.083272 -0.368650 -0.393310
v 0.065426 -0.446411 -0.309022
v 0.045066 -0.504193 -0.212858
v 0.022975 -0.539774 -0.108514
v 0.013876 0.686747 -0.097660
v 0.027218 0.651165 -0.191567
v 0.039515 0.593383 -0.278112
v 0.050293 0.515622 -0.353970
v 0.059138 0.420870 -0.416224
v 0.065711 0.312769 -0.462484
v 0.069758 0.195471 -0.490970
v 0.071125 0.073486 -0.500589
v 0.069758 -0.048499 -0.490970
v 0.065711 -0.165796 -0.462484
v 0.059138 -0.273898 -0.416224
v 0.050293 -0.368650 -0.353970
v 0.039515 -0.446411 -0.278112
v 0.027218 -0.504193 -0.191567
v 0.014095 -0.539774 -0.097660
v 0.017660 0.686747 -0.083053
v 0.034642 0.651165 -0.162914
v 0.050293 0.593383 -0.236515
v 0.064011 0.515622 -0.301027
v 0.075269 0.420870 -0.353970
v 0.083634 0.312769 -0.393310
v 0.088785 0.195471 -0.417536
v 0.090525 0.073486 -0.425716
v 0.088785 -0.048499 -0.417536
v 0.083634 -0.165796 -0.393310
v 0.075269 -0.273898 -0.353970
v 0.064011 -0.368650 -0.301027
v 0.050293 -0.446411 -0.236515
v 0.034642 -0.504193 -0.162914
v 0.017936 -0.539774 -0.083053
v 0.020767 0.686747 -0.065254
v 0.040735 0.651165 -0.128001
v 0.059138 0.593383 -0.185829
v 0.075269 0.515622 -0.236515
v 0.088506 0.420870 -0.278112
v 0.098343 0.312769 -0.309022
v 0.104400 0.195471 -0.328056
v 0.106446 0.073486 -0.334483
v 0.104400 -0.048499 -0.328056
v 0.098343 -0.165796 -0.309022
v 0.088506 -0.273898 -0.278112
v 0.075269 -0.368650 -0.236515
v 0.059138 -0.446411 -0.185829
v 0.040735 -0.504193 -0.128001
v 0.021089 -0.539774 -0.065254
v -0.000000 0.698761 0.000000
v 0.023075 0.686747 -0.044948
v 0.045262 0.651165 -0.088169
v 0.065711 0.593383 -0.128001
v 0.083634 0.515622 -0.162914
v 0.098343 0.420870 -0.191567
v 0.109273 0.312769 -0.212858
v 0.116004 0.195471 -0.225969
v 0.118276 0.073486 -0.230396
v 0.116004 -0.048499 -0.225969
v 0.109273 -0.165796 -0.212858
v 0.098343 -0.273898 -0.191567
v 0.083634 -0.368650 -0.162914
v 0.065711 -0.446411 -0.128001
v 0.045262 -0.504193 -0.088169
v 0.023431 -0.539774 -0.044948
v 0.024496 0.686747 -0.022914
v 0.048050 0.651165 -0.044948
v 0.069758 0.593383 -0.065254
v 0.088785 0.515622 -0.083053
v 0.104400 0.420870 -0.097660
v 0.116004 0.312769 -0.108514
v 0.123149 0.195471 -0.115198
v 0.125561 0.073486 -0.117455
v 0.123149 -0.048499 -0.115198
v 0.116004 -0.165796 -0.108514
v 0.104400 -0.273898 -0.097660
v 0.088785 -0.368650 -0.083053
v 0.069758 -0.446411 -0.065254
v 0.048050 -0.504193 -0.044948
v 0.024874 -0.539774 -0.022914
v 0.024976 0.686747 0.000000
v 0.048992 0.651165 0.000000
v 0.071125 0.593383 0.000000
v 0.090525 0.515622 -0.000000
v 0.106446 0.420870 0.000000
v 0.118276 0.312769 -0.000000
v 0.125561 0.195471 0.000000
v 0.128021 0.073486 0.000000
v 0.125561 -0.048499 0.000000
v 0.118276 -0.165796 -0.000000
v 0.106446 -0.273898 0.000000
v 0.090525 -0.368650 -0.000000
v 0.071125 -0.446411 0.000000
v 0.048992 -0.504193 0.000000
v 0.025361 -0.539774 0.000000
v 0.024496 0.686747 0.022914
v 0.048050 0.651165 0.044948
v 0.069758 0.593383 0.065254
v 0.088785 0.515622 0.083053
v 0.104400 0.420870 0.097660
v 0.116004 0.312769 0.108514
v 0.123149 0.195471 0.115198
v 0.125561 0.073486 0.117455
v 0.123149 -0.048499 0.115198
v 0.116004 -0.165796 0.108514
v 0.104400 -0.273898 0.097660
v 0.088785 -0.368650 0.083053
v 0.069758 -0.446411 0.065254
v 0.048050 -0.504193 0.044948
v 0.024874 -0.539774 0.022914
v 0.023075 0.686747 0.044948
v 0.045262 0.651165 0.088169
v 0.065711 0.593383 0.128001
v 0.083634 0.515622 0.162914
v 0.098343 0.420870 0.191567
v 0.109273 0.312769 0.212858
v 0.116004 0.195471 0.225969
v 0.118276 0.073486 0.230396
v 0.116004 -0.048499 0.225969
v 0.109273 -0.165796 0.212858
v 0.098343 -0.273898 0.191567
v 0.083634 -0.368650 0.162914
v 0.065711 -0.446411 0.128001
v 0.045262 -0.504193 0.088169
v 0.023431 -0.539774 0.044948
v 0.020767 0.686747 0.065254
v 0.040735 0.651165 0.128001
v 0.059138 0.593383 0.185829
v 0.075269 0.515622 0.236515
v 0.088506 0.420870 0.278112
v 0.098343 0.312769 0.309022
v 0.104400 0.195471 0.328056
v 0.106446 0.073486 0.334483
v 0.104400 -0.048499 0.328056
v 0.098343 -0.165796 0.309022
v 0.088506 -0.273898 0.278112
v 0.075269 -0.368650 0.236515
v 0.059138 -0.446411 0.185829
v 0.040735 -0.504193 0.128001
v 0.021089 -0.539774 0.065254
v 0.017660 0.686747 0.083053
v 0.034642 0.651165 0.162914
v 0.050293 0.593383 0.236515
v 0.064011 0.515622 0.301027
v 0.075269 0.420870 0.353970
v 0.083634 0.312769 0.393310
v 0.088785 0.195471 0.417536
v 0.090525 0.073486 0.425716
v 0.088785 -0.048499 0.417536
v 0.083634 -0.165796 0.393310
v 0.075269 -0.273898 0.353970
v 0.064011 -0.368650 0.301027
v 0.050293 -0.446411 0.236515
v 0.034642 -0.504193 0.162914
v 0.017936 -0.539774 0.083053
v 0.013876 0.686747 0.097660
v 0.027218 0.651165 0.191567
v 0.039515 0.593383 0.278112
v 0.050293 0.515622 0.353970
v 0.059138 0.420870 0.416224
v 0.065711 0.312769 0.462484
v 0.069758 0.195471 0.490970
v 0.071125 0.073486 0.500589
v 0.069758 -0.048499 0.490970
v 0.065711 -0.165796 0.462484
v 0.059138 -0.273898 0.416224
v 0.050293 -0.368650 0.353970
v 0.039515 -0.446411 0.278112
v 0.027218 -0.504193 0.191567
v 0.014095 -0.539774 0.097660
v 0.022975 0.686747 0.108514
v 0.045066 0.651165 0.212858
v 0.065426 0.593383 0.309022
v 0.083272 0.515622 0.393310
v 0.097917 0.420870 0.462484
v 0.108800 0.312769 0.513884
v 0.115501 0.195471 0.545537
v 0.117764 0.073486 0.556224
v 0.115501 -0.048499 0.545537
v 0.108800 -0.165796 0.513884
v 0.097917 -0.273898 0.462484
v 0.083272 -0.368650 0.393310
v 0.065426 -0.446411 0.309022
v 0.045066 -0.504193 0.212858
v 0.022975 -0.539774 0.108514
v 0.004873 0.686747 0.115198
v 0.009558 0.651165 0.225969
v 0.013876 0.593383 0.328056
v 0.017660 0.515622 0.417536
v 0.020767 0.420870 0.490970
v 0.023075 0.312769 0.545537
v 0.024496 0.195471 0.579139
v 0.024976 0.073486 0.590485
v 0.024496 -0.048499 0.579139
v 0.023075 -0.165796 0.545537
v 0.020767 -0.273898 0.490970
v 0.017660 -0.368650 0.417536
v 0.013876 -0.446411 0.328056
v 0.009558 -0.504193 0.225969
v 0.004873 -0.539774 0.115198
v -0.000000 0.686747 0.117455
v -0.000000 0.651165 0.230396
v -0.000000 0.593383 0.334483
v -0.000000 0.515622 0.425716
v -0.000000 0.420870 0.500589
v 0.000000 0.312769 0.556224
v -0.000000 0.195471 0.590485
v -0.000000 0.073486 0.602053
v -0.000000 -0.048499 0.590485
v 0.000000 -0.165796 0.556224
v -0.000000 -0.273898 0.500589
v -0.000000 -0.368650 0.425716
v -0.000000 -0.446411 0.334483
v -0.000000 -0.504193 0.230396
v -0.000000 -0.539774 0.117455
v -0.004873 0.686747 0.115198
v -0.009558 0.651165 0.225969
v -0.013876 0.593383 0.328056
v -0.017660 0.515622 0.417536
v -0.020767 0.420870 0.490970
v -0.023075 0.312769 0.545537
v -0.024496 0.195471 0.579139
v -0.024976 0.073486 0.590484
v -0.024496 -0.048499 0.579139
v -0.023075 -0.165796 0.545537
v -0.020767 -0.273898 0.490970
v -0.017660 -0.368650 0.417536
v -0.013876 -0.446411 0.328056
v -0.009558 -0.504193 0.225969
v -0.004873 -0.539774 0.115198
v -0.022975 0.686747 0.108514
v -0.045066 0.651165 0.212858
v -0.065426 0.593383 0.309022
v -0.083272 0.515622 0.393310
v -0.097917 0.420870 0.462484
v -0.108800 0.312769 0.513884
v -0.115501 0.195471 0.545537
v -0.117764 0.073486 0.556224
v -0.115501 -0.048499 0.545537
v -0.108800 -0.165796 0.513884
v -0.097917 -0.273898 0.462484
v -0.083272 -0.368650 0.393310
v -0.065426 -0.446411 0.309022
v -0.045066 -0.504193 0.212858
v -0.023306 -0.539774 0.108514
v -0.013876 0.686747 0.097660
v -0.027218 0.651165 0.191567
v -0.039515 0.593383 0.278112
v -0.050293 0.515622 0.353970
v -0.059138 0.420870 0.416224
v -0.065711 0.312769 0.462484
v -0.069758 0.195471 0.490970
v -0.071125 0.073486 0.500588
v -0.069758 -0.048499 0.490970
v -0.065711 -0.165796 0.462484
v -0.059138 -0.273898 0.416224
v -0.050293 -0.368650 0.353970
v -0.039515 -0.446411 0.278112
v -0.027218 -0.504193 0.191567
v -0.013876 -0.539774 0.097660
v -0.017660 0.686747 0.083053
v -0.034642 0.651165 0.162914
v -0.050293 0.593383 0.236515
v -0.064011 0.515622 0.301027
v -0.075269 0.420870 0.353970
v -0.083634 0.312769 0.393310
v -0.088785 0.195471 0.417536
v -0.090525 0.073486 0.425715
v -0.088785 -0.048499 0.417536
v -0.083634 -0.165796 0.393310
v -0.075269 -0.273898 0.353970
v -0.064011 -0.368650 0.301027
v -0.050293 -0.446411 0.236515
v -0.034642 -0.504193 0.162914
v -0.017913 -0.539774 0.083053
v 0.000012 -0.551789 0.000000
v -0.020767 0.686747 0.065254
v -0.040735 0.651165 0.128001
v -0.059138 0.593383 0.185828
v -0.075269 0.515622 0.236515
v -0.088506 0.420870 0.278112
v -0.098343 0.312769 0.309022
v -0.104400 0.195471 0.328056
v -0.106446 0.073486 0.334482
v -0.104400 -0.048499 0.328056
v -0.098343 -0.165796 0.309022
v -0.088506 -0.273898 0.278112
v -0.075269 -0.368650 0.236515
v -0.059138 -0.446411 0.185828
v -0.040735 -0.504193 0.128001
v -0.021065 -0.539774 0.065254
v -0.023075 0.686747 0.044948
v -0.045262 0.651165 0.088169
v -0.065711 0.593383 0.128001
v -0.083634 0.515622 0.162914
v -0.098343 0.420870 0.191567
v -0.109273 0.312769 0.212858
v -0.116004 0.195471 0.225969
v -0.118276 0.073486 0.230395
v -0.116004 -0.048499 0.225969
v -0.109273 -0.165796 0.212858
v -0.098343 -0.273898 0.191567
v -0.083634 -0.368650 0.162914
v -0.065711 -0.446411 0.128001
v -0.045262 -0.504193 0.088169
v -0.023408 -0.539774 0.044948
v -0.024496 0.686747 0.022914
v -0.048050 0.651165 0.044948
v -0.069758 0.593383 0.065254
v -0.088785 0.515622 0.083053
v -0.104400 0.420870 0.097660
v -0.116004 0.312769 0.108514
v -0.123149 0.195471 0.115198
v -0.125561 0.073486 0.117454
v -0.123149 -0.048499 0.115198
v -0.116004 -0.165796 0.108514
v -0.104400 -0.273898 0.097660
v -0.088785 -0.368650 0.083053
v -0.069758 -0.446411 0.065254
v -0.048050 -0.504193 0.044948
v -0.024850 -0.539774 0.022914
v -0.024976 0.686747 -0.000000
v -0.048992 0.651165 -0.000000
v -0.071125 0.593383 -0.000000
v -0.090525 0.515622 -0.000000
v -0.106446 0.420870 -0.000000
v -0.118276 0.312769 -0.000000
v -0.125561 0.195471 -0.000000
v -0.128021 0.073486 -0.000000
v -0.125561 -0.048499 -0.000000
v -0.118276 -0.165796 -0.000000
v -0.106446 -0.273898 -0.000000
v -0.090525 -0.368650 -0.000000
v -0.071125 -0.446411 -0.000000
v -0.048992 -0.504193 -0.000000
v -0.025337 -0.539774 -0.000000
v -0.024496 0.686747 -0.022914
v -0.048050 0.651165 -0.044948
v -0.069758 0.593383 -0.065254
v -0.088785 0.515622 -0.083053
v -0.104400 0.420870 -0.097660
v -0.116004 0.312769 -0.108514
v -0.123149 0.195471 -0.115198
v -0.125561 0.073486 -0.117455
v -0.123149 -0.048499 -0.115198
v -0.116004 -0.165796 -0.108514
v -0.104400 -0.273898 -0.097660
v -0.088785 -0.368650 -0.083053
v -0.069758 -0.446411 -0.065254
v -0.048050 -0.504193 -0.044948
v -0.024850 -0.539774 -0.022914
v -0.023075 0.686747 -0.044948
v -0.045262 0.651165 -0.088169
v -0.065711 0.593383 -0.128001
v -0.083634 0.515622 -0.162914
v -0.098343 0.420870 -0.191567
v -0.109273 0.312769 -0.212858
v -0.116004 0.195471 -0.225969
v -0.118276 0.073486 -0.230396
v -0.116004 -0.048499 -0.225969
v -0.109273 -0.165796 -0.212858
v -0.098343 -0.273898 -0.191567
v -0.083634 -0.368650 -0.162914
v -0.065711 -0.446411 -0.128001
v -0.045262 -0.504193 -0.088169
v -0.023408 -0.539774 -0.044948
v -0.020767 0.686747 -0.065254
v -0.040735 0.651165 -0.128001
v -0.059138 0.593383 -0.185829
v -0.075269 0.515622 -0.236515
v -0.088506 0.420870 -0.278112
v -0.098343 0.312769 -0.309022
v -0.104400 0.195471 -0.328056
v -0.106446 0.073486 -0.334483
v -0.104400 -0.048499 -0.328056
v -0.098343 -0.165796 -0.309022
v -0.088506 -0.273898 -0.278112
v -0.075269 -0.368650 -0.236515
v -0.059138 -0.446411 -0.185829
v -0.040735 -0.504193 -0.128001
v -0.021065 -0.539774 -0.065254
v -0.017660 0.686747 -0.083053
v -0.034642 0.651165 -0.162914
v -0.050293 0.593383 -0.236515
v -0.064011 0.515622 -0.301027
v -0.075268 0.420870 -0.353970
v -0.083634 0.312769 -0.393310
v -0.088785 0.195471 -0.417536
v -0.090525 0.073486 -0.425716
v -0.088785 -0.048499 -0.417536
v -0.083634 -0.165796 -0.393310
v -0.075268 -0.273898 -0.353970
v -0.064011 -0.368650 -0.301027
v -0.050293 -0.446411 -0.236515
v -0.034642 -0.504193 -0.162914
v -0.017913 -0.539774 -0.083053
v -0.013876 0.686747 -0.097660
v -0.027218 0.651165 -0.191567
v -0.039515 0.593383 -0.278112
v -0.050293 0.515622 -0.353970
v -0.059138 0.420870 -0.416224
v -0.065711 0.312769 -0.462484
v -0.069758 0.195471 -0.490970
v -0.071125 0.073486 -0.500589
v -0.069758 -0.048499 -0.490970
v -0.065711 -0.165796 -0.462484
v -0.059138 -0.273898 -0.416224
v -0.050293 -0.368650 -0.353970
v -0.039515 -0.446411 -0.278112
v -0.027218 -0.504193 -0.191567
v -0.013876 -0.539774 -0.097660
v -0.022975 0.686747 -0.108514
v -0.045066 0.651165 -0.212858
v -0.065426 0.593383 -0.309022
v -0.083272 0.515622 -0.393310
v -0.097917 0.420870 -0.462484
v -0.108800 0.312769 -0.513884
v -0.115501 0.195471 -0.545537
v -0.117764 0.073486 -0.556224
v -0.115501 -0.048499 -0.545537
v -0.108800 -0.165796 -0.513884
v -0.097917 -0.273898 -0.462484
v -0.083272 -0.368650 -0.393310
v -0.065426 -0.446411 -0.309022
v -0.045066 -0.504193 -0.212858
v -0.023306 -0.539774 -0.108514
v -0.004873 0.686747 -0.115198
v -0.009558 0.651165 -0.225969
v -0.013876 0.593383 -0.328055
v -0.017660 0.515622 -0.417536
v -0.020767 0.420870 -0.490970
v -0.023075 0.312769 -0.545537
v -0.024496 0.195471 -0.579139
v -0.024976 0.073486 -0.590484
v -0.024496 -0.048499 -0.579139
v -0.023075 -0.165796 -0.545537
v -0.020767 -0.273898 -0.490970
v -0.017660 -0.368650 -0.417536
v -0.013876 -0.446411 -0.328055
v -0.009558 -0.504193 -0.225969
v -0.004873 -0.539774 -0.115198
v 0.000000 0.686747 -0.117455
v 0.000000 0.651165 -0.230396
v 0.000000 0.515622 -0.425716
v 0.000000 0.312769 -0.556224
v 0.000000 -0.165796 -0.556224
v 0.000000 -0.368650 -0.425716
v 0.000000 -0.446411 -0.334482
v 0.000000 -0.504193 -0.230396
v 0.000000 -0.539774 -0.117455
vn 0.3808 0.4231 -0.8222
vn 0.2193 -0.8530 -0.4735
vn 0.4063 0.2562 -0.8771
vn 0.1378 -0.9447 -0.2976
vn 0.4187 0.0857 -0.9041
vn 0.0471 0.9937 -0.1016
vn 0.0471 -0.9937 -0.1017
vn 0.4187 -0.0857 -0.9041
vn 0.1378 0.9447 -0.2976
vn 0.4063 -0.2562 -0.8771
vn 0.2193 0.8530 -0.4735
vn 0.3808 -0.4231 -0.8222
vn 0.2877 0.7289 -0.6212
vn 0.3416 -0.5827 -0.7374
vn 0.3416 0.5827 -0.7374
vn 0.2877 -0.7289 -0.6212
vn 0.2786 -0.5940 -0.7547
vn 0.2786 0.5940 -0.7547
vn 0.2334 -0.7388 -0.6322
vn 0.3122 0.4334 -0.8454
vn 0.1769 -0.8597 -0.4791
vn 0.3342 0.2633 -0.9050
vn 0.1107 -0.9476 -0.2997
vn 0.3450 0.0883 -0.9344
vn 0.0377 0.9941 -0.1021
vn 0.0377 -0.9941 -0.1021
vn 0.3450 -0.0883 -0.9344
vn 0.1107 0.9476 -0.2997
vn 0.3342 -0.2633 -0.9050
vn 0.1769 0.8597 -0.4791
vn 0.3122 -0.4334 -0.8454
vn 0.2334 0.7388 -0.6322
vn 0.1777 0.9733 0.1454
vn 0.7657 0.0420 0.6419
vn 0.4437 -0.8153 0.3720
vn 0.7600 0.1285 0.6371
vn 0.5987 -0.6243 0.5019
vn 0.7471 0.2226 0.6263
vn 0.6798 -0.4617 0.5699
vn 0.7232 0.3308 0.6063
vn 0.7232 -0.3308 0.6063
vn 0.6798 0.4617 0.5699
vn 0.7471 -0.2226 0.6263
vn 0.5987 0.6243 0.5019
vn 0.7600 -0.1285 0.6371
vn 0.4529 0.8109 0.3705
vn 0.7657 -0.0420 0.6419
vn 0.1722 -0.9744 0.1443
vn 0.9052 -0.3543 -0.2346
vn 0.9549 0.1639 -0.2474
vn 0.8368 -0.5028 -0.2168
vn 0.9638 0.0939 -0.2497
vn 0.6754 -0.7157 -0.1776
vn 0.9676 0.0306 -0.2507
vn 0.2923 0.9533 -0.0757
vn 0.2884 -0.9545 -0.0758
vn 0.9676 -0.0306 -0.2507
vn 0.6760 0.7158 -0.1752
vn 0.9638 -0.0939 -0.2497
vn 0.8368 0.5028 -0.2168
vn 0.9549 -0.1639 -0.2474
vn 0.9052 0.3543 -0.2346
vn 0.9380 -0.2472 -0.2430
vn 0.9380 0.2472 -0.2430
vn 0.7484 0.6503 -0.1306
vn 0.9821 -0.0785 -0.1714
vn 0.8861 0.4370 -0.1546
vn 0.9758 -0.1375 -0.1703
vn 0.9392 0.3017 -0.1639
vn 0.9635 -0.2084 -0.1681
vn 0.9635 0.2084 -0.1681
vn 0.9392 -0.3017 -0.1639
vn 0.9758 0.1375 -0.1703
vn 0.8861 -0.4370 -0.1546
vn 0.9821 0.0785 -0.1714
vn 0.7498 -0.6482 -0.1328
vn 0.9848 0.0256 -0.1719
vn 0.3494 0.9350 -0.0610
vn 0.3448 -0.9367 -0.0611
vn 0.9848 -0.0256 -0.1719
vn 0.9862 0.1218 -0.1121
vn 0.9130 -0.3946 -0.1038
vn 0.9912 0.0695 -0.1127
vn 0.7952 -0.5993 -0.0917
vn 0.9933 0.0226 -0.1129
vn 0.3918 0.9190 -0.0445
vn 0.3869 -0.9211 -0.0446
vn 0.9933 -0.0226 -0.1129
vn 0.7923 0.6034 -0.0901
vn 0.9912 -0.0695 -0.1127
vn 0.9130 0.3946 -0.1038
vn 0.9862 -0.1218 -0.1121
vn 0.9569 0.2694 -0.1088
vn 0.9764 -0.1851 -0.1110
vn 0.9764 0.1851 -0.1110
vn 0.9569 -0.2694 -0.1088
vn 0.9959 -0.0643 -0.0642
vn 0.9273 0.3694 -0.0598
vn 0.9916 -0.1129 -0.0640
vn 0.9661 0.2506 -0.0623
vn 0.9831 -0.1718 -0.0634
vn 0.9831 0.1718 -0.0634
vn 0.9661 -0.2506 -0.0623
vn 0.9916 0.1129 -0.0640
vn 0.9273 -0.3694 -0.0598
vn 0.9959 0.0643 -0.0642
vn 0.8212 -0.5682 -0.0538
vn 0.9977 0.0209 -0.0644
vn 0.4197 0.9073 -0.0271
vn 0.4146 -0.9096 -0.0271
vn 0.9977 -0.0209 -0.0644
vn 0.8174 0.5737 -0.0527
vn 0.9337 -0.3576 -0.0196
vn 0.9979 0.0620 -0.0209
vn 0.8329 -0.5531 -0.0177
vn 0.9996 0.0202 -0.0209
vn 0.4335 0.9011 -0.0091
vn 0.4283 -0.9036 -0.0091
vn 0.9996 -0.0202 -0.0209
vn 0.8287 0.5594 -0.0174
vn 0.9979 -0.0620 -0.0209
vn 0.9337 0.3576 -0.0196
vn 0.9938 -0.1088 -0.0208
vn 0.9701 0.2420 -0.0203
vn 0.9860 -0.1657 -0.0206
vn 0.9860 0.1657 -0.0206
vn 0.9701 -0.2420 -0.0203
vn 0.9938 0.1088 -0.0208
vn 0.9337 0.3576 0.0196
vn 0.9938 -0.1088 0.0208
vn 0.9701 0.2420 0.0203
vn 0.9860 -0.1657 0.0206
vn 0.9860 0.1657 0.0206
vn 0.9701 -0.2420 0.0203
vn 0.9938 0.1088 0.0208
vn 0.9337 -0.3576 0.0196
vn 0.9979 0.0620 0.0209
vn 0.8329 -0.5531 0.0177
vn 0.9996 0.0202 0.0209
vn 0.4335 0.9011 0.0091
vn 0.4283 -0.9036 0.0091
vn 0.9996 -0.0202 0.0209
vn 0.8287 0.5594 0.0174
vn 0.9979 -0.0620 0.0209
vn 0.9959 0.0643 0.0642
vn 0.8212 -0.5682 0.0538
vn 0.9977 0.0209 0.0644
vn 0.4197 0.9073 0.0271
vn 0.4146 -0.9096 0.0271
vn 0.9977 -0.0209 0.0644
vn 0.8174 0.5737 0.0527
vn 0.9959 -0.0643 0.0642
vn 0.9273 0.3694 0.0598
vn 0.9916 -0.1129 0.0640
vn 0.9661 0.2506 0.0623
vn 0.9831 -0.1718 0.0634
vn 0.9831 0.1718 0.0634
vn 0.9661 -0.2506 0.0623
vn 0.9916 0.1129 0.0640
vn 0.9273 -0.3694 0.0598
vn 0.9862 -0.1218 0.1121
vn 0.9569 0.2694 0.1088
vn 0.9764 -0.1851 0.1110
vn 0.9764 0.1851 0.1110
vn 0.9569 -0.2694 0.1088
vn 0.9862 0.1218 0.1121
vn 0.9130 -0.3946 0.1038
vn 0.9912 0.0695 0.1127
vn 0.7952 -0.5993 0.0917
vn 0.9933 0.0226 0.1129
vn 0.3918 0.9190 0.0445
vn 0.3869 -0.9211 0.0446
vn 0.9933 -0.0226 0.1129
vn 0.7923 0.6034 0.0901
vn 0.9912 -0.0695 0.1127
vn 0.9130 0.3946 0.1038
vn 0.7498 -0.6482 0.1328
vn 0.9848 0.0256 0.1719
vn 0.3494 0.9350 0.0610
vn 0.3448 -0.9367 0.0611
vn 0.9848 -0.0256 0.1719
vn 0.7484 0.6503 0.1306
vn 0.9821 -0.0785 0.1714
vn 0.8861 0.4370 0.1546
vn 0.9758 -0.1375 0.1703
vn 0.9392 0.3017 0.1639
vn 0.9635 -0.2084 0.1681
vn 0.9635 0.2084 0.1681
vn 0.9392 -0.3017 0.1639
vn 0.9758 0.1375 0.1703
vn 0.8861 -0.4370 0.1546
vn 0.9821 0.0785 0.1714
vn 0.9380 -0.2472 0.2430
vn 0.9380 0.2472 0.2430
vn 0.9052 -0.3543 0.2346
vn 0.9549 0.1639 0.2474
vn 0.8368 -0.5028 0.2168
vn 0.9638 0.0939 0.2497
vn 0.6754 -0.7157 0.1776
vn 0.9676 0.0306 0.2507
vn 0.2923 0.9533 0.0757
vn 0.2884 -0.9545 0.0758
vn 0.9676 -0.0306 0.2507
vn 0.6760 0.7158 0.1752
vn 0.9638 -0.0939 0.2497
vn 0.8368 0.5028 0.2168
vn 0.9549 -0.1639 0.2474
vn 0.9052 0.3543 0.2346
vn 0.1722 -0.9744 -0.1443
vn 0.1777 0.9733 -0.1454
vn 0.7657 0.0420 -0.6419
vn 0.4437 -0.8153 -0.3720
vn 0.7600 0.1285 -0.6371
vn 0.5987 -0.6243 -0.5019
vn 0.7471 0.2226 -0.6263
vn 0.6798 -0.4617 -0.5699
vn 0.7232 0.3308 -0.6063
vn 0.7232 -0.3308 -0.6063
vn 0.6798 0.4617 -0.5699
vn 0.7471 -0.2226 -0.6263
vn 0.5987 0.6243 -0.5019
vn 0.7600 -0.1285 -0.6371
vn 0.4529 0.8109 -0.3705
vn 0.7657 -0.0420 -0.6419
vn 0.2786 0.5940 0.7547
vn 0.2334 -0.7388 0.6322
vn 0.3122 0.4334 0.8454
vn 0.1769 -0.8597 0.4791
vn 0.3342 0.2633 0.9050
vn 0.1107 -0.9476 0.2997
vn 0.3450 0.0883 0.9344
vn 0.0377 0.9941 0.1021
vn 0.0377 -0.9941 0.1021
vn 0.3450 -0.0883 0.9344
vn 0.1107 0.9476 0.2997
vn 0.3342 -0.2633 0.9050
vn 0.1769 0.8597 0.4791
vn 0.3122 -0.4334 0.8454
vn 0.2334 0.7388 0.6322
vn 0.2786 -0.5940 0.7547
vn 0.4187 -0.0857 0.9041
vn 0.1379 0.9447 0.2976
vn 0.4063 -0.2562 0.8771
vn 0.2193 0.8530 0.4735
vn 0.3808 -0.4231 0.8222
vn 0.2877 0.7289 0.6212
vn 0.3416 -0.5827 0.7374
vn 0.3416 0.5827 0.7374
vn 0.2877 -0.7289 0.6212
vn 0.3808 0.4231 0.8222
vn 0.2193 -0.8530 0.4735
vn 0.4063 0.2562 0.8771
vn 0.1379 -0.9447 0.2976
vn 0.4187 0.0857 0.9041
vn 0.0471 0.9937 0.1016
vn 0.0471 -0.9937 0.1017
vn -0.2877 -0.7289 0.6212
vn -0.3808 0.4231 0.8222
vn -0.2193 -0.8530 0.4735
vn -0.4063 0.2562 0.8771
vn -0.1379 -0.9447 0.2976
vn -0.4187 0.0857 0.9040
vn -0.0471 0.9937 0.1016
vn -0.0471 -0.9937 0.1016
vn -0.4187 -0.0857 0.9041
vn -0.1379 0.9447 0.2976
vn -0.4063 -0.2562 0.8771
vn -0.2193 0.8530 0.4735
vn -0.3808 -0.4231 0.8222
vn -0.2877 0.7289 0.6212
vn -0.3416 -0.5827 0.7374
vn -0.3416 0.5827 0.7374
vn -0.1107 0.9476 0.2997
vn -0.3342 -0.2633 0.9050
vn -0.1769 0.8597 0.4791
vn -0.3122 -0.4334 0.8454
vn -0.2334 0.7388 0.6322
vn -0.2786 -0.5940 0.7547
vn -0.2786 0.5940 0.7547
vn -0.2334 -0.7388 0.6322
vn -0.3122 0.4334 0.8454
vn -0.1769 -0.8597 0.4791
vn -0.3342 0.2633 0.9050
vn -0.1087 -0.9478 0.2998
vn -0.3450 0.0883 0.9344
vn -0.0377 0.9941 0.1021
vn -0.0370 -0.9941 0.1021
vn -0.3450 -0.0883 0.9344
vn -0.7471 -0.2226 -0.6263
vn -0.5987 0.6243 -0.5019
vn -0.7600 -0.1285 -0.6371
vn -0.4290 0.8228 -0.3727
vn -0.7657 -0.0420 -0.6419
vn -0.1722 -0.9744 -0.1443
vn -0.1652 0.9758 -0.1435
vn -0.7657 0.0420 -0.6419
vn -0.4437 -0.8153 -0.3720
vn -0.7600 0.1285 -0.6371
vn -0.5987 -0.6243 -0.5019
vn -0.7471 0.2226 -0.6263
vn -0.6798 -0.4617 -0.5699
vn -0.7232 0.3308 -0.6063
vn -0.7232 -0.3308 -0.6063
vn -0.6798 0.4617 -0.5699
vn -0.9638 -0.0939 0.2497
vn -0.8368 0.5028 0.2168
vn -0.9549 -0.1639 0.2474
vn -0.9052 0.3543 0.2346
vn -0.9380 -0.2472 0.2430
vn -0.9380 0.2472 0.2430
vn -0.9052 -0.3543 0.2346
vn -0.9549 0.1639 0.2474
vn -0.8368 -0.5028 0.2168
vn -0.9638 0.0939 0.2497
vn -0.6599 -0.7288 0.1824
vn -0.9676 0.0306 0.2507
vn -0.2923 0.9533 0.0757
vn -0.2811 -0.9565 0.0777
vn -0.9676 -0.0306 0.2507
vn -0.6760 0.7158 0.1752
vn -0.8861 -0.4370 0.1546
vn -0.9821 0.0785 0.1714
vn -0.7496 -0.6485 0.1328
vn -0.9848 0.0256 0.1719
vn -0.3494 0.9350 0.0610
vn -0.3448 -0.9367 0.0611
vn -0.9848 -0.0256 0.1719
vn -0.7484 0.6503 0.1306
vn -0.9821 -0.0785 0.1714
vn -0.8861 0.4370 0.1546
vn -0.9758 -0.1375 0.1703
vn -0.9392 0.3017 0.1639
vn -0.9635 -0.2084 0.1681
vn -0.9635 0.2084 0.1681
vn -0.9392 -0.3017 0.1639
vn -0.9758 0.1375 0.1703
vn -0.9862 -0.1218 0.1121
vn -0.9569 0.2694 0.1088
vn -0.9764 -0.1851 0.1110
vn -0.9764 0.1851 0.1110
vn -0.9569 -0.2694 0.1088
vn -0.9862 0.1218 0.1121
vn -0.9130 -0.3946 0.1038
vn -0.9912 0.0695 0.1127
vn -0.7950 -0.5997 0.0917
vn -0.9933 0.0226 0.1129
vn -0.3918 0.9190 0.0445
vn -0.3869 -0.9211 0.0446
vn -0.9933 -0.0226 0.1129
vn -0.7923 0.6034 0.0901
vn -0.9912 -0.0695 0.1127
vn -0.9130 0.3946 0.1038
vn -0.8209 -0.5685 0.0537
vn -0.9977 0.0209 0.0644
vn -0.4197 0.9073 0.0271
vn -0.4146 -0.9096 0.0271
vn -0.9977 -0.0209 0.0644
vn -0.8174 0.5737 0.0527
vn -0.9959 -0.0643 0.0642
vn -0.9273 0.3694 0.0598
vn -0.9916 -0.1129 0.0640
vn -0.9661 0.2506 0.0623
vn -0.9831 -0.1718 0.0634
vn -0.9831 0.1718 0.0634
vn -0.9661 -0.2506 0.0623
vn -0.9916 0.1129 0.0640
vn -0.9273 -0.3694 0.0598
vn -0.9959 0.0643 0.0642
vn -0.9701 0.2420 0.0203
vn -0.9860 -0.1657 0.0206
vn -0.9860 0.1657 0.0206
vn -0.9701 -0.2420 0.0203
vn -0.9938 0.1088 0.0208
vn -0.9337 -0.3576 0.0196
vn -0.9979 0.0620 0.0209
vn -0.8326 -0.5535 0.0177
vn -0.9996 0.0202 0.0209
vn -0.4335 0.9011 0.0091
vn -0.4283 -0.9036 0.0091
vn -0.9996 -0.0202 0.0209
vn -0.8287 0.5594 0.0174
vn -0.9979 -0.0620 0.0209
vn -0.9337 0.3576 0.0196
vn -0.9938 -0.1088 0.0208
vn -0.9996 0.0202 -0.0209
vn -0.4335 0.9011 -0.0091
vn -0.4283 -0.9036 -0.0091
vn -0.9996 -0.0202 -0.0209
vn -0.8287 0.5594 -0.0174
vn -0.9979 -0.0620 -0.0209
vn -0.9337 0.3576 -0.0196
vn -0.9938 -0.1088 -0.0208
vn -0.9701 0.2420 -0.0203
vn -0.9860 -0.1657 -0.0206
vn -0.9860 0.1657 -0.0206
vn -0.9701 -0.2420 -0.0203
vn -0.9938 0.1088 -0.0208
vn -0.9337 -0.3576 -0.0196
vn -0.9979 0.0620 -0.0209
vn -0.8326 -0.5535 -0.0177
vn -0.9831 -0.1718 -0.0634
vn -0.9831 0.1718 -0.0634
vn -0.9661 -0.2506 -0.0623
vn -0.9916 0.1129 -0.0640
vn -0.9273 -0.3694 -0.0598
vn -0.9959 0.0643 -0.0642
vn -0.8209 -0.5685 -0.0537
vn -0.9977 0.0209 -0.0644
vn -0.4197 0.9073 -0.0271
vn -0.4146 -0.9096 -0.0271
vn -0.9977 -0.0209 -0.0644
vn -0.8174 0.5737 -0.0527
vn -0.9959 -0.0643 -0.0642
vn -0.9273 0.3694 -0.0598
vn -0.9916 -0.1129 -0.0640
vn -0.9661 0.2506 -0.0623
vn -0.3918 0.9190 -0.0445
vn -0.3869 -0.9211 -0.0446
vn -0.9933 -0.0226 -0.1129
vn -0.7923 0.6034 -0.0901
vn -0.9912 -0.0695 -0.1127
vn -0.9130 0.3946 -0.1038
vn -0.9862 -0.1218 -0.1121
vn -0.9569 0.2694 -0.1088
vn -0.9764 -0.1851 -0.1110
vn -0.9764 0.1851 -0.1110
vn -0.9569 -0.2694 -0.1088
vn -0.9862 0.1218 -0.1121
vn -0.9130 -0.3946 -0.1038
vn -0.9912 0.0695 -0.1127
vn -0.7950 -0.5997 -0.0917
vn -0.9933 0.0226 -0.1129
vn -0.9635 0.2084 -0.1681
vn -0.9392 -0.3017 -0.1639
vn -0.9758 0.1375 -0.1703
vn -0.8861 -0.4370 -0.1546
vn -0.9821 0.0785 -0.1714
vn -0.7496 -0.6485 -0.1328
vn -0.9848 0.0256 -0.1719
vn -0.3494 0.9350 -0.0610
vn -0.3448 -0.9367 -0.0611
vn -0.9848 -0.0256 -0.1719
vn -0.7484 0.6503 -0.1306
vn -0.9821 -0.0785 -0.1714
vn -0.8861 0.4370 -0.1546
vn -0.9758 -0.1375 -0.1703
vn -0.9392 0.3017 -0.1639
vn -0.9635 -0.2084 -0.1681
vn -0.9676 -0.0306 -0.2507
vn -0.6760 0.7158 -0.1752
vn -0.9638 -0.0939 -0.2497
vn -0.8368 0.5028 -0.2168
vn -0.9549 -0.1639 -0.2474
vn -0.9052 0.3543 -0.2346
vn -0.9380 -0.2472 -0.2430
vn -0.9380 0.2472 -0.2430
vn -0.9052 -0.3543 -0.2346
vn -0.9549 0.1639 -0.2474
vn -0.8368 -0.5028 -0.2168
vn -0.9638 0.0939 -0.2497
vn -0.6599 -0.7288 -0.1824
vn -0.9676 0.0306 -0.2507
vn -0.2923 0.9533 -0.0757
vn -0.2811 -0.9565 -0.0777
vn -0.6798 0.4617 0.5699
vn -0.7471 -0.2226 0.6263
vn -0.5987 0.6243 0.5019
vn -0.7600 -0.1285 0.6371
vn -0.4290 0.8228 0.3727
vn -0.7657 -0.0420 0.6419
vn -0.1722 -0.9744 0.1443
vn -0.1652 0.9758 0.1435
vn -0.7657 0.0420 0.6419
vn -0.4437 -0.8153 0.3720
vn -0.7600 0.1285 0.6371
vn -0.5987 -0.6243 0.5019
vn -0.7471 0.2226 0.6263
vn -0.6798 -0.4617 0.5699
vn -0.7232 0.3308 0.6063
vn -0.7232 -0.3308 0.6063
vn -0.3342 -0.2633 -0.9050
vn -0.1769 0.8597 -0.4791
vn -0.3122 -0.4334 -0.8454
vn -0.2334 0.7388 -0.6322
vn -0.2786 -0.5940 -0.7547
vn -0.2786 0.5940 -0.7547
vn -0.2334 -0.7388 -0.6322
vn -0.3122 0.4334 -0.8454
vn -0.1769 -0.8597 -0.4791
vn -0.3342 0.2633 -0.9050
vn -0.1087 -0.9478 -0.2998
vn -0.3450 0.0883 -0.9344
vn -0.0377 0.9941 -0.1021
vn -0.0370 -0.9941 -0.1021
vn -0.3450 -0.0883 -0.9344
vn -0.1107 0.9476 -0.2997
vn -0.2193 -0.8530 -0.4735
vn -0.4063 0.2562 -0.8771
vn -0.1379 -0.9447 -0.2976
vn -0.4188 0.0857 -0.9040
vn -0.0471 0.9937 -0.1016
vn -0.0471 -0.9937 -0.1016
vn -0.4187 -0.0857 -0.9040
vn -0.1378 0.9447 -0.2976
vn -0.4063 -0.2562 -0.8771
vn -0.2193 0.8530 -0.4735
vn -0.3808 -0.4231 -0.8222
vn -0.2877 0.7289 -0.6212
vn -0.3416 -0.5827 -0.7374
vn -0.3416 0.5827 -0.7374
vn -0.2877 -0.7289 -0.6212
vn -0.3808 0.4231 -0.8222
vn 0.4437 0.8153 0.3720
vn 0.6780 -0.7137 -0.1757
vn 0.7512 -0.6469 -0.1311
vn 0.7957 -0.5988 -0.0904
vn 0.8212 -0.5682 -0.0530
vn 0.8328 -0.5533 -0.0174
vn 0.8328 -0.5533 0.0174
vn 0.8212 -0.5682 0.0530
vn 0.7957 -0.5989 0.0904
vn 0.7512 -0.6469 0.1311
vn 0.6780 -0.7137 0.1757
vn 0.4437 0.8153 -0.3720
vn -0.4187 0.0857 0.9041
vn -0.4187 -0.0857 0.9040
vn -0.1108 -0.9475 0.3000
vn -0.4422 0.8167 -0.3707
vn -0.6783 -0.7134 0.1758
vn -0.7510 -0.6472 0.1311
vn -0.7955 -0.5992 0.0904
vn -0.8209 -0.5686 0.0530
vn -0.8326 -0.5536 0.0174
vn -0.8326 -0.5536 -0.0174
vn -0.8209 -0.5686 -0.0530
vn -0.7955 -0.5992 -0.0904
vn -0.7510 -0.6472 -0.1311
vn -0.6783 -0.7134 -0.1758
vn -0.4422 0.8167 0.3707
vn -0.1108 -0.9475 -0.3000
vn -0.1378 -0.9447 -0.2976
vn -0.4187 0.0857 -0.9040
vn -0.4188 -0.0857 -0.9040
vn -0.1379 0.9447 -0.2976
vn -0.2878 0.7289 -0.6212
vt 0.243223 0.664053
vt 0.225041 0.644362
vt 0.244693 0.646406
vt 0.387538 0.648599
vt 0.417016 0.622442
vt 0.421586 0.637325
vt 0.262193 0.665165
vt 0.262827 0.647421
vt 0.466350 0.609918
vt 0.469026 0.620177
vt 0.280192 0.647670
vt 0.280513 0.665254
vt 0.089403 0.627053
vt 0.036975 0.610901
vt 0.091542 0.616566
vt 0.520014 0.601370
vt 0.297580 0.646929
vt 0.298766 0.664554
vt 0.138098 0.642141
vt 0.142054 0.626969
vt 0.315643 0.645321
vt 0.317671 0.662850
vt 0.172570 0.652019
vt 0.176227 0.635656
vt 0.335176 0.642654
vt 0.338010 0.659967
vt 0.199755 0.658071
vt 0.202788 0.640986
vt 0.357233 0.638581
vt 0.360860 0.655478
vt 0.222763 0.661825
vt 0.383367 0.632404
vt 0.333424 0.591668
vt 0.225353 0.593119
vt 0.242391 0.594328
vt 0.355755 0.588958
vt 0.256216 0.595038
vt 0.388295 0.584465
vt 0.268266 0.595361
vt 0.445879 0.567558
vt 0.279499 0.595370
vt 0.027713 0.598013
vt 0.110283 0.572275
vt 0.527793 0.588651
vt 0.290718 0.595067
vt 0.169508 0.587903
vt 0.302732 0.594428
vt 0.202727 0.591149
vt 0.316495 0.593352
vt 0.511802 0.526019
vt 0.455800 0.548037
vt 0.279188 0.571110
vt 0.294208 0.571057
vt 0.151340 0.567093
vt 0.309944 0.570946
vt 0.185547 0.571117
vt 0.327428 0.570909
vt 0.210686 0.571895
vt 0.347365 0.570205
vt 0.230885 0.571943
vt 0.371988 0.568523
vt 0.248396 0.571641
vt 0.405314 0.563433
vt 0.264162 0.571399
vt 0.042033 0.530893
vt 0.099650 0.551943
vt 0.370689 0.553326
vt 0.248226 0.556688
vt 0.403127 0.549227
vt 0.263936 0.556503
vt 0.452032 0.537300
vt 0.279018 0.556290
vt 0.045848 0.527531
vt 0.103366 0.541032
vt 0.508800 0.524299
vt 0.294092 0.556178
vt 0.153830 0.552531
vt 0.309769 0.556026
vt 0.186775 0.555698
vt 0.326951 0.555736
vt 0.211335 0.556502
vt 0.346637 0.554992
vt 0.230942 0.556779
vt 0.155704 0.538514
vt 0.309499 0.541116
vt 0.187710 0.540789
vt 0.326491 0.540780
vt 0.211636 0.541440
vt 0.345902 0.540066
vt 0.231109 0.541752
vt 0.369681 0.538678
vt 0.248171 0.541745
vt 0.400846 0.535458
vt 0.263829 0.541618
vt 0.449049 0.526646
vt 0.278858 0.541429
vt 0.049720 0.520788
vt 0.106276 0.530231
vt 0.505260 0.517505
vt 0.293877 0.541308
vt 0.248147 0.526873
vt 0.399654 0.522012
vt 0.263734 0.526759
vt 0.446794 0.516114
vt 0.278708 0.526582
vt 0.052833 0.513779
vt 0.108453 0.519542
vt 0.502225 0.510445
vt 0.293673 0.526466
vt 0.157000 0.524870
vt 0.309227 0.526278
vt 0.188387 0.526243
vt 0.326087 0.525960
vt 0.211909 0.526632
vt 0.345246 0.525346
vt 0.231219 0.526883
vt 0.368842 0.524341
vt 0.308996 0.511505
vt 0.188789 0.511928
vt 0.325788 0.511256
vt 0.212069 0.511997
vt 0.344886 0.510796
vt 0.231257 0.512122
vt 0.368171 0.510257
vt 0.248102 0.512067
vt 0.398395 0.508795
vt 0.263635 0.511939
vt 0.445209 0.505652
vt 0.278567 0.511765
vt 0.053672 0.511665
vt 0.108940 0.508755
vt 0.500096 0.503143
vt 0.293491 0.511663
vt 0.157867 0.511409
vt 0.398163 0.495681
vt 0.248015 0.497303
vt 0.263522 0.497149
vt 0.444296 0.495290
vt 0.278433 0.496973
vt 0.053393 0.504180
vt 0.108771 0.497883
vt 0.498390 0.495901
vt 0.293339 0.496887
vt 0.158284 0.498015
vt 0.308824 0.496771
vt 0.188893 0.497740
vt 0.325595 0.496610
vt 0.212073 0.497456
vt 0.344661 0.496338
vt 0.231205 0.497426
vt 0.367763 0.496257
vt 0.188660 0.483614
vt 0.308714 0.482042
vt 0.325511 0.481967
vt 0.211903 0.482942
vt 0.344613 0.481874
vt 0.231056 0.482748
vt 0.367716 0.482210
vt 0.247879 0.482552
vt 0.398354 0.482591
vt 0.263391 0.482369
vt 0.445032 0.484910
vt 0.278306 0.482189
vt 0.053338 0.491193
vt 0.109016 0.486993
vt 0.498400 0.493752
vt 0.293217 0.482118
vt 0.158218 0.484611
vt 0.247697 0.467780
vt 0.263245 0.467580
vt 0.446422 0.474430
vt 0.278184 0.467400
vt 0.053782 0.483803
vt 0.108584 0.476208
vt 0.499899 0.486402
vt 0.293121 0.467337
vt 0.157197 0.471187
vt 0.308660 0.467287
vt 0.188217 0.469422
vt 0.325529 0.467276
vt 0.211567 0.468378
vt 0.344754 0.467333
vt 0.230814 0.468034
vt 0.367970 0.468025
vt 0.399089 0.469382
vt 0.308641 0.452477
vt 0.325620 0.452497
vt 0.211071 0.453665
vt 0.345092 0.452641
vt 0.230501 0.453232
vt 0.368439 0.453593
vt 0.247482 0.452958
vt 0.400396 0.455946
vt 0.263094 0.452769
vt 0.448478 0.463849
vt 0.278065 0.452602
vt 0.053400 0.476571
vt 0.107463 0.465501
vt 0.501998 0.479046
vt 0.293034 0.452531
vt 0.155722 0.457658
vt 0.187488 0.454996
vt 0.451236 0.453167
vt 0.262966 0.437942
vt 0.277945 0.437826
vt 0.049949 0.468387
vt 0.105750 0.454623
vt 0.504702 0.471826
vt 0.292926 0.437704
vt 0.154247 0.443826
vt 0.308629 0.437584
vt 0.186370 0.440234
vt 0.325726 0.437570
vt 0.210427 0.438734
vt 0.345413 0.437767
vt 0.230163 0.438300
vt 0.369740 0.438785
vt 0.247263 0.438062
vt 0.401744 0.442143
vt 0.346027 0.422482
vt 0.209665 0.423531
vt 0.229883 0.423285
vt 0.370608 0.423732
vt 0.247066 0.423046
vt 0.404224 0.427842
vt 0.262845 0.423118
vt 0.454795 0.442338
vt 0.277830 0.423229
vt 0.051014 0.467077
vt 0.102291 0.444233
vt 0.508350 0.465056
vt 0.292811 0.422875
vt 0.151689 0.429629
vt 0.308593 0.422553
vt 0.185252 0.425196
vt 0.325788 0.422529
vt 0.047829 0.464296
vt 0.112300 0.424969
vt 0.511235 0.463300
vt 0.444500 0.422999
vt 0.288815 0.399025
vt 0.169067 0.408979
vt 0.300817 0.399395
vt 0.201568 0.404861
vt 0.314568 0.400164
vt 0.223895 0.402388
vt 0.331476 0.401490
vt 0.240746 0.400789
vt 0.353914 0.403607
vt 0.254463 0.399791
vt 0.386654 0.407251
vt 0.266442 0.399219
vt 0.277624 0.398973
vt 0.222394 0.351629
vt 0.354105 0.354025
vt 0.380717 0.359712
vt 0.241940 0.349115
vt 0.414390 0.368338
vt 0.259868 0.347526
vt 0.464232 0.380409
vt 0.277185 0.346787
vt 0.031534 0.404048
vt 0.092162 0.383175
vt 0.525871 0.400623
vt 0.294519 0.347163
vt 0.141210 0.370838
vt 0.312514 0.348385
vt 0.174426 0.361654
vt 0.332190 0.350520
vt 0.200686 0.355531
vt 0.295216 0.329579
vt 0.136339 0.356269
vt 0.314125 0.330823
vt 0.170368 0.345627
vt 0.334526 0.333163
vt 0.196997 0.338724
vt 0.357501 0.337031
vt 0.219720 0.334416
vt 0.384556 0.343484
vt 0.239966 0.331651
vt 0.419093 0.353443
vt 0.258792 0.329991
vt 0.466801 0.370158
vt 0.276991 0.329277
vt 0.039291 0.391378
vt 0.089563 0.373065
vt 0.517802 0.388414
vt 0.361384 0.319331
vt 0.389115 0.326801
vt 0.237813 0.313320
vt 0.424577 0.338453
vt 0.257660 0.311615
vt 0.471107 0.360538
vt 0.276775 0.310959
vt 0.038297 0.387259
vt 0.085832 0.363381
vt 0.518021 0.387340
vt 0.295914 0.311144
vt 0.131174 0.341515
vt 0.315863 0.312371
vt 0.165433 0.329173
vt 0.337137 0.315048
vt 0.192778 0.321242
vt 0.216727 0.316477
vt 0.074457 0.320083
vt 0.129283 0.286616
vt 0.310691 0.246203
vt 0.167233 0.267106
vt 0.331053 0.248780
vt 0.196923 0.256482
vt 0.355412 0.253925
vt 0.220870 0.250588
vt 0.385864 0.263707
vt 0.241007 0.247354
vt 0.425305 0.282310
vt 0.258896 0.245711
vt 0.482186 0.315054
vt 0.275778 0.245232
vt 0.028241 0.386005
vt 0.530625 0.382819
vt 0.292692 0.245153
vt 0.220730 0.212531
vt 0.421798 0.252143
vt 0.458849 0.278207
vt 0.248096 0.206377
vt 0.504758 0.310961
vt 0.275039 0.203623
vt 0.005704 0.349459
vt 0.053175 0.317082
vt 0.554785 0.342828
vt 0.302104 0.205331
vt 0.096547 0.283887
vt 0.329825 0.210447
vt 0.131668 0.256956
vt 0.358775 0.219252
vt 0.163171 0.236774
vt 0.388908 0.232761
vt 0.192400 0.222343
vt 0.336823 0.182851
vt 0.118014 0.238649
vt 0.368739 0.193629
vt 0.150039 0.214934
vt 0.401348 0.210082
vt 0.181561 0.197446
vt 0.435011 0.232920
vt 0.212692 0.185450
vt 0.470985 0.263502
vt 0.243521 0.177958
vt 0.512007 0.301638
vt 0.274452 0.174906
vt 0.005720 0.348867
vt 0.046101 0.308473
vt 0.552963 0.343574
vt 0.305536 0.176645
vt 0.084417 0.269766
vt 0.485114 0.249815
vt 0.202688 0.154907
vt 0.237981 0.145391
vt 0.520295 0.293565
vt 0.273715 0.141586
vt 0.004130 0.346873
vt 0.037847 0.301055
vt 0.556828 0.340598
vt 0.309647 0.143752
vt 0.070332 0.256903
vt 0.345546 0.151655
vt 0.101641 0.220543
vt 0.381256 0.165368
vt 0.133980 0.191766
vt 0.416554 0.185960
vt 0.168071 0.170199
vt 0.450909 0.213707
vt 0.356942 0.115919
vt 0.397403 0.133996
vt 0.114307 0.167841
vt 0.435618 0.160500
vt 0.150319 0.139640
vt 0.470199 0.194828
vt 0.189618 0.119877
vt 0.501489 0.237569
vt 0.230745 0.107433
vt 0.529770 0.286889
vt 0.272794 0.102535
vt 0.002441 0.345782
vt 0.028489 0.295032
vt 0.558766 0.339373
vt 0.315091 0.105407
vt 0.054050 0.245647
vt 0.081977 0.203028
vt 0.520409 0.227302
vt 0.540331 0.281875
vt 0.221080 0.062362
vt 0.271628 0.056033
vt 0.000978 0.345548
vt 0.018157 0.290652
vt 0.560495 0.339130
vt 0.322504 0.059776
vt 0.035382 0.236596
vt 0.372476 0.074138
vt 0.058026 0.186732
vt 0.418830 0.098990
vt 0.088755 0.142853
vt 0.460117 0.133824
vt 0.127453 0.106265
vt 0.493736 0.176955
vt 0.172118 0.079212
vt 0.055475 0.117609
vt 0.492463 0.106236
vt 0.096579 0.069723
vt 0.522350 0.161412
vt 0.147169 0.030056
vt 0.542060 0.219779
vt 0.208055 0.007346
vt 0.551782 0.278850
vt 0.270148 0.000075
vt 0.000145 0.345989
vt 0.007070 0.288207
vt 0.561544 0.339672
vt 0.332624 0.004005
vt 0.014212 0.230452
vt 0.394851 0.023435
vt 0.029483 0.173328
vt 0.447903 0.060321
vt 0.285882 0.999925
vt 0.233357 0.934647
vt 0.284913 0.939426
vt 0.009135 0.715197
vt 0.000075 0.656802
vt 0.020301 0.712326
vt 0.561544 0.648815
vt 0.553682 0.708318
vt 0.542447 0.705681
vt 0.336288 0.932999
vt 0.350992 0.988349
vt 0.039904 0.767145
vt 0.018739 0.774202
vt 0.384895 0.915987
vt 0.408699 0.962699
vt 0.036447 0.832173
vt 0.065322 0.816510
vt 0.460635 0.926930
vt 0.429610 0.889189
vt 0.098837 0.859375
vt 0.067807 0.885419
vt 0.468330 0.853539
vt 0.500123 0.878593
vt 0.108821 0.932541
vt 0.138666 0.893816
vt 0.529801 0.824485
vt 0.500508 0.809699
vt 0.184224 0.919192
vt 0.161914 0.966660
vt 0.524473 0.759643
vt 0.545811 0.766114
vt 0.220431 0.990449
vt 0.443411 0.828260
vt 0.122973 0.833335
vt 0.160291 0.859490
vt 0.476511 0.792885
vt 0.200219 0.878236
vt 0.505659 0.750156
vt 0.241768 0.889002
vt 0.531997 0.701067
vt 0.284156 0.892032
vt 0.001674 0.657118
vt 0.030665 0.707659
vt 0.560606 0.649216
vt 0.326426 0.887650
vt 0.058424 0.757139
vt 0.367611 0.875566
vt 0.088817 0.798990
vt 0.406924 0.855567
vt 0.002324 0.656672
vt 0.040026 0.701186
vt 0.559015 0.648994
vt 0.522560 0.694780
vt 0.319304 0.849582
vt 0.074760 0.745206
vt 0.354795 0.840541
vt 0.107695 0.780663
vt 0.389715 0.825252
vt 0.141837 0.808301
vt 0.423778 0.803813
vt 0.176537 0.828653
vt 0.457092 0.775116
vt 0.211915 0.842823
vt 0.489060 0.738672
vt 0.247672 0.850727
vt 0.283530 0.852849
vt 0.156859 0.784475
vt 0.189134 0.800737
vt 0.408007 0.780445
vt 0.440643 0.756705
vt 0.220759 0.811825
vt 0.474852 0.725484
vt 0.252067 0.817918
vt 0.514268 0.686804
vt 0.282997 0.819525
vt 0.005725 0.654993
vt 0.048342 0.693647
vt 0.559773 0.648199
vt 0.313862 0.816927
vt 0.088516 0.731675
vt 0.344966 0.809834
vt 0.123558 0.761799
vt 0.376235 0.797737
vt 0.309605 0.788408
vt 0.100241 0.716995
vt 0.337165 0.782598
vt 0.136829 0.743032
vt 0.365316 0.772685
vt 0.168997 0.761941
vt 0.395144 0.758278
vt 0.199238 0.775365
vt 0.426776 0.738309
vt 0.227678 0.784360
vt 0.462669 0.711066
vt 0.255405 0.789279
vt 0.506855 0.677783
vt 0.282535 0.790801
vt 0.008189 0.653473
vt 0.055378 0.685087
vt 0.553628 0.644266
vt 0.390999 0.727738
vt 0.226615 0.746015
vt 0.246918 0.748553
vt 0.429472 0.708118
vt 0.264916 0.749571
vt 0.484470 0.674326
vt 0.281871 0.749488
vt 0.006462 0.654145
vt 0.076698 0.681325
vt 0.555408 0.645037
vt 0.298820 0.749027
vt 0.133242 0.713072
vt 0.316777 0.747427
vt 0.172142 0.731332
vt 0.336989 0.744227
vt 0.202385 0.740955
vt 0.361050 0.738370
vt 0.300046 0.683039
vt 0.319880 0.681165
vt 0.168226 0.668771
vt 0.341151 0.677971
vt 0.196239 0.675753
vt 0.364813 0.672901
vt 0.220198 0.680005
vt 0.392896 0.665145
vt 0.241611 0.682472
vt 0.427058 0.652188
vt 0.261521 0.683686
vt 0.472850 0.629989
vt 0.280803 0.683903
vt 0.026918 0.617062
vt 0.086087 0.637110
vt 0.530735 0.607163
vt 0.133292 0.657319
vt 0.036437 0.615165
vt 0.520985 0.605550
s 0
usemtl マテリアル
f 477/1/1 11/2/1 12/3/1
f 480/4/2 20/5/2 481/6/2
f 3/7/3 12/3/3 13/8/3
f 481/6/4 21/9/4 482/10/4
f 3/7/5 14/11/5 4/12/5
f 474/13/6 82/14/6 7/15/6
f 308/16/7 482/10/7 21/9/7
f 4/12/8 15/17/8 5/18/8
f 475/19/9 7/15/9 8/20/9
f 5/18/10 16/21/10 478/22/10
f 1/23/11 8/20/11 9/24/11
f 478/22/12 17/25/12 6/26/12
f 476/27/13 9/24/13 10/28/13
f 6/26/14 18/29/14 479/30/14
f 2/31/15 10/28/15 11/2/15
f 479/30/16 19/32/16 480/4/16
f 17/25/17 33/33/17 18/29/17
f 11/2/18 25/34/18 26/35/18
f 18/29/19 34/36/19 19/32/19
f 12/3/20 26/35/20 27/37/20
f 19/32/21 35/38/21 20/5/21
f 13/8/22 27/37/22 28/39/22
f 20/5/23 36/40/23 21/9/23
f 14/11/24 28/39/24 29/41/24
f 7/15/25 82/42/25 22/43/25
f 308/44/26 21/9/26 36/40/26
f 14/11/27 30/45/27 15/17/27
f 8/20/28 22/43/28 23/46/28
f 15/17/29 31/47/29 16/21/29
f 9/24/30 23/46/30 24/48/30
f 16/21/31 32/49/31 17/25/31
f 10/28/32 24/48/32 25/34/32
f 308/50/33 36/40/33 51/51/33
f 30/45/34 44/52/34 45/53/34
f 22/43/35 38/54/35 23/46/35
f 31/47/36 45/53/36 46/55/36
f 23/46/37 39/56/37 24/48/37
f 32/49/38 46/55/38 47/57/38
f 24/48/39 40/58/39 25/34/39
f 33/33/40 47/57/40 48/59/40
f 25/34/41 41/60/41 26/35/41
f 34/36/42 48/59/42 49/61/42
f 26/35/43 42/62/43 27/37/43
f 35/38/44 49/61/44 50/63/44
f 27/37/45 43/64/45 28/39/45
f 36/40/46 50/63/46 51/51/46
f 28/39/47 44/52/47 29/41/47
f 22/43/48 82/65/48 37/66/48
f 48/59/49 64/67/49 49/61/49
f 41/60/50 57/68/50 42/62/50
f 49/61/51 65/69/51 50/63/51
f 43/64/52 57/68/52 58/70/52
f 51/51/53 65/69/53 66/71/53
f 44/52/54 58/70/54 59/72/54
f 37/66/55 82/73/55 52/74/55
f 308/75/56 51/51/56 66/71/56
f 44/52/57 60/76/57 45/53/57
f 37/66/58 53/77/58 38/54/58
f 45/53/59 61/78/59 46/55/59
f 38/54/60 54/79/60 39/56/60
f 47/57/61 61/78/61 62/80/61
f 39/56/62 55/81/62 40/58/62
f 47/57/63 63/82/63 48/59/63
f 40/58/64 56/83/64 41/60/64
f 52/74/65 68/84/65 53/77/65
f 60/76/66 76/85/66 61/78/66
f 53/77/67 69/86/67 54/79/67
f 62/80/68 76/85/68 77/87/68
f 54/79/69 70/88/69 55/81/69
f 62/80/70 78/89/70 63/82/70
f 56/83/71 70/88/71 71/90/71
f 63/82/72 79/91/72 64/67/72
f 56/83/73 72/92/73 57/68/73
f 65/69/74 79/91/74 80/93/74
f 58/70/75 72/92/75 73/94/75
f 66/71/76 80/93/76 81/95/76
f 59/72/77 73/94/77 74/96/77
f 52/74/78 82/97/78 67/98/78
f 308/99/79 66/71/79 81/95/79
f 59/72/80 75/100/80 60/76/80
f 71/90/81 88/101/81 72/92/81
f 79/91/82 96/102/82 80/93/82
f 73/94/83 88/101/83 89/103/83
f 81/95/84 96/102/84 97/104/84
f 74/96/85 89/103/85 90/105/85
f 67/98/86 82/106/86 83/107/86
f 308/108/87 81/95/87 97/104/87
f 74/96/88 91/109/88 75/100/88
f 67/98/89 84/110/89 68/84/89
f 75/100/90 92/111/90 76/85/90
f 68/84/91 85/112/91 69/86/91
f 77/87/92 92/111/92 93/113/92
f 69/86/93 86/114/93 70/88/93
f 77/87/94 94/115/94 78/89/94
f 71/90/95 86/114/95 87/116/95
f 78/89/96 95/117/96 79/91/96
f 91/109/97 107/118/97 92/111/97
f 84/110/98 100/119/98 85/112/98
f 93/113/99 107/118/99 108/120/99
f 85/112/100 101/121/100 86/114/100
f 93/113/101 109/122/101 94/115/101
f 87/116/102 101/121/102 102/123/102
f 95/117/103 109/122/103 110/124/103
f 87/116/104 103/125/104 88/101/104
f 96/102/105 110/124/105 111/126/105
f 89/103/106 103/125/106 104/127/106
f 97/104/107 111/126/107 112/128/107
f 90/105/108 104/127/108 105/129/108
f 83/107/109 82/130/109 98/131/109
f 308/132/110 97/104/110 112/128/110
f 90/105/111 106/133/111 91/109/111
f 84/110/112 98/131/112 99/134/112
f 110/124/113 126/135/113 111/126/113
f 104/127/114 118/136/114 119/137/114
f 112/128/115 126/135/115 127/138/115
f 105/129/116 119/137/116 120/139/116
f 98/131/117 82/140/117 113/141/117
f 308/142/118 112/128/118 127/138/118
f 105/129/119 121/143/119 106/133/119
f 99/134/120 113/141/120 114/144/120
f 106/133/121 122/145/121 107/118/121
f 99/134/122 115/146/122 100/119/122
f 108/120/123 122/145/123 123/147/123
f 100/119/124 116/148/124 101/121/124
f 108/120/125 124/149/125 109/122/125
f 102/123/126 116/148/126 117/150/126
f 110/124/127 124/149/127 125/151/127
f 102/123/128 118/136/128 103/125/128
f 114/144/129 130/152/129 115/146/129
f 123/147/130 137/153/130 138/154/130
f 115/146/131 131/155/131 116/148/131
f 123/147/132 139/156/132 124/149/132
f 117/150/133 131/155/133 132/157/133
f 125/151/134 139/156/134 140/158/134
f 117/150/135 133/159/135 118/136/135
f 125/151/136 141/160/136 126/135/136
f 119/137/137 133/159/137 134/161/137
f 126/135/138 142/162/138 127/138/138
f 120/139/139 134/161/139 135/163/139
f 113/141/140 82/164/140 128/165/140
f 308/166/141 127/138/141 142/162/141
f 120/139/142 136/167/142 121/143/142
f 113/141/143 129/168/143 114/144/143
f 121/143/144 137/153/144 122/145/144
f 134/161/145 148/169/145 149/170/145
f 141/160/146 157/171/146 142/162/146
f 135/163/147 149/170/147 150/172/147
f 128/165/148 82/173/148 143/174/148
f 308/175/149 142/162/149 157/171/149
f 135/163/150 151/176/150 136/167/150
f 128/165/151 144/177/151 129/168/151
f 136/167/152 152/178/152 137/153/152
f 130/152/153 144/177/153 145/179/153
f 138/154/154 152/178/154 153/180/154
f 130/152/155 146/181/155 131/155/155
f 138/154/156 154/182/156 139/156/156
f 132/157/157 146/181/157 147/183/157
f 140/158/158 154/182/158 155/184/158
f 132/157/159 148/169/159 133/159/159
f 140/158/160 156/185/160 141/160/160
f 153/180/161 167/186/161 168/187/161
f 145/179/162 161/188/162 146/181/162
f 153/180/163 169/189/163 154/182/163
f 147/183/164 161/188/164 162/190/164
f 155/184/165 169/189/165 170/191/165
f 147/183/166 163/192/166 148/169/166
f 155/184/167 171/193/167 156/185/167
f 149/170/168 163/192/168 164/194/168
f 156/185/169 172/195/169 157/171/169
f 150/172/170 164/194/170 165/196/170
f 143/174/171 82/197/171 158/198/171
f 308/199/172 157/171/172 172/195/172
f 150/172/173 166/200/173 151/176/173
f 143/174/174 159/201/174 144/177/174
f 151/176/175 167/186/175 152/178/175
f 145/179/176 159/201/176 160/202/176
f 171/193/177 187/203/177 172/195/177
f 165/196/178 179/204/178 180/205/178
f 158/198/179 82/206/179 173/207/179
f 308/208/180 172/195/180 187/203/180
f 165/196/181 181/209/181 166/200/181
f 158/198/182 174/210/182 159/201/182
f 166/200/183 182/211/183 167/186/183
f 159/201/184 175/212/184 160/202/184
f 168/187/185 182/211/185 183/213/185
f 160/202/186 176/214/186 161/188/186
f 168/187/187 184/215/187 169/189/187
f 162/190/188 176/214/188 177/216/188
f 169/189/189 185/217/189 170/191/189
f 162/190/190 178/218/190 163/192/190
f 171/193/191 185/217/191 186/219/191
f 164/194/192 178/218/192 179/204/192
f 183/213/193 199/220/193 184/215/193
f 177/216/194 191/221/194 192/222/194
f 185/217/195 199/220/195 200/223/195
f 177/216/196 193/224/196 178/218/196
f 185/217/197 201/225/197 186/219/197
f 179/204/198 193/224/198 194/226/198
f 186/219/199 202/227/199 187/203/199
f 180/205/200 194/226/200 195/228/200
f 173/207/201 82/229/201 188/230/201
f 308/231/202 187/203/202 202/227/202
f 180/205/203 196/232/203 181/209/203
f 174/210/204 188/230/204 189/233/204
f 181/209/205 197/234/205 182/211/205
f 175/212/206 189/233/206 190/235/206
f 183/213/207 197/234/207 198/236/207
f 175/212/208 191/221/208 176/214/208
f 188/230/209 82/237/209 203/238/209
f 308/239/210 202/227/210 217/240/210
f 195/228/211 211/241/211 196/232/211
f 189/233/212 203/238/212 204/242/212
f 196/232/213 212/243/213 197/234/213
f 190/235/214 204/242/214 205/244/214
f 197/234/215 213/245/215 198/236/215
f 191/221/216 205/244/216 206/246/216
f 198/236/217 214/247/217 199/220/217
f 192/222/218 206/246/218 207/248/218
f 199/220/219 215/249/219 200/223/219
f 193/224/220 207/248/220 208/250/220
f 200/223/221 216/251/221 201/225/221
f 194/226/222 208/250/222 209/252/222
f 201/225/223 217/240/223 202/227/223
f 195/228/224 209/252/224 210/253/224
f 206/246/225 222/254/225 207/248/225
f 215/249/226 229/255/226 230/256/226
f 207/248/227 223/257/227 208/250/227
f 216/251/228 230/256/228 231/258/228
f 208/250/229 224/259/229 209/252/229
f 217/240/230 231/258/230 232/260/230
f 209/252/231 225/261/231 210/253/231
f 203/238/232 82/262/232 218/263/232
f 308/264/233 217/240/233 232/260/233
f 211/241/234 225/261/234 226/265/234
f 203/238/235 219/266/235 204/242/235
f 212/243/236 226/265/236 227/267/236
f 204/242/237 220/268/237 205/244/237
f 213/245/238 227/267/238 228/269/238
f 205/244/239 221/270/239 206/246/239
f 214/247/240 228/269/240 229/255/240
f 225/261/241 241/271/241 226/265/241
f 218/263/242 234/272/242 219/266/242
f 226/265/243 242/273/243 227/267/243
f 220/268/244 234/272/244 235/274/244
f 228/269/245 242/273/245 243/275/245
f 220/268/246 236/276/246 221/270/246
f 228/269/247 244/277/247 229/255/247
f 222/254/248 236/276/248 237/278/248
f 230/256/249 244/277/249 245/279/249
f 222/254/250 238/280/250 223/257/250
f 230/256/251 246/281/251 231/258/251
f 224/259/252 238/280/252 239/282/252
f 232/260/253 246/281/253 247/283/253
f 225/261/254 239/282/254 240/284/254
f 218/263/255 82/285/255 233/286/255
f 308/287/256 232/260/256 247/283/256
f 245/279/257 259/288/257 260/289/257
f 237/278/258 253/290/258 238/280/258
f 245/279/259 261/291/259 246/281/259
f 239/282/260 253/290/260 254/292/260
f 246/281/261 262/293/261 247/283/261
f 240/284/262 254/292/262 255/294/262
f 233/286/263 82/295/263 248/296/263
f 308/297/264 247/283/264 262/293/264
f 240/284/265 256/298/265 241/271/265
f 233/286/266 249/299/266 234/272/266
f 241/271/267 257/300/267 242/273/267
f 234/272/268 250/301/268 235/274/268
f 243/275/269 257/300/269 258/302/269
f 235/274/270 251/303/270 236/276/270
f 243/275/271 259/288/271 244/277/271
f 237/278/272 251/303/272 252/304/272
f 249/299/273 263/305/273 264/306/273
f 256/298/274 272/307/274 257/300/274
f 250/301/275 264/306/275 265/308/275
f 257/300/276 273/309/276 258/302/276
f 251/303/277 265/308/277 266/310/277
f 258/302/278 274/311/278 259/288/278
f 252/304/279 266/310/279 267/312/279
f 259/288/280 275/313/280 260/289/280
f 253/290/281 267/312/281 268/314/281
f 260/289/282 276/315/282 261/291/282
f 254/292/283 268/314/283 269/316/283
f 261/291/284 277/317/284 262/293/284
f 255/294/285 269/316/285 270/318/285
f 248/296/286 82/319/286 263/305/286
f 308/320/287 262/293/287 277/317/287
f 255/294/288 271/321/288 256/298/288
f 267/312/289 283/322/289 268/314/289
f 276/315/290 290/323/290 291/324/290
f 268/314/291 284/325/291 269/316/291
f 277/317/292 291/324/292 292/326/292
f 269/316/293 285/327/293 270/318/293
f 263/305/294 82/328/294 278/329/294
f 308/330/295 277/317/295 292/326/295
f 271/321/296 285/327/296 286/331/296
f 263/305/297 279/332/297 264/306/297
f 272/307/298 286/331/298 287/333/298
f 264/306/299 280/334/299 265/308/299
f 273/309/300 287/333/300 288/335/300
f 265/308/301 281/336/301 266/310/301
f 274/311/302 288/335/302 289/337/302
f 266/310/303 282/338/303 267/312/303
f 275/313/304 289/337/304 290/323/304
f 286/331/305 302/339/305 287/333/305
f 279/332/306 295/340/306 280/334/306
f 288/335/307 302/339/307 303/341/307
f 280/334/308 296/342/308 281/336/308
f 288/335/309 304/343/309 289/337/309
f 282/338/310 296/342/310 297/344/310
f 290/323/311 304/343/311 305/345/311
f 282/338/312 298/346/312 283/322/312
f 290/323/313 306/347/313 291/324/313
f 284/325/314 298/346/314 299/348/314
f 291/324/315 307/349/315 292/326/315
f 285/327/316 299/348/316 300/350/316
f 278/329/317 82/351/317 293/352/317
f 308/353/318 292/326/318 307/349/318
f 285/327/319 301/354/319 286/331/319
f 278/329/320 294/355/320 279/332/320
f 305/345/321 322/356/321 306/347/321
f 299/348/322 314/357/322 315/358/322
f 307/349/323 322/356/323 323/359/323
f 300/350/324 315/358/324 316/360/324
f 293/352/325 82/361/325 309/362/325
f 308/363/326 307/349/326 323/359/326
f 300/350/327 317/364/327 301/354/327
f 293/352/328 310/365/328 294/355/328
f 301/354/329 318/366/329 302/339/329
f 294/355/330 311/367/330 295/340/330
f 303/341/331 318/366/331 319/368/331
f 295/340/332 312/369/332 296/342/332
f 303/341/333 320/370/333 304/343/333
f 297/344/334 312/369/334 313/371/334
f 305/345/335 320/370/335 321/372/335
f 297/344/336 314/357/336 298/346/336
f 319/368/337 333/373/337 334/374/337
f 311/367/338 327/375/338 312/369/338
f 319/368/339 335/376/339 320/370/339
f 312/369/340 328/377/340 313/371/340
f 321/372/341 335/376/341 336/378/341
f 313/371/342 329/379/342 314/357/342
f 321/372/343 337/380/343 322/356/343
f 315/358/344 329/379/344 330/381/344
f 323/359/345 337/380/345 338/382/345
f 316/360/346 330/381/346 331/383/346
f 309/362/347 82/384/347 324/385/347
f 308/386/348 323/359/348 338/382/348
f 316/360/349 332/387/349 317/364/349
f 309/362/350 325/388/350 310/365/350
f 317/364/351 333/373/351 318/366/351
f 310/365/352 326/389/352 311/367/352
f 338/382/353 352/390/353 353/391/353
f 331/383/354 345/392/354 346/393/354
f 324/385/355 82/394/355 339/395/355
f 308/396/356 338/382/356 353/391/356
f 331/383/357 347/397/357 332/387/357
f 324/385/358 340/398/358 325/388/358
f 332/387/359 348/399/359 333/373/359
f 325/388/360 341/400/360 326/389/360
f 334/374/361 348/399/361 349/401/361
f 326/389/362 342/402/362 327/375/362
f 334/374/363 350/403/363 335/376/363
f 328/377/364 342/402/364 343/404/364
f 336/378/365 350/403/365 351/405/365
f 328/377/366 344/406/366 329/379/366
f 336/378/367 352/390/367 337/380/367
f 330/381/368 344/406/368 345/392/368
f 341/400/369 357/407/369 342/402/369
f 349/401/370 365/408/370 350/403/370
f 343/404/371 357/407/371 358/409/371
f 351/405/372 365/408/372 366/410/372
f 343/404/373 359/411/373 344/406/373
f 351/405/374 367/412/374 352/390/374
f 345/392/375 359/411/375 360/413/375
f 353/391/376 367/412/376 368/414/376
f 346/393/377 360/413/377 361/415/377
f 339/395/378 82/416/378 354/417/378
f 308/418/379 353/391/379 368/414/379
f 346/393/380 362/419/380 347/397/380
f 339/395/381 355/420/381 340/398/381
f 347/397/382 363/421/382 348/399/382
f 341/400/383 355/420/383 356/422/383
f 349/401/384 363/421/384 364/423/384
f 361/424/385 375/425/385 376/426/385
f 354/427/386 82/428/386 369/429/386
f 308/430/387 368/431/387 383/432/387
f 361/424/388 377/433/388 362/434/388
f 354/427/389 370/435/389 355/436/389
f 362/434/390 378/437/390 363/438/390
f 356/439/391 370/435/391 371/440/391
f 364/441/392 378/437/392 379/442/392
f 356/439/393 372/443/393 357/444/393
f 364/441/394 380/445/394 365/446/394
f 358/447/395 372/443/395 373/448/395
f 366/449/396 380/445/396 381/450/396
f 358/447/397 374/451/397 359/452/397
f 366/449/398 382/453/398 367/454/398
f 360/455/399 374/451/399 375/425/399
f 367/454/400 383/432/400 368/431/400
f 379/442/401 395/456/401 380/445/401
f 373/448/402 387/457/402 388/458/402
f 381/450/403 395/456/403 396/459/403
f 373/448/404 389/460/404 374/451/404
f 381/450/405 397/461/405 382/453/405
f 375/425/406 389/460/406 390/462/406
f 382/453/407 398/463/407 383/432/407
f 376/426/408 390/462/408 391/464/408
f 369/429/409 82/465/409 384/466/409
f 308/467/410 383/432/410 398/463/410
f 376/426/411 392/468/411 377/433/411
f 369/429/412 385/469/412 370/435/412
f 377/433/413 393/470/413 378/437/413
f 371/440/414 385/469/414 386/471/414
f 379/442/415 393/470/415 394/472/415
f 371/440/416 387/457/416 372/443/416
f 384/466/417 82/473/417 399/474/417
f 308/475/418 398/463/418 413/476/418
f 391/464/419 407/477/419 392/468/419
f 385/469/420 399/474/420 400/478/420
f 392/468/421 408/479/421 393/470/421
f 385/469/422 401/480/422 386/471/422
f 394/472/423 408/479/423 409/481/423
f 386/471/424 402/482/424 387/457/424
f 394/472/425 410/483/425 395/456/425
f 388/458/426 402/482/426 403/484/426
f 396/459/427 410/483/427 411/485/427
f 388/458/428 404/486/428 389/460/428
f 397/461/429 411/485/429 412/487/429
f 390/462/430 404/486/430 405/488/430
f 397/461/431 413/476/431 398/463/431
f 391/464/432 405/488/432 406/489/432
f 403/484/433 417/490/433 418/491/433
f 411/485/434 425/492/434 426/493/434
f 403/484/435 419/494/435 404/486/435
f 411/485/436 427/495/436 412/487/436
f 405/488/437 419/494/437 420/496/437
f 412/487/438 428/497/438 413/476/438
f 406/489/439 420/496/439 421/498/439
f 399/474/440 82/499/440 414/500/440
f 308/501/441 413/476/441 428/497/441
f 406/489/442 422/502/442 407/477/442
f 399/474/443 415/503/443 400/478/443
f 407/477/444 423/504/444 408/479/444
f 401/480/445 415/503/445 416/505/445
f 409/481/446 423/504/446 424/506/446
f 401/480/447 417/490/447 402/482/447
f 409/481/448 425/492/448 410/483/448
f 421/498/449 437/507/449 422/502/449
f 414/500/450 430/508/450 415/503/450
f 422/502/451 438/509/451 423/504/451
f 416/505/452 430/508/452 431/510/452
f 424/506/453 438/509/453 439/511/453
f 416/505/454 432/512/454 417/490/454
f 424/506/455 440/513/455 425/492/455
f 418/491/456 432/512/456 433/514/456
f 426/493/457 440/513/457 441/515/457
f 418/491/458 434/516/458 419/494/458
f 426/493/459 442/517/459 427/495/459
f 420/496/460 434/516/460 435/518/460
f 428/497/461 442/517/461 443/519/461
f 421/498/462 435/518/462 436/520/462
f 414/500/463 82/521/463 429/522/463
f 308/523/464 428/497/464 443/519/464
f 440/513/465 456/524/465 441/515/465
f 434/516/466 448/525/466 449/526/466
f 441/515/467 457/527/467 442/517/467
f 435/518/468 449/526/468 450/528/468
f 442/517/469 458/529/469 443/519/469
f 436/520/470 450/528/470 451/530/470
f 429/522/471 82/531/471 444/532/471
f 308/533/472 443/519/472 458/529/472
f 436/520/473 452/534/473 437/507/473
f 430/508/474 444/532/474 445/535/474
f 437/507/475 453/536/475 438/509/475
f 431/510/476 445/535/476 446/537/476
f 438/509/477 454/538/477 439/511/477
f 432/512/478 446/537/478 447/539/478
f 439/511/479 455/540/479 440/513/479
f 433/514/480 447/539/480 448/525/480
f 453/536/481 467/541/481 468/542/481
f 445/535/482 461/543/482 446/537/482
f 454/538/483 468/542/483 469/544/483
f 446/537/484 462/545/484 447/539/484
f 455/540/485 469/544/485 470/546/485
f 447/539/486 463/547/486 448/525/486
f 456/524/487 470/546/487 471/548/487
f 448/525/488 464/549/488 449/526/488
f 457/527/489 471/548/489 472/550/489
f 449/526/490 465/551/490 450/528/490
f 458/529/491 472/550/491 473/552/491
f 450/528/492 466/553/492 451/530/492
f 444/532/493 82/554/493 459/555/493
f 308/556/494 458/529/494 473/552/494
f 452/534/495 466/553/495 467/541/495
f 444/532/496 460/557/496 445/535/496
f 471/548/497 481/6/497 472/550/497
f 465/551/498 477/1/498 3/7/498
f 472/550/499 482/10/499 473/552/499
f 466/553/500 3/7/500 4/12/500
f 459/555/501 82/558/501 474/13/501
f 308/559/502 473/552/502 482/10/502
f 466/553/503 5/18/503 467/541/503
f 460/557/504 474/13/504 475/19/504
f 467/541/505 478/22/505 468/542/505
f 461/543/506 475/19/506 1/23/506
f 468/542/507 6/26/507 469/544/507
f 462/545/508 1/23/508 476/27/508
f 469/544/509 479/30/509 470/546/509
f 463/547/510 476/27/510 2/31/510
f 471/548/511 479/30/511 480/4/511
f 464/549/512 2/31/512 477/1/512
f 477/1/1 2/31/1 11/2/1
f 480/4/2 19/32/2 20/5/2
f 3/7/3 477/1/3 12/3/3
f 481/6/4 20/5/4 21/9/4
f 3/7/5 13/8/5 14/11/5
f 4/12/8 14/11/8 15/17/8
f 475/19/9 474/13/9 7/15/9
f 5/18/10 15/17/10 16/21/10
f 1/23/11 475/19/11 8/20/11
f 478/22/12 16/21/12 17/25/12
f 476/27/13 1/23/13 9/24/13
f 6/26/14 17/25/14 18/29/14
f 2/31/15 476/27/15 10/28/15
f 479/30/16 18/29/16 19/32/16
f 17/25/17 32/49/17 33/33/17
f 11/2/18 10/28/18 25/34/18
f 18/29/19 33/33/19 34/36/19
f 12/3/20 11/2/20 26/35/20
f 19/32/21 34/36/21 35/38/21
f 13/8/22 12/3/22 27/37/22
f 20/5/23 35/38/23 36/40/23
f 14/11/24 13/8/24 28/39/24
f 14/11/27 29/41/27 30/45/27
f 8/20/28 7/15/28 22/43/28
f 15/17/29 30/45/29 31/47/29
f 9/24/30 8/20/30 23/46/30
f 16/21/31 31/47/31 32/49/31
f 10/28/32 9/24/32 24/48/32
f 30/45/34 29/41/34 44/52/34
f 22/43/35 37/66/35 38/54/35
f 31/47/36 30/45/36 45/53/36
f 23/46/37 38/54/37 39/56/37
f 32/49/38 31/47/38 46/55/38
f 24/48/39 39/56/39 40/58/39
f 33/33/40 32/49/40 47/57/40
f 25/34/41 40/58/41 41/60/41
f 34/36/42 33/33/42 48/59/42
f 26/35/43 41/60/43 42/62/43
f 35/38/44 34/36/44 49/61/44
f 27/37/45 42/62/45 43/64/45
f 36/40/513 35/38/513 50/63/513
f 28/39/47 43/64/47 44/52/47
f 48/59/49 63/82/49 64/67/49
f 41/60/50 56/83/50 57/68/50
f 49/61/51 64/67/51 65/69/51
f 43/64/52 42/62/52 57/68/52
f 51/51/514 50/63/514 65/69/514
f 44/52/54 43/64/54 58/70/54
f 44/52/57 59/72/57 60/76/57
f 37/66/58 52/74/58 53/77/58
f 45/53/59 60/76/59 61/78/59
f 38/54/60 53/77/60 54/79/60
f 47/57/61 46/55/61 61/78/61
f 39/56/62 54/79/62 55/81/62
f 47/57/63 62/80/63 63/82/63
f 40/58/64 55/81/64 56/83/64
f 52/74/65 67/98/65 68/84/65
f 60/76/66 75/100/66 76/85/66
f 53/77/67 68/84/67 69/86/67
f 62/80/68 61/78/68 76/85/68
f 54/79/69 69/86/69 70/88/69
f 62/80/70 77/87/70 78/89/70
f 56/83/71 55/81/71 70/88/71
f 63/82/72 78/89/72 79/91/72
f 56/83/73 71/90/73 72/92/73
f 65/69/74 64/67/74 79/91/74
f 58/70/75 57/68/75 72/92/75
f 66/71/515 65/69/515 80/93/515
f 59/72/77 58/70/77 73/94/77
f 59/72/80 74/96/80 75/100/80
f 71/90/81 87/116/81 88/101/81
f 79/91/82 95/117/82 96/102/82
f 73/94/83 72/92/83 88/101/83
f 81/95/516 80/93/516 96/102/516
f 74/96/85 73/94/85 89/103/85
f 74/96/88 90/105/88 91/109/88
f 67/98/89 83/107/89 84/110/89
f 75/100/90 91/109/90 92/111/90
f 68/84/91 84/110/91 85/112/91
f 77/87/92 76/85/92 92/111/92
f 69/86/93 85/112/93 86/114/93
f 77/87/94 93/113/94 94/115/94
f 71/90/95 70/88/95 86/114/95
f 78/89/96 94/115/96 95/117/96
f 91/109/97 106/133/97 107/118/97
f 84/110/98 99/134/98 100/119/98
f 93/113/99 92/111/99 107/118/99
f 85/112/100 100/119/100 101/121/100
f 93/113/101 108/120/101 109/122/101
f 87/116/102 86/114/102 101/121/102
f 95/117/103 94/115/103 109/122/103
f 87/116/104 102/123/104 103/125/104
f 96/102/105 95/117/105 110/124/105
f 89/103/106 88/101/106 103/125/106
f 97/104/517 96/102/517 111/126/517
f 90/105/108 89/103/108 104/127/108
f 90/105/111 105/129/111 106/133/111
f 84/110/112 83/107/112 98/131/112
f 110/124/113 125/151/113 126/135/113
f 104/127/114 103/125/114 118/136/114
f 112/128/518 111/126/518 126/135/518
f 105/129/116 104/127/116 119/137/116
f 105/129/119 120/139/119 121/143/119
f 99/134/120 98/131/120 113/141/120
f 106/133/121 121/143/121 122/145/121
f 99/134/122 114/144/122 115/146/122
f 108/120/123 107/118/123 122/145/123
f 100/119/124 115/146/124 116/148/124
f 108/120/125 123/147/125 124/149/125
f 102/123/126 101/121/126 116/148/126
f 110/124/127 109/122/127 124/149/127
f 102/123/128 117/150/128 118/136/128
f 114/144/129 129/168/129 130/152/129
f 123/147/130 122/145/130 137/153/130
f 115/146/131 130/152/131 131/155/131
f 123/147/132 138/154/132 139/156/132
f 117/150/133 116/148/133 131/155/133
f 125/151/134 124/149/134 139/156/134
f 117/150/135 132/157/135 133/159/135
f 125/151/136 140/158/136 141/160/136
f 119/137/137 118/136/137 133/159/137
f 126/135/519 141/160/519 142/162/519
f 120/139/139 119/137/139 134/161/139
f 120/139/142 135/163/142 136/167/142
f 113/141/143 128/165/143 129/168/143
f 121/143/144 136/167/144 137/153/144
f 134/161/145 133/159/145 148/169/145
f 141/160/520 156/185/520 157/171/520
f 135/163/147 134/161/147 149/170/147
f 135/163/150 150/172/150 151/176/150
f 128/165/151 143/174/151 144/177/151
f 136/167/152 151/176/152 152/178/152
f 130/152/153 129/168/153 144/177/153
f 138/154/154 137/153/154 152/178/154
f 130/152/155 145/179/155 146/181/155
f 138/154/156 153/180/156 154/182/156
f 132/157/157 131/155/157 146/181/157
f 140/158/158 139/156/158 154/182/158
f 132/157/159 147/183/159 148/169/159
f 140/158/160 155/184/160 156/185/160
f 153/180/161 152/178/161 167/186/161
f 145/179/162 160/202/162 161/188/162
f 153/180/163 168/187/163 169/189/163
f 147/183/164 146/181/164 161/188/164
f 155/184/165 154/182/165 169/189/165
f 147/183/166 162/190/166 163/192/166
f 155/184/167 170/191/167 171/193/167
f 149/170/168 148/169/168 163/192/168
f 156/185/521 171/193/521 172/195/521
f 150/172/170 149/170/170 164/194/170
f 150/172/173 165/196/173 166/200/173
f 143/174/174 158/198/174 159/201/174
f 151/176/175 166/200/175 167/186/175
f 145/179/176 144/177/176 159/201/176
f 171/193/522 186/219/522 187/203/522
f 165/196/178 164/194/178 179/204/178
f 165/196/181 180/205/181 181/209/181
f 158/198/182 173/207/182 174/210/182
f 166/200/183 181/209/183 182/211/183
f 159/201/184 174/210/184 175/212/184
f 168/187/185 167/186/185 182/211/185
f 160/202/186 175/212/186 176/214/186
f 168/187/187 183/213/187 184/215/187
f 162/190/188 161/188/188 176/214/188
f 169/189/189 184/215/189 185/217/189
f 162/190/190 177/216/190 178/218/190
f 171/193/191 170/191/191 185/217/191
f 164/194/192 163/192/192 178/218/192
f 183/213/193 198/236/193 199/220/193
f 177/216/194 176/214/194 191/221/194
f 185/217/195 184/215/195 199/220/195
f 177/216/196 192/222/196 193/224/196
f 185/217/197 200/223/197 201/225/197
f 179/204/198 178/218/198 193/224/198
f 186/219/523 201/225/523 202/227/523
f 180/205/200 179/204/200 194/226/200
f 180/205/203 195/228/203 196/232/203
f 174/210/204 173/207/204 188/230/204
f 181/209/205 196/232/205 197/234/205
f 175/212/206 174/210/206 189/233/206
f 183/213/207 182/211/207 197/234/207
f 175/212/208 190/235/208 191/221/208
f 195/228/211 210/253/211 211/241/211
f 189/233/212 188/230/212 203/238/212
f 196/232/213 211/241/213 212/243/213
f 190/235/214 189/233/214 204/242/214
f 197/234/215 212/243/215 213/245/215
f 191/221/216 190/235/216 205/244/216
f 198/236/217 213/245/217 214/247/217
f 192/222/218 191/221/218 206/246/218
f 199/220/219 214/247/219 215/249/219
f 193/224/220 192/222/220 207/248/220
f 200/223/221 215/249/221 216/251/221
f 194/226/222 193/224/222 208/250/222
f 201/225/524 216/251/524 217/240/524
f 195/228/224 194/226/224 209/252/224
f 206/246/225 221/270/225 222/254/225
f 215/249/226 214/247/226 229/255/226
f 207/248/227 222/254/227 223/257/227
f 216/251/228 215/249/228 230/256/228
f 208/250/229 223/257/229 224/259/229
f 217/240/230 216/251/230 231/258/230
f 209/252/231 224/259/231 225/261/231
f 211/241/234 210/253/234 225/261/234
f 203/238/235 218/263/235 219/266/235
f 212/243/236 211/241/236 226/265/236
f 204/242/237 219/266/237 220/268/237
f 213/245/238 212/243/238 227/267/238
f 205/244/239 220/268/239 221/270/239
f 214/247/240 213/245/240 228/269/240
f 225/261/241 240/284/241 241/271/241
f 218/263/242 233/286/242 234/272/242
f 226/265/243 241/271/243 242/273/243
f 220/268/244 219/266/244 234/272/244
f 228/269/245 227/267/245 242/273/245
f 220/268/246 235/274/246 236/276/246
f 228/269/247 243/275/247 244/277/247
f 222/254/248 221/270/248 236/276/248
f 230/256/249 229/255/249 244/277/249
f 222/254/250 237/278/250 238/280/250
f 230/256/251 245/279/251 246/281/251
f 224/259/252 223/257/252 238/280/252
f 232/260/253 231/258/253 246/281/253
f 225/261/254 224/259/254 239/282/254
f 245/279/257 244/277/257 259/288/257
f 237/278/258 252/304/258 253/290/258
f 245/279/259 260/289/259 261/291/259
f 239/282/260 238/280/260 253/290/260
f 246/281/261 261/291/261 262/293/261
f 240/284/525 239/282/525 254/292/525
f 240/284/526 255/294/526 256/298/526
f 233/286/266 248/296/266 249/299/266
f 241/271/267 256/298/267 257/300/267
f 234/272/268 249/299/268 250/301/268
f 243/275/269 242/273/269 257/300/269
f 235/274/270 250/301/270 251/303/270
f 243/275/271 258/302/271 259/288/271
f 237/278/272 236/276/272 251/303/272
f 249/299/273 248/296/273 263/305/273
f 256/298/274 271/321/274 272/307/274
f 250/301/275 249/299/275 264/306/275
f 257/300/276 272/307/276 273/309/276
f 251/303/277 250/301/277 265/308/277
f 258/302/278 273/309/278 274/311/278
f 252/304/279 251/303/279 266/310/279
f 259/288/280 274/311/280 275/313/280
f 253/290/281 252/304/281 267/312/281
f 260/289/282 275/313/282 276/315/282
f 254/292/283 253/290/283 268/314/283
f 261/291/527 276/315/527 277/317/527
f 255/294/285 254/292/285 269/316/285
f 255/294/288 270/318/288 271/321/288
f 267/312/289 282/338/289 283/322/289
f 276/315/290 275/313/290 290/323/290
f 268/314/291 283/322/291 284/325/291
f 277/317/528 276/315/528 291/324/528
f 269/316/293 284/325/293 285/327/293
f 271/321/296 270/318/296 285/327/296
f 263/305/297 278/329/297 279/332/297
f 272/307/298 271/321/298 286/331/298
f 264/306/299 279/332/299 280/334/299
f 273/309/300 272/307/300 287/333/300
f 265/308/301 280/334/301 281/336/301
f 274/311/302 273/309/302 288/335/302
f 266/310/303 281/336/303 282/338/303
f 275/313/304 274/311/304 289/337/304
f 286/331/305 301/354/305 302/339/305
f 279/332/306 294/355/306 295/340/306
f 288/335/307 287/333/307 302/339/307
f 280/334/308 295/340/308 296/342/308
f 288/335/309 303/341/309 304/343/309
f 282/338/310 281/336/310 296/342/310
f 290/323/311 289/337/311 304/343/311
f 282/338/312 297/344/312 298/346/312
f 290/323/313 305/345/313 306/347/313
f 284/325/314 283/322/314 298/346/314
f 291/324/529 306/347/529 307/349/529
f 285/327/316 284/325/316 299/348/316
f 285/327/319 300/350/319 301/354/319
f 278/329/320 293/352/320 294/355/320
f 305/345/321 321/372/321 322/356/321
f 299/348/322 298/346/322 314/357/322
f 307/349/530 306/347/530 322/356/530
f 300/350/324 299/348/324 315/358/324
f 300/350/327 316/360/327 317/364/327
f 293/352/328 309/362/328 310/365/328
f 301/354/329 317/364/329 318/366/329
f 294/355/330 310/365/330 311/367/330
f 303/341/331 302/339/331 318/366/331
f 295/340/332 311/367/332 312/369/332
f 303/341/333 319/368/333 320/370/333
f 297/344/334 296/342/334 312/369/334
f 305/345/335 304/343/335 320/370/335
f 297/344/336 313/371/336 314/357/336
f 319/368/337 318/366/337 333/373/337
f 311/367/338 326/389/338 327/375/338
f 319/368/339 334/374/339 335/376/339
f 312/369/340 327/375/340 328/377/340
f 321/372/341 320/370/341 335/376/341
f 313/371/342 328/377/342 329/379/342
f 321/372/343 336/378/343 337/380/343
f 315/358/344 314/357/344 329/379/344
f 323/359/531 322/356/531 337/380/531
f 316/360/346 315/358/346 330/381/346
f 316/360/349 331/383/349 332/387/349
f 309/362/350 324/385/350 325/388/350
f 317/364/351 332/387/351 333/373/351
f 310/365/352 325/388/352 326/389/352
f 338/382/532 337/380/532 352/390/532
f 331/383/354 330/381/354 345/392/354
f 331/383/357 346/393/357 347/397/357
f 324/385/358 339/395/358 340/398/358
f 332/387/359 347/397/359 348/399/359
f 325/388/360 340/398/360 341/400/360
f 334/374/361 333/373/361 348/399/361
f 326/389/362 341/400/362 342/402/362
f 334/374/363 349/401/363 350/403/363
f 328/377/364 327/375/364 342/402/364
f 336/378/365 335/376/365 350/403/365
f 328/377/366 343/404/366 344/406/366
f 336/378/367 351/405/367 352/390/367
f 330/381/368 329/379/368 344/406/368
f 341/400/369 356/422/369 357/407/369
f 349/401/370 364/423/370 365/408/370
f 343/404/371 342/402/371 357/407/371
f 351/405/372 350/403/372 365/408/372
f 343/404/373 358/409/373 359/411/373
f 351/405/374 366/410/374 367/412/374
f 345/392/375 344/406/375 359/411/375
f 353/391/533 352/390/533 367/412/533
f 346/393/377 345/392/377 360/413/377
f 346/393/380 361/415/380 362/419/380
f 339/395/381 354/417/381 355/420/381
f 347/397/382 362/419/382 363/421/382
f 341/400/383 340/398/383 355/420/383
f 349/401/384 348/399/384 363/421/384
f 361/424/385 360/455/385 375/425/385
f 361/424/388 376/426/388 377/433/388
f 354/427/389 369/429/389 370/435/389
f 362/434/390 377/433/390 378/437/390
f 356/439/391 355/436/391 370/435/391
f 364/441/392 363/438/392 378/437/392
f 356/439/393 371/440/393 372/443/393
f 364/441/394 379/442/394 380/445/394
f 358/447/395 357/444/395 372/443/395
f 366/449/396 365/446/396 380/445/396
f 358/447/397 373/448/397 374/451/397
f 366/449/398 381/450/398 382/453/398
f 360/455/399 359/452/399 374/451/399
f 367/454/534 382/453/534 383/432/534
f 379/442/401 394/472/401 395/456/401
f 373/448/402 372/443/402 387/457/402
f 381/450/403 380/445/403 395/456/403
f 373/448/404 388/458/404 389/460/404
f 381/450/405 396/459/405 397/461/405
f 375/425/406 374/451/406 389/460/406
f 382/453/535 397/461/535 398/463/535
f 376/426/408 375/425/408 390/462/408
f 376/426/411 391/464/411 392/468/411
f 369/429/412 384/466/412 385/469/412
f 377/433/413 392/468/413 393/470/413
f 371/440/414 370/435/414 385/469/414
f 379/442/415 378/437/415 393/470/415
f 371/440/416 386/471/416 387/457/416
f 391/464/419 406/489/419 407/477/419
f 385/469/420 384/466/420 399/474/420
f 392/468/421 407/477/421 408/479/421
f 385/469/422 400/478/422 401/480/422
f 394/472/423 393/470/423 408/479/423
f 386/471/424 401/480/424 402/482/424
f 394/472/425 409/481/425 410/483/425
f 388/458/426 387/457/426 402/482/426
f 396/459/427 395/456/427 410/483/427
f 388/458/428 403/484/428 404/486/428
f 397/461/429 396/459/429 411/485/429
f 390/462/430 389/460/430 404/486/430
f 397/461/536 412/487/536 413/476/536
f 391/464/432 390/462/432 405/488/432
f 403/484/433 402/482/433 417/490/433
f 411/485/434 410/483/434 425/492/434
f 403/484/435 418/491/435 419/494/435
f 411/485/436 426/493/436 427/495/436
f 405/488/437 404/486/437 419/494/437
f 412/487/537 427/495/537 428/497/537
f 406/489/439 405/488/439 420/496/439
f 406/489/442 421/498/442 422/502/442
f 399/474/443 414/500/443 415/503/443
f 407/477/444 422/502/444 423/504/444
f 401/480/445 400/478/445 415/503/445
f 409/481/446 408/479/446 423/504/446
f 401/480/447 416/505/447 417/490/447
f 409/481/448 424/506/448 425/492/448
f 421/498/449 436/520/449 437/507/449
f 414/500/450 429/522/450 430/508/450
f 422/502/451 437/507/451 438/509/451
f 416/505/452 415/503/452 430/508/452
f 424/506/453 423/504/453 438/509/453
f 416/505/454 431/510/454 432/512/454
f 424/506/455 439/511/455 440/513/455
f 418/491/456 417/490/456 432/512/456
f 426/493/457 425/492/457 440/513/457
f 418/491/458 433/514/458 434/516/458
f 426/493/459 441/515/459 442/517/459
f 420/496/460 419/494/460 434/516/460
f 428/497/538 427/495/538 442/517/538
f 421/498/462 420/496/462 435/518/462
f 440/513/465 455/540/465 456/524/465
f 434/516/466 433/514/466 448/525/466
f 441/515/467 456/524/467 457/527/467
f 435/518/468 434/516/468 449/526/468
f 442/517/539 457/527/539 458/529/539
f 436/520/470 435/518/470 450/528/470
f 436/520/473 451/530/473 452/534/473
f 430/508/474 429/522/474 444/532/474
f 437/507/475 452/534/475 453/536/475
f 431/510/476 430/508/476 445/535/476
f 438/509/477 453/536/477 454/538/477
f 432/512/478 431/510/478 446/537/478
f 439/511/479 454/538/479 455/540/479
f 433/514/480 432/512/480 447/539/480
f 453/536/481 452/534/481 467/541/481
f 445/535/482 460/557/482 461/543/482
f 454/538/483 453/536/483 468/542/483
f 446/537/484 461/543/484 462/545/484
f 455/540/485 454/538/485 469/544/485
f 447/539/486 462/545/486 463/547/486
f 456/524/487 455/540/487 470/546/487
f 448/525/488 463/547/488 464/549/488
f 457/527/489 456/524/489 471/548/489
f 449/526/490 464/549/490 465/551/490
f 458/529/540 457/527/540 472/550/540
f 450/528/492 465/551/492 466/553/492
f 452/534/495 451/530/495 466/553/495
f 444/532/496 459/555/496 460/557/496
f 471/548/497 480/4/497 481/6/497
f 465/551/498 464/549/498 477/1/498
f 472/550/541 481/6/541 482/10/541
f 466/553/542 465/551/542 3/7/542
f 466/553/543 4/12/543 5/18/543
f 460/557/544 459/555/544 474/13/544
f 467/541/505 5/18/505 478/22/505
f 461/543/506 460/557/506 475/19/506
f 468/542/507 478/22/507 6/26/507
f 462/545/545 461/543/545 1/23/545
f 469/544/509 6/26/509 479/30/509
f 463/547/510 462/545/510 476/27/510
f 471/548/511 470/546/511 479/30/511
f 464/549/512 463/547/512 2/31/512
