# Blender 4.4.1
# www.blender.org
mtllib cloud.mtl
o 平面
v 0.000000 -1.948529 1.948529
v 0.000000 -1.948529 -1.948529
v 0.000000 1.948529 1.948529
v 0.000000 1.948529 -1.948529
v 0.000000 -0.313640 -1.948529
v 0.000000 1.948529 0.826459
v 0.000000 -1.434933 -1.434933
v 0.000000 1.282410 1.282410
v 0.000000 -1.422558 -1.298545
v 0.000000 -1.373576 -1.063017
v 0.000000 -1.437780 -0.953140
v 0.000000 -1.471663 -0.859734
v 0.000000 -1.487505 -0.655408
v 0.000000 -1.405114 -0.514345
v 0.000000 -1.387450 -0.383890
v 0.000000 -1.369731 -0.233532
v 0.000000 -1.321307 -0.046649
v 0.000000 -1.232772 0.039956
v 0.000000 -1.265706 0.249681
v 0.000000 -1.322851 0.386310
v 0.000000 -1.274128 0.602056
v 0.000000 -1.277017 0.768180
v 0.000000 -1.202186 0.847091
v 0.000000 -1.347097 0.991258
v 0.000000 -1.248702 1.026561
v 0.000000 -1.350047 1.084190
v 0.000000 -1.325425 1.236267
v 0.000000 -1.280978 1.378116
v 0.000000 -1.199155 1.558694
v 0.000000 -1.067874 1.546462
v 0.000000 -0.953494 1.554218
v 0.000000 -0.892733 1.671647
v 0.000000 -0.795298 1.758377
v 0.000000 -0.615273 1.764627
v 0.000000 -0.425871 1.806453
v 0.000000 -0.303574 1.761433
v 0.000000 -0.056459 1.798627
v 0.000000 0.231377 1.623791
v 0.000000 0.306313 1.557392
v 0.000000 0.459176 1.596747
v 0.000000 0.527276 1.527385
v 0.000000 0.685782 1.547187
v 0.000000 0.721276 1.462645
v 0.000000 0.904802 1.472296
v 0.000000 1.001161 1.435265
v 0.000000 1.141926 1.413401
v 0.000000 1.596540 0.946517
v 0.000000 1.677042 0.693775
v 0.000000 1.564272 0.186786
v 0.000000 1.460193 -0.203286
v 0.000000 1.434951 -0.309957
v 0.000000 1.486300 -0.490693
v 0.000000 1.161066 -1.009209
v 0.000000 1.009755 -0.988124
v 0.000000 1.045452 -1.225680
v 0.000000 0.942201 -1.230388
v 0.000000 0.884118 -1.375039
v 0.000000 0.777236 -1.465135
v 0.000000 0.692806 -1.574895
v 0.000000 0.549466 -1.636670
v 0.000000 0.435138 -1.576180
v 0.000000 0.336871 -1.545177
v 0.000000 0.271098 -1.714419
v 0.000000 0.235010 -1.629485
v 0.000000 0.175696 -1.729668
v 0.000000 0.003944 -1.848899
v 0.000000 -0.128536 -1.838633
v 0.000000 -0.642613 -1.849856
v 0.000000 -0.861076 -1.824177
v 0.000000 -0.989064 -1.693108
v 0.000000 -1.223277 -1.694452
v 0.000000 -1.290756 -1.591612
v 0.000000 -1.382887 -1.579960
vn 1.0000 -0.0000 -0.0000
vt 1.000000 0.000000
vt 1.000000 0.419519
vt 0.974680 0.335103
vt 0.968091 0.279045
vt 0.934458 0.246202
vt 0.934803 0.186102
vt 0.908414 0.168787
vt 0.905424 0.145146
vt 0.868209 0.131791
vt 0.170929 0.829071
vt 0.137316 0.793023
vt 0.131705 0.756902
vt 0.122203 0.732176
vt 0.124680 0.685082
vt 0.102986 0.675974
vt 0.108067 0.635301
vt 0.090269 0.617826
vt 0.100367 0.578601
vt 0.083329 0.559372
vt 0.038465 0.485512
vt 0.048010 0.422102
vt 0.036457 0.390720
vt 0.047190 0.342119
vt 0.048794 0.295924
vt 0.071049 0.270921
vt 0.101182 0.255330
vt 0.103172 0.225980
vt 0.100033 0.192292
vt 0.146370 0.171296
vt 0.182769 0.159891
vt 0.221793 0.153573
vt 0.236580 0.179578
vt 0.245639 0.154330
vt 0.282633 0.191515
vt 0.302882 0.172313
vt 0.345510 0.173054
vt 0.400871 0.160551
vt 0.435931 0.175215
vt 0.489747 0.183666
vt 0.511970 0.160948
vt 0.559925 0.148522
vt 0.598508 0.143975
vt 0.631983 0.139442
vt 0.668180 0.118300
vt 0.720611 0.122366
vt 0.744579 0.131060
vt 0.772774 0.147535
vt 0.833212 0.134966
vt 0.971800 0.467017
vt 0.974434 0.501012
vt 0.943839 0.545084
vt 0.918132 0.560304
vt 0.939927 0.569565
vt 0.896498 0.586442
vt 0.904454 0.611658
vt 0.919976 0.640995
vt 0.904124 0.677777
vt 0.875959 0.699441
vt 0.852840 0.726868
vt 0.815722 0.741772
vt 0.814514 0.768267
vt 0.753556 0.759107
vt 0.758967 0.797934
vt 0.625914 0.881390
vt 0.579536 0.868214
vt 0.552164 0.874691
vt 0.452070 0.901398
vt 0.321975 0.930335
vt 0.257120 0.909678
vt 0.287928 1.000000
vt 0.000000 1.000000
vt 0.000000 0.000000
vt 1.000000 1.000000
s 1
usemtl マテリアル
f 2/1/1 5/2/1 68/3/1 69/4/1 70/5/1 71/6/1 72/7/1 73/8/1 7/9/1
f 8/10/1 46/11/1 45/12/1 44/13/1 43/14/1 42/15/1 41/16/1 40/17/1 39/18/1 38/19/1 37/20/1 36/21/1 35/22/1 34/23/1 33/24/1 32/25/1 31/26/1 30/27/1 29/28/1 28/29/1 27/30/1 26/31/1 25/32/1 24/33/1 23/34/1 22/35/1 21/36/1 20/37/1 19/38/1 18/39/1 17/40/1 16/41/1 15/42/1 14/43/1 13/44/1 12/45/1 11/46/1 10/47/1 9/48/1 7/9/1
f 7/9/1 73/8/1 72/7/1 71/6/1 70/5/1 69/4/1 68/3/1 5/2/1 67/49/1 66/50/1 65/51/1 64/52/1 63/53/1 62/54/1 61/55/1 60/56/1 59/57/1 58/58/1 57/59/1 56/60/1 55/61/1 54/62/1 53/63/1 52/64/1 51/65/1 50/66/1 49/67/1 48/68/1 47/69/1 8/10/1
f 6/70/1 3/71/1 1/72/1 2/1/1 7/9/1 9/48/1 10/47/1 11/46/1 12/45/1 13/44/1 14/43/1 15/42/1 16/41/1 17/40/1 18/39/1 19/38/1 20/37/1 21/36/1 22/35/1 23/34/1 24/33/1 25/32/1 26/31/1 27/30/1 28/29/1 29/28/1 30/27/1 31/26/1 32/25/1 33/24/1 34/23/1 35/22/1 36/21/1 37/20/1 38/19/1 39/18/1 40/17/1 41/16/1 42/15/1 43/14/1 44/13/1 45/12/1 46/11/1 8/10/1 47/69/1 48/68/1 49/67/1 50/66/1 51/65/1 52/64/1 53/63/1 54/62/1 55/61/1 56/60/1 57/59/1 58/58/1 59/57/1 60/56/1 61/55/1 62/54/1 63/53/1 64/52/1 65/51/1 66/50/1 67/49/1 5/2/1 4/73/1
