# Blender 4.4.1
# www.blender.org
mtllib slash.mtl
o 円柱
v 0.048647 -0.956298 0.029835
v 0.048647 1.043702 0.029835
v 0.047861 -0.956298 0.039605
v 0.047861 1.043702 0.039605
v 0.045184 -0.956298 0.049034
v 0.045184 1.043702 0.049034
v 0.040719 -0.956298 0.057760
v 0.040719 1.043702 0.057760
v 0.034637 -0.956298 0.065447
v 0.034637 1.043702 0.065447
v 0.027173 -0.956298 0.071799
v 0.027173 1.043702 0.071799
v 0.018613 -0.956298 0.076574
v 0.018613 1.043702 0.076574
v 0.009286 -0.956298 0.079587
v 0.009286 1.043702 0.079587
v -0.000450 -0.956298 0.080722
v -0.000450 1.043702 0.080722
v -0.010220 -0.956298 0.079936
v -0.010220 1.043702 0.079936
v -0.019649 -0.956298 0.077259
v -0.019649 1.043702 0.077259
v -0.028375 -0.956298 0.072794
v -0.028375 1.043702 0.072794
v -0.036062 -0.956298 0.066712
v -0.036062 1.043702 0.066712
v -0.042415 -0.956298 0.059248
v -0.042415 1.043702 0.059248
v -0.047189 -0.956298 0.050688
v -0.047189 1.043702 0.050688
v -0.050202 -0.956298 0.041361
v -0.050202 1.043702 0.041361
v -0.051337 -0.956298 0.031625
v -0.051337 1.043702 0.031625
v -0.050551 -0.956298 0.021855
v -0.050551 1.043702 0.021855
v -0.047874 -0.956298 0.012426
v -0.047874 1.043702 0.012426
v -0.043409 -0.956298 0.003700
v -0.043409 1.043702 0.003700
v -0.037328 -0.956298 -0.003987
v -0.037328 1.043702 -0.003987
v -0.029864 -0.956298 -0.010340
v -0.029864 1.043702 -0.010340
v -0.021303 -0.956298 -0.015114
v -0.021303 1.043702 -0.015114
v -0.011976 -0.956298 -0.018127
v -0.011976 1.043702 -0.018127
v -0.002240 -0.956298 -0.019262
v -0.002240 1.043702 -0.019262
v 0.007530 -0.956298 -0.018476
v 0.007530 1.043702 -0.018476
v 0.016959 -0.956298 -0.015799
v 0.016959 1.043702 -0.015799
v 0.025685 -0.956298 -0.011334
v 0.025685 1.043702 -0.011334
v 0.033372 -0.956298 -0.005253
v 0.033372 1.043702 -0.005253
v 0.039724 -0.956298 0.002212
v 0.039724 1.043702 0.002212
v 0.044499 -0.956298 0.010772
v 0.044499 1.043702 0.010772
v 0.047512 -0.956298 0.020099
v 0.047512 1.043702 0.020099
v 0.048647 0.043702 0.029835
v 0.047861 0.043702 0.039605
v 0.045184 0.043702 0.049034
v 0.040719 0.043702 0.057760
v 0.034637 0.043702 0.065447
v 0.027173 0.043702 0.071799
v 0.018613 0.043702 0.076574
v 0.009286 0.043702 0.079587
v -0.000450 0.043702 0.080722
v -0.010220 0.043702 0.079936
v -0.019649 0.043702 0.077259
v -0.028375 0.043702 0.072794
v -0.036062 0.043702 0.066712
v -0.042415 0.043702 0.059248
v -0.047189 0.043702 0.050688
v -0.050202 0.043702 0.041361
v -0.051337 0.043702 0.031625
v -0.050551 0.043702 0.021855
v -0.047874 0.043702 0.012426
v -0.043409 0.043702 0.003700
v -0.037328 0.043702 -0.003987
v -0.029864 0.043702 -0.010340
v -0.021303 0.043702 -0.015114
v -0.011976 0.043702 -0.018127
v -0.002240 0.043702 -0.019262
v 0.007530 0.043702 -0.018476
v 0.016959 0.043702 -0.015799
v 0.025685 0.043702 -0.011334
v 0.033372 0.043702 -0.005253
v 0.039724 0.043702 0.002212
v 0.044499 0.043702 0.010772
v 0.047512 0.043702 0.020099
v 0.047861 -0.456298 0.039605
v 0.045184 -0.456298 0.049034
v 0.040719 -0.456298 0.057760
v 0.034637 -0.456298 0.065447
v 0.027173 -0.456298 0.071799
v 0.018613 -0.456298 0.076574
v 0.009286 -0.456298 0.079587
v -0.000450 -0.456298 0.080722
v -0.010220 -0.456298 0.079936
v -0.019649 -0.456298 0.077259
v -0.028375 -0.456298 0.072794
v -0.036062 -0.456298 0.066712
v -0.042415 -0.456298 0.059248
v -0.047189 -0.456298 0.050688
v -0.050202 -0.456298 0.041361
v -0.051337 -0.456298 0.031625
v -0.050551 -0.456298 0.021855
v -0.047874 -0.456298 0.012426
v -0.043409 -0.456298 0.003700
v -0.037328 -0.456298 -0.003987
v -0.029864 -0.456298 -0.010340
v -0.021303 -0.456298 -0.015114
v -0.011976 -0.456298 -0.018127
v -0.002240 -0.456298 -0.019262
v 0.007530 -0.456298 -0.018476
v 0.016959 -0.456298 -0.015799
v 0.025685 -0.456298 -0.011334
v 0.033372 -0.456298 -0.005253
v 0.039724 -0.456298 0.002212
v 0.044499 -0.456298 0.010772
v 0.047512 -0.456298 0.020099
v 0.048647 -0.456298 0.029835
v 0.047861 -0.706298 0.039605
v 0.045184 -0.706298 0.049034
v 0.040719 -0.706298 0.057760
v 0.034637 -0.706298 0.065447
v 0.027173 -0.706298 0.071799
v 0.018613 -0.706298 0.076574
v 0.009286 -0.706298 0.079587
v -0.000450 -0.706298 0.080722
v -0.010220 -0.706298 0.079936
v -0.019649 -0.706298 0.077259
v -0.028375 -0.706298 0.072794
v -0.036062 -0.706298 0.066712
v -0.042415 -0.706298 0.059248
v -0.047189 -0.706298 0.050688
v -0.050202 -0.706298 0.041361
v -0.051337 -0.706298 0.031625
v -0.050551 -0.706298 0.021855
v -0.047874 -0.706298 0.012426
v -0.043409 -0.706298 0.003700
v -0.037328 -0.706298 -0.003987
v -0.029864 -0.706298 -0.010340
v -0.021303 -0.706298 -0.015114
v -0.011976 -0.706298 -0.018127
v -0.002240 -0.706298 -0.019262
v 0.007530 -0.706298 -0.018476
v 0.016959 -0.706298 -0.015799
v 0.025685 -0.706298 -0.011334
v 0.033372 -0.706298 -0.005253
v 0.039724 -0.706298 0.002212
v 0.044499 -0.706298 0.010772
v 0.047512 -0.706298 0.020099
v 0.048647 -0.706298 0.029835
v 0.048647 0.543702 0.029835
v 0.047861 0.543702 0.039605
v 0.045184 0.543702 0.049034
v 0.040719 0.543702 0.057760
v 0.034637 0.543702 0.065447
v 0.027173 0.543702 0.071799
v 0.018613 0.543702 0.076574
v 0.009286 0.543702 0.079587
v -0.000450 0.543702 0.080722
v -0.010220 0.543702 0.079936
v -0.019649 0.543702 0.077259
v -0.028375 0.543702 0.072794
v -0.036062 0.543702 0.066712
v -0.042415 0.543702 0.059248
v -0.047189 0.543702 0.050688
v -0.050202 0.543702 0.041361
v -0.051337 0.543702 0.031625
v -0.050551 0.543702 0.021855
v -0.047874 0.543702 0.012426
v -0.043409 0.543702 0.003700
v -0.037328 0.543702 -0.003987
v -0.029864 0.543702 -0.010340
v -0.021303 0.543702 -0.015114
v -0.011976 0.543702 -0.018127
v -0.002240 0.543702 -0.019262
v 0.007530 0.543702 -0.018476
v 0.016959 0.543702 -0.015799
v 0.025685 0.543702 -0.011334
v 0.033372 0.543702 -0.005253
v 0.039724 0.543702 0.002212
v 0.044499 0.543702 0.010772
v 0.047512 0.543702 0.020099
v -0.135146 0.885702 -0.366201
v -0.136908 1.085701 -0.464588
v 0.064822 0.885702 -0.369781
v 0.063060 1.085701 -0.468168
v -0.120780 0.885702 0.436176
v -0.119006 1.085701 0.535252
v 0.079188 0.885702 0.432595
v 0.080962 1.085701 0.531672
v 0.072005 0.885702 0.031407
v 0.062335 1.085702 0.031925
v -0.127963 0.885702 0.034987
v -0.118281 1.085702 0.035159
v 0.066816 1.085702 0.282191
v -0.124367 0.885702 0.235827
v 0.075601 0.885702 0.232246
v -0.113800 1.085702 0.285424
v 0.068413 0.885702 -0.169187
v -0.122757 1.085702 -0.214801
v 0.057860 1.085702 -0.218035
v -0.131555 0.885702 -0.165607
v -0.089423 0.985702 -0.611431
v 0.010349 0.985702 -0.613217
v 0.033003 0.985702 0.678487
v -0.065823 0.985702 0.680257
v -0.157143 0.985702 0.035837
v 0.101196 0.985702 0.031211
v -0.151354 0.985702 0.359156
v 0.106985 0.985702 0.354530
v 0.095415 0.985702 -0.291712
v -0.162925 0.985702 -0.287087
v -0.072751 0.906310 -0.403223
v -0.032089 4.600207 -0.403951
v 0.016640 0.906310 -0.404824
v -0.024022 4.600207 -0.404097
v -0.023157 0.906158 0.428196
v -0.016335 3.213052 0.248389
v -0.003148 0.906462 0.428497
v -0.016400 3.211770 0.249172
v -0.072751 2.753259 -0.403223
v 0.016640 2.753259 -0.404824
v -0.013896 1.819684 0.357274
v -0.014956 1.819766 0.357172
v -0.072751 3.676733 -0.403223
v 0.016640 3.676733 -0.404824
v -0.015853 2.635443 0.294053
v -0.015275 2.636328 0.293291
v 0.016640 1.829784 -0.404824
v -0.013182 1.722463 0.364834
v -0.015399 1.722478 0.364757
v -0.072751 1.829784 -0.403223
v 0.066571 0.906970 0.015604
v -0.020044 3.905989 -0.077465
v -0.107716 0.905649 0.012286
v -0.024379 3.906630 -0.077778
v -0.085740 2.406432 -0.031758
v 0.042925 2.406187 -0.033702
v -0.069336 3.156530 -0.054513
v 0.025717 3.156088 -0.055839
v 0.060132 1.656287 -0.011565
v -0.102144 1.656333 -0.009004
vn 0.9968 -0.0000 0.0802
vn 0.9620 -0.0000 0.2731
vn 0.8902 -0.0000 0.4555
vn 0.7842 -0.0000 0.6205
vn 0.6481 -0.0000 0.7616
vn 0.4872 -0.0000 0.8733
vn 0.3074 -0.0000 0.9516
vn 0.1158 -0.0000 0.9933
vn -0.0802 -0.0000 0.9968
vn -0.2731 -0.0000 0.9620
vn -0.4555 -0.0000 0.8902
vn -0.6205 -0.0000 0.7842
vn -0.7615 -0.0000 0.6482
vn -0.8734 -0.0000 0.4871
vn -0.9516 -0.0000 0.3074
vn -0.9933 -0.0000 0.1158
vn -0.9968 -0.0000 -0.0802
vn -0.9620 -0.0000 -0.2731
vn -0.8902 -0.0000 -0.4555
vn -0.7843 -0.0000 -0.6204
vn -0.6482 -0.0000 -0.7615
vn -0.4870 -0.0000 -0.8734
vn -0.3074 -0.0000 -0.9516
vn -0.1158 -0.0000 -0.9933
vn 0.0802 -0.0000 -0.9968
vn 0.2731 -0.0000 -0.9620
vn 0.4555 -0.0000 -0.8902
vn 0.6204 -0.0000 -0.7843
vn 0.7616 -0.0000 -0.6480
vn 0.8733 -0.0000 -0.4872
vn -0.0000 1.0000 -0.0000
vn 0.9516 -0.0000 -0.3074
vn 0.9933 -0.0000 -0.1158
vn -0.0000 -1.0000 -0.0000
vn -0.0101 0.8250 -0.5651
vn 0.9654 -0.1393 0.2205
vn 0.0101 0.8249 0.5652
vn -0.9660 -0.1373 -0.2189
vn -0.9319 0.3623 0.0167
vn 0.9319 0.3623 -0.0167
vn -0.8457 0.4837 0.2253
vn 0.8465 0.4829 -0.2240
vn -0.9598 -0.2802 0.0172
vn 0.9598 -0.2802 -0.0172
vn 0.0068 -0.9259 0.3778
vn -0.0068 -0.9255 -0.3787
vn -0.0180 -0.0000 -0.9998
vn -0.0179 -0.0000 -0.9998
vn 0.9908 0.0114 0.1347
vn -0.7669 -0.0506 -0.6398
vn -0.7665 -0.0515 -0.6402
vn -0.7666 -0.0509 -0.6401
vn -0.9927 0.0627 0.1033
vn 0.0120 -0.9999 0.0008
vn 0.0091 -1.0000 -0.0000
vn 0.0030 -1.0000 -0.0009
vn -0.0027 0.4257 0.9049
vn -0.0024 0.4257 0.9048
vn -0.9976 0.0198 -0.0657
vn -0.0338 0.0772 0.9964
vn -0.0341 0.0775 0.9964
vn 0.9821 0.0261 0.1865
vn 0.9821 0.0220 0.1873
vn 0.9820 0.0161 0.1884
vn -0.9997 0.0214 -0.0150
vn -0.0899 0.0777 0.9929
vn -0.0901 0.0776 0.9929
vn -0.0900 0.0777 0.9929
vn 0.9860 0.0152 0.1662
vn 0.9857 0.0251 0.1665
vn -0.0162 0.0776 0.9969
vn -0.9966 0.0040 -0.0820
vn -0.9971 0.0008 -0.0759
vn -0.9965 0.0050 -0.0838
vn -0.9797 0.0248 0.1991
vn 0.9938 0.0007 -0.1111
vn 0.9932 0.0035 -0.1164
vn 0.9930 0.0043 -0.1179
vn 0.9985 0.0214 -0.0507
vn -0.9794 0.0154 0.2014
vn 0.9947 0.0198 -0.1013
vn -0.9747 0.0222 0.2226
vn -0.9748 0.0233 0.2218
vn -0.9747 0.0218 0.2224
vn -0.8952 -0.1981 -0.3992
vn 0.0061 -1.0000 0.0002
vn -0.0000 -1.0000 -0.0016
vn -0.9853 0.0114 0.1703
vn 0.9957 0.0627 0.0677
vn -0.0000 1.0000 0.0002
vn -0.0000 1.0000 -0.0001
vn -0.0000 1.0000 0.0001
vn -0.0000 1.0000 -0.0003
vn -0.0000 1.0000 -0.0002
vn -0.0000 1.0000 0.0003
vn -0.0000 -1.0000 -0.0001
vn -0.0000 -1.0000 -0.0002
vn -0.0000 -1.0000 0.0001
vn 0.9393 0.3388 -0.0533
vn -0.9393 0.3388 0.0532
vn -0.8716 -0.4899 -0.0182
vn 0.8734 -0.4867 0.0182
vn 0.9623 -0.0956 -0.2546
vn -0.9618 -0.0967 0.2562
vn -0.9708 -0.0956 -0.2200
vn 0.9703 -0.0967 0.2216
vn 0.9901 0.0640 0.1250
vn -0.9950 -0.0096 -0.0992
vn -0.9922 0.0438 0.1165
vn 0.0152 -0.9999 0.0013
vn 0.0163 0.4257 0.9047
vn -0.9994 -0.0000 -0.0349
vn -0.0898 0.0778 0.9929
vn 0.9824 0.0280 0.1848
vn -1.0000 -0.0000 0.0098
vn -0.7663 -0.0515 -0.6405
vn 0.9871 0.0273 0.1579
vn 0.9819 0.0153 0.1886
vn -0.0341 0.0778 0.9964
vn -0.9972 -0.0000 -0.0744
vn -0.9745 0.0136 0.2238
vn 0.9939 -0.0000 -0.1099
vn 0.9997 -0.0000 -0.0260
vn -0.9808 0.0273 0.1933
vn 0.9975 -0.0000 -0.0706
vn -0.9752 0.0280 0.2197
vn -0.9850 0.0640 0.1604
vn 0.9958 0.0438 0.0809
vt 0.798508 0.385787
vt 0.775177 0.394934
vt 0.775177 0.385787
vt 0.798508 0.394934
vt 0.775177 0.404081
vt 0.798508 0.404081
vt 0.775177 0.413229
vt 0.798508 0.413229
vt 0.775177 0.422376
vt 0.798508 0.422376
vt 0.775177 0.431524
vt 0.798508 0.431524
vt 0.775177 0.440671
vt 0.798508 0.440671
vt 0.775177 0.449819
vt 0.798508 0.449819
vt 0.775177 0.458966
vt 0.798508 0.458966
vt 0.775177 0.468113
vt 0.798508 0.468113
vt 0.775177 0.477261
vt 0.798508 0.477261
vt 0.775177 0.486408
vt 0.798508 0.486408
vt 0.775177 0.495556
vt 0.798508 0.495556
vt 0.775177 0.504703
vt 0.798508 0.504703
vt 0.775177 0.513851
vt 0.798508 0.513851
vt 0.775177 0.522998
vt 0.798508 0.522998
vt 0.775177 0.532145
vt 0.798508 0.532145
vt 0.775177 0.541293
vt 0.798508 0.541293
vt 0.775177 0.550440
vt 0.798508 0.550440
vt 0.775177 0.559588
vt 0.798508 0.559588
vt 0.775177 0.568735
vt 0.798508 0.568735
vt 0.775177 0.577882
vt 0.798508 0.577882
vt 0.775177 0.587030
vt 0.798508 0.587030
vt 0.775177 0.596177
vt 0.798508 0.596177
vt 0.775177 0.605325
vt 0.798508 0.605325
vt 0.775177 0.614472
vt 0.798508 0.614472
vt 0.775177 0.623619
vt 0.798508 0.623619
vt 0.775177 0.632767
vt 0.798508 0.632767
vt 0.775177 0.641914
vt 0.798508 0.641914
vt 0.775177 0.651062
vt 0.798508 0.651062
vt 0.775177 0.660209
vt 0.722019 0.782355
vt 0.787691 0.788823
vt 0.781223 0.854496
vt 0.798508 0.660209
vt 0.775177 0.669357
vt 0.798508 0.669357
vt 0.775177 0.678504
vt 0.792773 0.747243
vt 0.729624 0.766398
vt 0.710468 0.703250
vt 0.751846 0.669357
vt 0.728515 0.678504
vt 0.728515 0.669357
vt 0.751846 0.660209
vt 0.728515 0.660209
vt 0.751846 0.651062
vt 0.728515 0.651062
vt 0.751846 0.641914
vt 0.728515 0.641914
vt 0.751846 0.632767
vt 0.728515 0.632767
vt 0.751846 0.623619
vt 0.728515 0.623619
vt 0.751846 0.614472
vt 0.728515 0.614472
vt 0.751846 0.605325
vt 0.728515 0.605325
vt 0.751846 0.596177
vt 0.728515 0.596177
vt 0.751846 0.587030
vt 0.728515 0.587030
vt 0.751846 0.577882
vt 0.728515 0.577882
vt 0.751846 0.568735
vt 0.728515 0.568735
vt 0.751846 0.559588
vt 0.728515 0.559588
vt 0.751846 0.550440
vt 0.728515 0.550440
vt 0.751846 0.541293
vt 0.728515 0.541293
vt 0.751846 0.532145
vt 0.728515 0.532145
vt 0.751846 0.522998
vt 0.728515 0.522998
vt 0.751846 0.513851
vt 0.728515 0.513851
vt 0.751846 0.504703
vt 0.728515 0.504703
vt 0.751846 0.495556
vt 0.728515 0.495556
vt 0.751846 0.486408
vt 0.728515 0.486408
vt 0.751846 0.477261
vt 0.728515 0.477261
vt 0.751846 0.468113
vt 0.728515 0.468113
vt 0.751846 0.458966
vt 0.728515 0.458966
vt 0.751846 0.449819
vt 0.728515 0.449819
vt 0.751846 0.440671
vt 0.728515 0.440671
vt 0.751846 0.431524
vt 0.728515 0.431524
vt 0.751846 0.422376
vt 0.728515 0.422376
vt 0.751846 0.413229
vt 0.728515 0.413229
vt 0.751846 0.404081
vt 0.728515 0.404081
vt 0.751846 0.394934
vt 0.728515 0.394934
vt 0.751846 0.385787
vt 0.728515 0.385787
vt 0.716849 0.394934
vt 0.716849 0.385787
vt 0.716849 0.404081
vt 0.716849 0.413229
vt 0.716849 0.422376
vt 0.716849 0.431524
vt 0.716849 0.440671
vt 0.716849 0.449819
vt 0.716849 0.458966
vt 0.716849 0.468113
vt 0.716849 0.477261
vt 0.716849 0.486408
vt 0.716849 0.495556
vt 0.716849 0.504703
vt 0.716849 0.513851
vt 0.716849 0.522998
vt 0.716849 0.532145
vt 0.716849 0.541293
vt 0.716849 0.550440
vt 0.716849 0.559588
vt 0.716849 0.568735
vt 0.716849 0.577882
vt 0.716849 0.587030
vt 0.716849 0.596177
vt 0.716849 0.605325
vt 0.716849 0.614472
vt 0.716849 0.623619
vt 0.716849 0.632767
vt 0.716849 0.641914
vt 0.716849 0.651062
vt 0.716849 0.660209
vt 0.716849 0.669357
vt 0.716849 0.678504
vt 0.705183 0.678504
vt 0.705183 0.669357
vt 0.705183 0.660209
vt 0.705183 0.651062
vt 0.705183 0.641914
vt 0.705183 0.632767
vt 0.705183 0.623619
vt 0.705183 0.614472
vt 0.705183 0.605325
vt 0.705183 0.596177
vt 0.705183 0.587030
vt 0.705183 0.577882
vt 0.705183 0.568735
vt 0.705183 0.559588
vt 0.705183 0.550440
vt 0.705183 0.541293
vt 0.705183 0.532145
vt 0.705183 0.522998
vt 0.705183 0.513851
vt 0.705183 0.504703
vt 0.705183 0.495556
vt 0.705183 0.486408
vt 0.705183 0.477261
vt 0.705183 0.468113
vt 0.705183 0.458966
vt 0.705183 0.449819
vt 0.705183 0.440671
vt 0.705183 0.431524
vt 0.705183 0.422376
vt 0.705183 0.413229
vt 0.705183 0.404081
vt 0.705183 0.394934
vt 0.705183 0.385787
vt 0.751846 0.678504
vt 0.991919 0.033247
vt 0.918851 0.083753
vt 0.933371 0.038534
vt 0.874122 0.178542
vt 0.907518 0.219641
vt 0.852278 0.217316
vt 0.831013 0.255221
vt 0.766760 0.338426
vt 0.792949 0.385482
vt 0.733909 0.376247
vt 0.825073 0.166692
vt 0.756042 0.240717
vt 0.808147 0.156251
vt 0.991919 0.271425
vt 0.921540 0.338796
vt 0.968313 0.262563
vt 0.947213 0.249617
vt 0.879314 0.312888
vt 0.926087 0.236655
vt 0.791181 0.145785
vt 0.722129 0.219797
vt 0.774234 0.135331
vt 0.842448 0.326781
vt 0.785762 0.314680
vt 0.804479 0.291225
vt 0.945060 0.152789
vt 0.887416 0.152043
vt 0.900599 0.125419
vt 0.855734 0.304042
vt 0.739076 0.230251
vt 0.922467 0.197837
vt 0.705183 0.209343
vt 0.757288 0.124877
vt 0.900440 0.325850
vt 0.811561 0.366645
vt 0.733263 0.298004
vt 0.745994 0.282203
vt 0.861231 0.093479
vt 0.850986 0.111467
vt 0.833088 0.147665
vt 0.841911 0.129491
vt 0.772968 0.251158
vt 0.758948 0.266522
vt 0.720851 0.314767
vt 0.888185 0.000152
vt 0.541947 0.649640
vt 0.588023 0.386441
vt 0.586314 0.945355
vt 0.559618 0.335702
vt 0.410851 0.573518
vt 0.391409 0.562345
vt 0.390188 0.565345
vt 0.450637 0.613746
vt 0.356008 0.846695
vt 0.292605 0.838081
vt 0.526362 0.000152
vt 0.296334 0.584028
vt 0.000152 0.987264
vt 0.530476 0.566098
vt 0.467295 0.594154
vt 0.470801 0.568833
vt 0.218310 0.911308
vt 0.347567 0.912222
vt 0.156404 0.964476
vt 0.363854 0.544211
vt 0.355790 0.551066
vt 0.361943 0.539276
vt 0.599237 0.143619
vt 0.623932 0.945362
vt 0.662166 0.361200
vt 0.664096 0.945407
vt 0.341338 0.877003
vt 0.361022 0.549814
vt 0.585478 0.230554
vt 0.622108 0.369926
vt 0.704879 0.945407
vt 0.704879 0.353147
vt 0.606585 0.078916
vt 0.356736 0.470691
vt 0.356120 0.949969
vt 0.110342 0.999848
vt 0.410714 0.573988
vt 0.334217 0.206322
vt 0.064652 0.713212
vt 0.470326 0.584357
vt 0.773617 0.859578
vt 0.765166 0.863079
vt 0.756195 0.864863
vt 0.747047 0.864863
vt 0.738076 0.863079
vt 0.729625 0.859578
vt 0.722019 0.854496
vt 0.715551 0.848028
vt 0.710469 0.840422
vt 0.706968 0.831971
vt 0.705183 0.822999
vt 0.705183 0.813852
vt 0.706968 0.804880
vt 0.710469 0.796429
vt 0.715551 0.788823
vt 0.729625 0.777273
vt 0.756195 0.771988
vt 0.738076 0.773773
vt 0.747047 0.771988
vt 0.765166 0.773773
vt 0.773617 0.777273
vt 0.781223 0.782355
vt 0.792773 0.796429
vt 0.798058 0.822999
vt 0.796274 0.804880
vt 0.798058 0.813852
vt 0.796274 0.831971
vt 0.792773 0.840422
vt 0.787691 0.848028
vt 0.798508 0.678504
vt 0.715550 0.695644
vt 0.722019 0.689176
vt 0.729624 0.684094
vt 0.738075 0.680593
vt 0.747047 0.678809
vt 0.756195 0.678809
vt 0.765166 0.680593
vt 0.773617 0.684094
vt 0.781223 0.689176
vt 0.787691 0.695644
vt 0.792773 0.703250
vt 0.796274 0.711701
vt 0.798058 0.720672
vt 0.798058 0.729820
vt 0.796274 0.738791
vt 0.787691 0.754848
vt 0.781223 0.761316
vt 0.773617 0.766398
vt 0.765166 0.769899
vt 0.756195 0.771684
vt 0.747047 0.771684
vt 0.738075 0.769899
vt 0.722019 0.761316
vt 0.715550 0.754848
vt 0.710468 0.747243
vt 0.706968 0.738791
vt 0.705183 0.729820
vt 0.705183 0.720672
vt 0.706968 0.711701
vt 0.953662 0.127765
vt 0.940135 0.355826
vt 0.827182 0.346848
vt 0.934007 0.175417
vt 0.544505 0.595325
vt 0.494044 0.652880
vt 0.523816 0.613289
s 1
usemtl Material.002
f 2/1/1 162/2/1 161/3/1
f 4/4/2 163/5/2 162/2/2
f 6/6/3 164/7/3 163/5/3
f 8/8/4 165/9/4 164/7/4
f 10/10/5 166/11/5 165/9/5
f 12/12/6 167/13/6 166/11/6
f 14/14/7 168/15/7 167/13/7
f 16/16/8 169/17/8 168/15/8
f 18/18/9 170/19/9 169/17/9
f 20/20/10 171/21/10 170/19/10
f 22/22/11 172/23/11 171/21/11
f 24/24/12 173/25/12 172/23/12
f 26/26/13 174/27/13 173/25/13
f 28/28/14 175/29/14 174/27/14
f 30/30/15 176/31/15 175/29/15
f 32/32/16 177/33/16 176/31/16
f 34/34/17 178/35/17 177/33/17
f 36/36/18 179/37/18 178/35/18
f 38/38/19 180/39/19 179/37/19
f 40/40/20 181/41/20 180/39/20
f 42/42/21 182/43/21 181/41/21
f 44/44/22 183/45/22 182/43/22
f 46/46/23 184/47/23 183/45/23
f 48/48/24 185/49/24 184/47/24
f 50/50/25 186/51/25 185/49/25
f 52/52/26 187/53/26 186/51/26
f 54/54/27 188/55/27 187/53/27
f 56/56/28 189/57/28 188/55/28
f 58/58/29 190/59/29 189/57/29
f 60/60/30 191/61/30 190/59/30
f 38/62/31 22/63/31 6/64/31
f 62/65/32 192/66/32 191/61/32
f 64/67/33 161/68/33 192/66/33
f 31/69/34 47/70/34 63/71/34
f 96/72/33 128/73/33 127/74/33
f 95/75/32 127/74/32 126/76/32
f 94/77/30 126/76/30 125/78/30
f 93/79/29 125/78/29 124/80/29
f 92/81/28 124/80/28 123/82/28
f 91/83/27 123/82/27 122/84/27
f 90/85/26 122/84/26 121/86/26
f 89/87/25 121/86/25 120/88/25
f 88/89/24 120/88/24 119/90/24
f 87/91/23 119/90/23 118/92/23
f 86/93/22 118/92/22 117/94/22
f 85/95/21 117/94/21 116/96/21
f 84/97/20 116/96/20 115/98/20
f 83/99/19 115/98/19 114/100/19
f 82/101/18 114/100/18 113/102/18
f 81/103/17 113/102/17 112/104/17
f 80/105/16 112/104/16 111/106/16
f 79/107/15 111/106/15 110/108/15
f 78/109/14 110/108/14 109/110/14
f 77/111/13 109/110/13 108/112/13
f 76/113/12 108/112/12 107/114/12
f 75/115/11 107/114/11 106/116/11
f 74/117/10 106/116/10 105/118/10
f 73/119/9 105/118/9 104/120/9
f 72/121/8 104/120/8 103/122/8
f 71/123/7 103/122/7 102/124/7
f 70/125/6 102/124/6 101/126/6
f 69/127/5 101/126/5 100/128/5
f 68/129/4 100/128/4 99/130/4
f 67/131/3 99/130/3 98/132/3
f 66/133/2 98/132/2 97/134/2
f 65/135/1 97/134/1 128/136/1
f 128/136/1 129/137/1 160/138/1
f 97/134/2 130/139/2 129/137/2
f 98/132/3 131/140/3 130/139/3
f 99/130/4 132/141/4 131/140/4
f 100/128/5 133/142/5 132/141/5
f 101/126/6 134/143/6 133/142/6
f 102/124/7 135/144/7 134/143/7
f 103/122/8 136/145/8 135/144/8
f 104/120/9 137/146/9 136/145/9
f 105/118/10 138/147/10 137/146/10
f 106/116/11 139/148/11 138/147/11
f 107/114/12 140/149/12 139/148/12
f 108/112/13 141/150/13 140/149/13
f 109/110/14 142/151/14 141/150/14
f 110/108/15 143/152/15 142/151/15
f 111/106/16 144/153/16 143/152/16
f 112/104/17 145/154/17 144/153/17
f 113/102/18 146/155/18 145/154/18
f 114/100/19 147/156/19 146/155/19
f 115/98/20 148/157/20 147/156/20
f 116/96/21 149/158/21 148/157/21
f 117/94/22 150/159/22 149/158/22
f 118/92/23 151/160/23 150/159/23
f 119/90/24 152/161/24 151/160/24
f 120/88/25 153/162/25 152/161/25
f 121/86/26 154/163/26 153/162/26
f 122/84/27 155/164/27 154/163/27
f 123/82/28 156/165/28 155/164/28
f 124/80/29 157/166/29 156/165/29
f 125/78/30 158/167/30 157/166/30
f 126/76/32 159/168/32 158/167/32
f 127/74/33 160/169/33 159/168/33
f 159/168/33 1/170/33 63/171/33
f 158/167/32 63/171/32 61/172/32
f 157/166/30 61/172/30 59/173/30
f 156/165/29 59/173/29 57/174/29
f 155/164/28 57/174/28 55/175/28
f 154/163/27 55/175/27 53/176/27
f 153/162/26 53/176/26 51/177/26
f 152/161/25 51/177/25 49/178/25
f 151/160/24 49/178/24 47/179/24
f 150/159/23 47/179/23 45/180/23
f 149/158/22 45/180/22 43/181/22
f 148/157/21 43/181/21 41/182/21
f 147/156/20 41/182/20 39/183/20
f 146/155/19 39/183/19 37/184/19
f 145/154/18 37/184/18 35/185/18
f 144/153/17 35/185/17 33/186/17
f 143/152/16 33/186/16 31/187/16
f 142/151/15 31/187/15 29/188/15
f 141/150/14 29/188/14 27/189/14
f 140/149/13 27/189/13 25/190/13
f 139/148/12 25/190/12 23/191/12
f 138/147/11 23/191/11 21/192/11
f 137/146/10 21/192/10 19/193/10
f 136/145/9 19/193/9 17/194/9
f 135/144/8 17/194/8 15/195/8
f 134/143/7 15/195/7 13/196/7
f 133/142/6 13/196/6 11/197/6
f 132/141/5 11/197/5 9/198/5
f 131/140/4 9/198/4 7/199/4
f 130/139/3 7/199/3 5/200/3
f 129/137/2 5/200/2 3/201/2
f 160/138/1 3/201/1 1/202/1
f 192/66/33 65/203/33 96/72/33
f 191/61/32 96/72/32 95/75/32
f 190/59/30 95/75/30 94/77/30
f 189/57/29 94/77/29 93/79/29
f 188/55/28 93/79/28 92/81/28
f 187/53/27 92/81/27 91/83/27
f 186/51/26 91/83/26 90/85/26
f 185/49/25 90/85/25 89/87/25
f 184/47/24 89/87/24 88/89/24
f 183/45/23 88/89/23 87/91/23
f 182/43/22 87/91/22 86/93/22
f 181/41/21 86/93/21 85/95/21
f 180/39/20 85/95/20 84/97/20
f 179/37/19 84/97/19 83/99/19
f 178/35/18 83/99/18 82/101/18
f 177/33/17 82/101/17 81/103/17
f 176/31/16 81/103/16 80/105/16
f 175/29/15 80/105/15 79/107/15
f 174/27/14 79/107/14 78/109/14
f 173/25/13 78/109/13 77/111/13
f 172/23/12 77/111/12 76/113/12
f 171/21/11 76/113/11 75/115/11
f 170/19/10 75/115/10 74/117/10
f 169/17/9 74/117/9 73/119/9
f 168/15/8 73/119/8 72/121/8
f 167/13/7 72/121/7 71/123/7
f 166/11/6 71/123/6 70/125/6
f 165/9/5 70/125/5 69/127/5
f 164/7/4 69/127/4 68/129/4
f 163/5/3 68/129/3 67/131/3
f 162/2/2 67/131/2 66/133/2
f 161/3/1 66/133/1 65/135/1
f 194/204/35 214/205/35 213/206/35
f 220/207/36 200/208/36 215/209/36
f 200/208/37 216/210/37 215/209/37
f 222/211/38 194/212/38 213/213/38
f 199/214/34 206/215/34 207/216/34
f 196/217/31 210/218/31 211/219/31
f 202/220/31 208/221/31 205/222/31
f 201/223/34 212/224/34 209/225/34
f 208/226/39 217/227/39 219/228/39
f 211/229/40 218/230/40 221/231/40
f 216/210/41 208/226/41 219/228/41
f 205/222/31 198/232/31 200/208/31
f 207/216/34 203/233/34 201/223/34
f 218/230/40 205/234/40 220/207/40
f 214/205/42 211/229/42 221/231/42
f 209/225/34 193/235/34 195/236/34
f 211/219/31 204/237/31 202/220/31
f 217/227/39 210/238/39 222/211/39
f 217/227/43 212/239/43 203/240/43
f 195/241/44 221/231/44 209/242/44
f 218/230/44 207/243/44 201/244/44
f 197/245/43 219/228/43 206/246/43
f 209/242/44 218/230/44 201/244/44
f 206/246/43 217/227/43 203/240/43
f 222/211/43 193/247/43 212/239/43
f 215/209/45 197/245/45 199/214/45
f 220/207/44 199/214/44 207/243/44
f 213/206/46 195/241/46 193/248/46
f 224/249/47 236/250/48 235/251/48
f 250/252/49 230/253/49 237/254/49
f 230/253/50 238/255/51 237/254/52
f 246/256/53 235/257/53 249/258/53
f 243/259/54 227/260/55 245/261/56
f 226/262/57 246/263/58 244/264/57
f 247/265/59 242/266/59 252/267/59
f 233/268/60 241/269/61 240/270/61
f 251/271/62 233/268/63 240/270/64
f 231/272/48 239/273/48 242/274/48
f 249/258/65 231/275/65 247/265/65
f 233/268/66 238/255/67 234/276/68
f 248/277/69 237/254/69 233/268/69
f 235/251/48 232/278/48 231/272/48
f 223/279/48 239/273/48 225/280/48
f 243/281/70 240/270/70 229/282/70
f 240/270/71 227/260/71 229/282/71
f 252/267/72 223/283/73 245/284/74
f 241/269/75 245/284/75 227/260/75
f 225/280/76 251/271/77 243/281/78
f 232/278/79 250/252/79 248/277/79
f 238/255/80 247/265/80 234/276/80
f 239/273/81 248/277/81 251/271/81
f 234/276/82 252/267/83 241/269/84
f 230/253/85 246/263/85 228/285/85
f 225/286/86 245/261/56 223/287/87
f 228/285/88 249/258/88 238/255/88
f 236/250/89 244/288/89 250/252/89
f 2/1/1 4/4/1 162/2/1
f 4/4/2 6/6/2 163/5/2
f 6/6/3 8/8/3 164/7/3
f 8/8/4 10/10/4 165/9/4
f 10/10/5 12/12/5 166/11/5
f 12/12/6 14/14/6 167/13/6
f 14/14/7 16/16/7 168/15/7
f 16/16/8 18/18/8 169/17/8
f 18/18/9 20/20/9 170/19/9
f 20/20/10 22/22/10 171/21/10
f 22/22/11 24/24/11 172/23/11
f 24/24/12 26/26/12 173/25/12
f 26/26/13 28/28/13 174/27/13
f 28/28/14 30/30/14 175/29/14
f 30/30/15 32/32/15 176/31/15
f 32/32/16 34/34/16 177/33/16
f 34/34/17 36/36/17 178/35/17
f 36/36/18 38/38/18 179/37/18
f 38/38/19 40/40/19 180/39/19
f 40/40/20 42/42/20 181/41/20
f 42/42/21 44/44/21 182/43/21
f 44/44/22 46/46/22 183/45/22
f 46/46/23 48/48/23 184/47/23
f 48/48/24 50/50/24 185/49/24
f 50/50/25 52/52/25 186/51/25
f 52/52/26 54/54/26 187/53/26
f 54/54/27 56/56/27 188/55/27
f 56/56/28 58/58/28 189/57/28
f 58/58/29 60/60/29 190/59/29
f 60/60/30 62/65/30 191/61/30
f 6/64/31 4/289/31 2/290/31
f 2/290/31 64/291/31 6/64/31
f 64/291/31 62/292/31 6/64/31
f 62/292/31 60/293/90 58/294/31
f 58/294/31 56/295/31 54/296/31
f 54/296/31 52/297/91 50/298/92
f 50/298/92 48/299/93 54/296/31
f 48/299/93 46/300/31 54/296/31
f 46/300/31 44/301/31 42/302/31
f 42/302/31 40/303/92 38/62/31
f 38/62/31 36/304/31 30/305/31
f 36/304/31 34/306/31 30/305/31
f 34/306/31 32/307/31 30/305/31
f 30/305/31 28/308/90 26/309/31
f 26/309/31 24/310/94 22/63/31
f 22/63/31 20/311/91 14/312/31
f 20/311/91 18/313/31 14/312/31
f 18/313/31 16/314/31 14/312/31
f 14/312/31 12/315/94 10/316/31
f 10/316/31 8/317/95 6/64/31
f 62/292/31 58/294/31 6/64/31
f 58/294/31 54/296/31 6/64/31
f 46/300/31 42/302/31 54/296/31
f 42/302/31 38/62/31 54/296/31
f 30/305/31 26/309/31 38/62/31
f 26/309/31 22/63/31 38/62/31
f 14/312/31 10/316/31 22/63/31
f 10/316/31 6/64/31 22/63/31
f 6/64/31 54/296/31 38/62/31
f 62/65/32 64/67/32 192/66/32
f 64/67/33 2/318/33 161/68/33
f 63/71/34 1/319/34 3/320/34
f 3/320/34 5/321/34 7/322/34
f 7/322/34 9/323/34 11/324/34
f 11/324/34 13/325/96 15/326/34
f 15/326/34 17/327/34 19/328/34
f 19/328/34 21/329/97 23/330/34
f 23/330/34 25/331/34 27/332/34
f 27/332/34 29/333/34 31/69/34
f 31/69/34 33/334/34 35/335/34
f 35/335/34 37/336/34 39/337/34
f 39/337/34 41/338/34 43/339/34
f 43/339/34 45/340/34 47/70/34
f 47/70/34 49/341/34 51/342/34
f 51/342/34 53/343/96 55/344/34
f 55/344/34 57/345/98 59/346/34
f 59/346/34 61/347/34 63/71/34
f 63/71/34 3/320/34 15/326/34
f 3/320/34 7/322/34 15/326/34
f 7/322/34 11/324/34 15/326/34
f 15/326/34 19/328/34 31/69/34
f 19/328/34 23/330/34 31/69/34
f 23/330/34 27/332/34 31/69/34
f 31/69/34 35/335/34 47/70/34
f 35/335/34 39/337/34 47/70/34
f 39/337/34 43/339/34 47/70/34
f 47/70/34 51/342/34 63/71/34
f 51/342/34 55/344/34 63/71/34
f 55/344/34 59/346/34 63/71/34
f 63/71/34 15/326/34 31/69/34
f 96/72/33 65/203/33 128/73/33
f 95/75/32 96/72/32 127/74/32
f 94/77/30 95/75/30 126/76/30
f 93/79/29 94/77/29 125/78/29
f 92/81/28 93/79/28 124/80/28
f 91/83/27 92/81/27 123/82/27
f 90/85/26 91/83/26 122/84/26
f 89/87/25 90/85/25 121/86/25
f 88/89/24 89/87/24 120/88/24
f 87/91/23 88/89/23 119/90/23
f 86/93/22 87/91/22 118/92/22
f 85/95/21 86/93/21 117/94/21
f 84/97/20 85/95/20 116/96/20
f 83/99/19 84/97/19 115/98/19
f 82/101/18 83/99/18 114/100/18
f 81/103/17 82/101/17 113/102/17
f 80/105/16 81/103/16 112/104/16
f 79/107/15 80/105/15 111/106/15
f 78/109/14 79/107/14 110/108/14
f 77/111/13 78/109/13 109/110/13
f 76/113/12 77/111/12 108/112/12
f 75/115/11 76/113/11 107/114/11
f 74/117/10 75/115/10 106/116/10
f 73/119/9 74/117/9 105/118/9
f 72/121/8 73/119/8 104/120/8
f 71/123/7 72/121/7 103/122/7
f 70/125/6 71/123/6 102/124/6
f 69/127/5 70/125/5 101/126/5
f 68/129/4 69/127/4 100/128/4
f 67/131/3 68/129/3 99/130/3
f 66/133/2 67/131/2 98/132/2
f 65/135/1 66/133/1 97/134/1
f 128/136/1 97/134/1 129/137/1
f 97/134/2 98/132/2 130/139/2
f 98/132/3 99/130/3 131/140/3
f 99/130/4 100/128/4 132/141/4
f 100/128/5 101/126/5 133/142/5
f 101/126/6 102/124/6 134/143/6
f 102/124/7 103/122/7 135/144/7
f 103/122/8 104/120/8 136/145/8
f 104/120/9 105/118/9 137/146/9
f 105/118/10 106/116/10 138/147/10
f 106/116/11 107/114/11 139/148/11
f 107/114/12 108/112/12 140/149/12
f 108/112/13 109/110/13 141/150/13
f 109/110/14 110/108/14 142/151/14
f 110/108/15 111/106/15 143/152/15
f 111/106/16 112/104/16 144/153/16
f 112/104/17 113/102/17 145/154/17
f 113/102/18 114/100/18 146/155/18
f 114/100/19 115/98/19 147/156/19
f 115/98/20 116/96/20 148/157/20
f 116/96/21 117/94/21 149/158/21
f 117/94/22 118/92/22 150/159/22
f 118/92/23 119/90/23 151/160/23
f 119/90/24 120/88/24 152/161/24
f 120/88/25 121/86/25 153/162/25
f 121/86/26 122/84/26 154/163/26
f 122/84/27 123/82/27 155/164/27
f 123/82/28 124/80/28 156/165/28
f 124/80/29 125/78/29 157/166/29
f 125/78/30 126/76/30 158/167/30
f 126/76/32 127/74/32 159/168/32
f 127/74/33 128/73/33 160/169/33
f 159/168/33 160/169/33 1/170/33
f 158/167/32 159/168/32 63/171/32
f 157/166/30 158/167/30 61/172/30
f 156/165/29 157/166/29 59/173/29
f 155/164/28 156/165/28 57/174/28
f 154/163/27 155/164/27 55/175/27
f 153/162/26 154/163/26 53/176/26
f 152/161/25 153/162/25 51/177/25
f 151/160/24 152/161/24 49/178/24
f 150/159/23 151/160/23 47/179/23
f 149/158/22 150/159/22 45/180/22
f 148/157/21 149/158/21 43/181/21
f 147/156/20 148/157/20 41/182/20
f 146/155/19 147/156/19 39/183/19
f 145/154/18 146/155/18 37/184/18
f 144/153/17 145/154/17 35/185/17
f 143/152/16 144/153/16 33/186/16
f 142/151/15 143/152/15 31/187/15
f 141/150/14 142/151/14 29/188/14
f 140/149/13 141/150/13 27/189/13
f 139/148/12 140/149/12 25/190/12
f 138/147/11 139/148/11 23/191/11
f 137/146/10 138/147/10 21/192/10
f 136/145/9 137/146/9 19/193/9
f 135/144/8 136/145/8 17/194/8
f 134/143/7 135/144/7 15/195/7
f 133/142/6 134/143/6 13/196/6
f 132/141/5 133/142/5 11/197/5
f 131/140/4 132/141/4 9/198/4
f 130/139/3 131/140/3 7/199/3
f 129/137/2 130/139/2 5/200/2
f 160/138/1 129/137/1 3/201/1
f 192/66/33 161/68/33 65/203/33
f 191/61/32 192/66/32 96/72/32
f 190/59/30 191/61/30 95/75/30
f 189/57/29 190/59/29 94/77/29
f 188/55/28 189/57/28 93/79/28
f 187/53/27 188/55/27 92/81/27
f 186/51/26 187/53/26 91/83/26
f 185/49/25 186/51/25 90/85/25
f 184/47/24 185/49/24 89/87/24
f 183/45/23 184/47/23 88/89/23
f 182/43/22 183/45/22 87/91/22
f 181/41/21 182/43/21 86/93/21
f 180/39/20 181/41/20 85/95/20
f 179/37/19 180/39/19 84/97/19
f 178/35/18 179/37/18 83/99/18
f 177/33/17 178/35/17 82/101/17
f 176/31/16 177/33/16 81/103/16
f 175/29/15 176/31/15 80/105/15
f 174/27/14 175/29/14 79/107/14
f 173/25/13 174/27/13 78/109/13
f 172/23/12 173/25/12 77/111/12
f 171/21/11 172/23/11 76/113/11
f 170/19/10 171/21/10 75/115/10
f 169/17/9 170/19/9 74/117/9
f 168/15/8 169/17/8 73/119/8
f 167/13/7 168/15/7 72/121/7
f 166/11/6 167/13/6 71/123/6
f 165/9/5 166/11/5 70/125/5
f 164/7/4 165/9/4 69/127/4
f 163/5/3 164/7/3 68/129/3
f 162/2/2 163/5/2 67/131/2
f 161/3/1 162/2/1 66/133/1
f 194/204/35 196/348/35 214/205/35
f 220/207/99 205/234/99 200/208/99
f 200/208/37 198/232/37 216/210/37
f 222/211/100 210/238/100 194/212/100
f 199/214/34 197/245/34 206/215/34
f 196/217/31 194/349/31 210/218/31
f 202/220/31 204/237/31 208/221/31
f 201/223/34 203/233/34 212/224/34
f 208/226/39 204/350/39 217/227/39
f 211/229/40 202/351/40 218/230/40
f 216/210/101 198/232/101 208/226/101
f 205/222/31 208/221/31 198/232/31
f 207/216/34 206/215/34 203/233/34
f 218/230/40 202/351/40 205/234/40
f 214/205/102 196/348/102 211/229/102
f 209/225/34 212/224/34 193/235/34
f 211/219/31 210/218/31 204/237/31
f 217/227/39 204/350/39 210/238/39
f 217/227/43 222/211/43 212/239/43
f 195/241/103 214/205/103 221/231/103
f 218/230/44 220/207/44 207/243/44
f 197/245/104 216/210/104 219/228/104
f 209/242/44 221/231/44 218/230/44
f 206/246/43 219/228/43 217/227/43
f 222/211/105 213/213/105 193/247/105
f 215/209/45 216/210/45 197/245/45
f 220/207/106 215/209/106 199/214/106
f 213/206/46 214/205/46 195/241/46
f 224/249/47 226/352/47 236/250/48
f 250/252/107 244/288/107 230/253/107
f 230/253/108 228/285/108 238/255/108
f 246/256/109 224/353/109 235/257/109
f 243/259/54 229/282/110 227/260/55
f 226/262/111 224/354/111 246/263/111
f 247/265/112 231/275/112 242/266/112
f 233/268/66 234/276/68 241/269/113
f 251/271/62 248/277/114 233/268/63
f 231/272/48 232/278/48 239/273/48
f 249/258/115 235/257/115 231/275/115
f 233/268/116 237/254/52 238/255/51
f 248/277/117 250/252/117 237/254/117
f 235/251/48 236/250/48 232/278/48
f 223/279/48 242/274/48 239/273/48
f 243/281/118 251/271/62 240/270/64
f 240/270/61 241/269/61 227/260/119
f 252/267/72 242/266/120 223/283/73
f 241/269/121 252/267/121 245/284/121
f 225/280/76 239/273/122 251/271/77
f 232/278/123 236/250/123 250/252/123
f 238/255/124 249/258/124 247/265/124
f 239/273/125 232/278/125 248/277/125
f 234/276/82 247/265/126 252/267/83
f 230/253/57 244/264/57 246/263/58
f 225/286/86 243/259/54 245/261/56
f 228/285/127 246/256/127 249/258/127
f 236/250/128 226/352/128 244/288/128
