# Blender 4.4.1
# www.blender.org
mtllib clear_text.mtl
o テキスト
v 2.909187 0.676000 0.000000
v 2.860187 0.723000 0.000000
v 2.856021 0.722252 0.000000
v 2.851113 0.721514 0.000000
v 2.845593 0.720797 0.000000
v 2.839594 0.720111 0.000000
v 2.833248 0.719467 0.000000
v 2.826687 0.718875 0.000000
v 2.820042 0.718346 0.000000
v 2.813446 0.717889 0.000000
v 2.807031 0.717516 0.000000
v 2.800928 0.717236 0.000000
v 2.795269 0.717061 0.000000
v 2.790187 0.717000 0.000000
v 2.767206 0.717000 0.000000
v 2.730169 0.717000 0.000000
v 2.681937 0.717000 0.000000
v 2.625372 0.717000 0.000000
v 2.563335 0.717000 0.000000
v 2.498687 0.717000 0.000000
v 2.434289 0.717000 0.000000
v 2.373002 0.717000 0.000000
v 2.317687 0.717000 0.000000
v 2.271205 0.717000 0.000000
v 2.236418 0.717000 0.000000
v 2.216187 0.717000 0.000000
v 2.206840 0.717082 0.000000
v 2.197326 0.717319 0.000000
v 2.187687 0.717703 0.000000
v 2.177965 0.718222 0.000000
v 2.168201 0.718866 0.000000
v 2.158438 0.719625 0.000000
v 2.148715 0.720488 0.000000
v 2.139077 0.721444 0.000000
v 2.129563 0.722484 0.000000
v 2.120215 0.723597 0.000000
v 2.111076 0.724773 0.000000
v 2.102187 0.726000 0.000000
v 2.102187 0.635000 0.000000
v 2.111917 0.635958 0.000000
v 2.121604 0.636833 0.000000
v 2.131250 0.637625 0.000000
v 2.140854 0.638333 0.000000
v 2.150416 0.638958 0.000000
v 2.159937 0.639500 0.000000
v 2.169416 0.639958 0.000000
v 2.178854 0.640333 0.000000
v 2.188250 0.640625 0.000000
v 2.197604 0.640833 0.000000
v 2.206916 0.640958 0.000000
v 2.216187 0.641000 0.000000
v 2.235939 0.641000 0.000000
v 2.269867 0.641000 0.000000
v 2.315234 0.641000 0.000000
v 2.369298 0.641000 0.000000
v 2.429320 0.641000 0.000000
v 2.492562 0.641000 0.000000
v 2.556283 0.641000 0.000000
v 2.617743 0.641000 0.000000
v 2.674202 0.641000 0.000000
v 2.722923 0.641000 0.000000
v 2.761164 0.641000 0.000000
v 2.786187 0.641000 0.000000
v 2.776703 0.624581 0.000000
v 2.764895 0.606560 0.000000
v 2.750984 0.587297 0.000000
v 2.735188 0.567148 0.000000
v 2.717724 0.546472 0.000000
v 2.698812 0.525625 0.000000
v 2.678672 0.504966 0.000000
v 2.657521 0.484852 0.000000
v 2.635578 0.465641 0.000000
v 2.613062 0.447690 0.000000
v 2.590193 0.431357 0.000000
v 2.567187 0.417000 0.000000
v 2.633187 0.364000 0.000000
v 2.661271 0.384727 0.000000
v 2.688437 0.407153 0.000000
v 2.714562 0.430891 0.000000
v 2.739521 0.455556 0.000000
v 2.763187 0.480762 0.000000
v 2.785438 0.506125 0.000000
v 2.806146 0.531259 0.000000
v 2.825188 0.555778 0.000000
v 2.842438 0.579297 0.000000
v 2.857771 0.601431 0.000000
v 2.871063 0.621793 0.000000
v 2.882187 0.640000 0.000000
v 2.884056 0.642828 0.000000
v 2.886132 0.645792 0.000000
v 2.888375 0.648859 0.000000
v 2.890743 0.652000 0.000000
v 2.893194 0.655182 0.000000
v 2.895687 0.658375 0.000000
v 2.898180 0.661547 0.000000
v 2.900631 0.664667 0.000000
v 2.902999 0.667703 0.000000
v 2.905242 0.670625 0.000000
v 2.907319 0.673401 0.000000
v 2.510187 0.544000 0.000000
v 2.420187 0.544000 0.000000
v 2.420896 0.537580 0.000000
v 2.421525 0.531306 0.000000
v 2.422078 0.525156 0.000000
v 2.422557 0.519111 0.000000
v 2.422967 0.513149 0.000000
v 2.423312 0.507250 0.000000
v 2.423594 0.501392 0.000000
v 2.423816 0.495556 0.000000
v 2.423984 0.489719 0.000000
v 2.424099 0.483861 0.000000
v 2.424166 0.477962 0.000000
v 2.424187 0.472000 0.000000
v 2.423665 0.430764 0.000000
v 2.421840 0.390616 0.000000
v 2.418327 0.351641 0.000000
v 2.412742 0.313926 0.000000
v 2.404699 0.277558 0.000000
v 2.393812 0.242625 0.000000
v 2.379695 0.209212 0.000000
v 2.361965 0.177407 0.000000
v 2.340234 0.147297 0.000000
v 2.314117 0.118968 0.000000
v 2.283230 0.092506 0.000000
v 2.247187 0.068000 0.000000
v 2.240069 0.063085 0.000000
v 2.232742 0.058347 0.000000
v 2.225249 0.053797 0.000000
v 2.217631 0.049444 0.000000
v 2.209930 0.045300 0.000000
v 2.202187 0.041375 0.000000
v 2.194444 0.037679 0.000000
v 2.186743 0.034222 0.000000
v 2.179125 0.031016 0.000000
v 2.171632 0.028069 0.000000
v 2.164305 0.025394 0.000000
v 2.157187 0.023000 0.000000
v 2.231187 -0.037000 -0.000000
v 2.290245 -0.004065 -0.000000
v 2.340395 0.031315 0.000000
v 2.382359 0.069250 0.000000
v 2.416854 0.109852 0.000000
v 2.444599 0.153232 0.000000
v 2.466312 0.199500 0.000000
v 2.482713 0.248769 0.000000
v 2.494521 0.301148 0.000000
v 2.502453 0.356750 0.000000
v 2.507229 0.415685 0.000000
v 2.509567 0.478065 0.000000
v 1.290187 0.751000 0.000000
v 1.199187 0.751000 0.000000
v 1.199686 0.745936 0.000000
v 1.200178 0.740319 0.000000
v 1.200656 0.734266 0.000000
v 1.201113 0.727889 0.000000
v 1.201542 0.721304 0.000000
v 1.201937 0.714625 0.000000
v 1.202290 0.707967 0.000000
v 1.202594 0.701444 0.000000
v 1.202843 0.695172 0.000000
v 1.203030 0.689264 0.000000
v 1.203146 0.683835 0.000000
v 1.203187 0.679000 0.000000
v 1.203187 0.666948 0.000000
v 1.203187 0.646833 0.000000
v 1.203187 0.620219 0.000000
v 1.203187 0.588667 0.000000
v 1.203187 0.553740 0.000000
v 1.203187 0.517000 0.000000
v 1.203187 0.480010 0.000000
v 1.203187 0.444333 0.000000
v 1.203187 0.411531 0.000000
v 1.203187 0.383167 0.000000
v 1.203187 0.360802 0.000000
v 1.203187 0.346000 0.000000
v 1.203127 0.338469 0.000000
v 1.202956 0.330921 0.000000
v 1.202687 0.323422 0.000000
v 1.202335 0.316037 0.000000
v 1.201914 0.308833 0.000000
v 1.201437 0.301875 0.000000
v 1.200919 0.295230 0.000000
v 1.200373 0.288963 0.000000
v 1.199812 0.283141 0.000000
v 1.199252 0.277829 0.000000
v 1.198706 0.273093 0.000000
v 1.198187 0.269000 0.000000
v 1.290187 0.269000 0.000000
v 1.289688 0.273799 0.000000
v 1.289196 0.279144 0.000000
v 1.288718 0.284953 0.000000
v 1.288261 0.291148 0.000000
v 1.287832 0.297649 0.000000
v 1.287437 0.304375 0.000000
v 1.287084 0.311247 0.000000
v 1.286780 0.318185 0.000000
v 1.286531 0.325109 0.000000
v 1.286345 0.331940 0.000000
v 1.286228 0.338597 0.000000
v 1.286187 0.345000 0.000000
v 1.286187 0.359822 0.000000
v 1.286187 0.382241 0.000000
v 1.286187 0.410688 0.000000
v 1.286187 0.443593 0.000000
v 1.286187 0.479387 0.000000
v 1.286187 0.516500 0.000000
v 1.286187 0.553364 0.000000
v 1.286187 0.588407 0.000000
v 1.286187 0.620063 0.000000
v 1.286187 0.646759 0.000000
v 1.286187 0.666928 0.000000
v 1.286187 0.679000 0.000000
v 1.286228 0.685095 0.000000
v 1.286345 0.691347 0.000000
v 1.286531 0.697703 0.000000
v 1.286780 0.704111 0.000000
v 1.287084 0.710519 0.000000
v 1.287437 0.716875 0.000000
v 1.287832 0.723127 0.000000
v 1.288261 0.729222 0.000000
v 1.288718 0.735109 0.000000
v 1.289196 0.740736 0.000000
v 1.289688 0.746050 0.000000
v 1.754187 0.759000 0.000000
v 1.660187 0.759000 0.000000
v 1.660916 0.752686 0.000000
v 1.661599 0.746236 0.000000
v 1.662234 0.739641 0.000000
v 1.662817 0.732889 0.000000
v 1.663344 0.725971 0.000000
v 1.663812 0.718875 0.000000
v 1.664218 0.711592 0.000000
v 1.664557 0.704111 0.000000
v 1.664828 0.696422 0.000000
v 1.665025 0.688514 0.000000
v 1.665146 0.680377 0.000000
v 1.665187 0.672000 0.000000
v 1.665187 0.662265 0.000000
v 1.665187 0.650782 0.000000
v 1.665187 0.637891 0.000000
v 1.665187 0.623926 0.000000
v 1.665187 0.609225 0.000000
v 1.665187 0.594125 0.000000
v 1.665187 0.578962 0.000000
v 1.665187 0.564074 0.000000
v 1.665187 0.549797 0.000000
v 1.665187 0.536468 0.000000
v 1.665187 0.524423 0.000000
v 1.665187 0.514000 0.000000
v 1.664910 0.468936 0.000000
v 1.663970 0.427991 0.000000
v 1.662203 0.390781 0.000000
v 1.659447 0.356926 0.000000
v 1.655538 0.326043 0.000000
v 1.650312 0.297750 0.000000
v 1.643608 0.271666 0.000000
v 1.635262 0.247407 0.000000
v 1.625109 0.224594 0.000000
v 1.612988 0.202843 0.000000
v 1.598735 0.181772 0.000000
v 1.582187 0.161000 0.000000
v 1.566217 0.144117 0.000000
v 1.549345 0.128440 0.000000
v 1.531625 0.113922 0.000000
v 1.513113 0.100519 0.000000
v 1.493865 0.088185 0.000000
v 1.473937 0.076875 0.000000
v 1.453384 0.066545 0.000000
v 1.432261 0.057148 0.000000
v 1.410625 0.048641 0.000000
v 1.388530 0.040977 0.000000
v 1.366032 0.034112 0.000000
v 1.343187 0.028000 0.000000
v 1.408187 -0.041000 -0.000000
v 1.426964 -0.034365 -0.000000
v 1.446650 -0.026921 -0.000000
v 1.467031 -0.018609 -0.000000
v 1.487891 -0.009370 -0.000000
v 1.509015 0.000855 0.000000
v 1.530188 0.012125 0.000000
v 1.551193 0.024499 0.000000
v 1.571817 0.038037 0.000000
v 1.591844 0.052797 0.000000
v 1.611058 0.068838 0.000000
v 1.629244 0.086219 0.000000
v 1.646187 0.105000 0.000000
v 1.663378 0.126451 0.000000
v 1.678965 0.148194 0.000000
v 1.692968 0.170813 0.000000
v 1.705410 0.194889 0.000000
v 1.716309 0.221007 0.000000
v 1.725688 0.249750 0.000000
v 1.733566 0.281701 0.000000
v 1.739965 0.317444 0.000000
v 1.744906 0.357563 0.000000
v 1.748409 0.402639 0.000000
v 1.750496 0.453257 0.000000
v 1.751187 0.510000 0.000000
v 1.751187 0.520406 0.000000
v 1.751187 0.532417 0.000000
v 1.751187 0.545719 0.000000
v 1.751187 0.560000 0.000000
v 1.751187 0.574948 0.000000
v 1.751187 0.590250 0.000000
v 1.751187 0.605594 0.000000
v 1.751187 0.620667 0.000000
v 1.751187 0.635156 0.000000
v 1.751187 0.648750 0.000000
v 1.751187 0.661135 0.000000
v 1.751187 0.672000 0.000000
v 1.751208 0.680377 0.000000
v 1.751271 0.688514 0.000000
v 1.751375 0.696422 0.000000
v 1.751521 0.704111 0.000000
v 1.751708 0.711592 0.000000
v 1.751937 0.718875 0.000000
v 1.752208 0.725971 0.000000
v 1.752521 0.732889 0.000000
v 1.752875 0.739641 0.000000
v 1.753271 0.746236 0.000000
v 1.753708 0.752686 0.000000
v 0.515187 0.777000 0.000000
v 0.422187 0.807000 0.000000
v 0.420508 0.800308 0.000000
v 0.418502 0.793301 0.000000
v 0.416218 0.786078 0.000000
v 0.413706 0.778741 0.000000
v 0.411012 0.771389 0.000000
v 0.408187 0.764125 0.000000
v 0.405279 0.757048 0.000000
v 0.402335 0.750259 0.000000
v 0.399406 0.743859 0.000000
v 0.396539 0.737949 0.000000
v 0.393783 0.732629 0.000000
v 0.391187 0.728000 0.000000
v 0.379261 0.704410 0.000000
v 0.364942 0.678866 0.000000
v 0.348171 0.651703 0.000000
v 0.328891 0.623259 0.000000
v 0.307040 0.593871 0.000000
v 0.282562 0.563875 0.000000
v 0.255396 0.533608 0.000000
v 0.225483 0.503407 0.000000
v 0.192765 0.473609 0.000000
v 0.157182 0.444551 0.000000
v 0.118676 0.416569 0.000000
v 0.077187 0.390000 0.000000
v 0.146187 0.338000 0.000000
v 0.172917 0.356571 0.000000
v 0.198608 0.375736 0.000000
v 0.223265 0.395422 0.000000
v 0.246891 0.415556 0.000000
v 0.269489 0.436064 0.000000
v 0.291062 0.456875 0.000000
v 0.311615 0.477915 0.000000
v 0.331150 0.499111 0.000000
v 0.349671 0.520391 0.000000
v 0.367182 0.541681 0.000000
v 0.383686 0.562908 0.000000
v 0.399187 0.584000 0.000000
v 0.738187 0.584000 0.000000
v 0.732117 0.560502 0.000000
v 0.724460 0.535681 0.000000
v 0.715297 0.509797 0.000000
v 0.704706 0.483111 0.000000
v 0.692768 0.455884 0.000000
v 0.679562 0.428375 0.000000
v 0.665169 0.400846 0.000000
v 0.649669 0.373556 0.000000
v 0.633140 0.346766 0.000000
v 0.615664 0.320736 0.000000
v 0.597320 0.295727 0.000000
v 0.578187 0.272000 0.000000
v 0.554715 0.245825 0.000000
v 0.529743 0.220352 0.000000
v 0.503187 0.195656 0.000000
v 0.474965 0.171815 0.000000
v 0.444993 0.148904 0.000000
v 0.413187 0.127000 0.000000
v 0.379465 0.106179 0.000000
v 0.343743 0.086519 0.000000
v 0.305937 0.068094 0.000000
v 0.265965 0.050981 0.000000
v 0.223742 0.035258 0.000000
v 0.179187 0.021000 0.000000
v 0.251187 -0.044000 -0.000000
v 0.296773 -0.026273 -0.000000
v 0.339627 -0.007602 -0.000000
v 0.379890 0.012000 0.000000
v 0.417706 0.032519 0.000000
v 0.453215 0.053940 0.000000
v 0.486562 0.076250 0.000000
v 0.517888 0.099435 0.000000
v 0.547335 0.123481 0.000000
v 0.575046 0.148375 0.000000
v 0.601164 0.174102 0.000000
v 0.625830 0.200648 0.000000
v 0.649187 0.228000 0.000000
v 0.670870 0.255527 0.000000
v 0.691400 0.283968 0.000000
v 0.710750 0.313109 0.000000
v 0.728891 0.342741 0.000000
v 0.745796 0.372650 0.000000
v 0.761437 0.402625 0.000000
v 0.775787 0.432454 0.000000
v 0.788817 0.461926 0.000000
v 0.800500 0.490828 0.000000
v 0.810807 0.518949 0.000000
v 0.819713 0.546077 0.000000
v 0.827187 0.572000 0.000000
v 0.828537 0.576137 0.000000
v 0.830071 0.580509 0.000000
v 0.831765 0.585063 0.000000
v 0.833595 0.589741 0.000000
v 0.835535 0.594488 0.000000
v 0.837563 0.599250 0.000000
v 0.839652 0.603970 0.000000
v 0.841780 0.608593 0.000000
v 0.843922 0.613063 0.000000
v 0.846053 0.617324 0.000000
v 0.848150 0.621322 0.000000
v 0.850187 0.625000 0.000000
v 0.783187 0.666000 0.000000
v 0.779063 0.664333 0.000000
v 0.774692 0.662829 0.000000
v 0.770078 0.661484 0.000000
v 0.765224 0.660296 0.000000
v 0.760134 0.659261 0.000000
v 0.754812 0.658375 0.000000
v 0.749260 0.657635 0.000000
v 0.743483 0.657037 0.000000
v 0.737484 0.656578 0.000000
v 0.731266 0.656255 0.000000
v 0.724832 0.656063 0.000000
v 0.718187 0.656000 0.000000
v 0.446187 0.656000 0.000000
v 0.470187 0.698000 0.000000
v 0.472849 0.703049 0.000000
v 0.475812 0.708643 0.000000
v 0.479047 0.714703 0.000000
v 0.482521 0.721148 0.000000
v 0.486203 0.727899 0.000000
v 0.490062 0.734875 0.000000
v 0.494067 0.741997 0.000000
v 0.498187 0.749185 0.000000
v 0.502390 0.756359 0.000000
v 0.506646 0.763440 0.000000
v 0.510922 0.770347 0.000000
v -0.854813 0.111000 0.000000
v -0.862162 0.110751 0.000000
v -0.869688 0.110509 0.000000
v -0.877360 0.110281 0.000000
v -0.885146 0.110074 0.000000
v -0.893016 0.109895 0.000000
v -0.900938 0.109750 0.000000
v -0.908881 0.109647 0.000000
v -0.916813 0.109593 0.000000
v -0.924704 0.109594 0.000000
v -0.932521 0.109657 0.000000
v -0.940235 0.109791 0.000000
v -0.947813 0.110000 0.000000
v -0.932813 0.017000 0.000000
v -0.925565 0.018019 0.000000
v -0.918331 0.019065 0.000000
v -0.911125 0.020125 0.000000
v -0.903961 0.021185 0.000000
v -0.896852 0.022231 0.000000
v -0.889813 0.023250 0.000000
v -0.882857 0.024227 0.000000
v -0.875998 0.025148 0.000000
v -0.869251 0.026000 0.000000
v -0.862628 0.026769 0.000000
v -0.856144 0.027440 0.000000
v -0.849813 0.028000 0.000000
v -0.812346 0.031497 0.000000
v -0.767831 0.035889 0.000000
v -0.717594 0.041031 0.000000
v -0.662961 0.046778 0.000000
v -0.605258 0.052983 0.000000
v -0.545813 0.059500 0.000000
v -0.485950 0.066184 0.000000
v -0.426998 0.072889 0.000000
v -0.370281 0.079469 0.000000
v -0.317127 0.085778 0.000000
v -0.268862 0.091670 0.000000
v -0.226813 0.097000 0.000000
v -0.221147 0.084817 0.000000
v -0.215655 0.072782 0.000000
v -0.210344 0.060922 0.000000
v -0.205220 0.049259 0.000000
v -0.200291 0.037819 0.000000
v -0.195563 0.026625 0.000000
v -0.191043 0.015702 0.000000
v -0.186739 0.005074 0.000000
v -0.182657 -0.005234 -0.000000
v -0.178803 -0.015199 -0.000000
v -0.175187 -0.024796 -0.000000
v -0.171813 -0.034000 -0.000000
v -0.087813 0.004000 0.000000
v -0.099648 0.031678 0.000000
v -0.113910 0.062759 0.000000
v -0.130235 0.096563 0.000000
v -0.148257 0.132407 0.000000
v -0.167614 0.169613 0.000000
v -0.187938 0.207500 0.000000
v -0.208867 0.245387 0.000000
v -0.230036 0.282593 0.000000
v -0.251079 0.318438 0.000000
v -0.271633 0.352241 0.000000
v -0.291332 0.383322 0.000000
v -0.309813 0.411000 0.000000
v -0.384813 0.377000 0.000000
v -0.375404 0.364392 0.000000
v -0.365706 0.350634 0.000000
v -0.355766 0.335828 0.000000
v -0.345628 0.320074 0.000000
v -0.335336 0.303473 0.000000
v -0.324938 0.286125 0.000000
v -0.314476 0.268131 0.000000
v -0.303998 0.249593 0.000000
v -0.293547 0.230609 0.000000
v -0.283169 0.211282 0.000000
v -0.272909 0.191712 0.000000
v -0.262813 0.172000 0.000000
v -0.291948 0.168133 0.000000
v -0.324058 0.164060 0.000000
v -0.358703 0.159828 0.000000
v -0.395442 0.155481 0.000000
v -0.433834 0.151065 0.000000
v -0.473438 0.146625 0.000000
v -0.513813 0.142205 0.000000
v -0.554517 0.137852 0.000000
v -0.595110 0.133609 0.000000
v -0.635151 0.129523 0.000000
v -0.674199 0.125638 0.000000
v -0.711813 0.122000 0.000000
v -0.698361 0.157962 0.000000
v -0.683280 0.199944 0.000000
v -0.666985 0.246594 0.000000
v -0.649887 0.296556 0.000000
v -0.632400 0.348476 0.000000
v -0.614938 0.401000 0.000000
v -0.597913 0.452774 0.000000
v -0.581739 0.502444 0.000000
v -0.566828 0.548656 0.000000
v -0.553595 0.590056 0.000000
v -0.542452 0.625288 0.000000
v -0.533813 0.653000 0.000000
v -0.530604 0.663175 0.000000
v -0.527475 0.672736 0.000000
v -0.524422 0.681734 0.000000
v -0.521443 0.690222 0.000000
v -0.518532 0.698252 0.000000
v -0.515688 0.705875 0.000000
v -0.512906 0.713144 0.000000
v -0.510183 0.720111 0.000000
v -0.507516 0.726828 0.000000
v -0.504901 0.733347 0.000000
v -0.502334 0.739721 0.000000
v -0.499813 0.746000 0.000000
v -0.599813 0.766000 0.000000
v -0.600588 0.759528 0.000000
v -0.601429 0.753056 0.000000
v -0.602360 0.746500 0.000000
v -0.603405 0.739778 0.000000
v -0.604590 0.732806 0.000000
v -0.605938 0.725500 0.000000
v -0.607473 0.717778 0.000000
v -0.609221 0.709556 0.000000
v -0.611204 0.700750 0.000000
v -0.613447 0.691278 0.000000
v -0.615976 0.681056 0.000000
v -0.618813 0.670000 0.000000
v -0.627285 0.641109 0.000000
v -0.638424 0.604370 0.000000
v -0.651813 0.561188 0.000000
v -0.667035 0.512963 0.000000
v -0.683674 0.461100 0.000000
v -0.701313 0.407000 0.000000
v -0.719535 0.352067 0.000000
v -0.737924 0.297704 0.000000
v -0.756063 0.245312 0.000000
v -0.773535 0.196296 0.000000
v -0.789924 0.152058 0.000000
v -0.804813 0.114000 0.000000
v -1.919813 0.433000 0.000000
v -1.919813 0.335000 0.000000
v -1.911616 0.335729 0.000000
v -1.902572 0.336412 0.000000
v -1.892751 0.337047 0.000000
v -1.882220 0.337630 0.000000
v -1.871051 0.338157 0.000000
v -1.859313 0.338625 0.000000
v -1.847075 0.339031 0.000000
v -1.834406 0.339370 0.000000
v -1.821376 0.339641 0.000000
v -1.808054 0.339838 0.000000
v -1.794510 0.339959 0.000000
v -1.780813 0.340000 0.000000
v -1.755688 0.340000 0.000000
v -1.719313 0.340000 0.000000
v -1.673938 0.340000 0.000000
v -1.621813 0.340000 0.000000
v -1.565188 0.340000 0.000000
v -1.506313 0.340000 0.000000
v -1.447438 0.340000 0.000000
v -1.390813 0.340000 0.000000
v -1.338688 0.340000 0.000000
v -1.293313 0.340000 0.000000
v -1.256938 0.340000 0.000000
v -1.231813 0.340000 0.000000
v -1.220636 0.339921 0.000000
v -1.209651 0.339699 0.000000
v -1.198922 0.339359 0.000000
v -1.188517 0.338926 0.000000
v -1.178500 0.338423 0.000000
v -1.168938 0.337875 0.000000
v -1.159897 0.337306 0.000000
v -1.151443 0.336741 0.000000
v -1.143641 0.336203 0.000000
v -1.136558 0.335718 0.000000
v -1.130260 0.335308 0.000000
v -1.124813 0.335000 0.000000
v -1.124813 0.433000 0.000000
v -1.130605 0.432481 0.000000
v -1.136980 0.431935 0.000000
v -1.143938 0.431375 0.000000
v -1.151480 0.430815 0.000000
v -1.159605 0.430268 0.000000
v -1.168313 0.429750 0.000000
v -1.177605 0.429273 0.000000
v -1.187480 0.428852 0.000000
v -1.197938 0.428500 0.000000
v -1.208980 0.428231 0.000000
v -1.220605 0.428060 0.000000
v -1.232813 0.428000 0.000000
v -1.257727 0.428000 0.000000
v -1.293961 0.428000 0.000000
v -1.339250 0.428000 0.000000
v -1.391331 0.428000 0.000000
v -1.447940 0.428000 0.000000
v -1.506813 0.428000 0.000000
v -1.565686 0.428000 0.000000
v -1.622294 0.428000 0.000000
v -1.674375 0.428000 0.000000
v -1.719665 0.428000 0.000000
v -1.755899 0.428000 0.000000
v -1.780813 0.428000 0.000000
v -1.794739 0.428060 0.000000
v -1.808470 0.428232 0.000000
v -1.821938 0.428500 0.000000
v -1.835072 0.428852 0.000000
v -1.847803 0.429273 0.000000
v -1.860063 0.429750 0.000000
v -1.871780 0.430269 0.000000
v -1.882887 0.430815 0.000000
v -1.893313 0.431375 0.000000
v -1.902989 0.431935 0.000000
v -1.911845 0.432482 0.000000
v -2.261813 0.790000 0.000000
v -2.314813 0.767000 0.000000
v -2.307929 0.757066 0.000000
v -2.300827 0.746361 0.000000
v -2.293579 0.735031 0.000000
v -2.286257 0.723222 0.000000
v -2.278936 0.711080 0.000000
v -2.271688 0.698750 0.000000
v -2.264585 0.686378 0.000000
v -2.257702 0.674111 0.000000
v -2.251110 0.662094 0.000000
v -2.244882 0.650472 0.000000
v -2.239092 0.639392 0.000000
v -2.233813 0.629000 0.000000
v -2.179813 0.653000 0.000000
v -2.185150 0.663411 0.000000
v -2.191095 0.674537 0.000000
v -2.197547 0.686219 0.000000
v -2.204406 0.698296 0.000000
v -2.211569 0.710610 0.000000
v -2.218938 0.723000 0.000000
v -2.226411 0.735307 0.000000
v -2.233887 0.747370 0.000000
v -2.241266 0.759031 0.000000
v -2.248447 0.770130 0.000000
v -2.255330 0.780506 0.000000
v -2.151813 0.830000 0.000000
v -2.204813 0.807000 0.000000
v -2.197508 0.797353 0.000000
v -2.190123 0.786991 0.000000
v -2.182703 0.776031 0.000000
v -2.175294 0.764593 0.000000
v -2.167941 0.752793 0.000000
v -2.160688 0.740750 0.000000
v -2.153581 0.728582 0.000000
v -2.146665 0.716407 0.000000
v -2.139985 0.704344 0.000000
v -2.133586 0.692509 0.000000
v -2.127514 0.681022 0.000000
v -2.121813 0.670000 0.000000
v -2.067813 0.694000 0.000000
v -2.072960 0.703742 0.000000
v -2.078827 0.714352 0.000000
v -2.085297 0.725656 0.000000
v -2.092257 0.737482 0.000000
v -2.099592 0.749654 0.000000
v -2.107188 0.762000 0.000000
v -2.114929 0.774346 0.000000
v -2.122702 0.786519 0.000000
v -2.130391 0.798344 0.000000
v -2.137882 0.809648 0.000000
v -2.145061 0.820258 0.000000
v -2.623813 0.753000 0.000000
v -2.720813 0.772000 0.000000
v -2.721375 0.765461 0.000000
v -2.722063 0.758852 0.000000
v -2.722875 0.752188 0.000000
v -2.723813 0.745482 0.000000
v -2.724875 0.738748 0.000000
v -2.726063 0.732000 0.000000
v -2.727376 0.725252 0.000000
v -2.728813 0.718519 0.000000
v -2.730375 0.711813 0.000000
v -2.732063 0.705148 0.000000
v -2.733875 0.698540 0.000000
v -2.735813 0.692000 0.000000
v -2.738710 0.682008 0.000000
v -2.741905 0.671560 0.000000
v -2.745407 0.660703 0.000000
v -2.749220 0.649482 0.000000
v -2.753353 0.637940 0.000000
v -2.757813 0.626125 0.000000
v -2.762606 0.614081 0.000000
v -2.767739 0.601852 0.000000
v -2.773219 0.589484 0.000000
v -2.779054 0.577023 0.000000
v -2.785249 0.564513 0.000000
v -2.791813 0.552000 0.000000
v -2.801293 0.535949 0.000000
v -2.812151 0.518505 0.000000
v -2.824266 0.499984 0.000000
v -2.837517 0.480704 0.000000
v -2.851781 0.460979 0.000000
v -2.866938 0.441125 0.000000
v -2.882866 0.421459 0.000000
v -2.899442 0.402296 0.000000
v -2.916547 0.383953 0.000000
v -2.934058 0.366745 0.000000
v -2.951854 0.350989 0.000000
v -2.969813 0.337000 0.000000
v -2.890813 0.290000 0.000000
v -2.876127 0.302862 0.000000
v -2.861156 0.317310 0.000000
v -2.846032 0.333141 0.000000
v -2.830887 0.350148 0.000000
v -2.815853 0.368128 0.000000
v -2.801063 0.386875 0.000000
v -2.786647 0.406185 0.000000
v -2.772739 0.425852 0.000000
v -2.759469 0.445672 0.000000
v -2.746970 0.465440 0.000000
v -2.735374 0.484951 0.000000
v -2.724813 0.504000 0.000000
v -2.467813 0.504000 0.000000
v -2.473441 0.443024 0.000000
v -2.482586 0.386944 0.000000
v -2.494891 0.335531 0.000000
v -2.509998 0.288556 0.000000
v -2.527550 0.245788 0.000000
v -2.547188 0.207000 0.000000
v -2.568555 0.171962 0.000000
v -2.591294 0.140444 0.000000
v -2.615047 0.112219 0.000000
v -2.639456 0.087055 0.000000
v -2.664164 0.064726 0.000000
v -2.688813 0.045000 0.000000
v -2.694474 0.040524 0.000000
v -2.700438 0.036106 0.000000
v -2.706672 0.031766 0.000000
v -2.713146 0.027519 0.000000
v -2.719829 0.023383 0.000000
v -2.726688 0.019375 0.000000
v -2.733693 0.015513 0.000000
v -2.740813 0.011815 0.000000
v -2.748016 0.008297 0.000000
v -2.755271 0.004977 0.000000
v -2.762547 0.001872 0.000000
v -2.769813 -0.001000 -0.000000
v -2.684813 -0.059000 -0.000000
v -2.643084 -0.030277 -0.000000
v -2.603980 0.001037 0.000000
v -2.567626 0.035156 0.000000
v -2.534146 0.072296 0.000000
v -2.503667 0.112672 0.000000
v -2.476313 0.156500 0.000000
v -2.452209 0.203994 0.000000
v -2.431479 0.255370 0.000000
v -2.414250 0.310844 0.000000
v -2.400646 0.370630 0.000000
v -2.390792 0.434943 0.000000
v -2.384813 0.504000 0.000000
v -2.214813 0.504000 0.000000
v -2.208744 0.503979 0.000000
v -2.202091 0.503917 0.000000
v -2.194938 0.503812 0.000000
v -2.187368 0.503667 0.000000
v -2.179466 0.503479 0.000000
v -2.171313 0.503250 0.000000
v -2.162993 0.502979 0.000000
v -2.154591 0.502667 0.000000
v -2.146188 0.502312 0.000000
v -2.137868 0.501917 0.000000
v -2.129716 0.501479 0.000000
v -2.121813 0.501000 0.000000
v -2.121813 0.587000 0.000000
v -2.129276 0.586061 0.000000
v -2.137105 0.585241 0.000000
v -2.145204 0.584531 0.000000
v -2.153480 0.583926 0.000000
v -2.161839 0.583418 0.000000
v -2.170188 0.583000 0.000000
v -2.178433 0.582666 0.000000
v -2.186480 0.582407 0.000000
v -2.194235 0.582219 0.000000
v -2.201605 0.582093 0.000000
v -2.208495 0.582022 0.000000
v -2.214813 0.582000 0.000000
v -2.687813 0.582000 0.000000
v -2.683895 0.590996 0.000000
v -2.680137 0.599968 0.000000
v -2.676532 0.608891 0.000000
v -2.673072 0.617741 0.000000
v -2.669752 0.626494 0.000000
v -2.666563 0.635125 0.000000
v -2.663499 0.643611 0.000000
v -2.660554 0.651926 0.000000
v -2.657719 0.660047 0.000000
v -2.654989 0.667949 0.000000
v -2.652356 0.675608 0.000000
v -2.649813 0.683000 0.000000
v -2.648003 0.688139 0.000000
v -2.646081 0.693532 0.000000
v -2.644063 0.699141 0.000000
v -2.641961 0.704926 0.000000
v -2.639790 0.710850 0.000000
v -2.637563 0.716875 0.000000
v -2.635294 0.722962 0.000000
v -2.632998 0.729074 0.000000
v -2.630688 0.735172 0.000000
v -2.628378 0.741217 0.000000
v -2.626081 0.747173 0.000000
vn -0.0000 -0.0000 1.0000
vn -0.0000 -0.0000 -1.0000
vt 0.256757 0.000000
vt 0.243243 0.000000
vt 0.250000 0.000000
vt 0.236486 0.000000
vt 0.229730 0.000000
vt 0.013514 0.000000
vt 0.000000 0.000000
vt 0.006757 0.000000
vt 0.222973 0.000000
vt 0.020270 0.000000
vt 0.027027 0.000000
vt 0.216216 0.000000
vt 0.033784 0.000000
vt 0.209459 0.000000
vt 0.040541 0.000000
vt 0.202703 0.000000
vt 0.047297 0.000000
vt 0.054054 0.000000
vt 0.195946 0.000000
vt 0.060811 0.000000
vt 0.189189 0.000000
vt 0.067568 0.000000
vt 0.182432 0.000000
vt 0.074324 0.000000
vt 0.175676 0.000000
vt 0.081081 0.000000
vt 0.168919 0.000000
vt 0.087838 0.000000
vt 0.162162 0.000000
vt 0.155405 0.000000
vt 0.148649 0.000000
vt 0.141892 0.000000
vt 0.135135 0.000000
vt 0.128378 0.000000
vt 0.121622 0.000000
vt 0.114865 0.000000
vt 0.108108 0.000000
vt 0.101351 0.000000
vt 0.094595 0.000000
vt 0.263514 0.000000
vt 0.270270 0.000000
vt 0.277027 0.000000
vt 0.283784 0.000000
vt 0.290541 0.000000
vt 0.297297 0.000000
vt 0.304054 0.000000
vt 0.662162 0.000000
vt 0.655405 0.000000
vt 0.310811 0.000000
vt 0.648649 0.000000
vt 0.641892 0.000000
vt 0.317568 0.000000
vt 0.635135 0.000000
vt 0.628378 0.000000
vt 0.324324 0.000000
vt 0.621622 0.000000
vt 0.614865 0.000000
vt 0.331081 0.000000
vt 0.608108 0.000000
vt 0.601351 0.000000
vt 0.337838 0.000000
vt 0.594595 0.000000
vt 0.344595 0.000000
vt 0.351351 0.000000
vt 0.358108 0.000000
vt 0.364865 0.000000
vt 0.371622 0.000000
vt 0.378378 0.000000
vt 0.385135 0.000000
vt 0.391892 0.000000
vt 0.398649 0.000000
vt 0.412162 0.000000
vt 0.418919 0.000000
vt 0.587838 0.000000
vt 0.405405 0.000000
vt 0.425676 0.000000
vt 0.581081 0.000000
vt 0.432432 0.000000
vt 0.574324 0.000000
vt 0.439189 0.000000
vt 0.567568 0.000000
vt 0.445946 0.000000
vt 0.560811 0.000000
vt 0.452703 0.000000
vt 0.554054 0.000000
vt 0.459459 0.000000
vt 0.682432 0.000000
vt 0.668919 0.000000
vt 0.675676 0.000000
vt 1.000000 0.000000
vt 0.689189 0.000000
vt 0.695946 0.000000
vt 0.547297 0.000000
vt 0.466216 0.000000
vt 0.702703 0.000000
vt 0.709459 0.000000
vt 0.716216 0.000000
vt 0.722973 0.000000
vt 0.540541 0.000000
vt 0.472973 0.000000
vt 0.729730 0.000000
vt 0.736486 0.000000
vt 0.743243 0.000000
vt 0.479730 0.000000
vt 0.750000 0.000000
vt 0.533784 0.000000
vt 0.993243 0.000000
vt 0.756757 0.000000
vt 0.763514 0.000000
vt 0.486486 0.000000
vt 0.527027 0.000000
vt 0.493243 0.000000
vt 0.500000 0.000000
vt 0.520270 0.000000
vt 0.770270 0.000000
vt 0.506757 0.000000
vt 0.986486 0.000000
vt 0.513514 0.000000
vt 0.777027 0.000000
vt 0.979730 0.000000
vt 0.783784 0.000000
vt 0.790541 0.000000
vt 0.972973 0.000000
vt 0.797297 0.000000
vt 0.966216 0.000000
vt 0.804054 0.000000
vt 0.810811 0.000000
vt 0.959459 0.000000
vt 0.817568 0.000000
vt 0.952703 0.000000
vt 0.824324 0.000000
vt 0.831081 0.000000
vt 0.945946 0.000000
vt 0.837838 0.000000
vt 0.939189 0.000000
vt 0.844595 0.000000
vt 0.851351 0.000000
vt 0.858108 0.000000
vt 0.864865 0.000000
vt 0.871622 0.000000
vt 0.878378 0.000000
vt 0.885135 0.000000
vt 0.891892 0.000000
vt 0.898649 0.000000
vt 0.932432 0.000000
vt 0.905405 0.000000
vt 0.912162 0.000000
vt 0.918919 0.000000
vt 0.925676 0.000000
vt 0.444444 0.000000
vt 0.432749 0.000000
vt 0.438596 0.000000
vt 0.450292 0.000000
vt 0.994152 0.000000
vt 0.456140 0.000000
vt 0.988304 0.000000
vt 0.461988 0.000000
vt 0.982456 0.000000
vt 0.467836 0.000000
vt 0.976608 0.000000
vt 0.473684 0.000000
vt 0.970760 0.000000
vt 0.479532 0.000000
vt 0.964912 0.000000
vt 0.485380 0.000000
vt 0.959064 0.000000
vt 0.491228 0.000000
vt 0.953216 0.000000
vt 0.497076 0.000000
vt 0.947368 0.000000
vt 0.502924 0.000000
vt 0.941520 0.000000
vt 0.508772 0.000000
vt 0.935673 0.000000
vt 0.514620 0.000000
vt 0.929825 0.000000
vt 0.520468 0.000000
vt 0.923977 0.000000
vt 0.526316 0.000000
vt 0.918129 0.000000
vt 0.532164 0.000000
vt 0.912281 0.000000
vt 0.538012 0.000000
vt 0.906433 0.000000
vt 0.543860 0.000000
vt 0.900585 0.000000
vt 0.549708 0.000000
vt 0.894737 0.000000
vt 0.555556 0.000000
vt 0.888889 0.000000
vt 0.561404 0.000000
vt 0.883041 0.000000
vt 0.567251 0.000000
vt 0.877193 0.000000
vt 0.573099 0.000000
vt 0.871345 0.000000
vt 0.578947 0.000000
vt 0.865497 0.000000
vt 0.584795 0.000000
vt 0.859649 0.000000
vt 0.590643 0.000000
vt 0.853801 0.000000
vt 0.596491 0.000000
vt 0.847953 0.000000
vt 0.602339 0.000000
vt 0.842105 0.000000
vt 0.608187 0.000000
vt 0.614035 0.000000
vt 0.836257 0.000000
vt 0.619883 0.000000
vt 0.830409 0.000000
vt 0.625731 0.000000
vt 0.824561 0.000000
vt 0.631579 0.000000
vt 0.637427 0.000000
vt 0.818713 0.000000
vt 0.643275 0.000000
vt 0.812865 0.000000
vt 0.649123 0.000000
vt 0.807018 0.000000
vt 0.654971 0.000000
vt 0.801170 0.000000
vt 0.660819 0.000000
vt 0.666667 0.000000
vt 0.795322 0.000000
vt 0.672515 0.000000
vt 0.789474 0.000000
vt 0.678363 0.000000
vt 0.684211 0.000000
vt 0.783626 0.000000
vt 0.690058 0.000000
vt 0.777778 0.000000
vt 0.695906 0.000000
vt 0.701754 0.000000
vt 0.771930 0.000000
vt 0.707602 0.000000
vt 0.713450 0.000000
vt 0.766082 0.000000
vt 0.719298 0.000000
vt 0.725146 0.000000
vt 0.760234 0.000000
vt 0.754386 0.000000
vt 0.748538 0.000000
vt 0.742690 0.000000
vt 0.736842 0.000000
vt 0.730994 0.000000
vt 0.011696 0.000000
vt 0.005848 0.000000
vt 0.426901 0.000000
vt 0.421053 0.000000
vt 0.017544 0.000000
vt 0.415205 0.000000
vt 0.023392 0.000000
vt 0.409357 0.000000
vt 0.029240 0.000000
vt 0.403509 0.000000
vt 0.035088 0.000000
vt 0.397661 0.000000
vt 0.040936 0.000000
vt 0.391813 0.000000
vt 0.046784 0.000000
vt 0.385965 0.000000
vt 0.052632 0.000000
vt 0.380117 0.000000
vt 0.058480 0.000000
vt 0.374269 0.000000
vt 0.064327 0.000000
vt 0.368421 0.000000
vt 0.070175 0.000000
vt 0.362573 0.000000
vt 0.076023 0.000000
vt 0.081871 0.000000
vt 0.356725 0.000000
vt 0.087719 0.000000
vt 0.350877 0.000000
vt 0.093567 0.000000
vt 0.345029 0.000000
vt 0.099415 0.000000
vt 0.339181 0.000000
vt 0.105263 0.000000
vt 0.333333 0.000000
vt 0.111111 0.000000
vt 0.327485 0.000000
vt 0.116959 0.000000
vt 0.321637 0.000000
vt 0.122807 0.000000
vt 0.315789 0.000000
vt 0.128655 0.000000
vt 0.309942 0.000000
vt 0.134503 0.000000
vt 0.304094 0.000000
vt 0.140351 0.000000
vt 0.298246 0.000000
vt 0.146199 0.000000
vt 0.292398 0.000000
vt 0.152047 0.000000
vt 0.286550 0.000000
vt 0.280702 0.000000
vt 0.157895 0.000000
vt 0.274854 0.000000
vt 0.163743 0.000000
vt 0.269006 0.000000
vt 0.169591 0.000000
vt 0.263158 0.000000
vt 0.175439 0.000000
vt 0.257310 0.000000
vt 0.181287 0.000000
vt 0.251462 0.000000
vt 0.187135 0.000000
vt 0.245614 0.000000
vt 0.192982 0.000000
vt 0.239766 0.000000
vt 0.198830 0.000000
vt 0.233918 0.000000
vt 0.204678 0.000000
vt 0.228070 0.000000
vt 0.210526 0.000000
vt 0.222222 0.000000
vt 0.216374 0.000000
vt 0.015873 0.000000
vt 0.007937 0.000000
vt 0.023810 0.000000
vt 0.031746 0.000000
vt 0.039683 0.000000
vt 0.047619 0.000000
vt 0.055556 0.000000
vt 0.992063 0.000000
vt 0.063492 0.000000
vt 0.984127 0.000000
vt 0.071429 0.000000
vt 0.976190 0.000000
vt 0.079365 0.000000
vt 0.968254 0.000000
vt 0.087302 0.000000
vt 0.960317 0.000000
vt 0.095238 0.000000
vt 0.952381 0.000000
vt 0.103175 0.000000
vt 0.944444 0.000000
vt 0.936508 0.000000
vt 0.928571 0.000000
vt 0.920635 0.000000
vt 0.119048 0.000000
vt 0.912698 0.000000
vt 0.904762 0.000000
vt 0.126984 0.000000
vt 0.809524 0.000000
vt 0.793651 0.000000
vt 0.801587 0.000000
vt 0.817460 0.000000
vt 0.825397 0.000000
vt 0.833333 0.000000
vt 0.841270 0.000000
vt 0.849206 0.000000
vt 0.857143 0.000000
vt 0.865079 0.000000
vt 0.873016 0.000000
vt 0.880952 0.000000
vt 0.896825 0.000000
vt 0.134921 0.000000
vt 0.785714 0.000000
vt 0.142857 0.000000
vt 0.769841 0.000000
vt 0.761905 0.000000
vt 0.753968 0.000000
vt 0.746032 0.000000
vt 0.738095 0.000000
vt 0.730159 0.000000
vt 0.150794 0.000000
vt 0.301587 0.000000
vt 0.722222 0.000000
vt 0.309524 0.000000
vt 0.714286 0.000000
vt 0.293651 0.000000
vt 0.317460 0.000000
vt 0.706349 0.000000
vt 0.698413 0.000000
vt 0.690476 0.000000
vt 0.158730 0.000000
vt 0.285714 0.000000
vt 0.325397 0.000000
vt 0.682540 0.000000
vt 0.277778 0.000000
vt 0.166667 0.000000
vt 0.269841 0.000000
vt 0.674603 0.000000
vt 0.341270 0.000000
vt 0.174603 0.000000
vt 0.261905 0.000000
vt 0.349206 0.000000
vt 0.253968 0.000000
vt 0.182540 0.000000
vt 0.658730 0.000000
vt 0.246032 0.000000
vt 0.357143 0.000000
vt 0.190476 0.000000
vt 0.238095 0.000000
vt 0.650794 0.000000
vt 0.365079 0.000000
vt 0.198413 0.000000
vt 0.230159 0.000000
vt 0.642857 0.000000
vt 0.373016 0.000000
vt 0.206349 0.000000
vt 0.214286 0.000000
vt 0.380952 0.000000
vt 0.634921 0.000000
vt 0.388889 0.000000
vt 0.626984 0.000000
vt 0.396825 0.000000
vt 0.619048 0.000000
vt 0.404762 0.000000
vt 0.611111 0.000000
vt 0.412698 0.000000
vt 0.603175 0.000000
vt 0.420635 0.000000
vt 0.595238 0.000000
vt 0.428571 0.000000
vt 0.587302 0.000000
vt 0.436508 0.000000
vt 0.579365 0.000000
vt 0.452381 0.000000
vt 0.571429 0.000000
vt 0.460317 0.000000
vt 0.563492 0.000000
vt 0.468254 0.000000
vt 0.476190 0.000000
vt 0.547619 0.000000
vt 0.484127 0.000000
vt 0.539683 0.000000
vt 0.492063 0.000000
vt 0.531746 0.000000
vt 0.507937 0.000000
vt 0.523810 0.000000
vt 0.515873 0.000000
vt 0.830882 0.000000
vt 0.816176 0.000000
vt 0.823529 0.000000
vt 0.838235 0.000000
vt 0.845588 0.000000
vt 0.852941 0.000000
vt 0.808824 0.000000
vt 0.860294 0.000000
vt 0.801471 0.000000
vt 0.794118 0.000000
vt 0.867647 0.000000
vt 0.786765 0.000000
vt 0.875000 0.000000
vt 0.779412 0.000000
vt 0.882353 0.000000
vt 0.772059 0.000000
vt 0.889706 0.000000
vt 0.764706 0.000000
vt 0.897059 0.000000
vt 0.757353 0.000000
vt 0.904412 0.000000
vt 0.742647 0.000000
vt 0.911765 0.000000
vt 0.735294 0.000000
vt 0.919118 0.000000
vt 0.727941 0.000000
vt 0.720588 0.000000
vt 0.926471 0.000000
vt 0.713235 0.000000
vt 0.933824 0.000000
vt 0.705882 0.000000
vt 0.941176 0.000000
vt 0.698529 0.000000
vt 0.948529 0.000000
vt 0.691176 0.000000
vt 0.955882 0.000000
vt 0.683824 0.000000
vt 0.463235 0.000000
vt 0.448529 0.000000
vt 0.455882 0.000000
vt 0.963235 0.000000
vt 0.676471 0.000000
vt 0.441176 0.000000
vt 0.470588 0.000000
vt 0.477941 0.000000
vt 0.433824 0.000000
vt 0.970588 0.000000
vt 0.485294 0.000000
vt 0.669118 0.000000
vt 0.492647 0.000000
vt 0.426471 0.000000
vt 0.507353 0.000000
vt 0.977941 0.000000
vt 0.661765 0.000000
vt 0.514706 0.000000
vt 0.419118 0.000000
vt 0.522059 0.000000
vt 0.529412 0.000000
vt 0.654412 0.000000
vt 0.411765 0.000000
vt 0.985294 0.000000
vt 0.536765 0.000000
vt 0.544118 0.000000
vt 0.404412 0.000000
vt 0.647059 0.000000
vt 0.992647 0.000000
vt 0.551471 0.000000
vt 0.558824 0.000000
vt 0.397059 0.000000
vt 0.566176 0.000000
vt 0.573529 0.000000
vt 0.580882 0.000000
vt 0.639706 0.000000
vt 0.588235 0.000000
vt 0.595588 0.000000
vt 0.602941 0.000000
vt 0.610294 0.000000
vt 0.617647 0.000000
vt 0.625000 0.000000
vt 0.389706 0.000000
vt 0.632353 0.000000
vt 0.007353 0.000000
vt 0.014706 0.000000
vt 0.022059 0.000000
vt 0.029412 0.000000
vt 0.036765 0.000000
vt 0.095588 0.000000
vt 0.080882 0.000000
vt 0.088235 0.000000
vt 0.044118 0.000000
vt 0.073529 0.000000
vt 0.051471 0.000000
vt 0.066176 0.000000
vt 0.058824 0.000000
vt 0.132353 0.000000
vt 0.139706 0.000000
vt 0.147059 0.000000
vt 0.154412 0.000000
vt 0.161765 0.000000
vt 0.169118 0.000000
vt 0.272059 0.000000
vt 0.264706 0.000000
vt 0.279412 0.000000
vt 0.382353 0.000000
vt 0.257353 0.000000
vt 0.286765 0.000000
vt 0.242647 0.000000
vt 0.235294 0.000000
vt 0.294118 0.000000
vt 0.176471 0.000000
vt 0.227941 0.000000
vt 0.375000 0.000000
vt 0.301471 0.000000
vt 0.220588 0.000000
vt 0.213235 0.000000
vt 0.308824 0.000000
vt 0.205882 0.000000
vt 0.198529 0.000000
vt 0.316176 0.000000
vt 0.191176 0.000000
vt 0.367647 0.000000
vt 0.183824 0.000000
vt 0.323529 0.000000
vt 0.125000 0.000000
vt 0.117647 0.000000
vt 0.110294 0.000000
vt 0.102941 0.000000
vt 0.330882 0.000000
vt 0.338235 0.000000
vt 0.345588 0.000000
vt 0.352941 0.000000
vt 0.360294 0.000000
vt 0.013699 0.000000
vt 0.534247 0.000000
vt 0.506849 0.000000
vt 0.520548 0.000000
vt 0.986301 0.000000
vt 0.547945 0.000000
vt 0.972603 0.000000
vt 0.561644 0.000000
vt 0.958904 0.000000
vt 0.575342 0.000000
vt 0.945205 0.000000
vt 0.589041 0.000000
vt 0.931507 0.000000
vt 0.602740 0.000000
vt 0.917808 0.000000
vt 0.616438 0.000000
vt 0.904110 0.000000
vt 0.630137 0.000000
vt 0.890411 0.000000
vt 0.643836 0.000000
vt 0.876712 0.000000
vt 0.657534 0.000000
vt 0.863014 0.000000
vt 0.671233 0.000000
vt 0.849315 0.000000
vt 0.684932 0.000000
vt 0.835616 0.000000
vt 0.821918 0.000000
vt 0.808219 0.000000
vt 0.794521 0.000000
vt 0.780822 0.000000
vt 0.767123 0.000000
vt 0.753425 0.000000
vt 0.739726 0.000000
vt 0.726027 0.000000
vt 0.712329 0.000000
vt 0.698630 0.000000
vt 0.027397 0.000000
vt 0.041096 0.000000
vt 0.054795 0.000000
vt 0.068493 0.000000
vt 0.082192 0.000000
vt 0.095890 0.000000
vt 0.109589 0.000000
vt 0.123288 0.000000
vt 0.136986 0.000000
vt 0.150685 0.000000
vt 0.164384 0.000000
vt 0.178082 0.000000
vt 0.191781 0.000000
vt 0.205479 0.000000
vt 0.219178 0.000000
vt 0.260274 0.000000
vt 0.287671 0.000000
vt 0.342466 0.000000
vt 0.356164 0.000000
vt 0.369863 0.000000
vt 0.383562 0.000000
vt 0.397260 0.000000
vt 0.410959 0.000000
vt 0.424658 0.000000
vt 0.438356 0.000000
vt 0.232877 0.000000
vt 0.246575 0.000000
vt 0.273973 0.000000
vt 0.301370 0.000000
vt 0.315068 0.000000
vt 0.328767 0.000000
vt 0.452055 0.000000
vt 0.465753 0.000000
vt 0.479452 0.000000
vt 0.493151 0.000000
vt 0.142105 0.000000
vt 0.268421 0.000000
vt 0.136842 0.000000
vt 0.257895 0.000000
vt 0.147368 0.000000
vt 0.252632 0.000000
vt 0.152632 0.000000
vt 0.005263 0.000000
vt 0.131579 0.000000
vt 0.247368 0.000000
vt 0.126316 0.000000
vt 0.163158 0.000000
vt 0.242105 0.000000
vt 0.284211 0.000000
vt 0.273684 0.000000
vt 0.278947 0.000000
vt 0.121053 0.000000
vt 0.010526 0.000000
vt 0.289474 0.000000
vt 0.168421 0.000000
vt 0.236842 0.000000
vt 0.115789 0.000000
vt 0.294737 0.000000
vt 0.015789 0.000000
vt 0.173684 0.000000
vt 0.300000 0.000000
vt 0.231579 0.000000
vt 0.110526 0.000000
vt 0.994737 0.000000
vt 0.021053 0.000000
vt 0.305263 0.000000
vt 0.989474 0.000000
vt 0.178947 0.000000
vt 0.310526 0.000000
vt 0.226316 0.000000
vt 0.984211 0.000000
vt 0.026316 0.000000
vt 0.978947 0.000000
vt 0.184211 0.000000
vt 0.221053 0.000000
vt 0.321053 0.000000
vt 0.031579 0.000000
vt 0.100000 0.000000
vt 0.973684 0.000000
vt 0.326316 0.000000
vt 0.968421 0.000000
vt 0.189474 0.000000
vt 0.215789 0.000000
vt 0.331579 0.000000
vt 0.036842 0.000000
vt 0.963158 0.000000
vt 0.094737 0.000000
vt 0.336842 0.000000
vt 0.957895 0.000000
vt 0.194737 0.000000
vt 0.952632 0.000000
vt 0.042105 0.000000
vt 0.342105 0.000000
vt 0.089474 0.000000
vt 0.200000 0.000000
vt 0.205263 0.000000
vt 0.347368 0.000000
vt 0.942105 0.000000
vt 0.047368 0.000000
vt 0.084211 0.000000
vt 0.936842 0.000000
vt 0.352632 0.000000
vt 0.931579 0.000000
vt 0.078947 0.000000
vt 0.357895 0.000000
vt 0.926316 0.000000
vt 0.073684 0.000000
vt 0.057895 0.000000
vt 0.363158 0.000000
vt 0.921053 0.000000
vt 0.063158 0.000000
vt 0.068421 0.000000
vt 0.915789 0.000000
vt 0.910526 0.000000
vt 0.373684 0.000000
vt 0.905263 0.000000
vt 0.900000 0.000000
vt 0.378947 0.000000
vt 0.384211 0.000000
vt 0.889474 0.000000
vt 0.389474 0.000000
vt 0.884211 0.000000
vt 0.878947 0.000000
vt 0.394737 0.000000
vt 0.815789 0.000000
vt 0.805263 0.000000
vt 0.810526 0.000000
vt 0.821053 0.000000
vt 0.826316 0.000000
vt 0.831579 0.000000
vt 0.836842 0.000000
vt 0.847368 0.000000
vt 0.852632 0.000000
vt 0.857895 0.000000
vt 0.863158 0.000000
vt 0.868421 0.000000
vt 0.873684 0.000000
vt 0.400000 0.000000
vt 0.405263 0.000000
vt 0.410526 0.000000
vt 0.794737 0.000000
vt 0.800000 0.000000
vt 0.415789 0.000000
vt 0.768421 0.000000
vt 0.773684 0.000000
vt 0.778947 0.000000
vt 0.784211 0.000000
vt 0.536842 0.000000
vt 0.542105 0.000000
vt 0.742105 0.000000
vt 0.747368 0.000000
vt 0.752632 0.000000
vt 0.757895 0.000000
vt 0.763158 0.000000
vt 0.531579 0.000000
vt 0.547368 0.000000
vt 0.731579 0.000000
vt 0.426316 0.000000
vt 0.431579 0.000000
vt 0.521053 0.000000
vt 0.436842 0.000000
vt 0.515789 0.000000
vt 0.552632 0.000000
vt 0.442105 0.000000
vt 0.726316 0.000000
vt 0.510526 0.000000
vt 0.447368 0.000000
vt 0.505263 0.000000
vt 0.452632 0.000000
vt 0.557895 0.000000
vt 0.457895 0.000000
vt 0.721053 0.000000
vt 0.494737 0.000000
vt 0.463158 0.000000
vt 0.468421 0.000000
vt 0.489474 0.000000
vt 0.563158 0.000000
vt 0.484211 0.000000
vt 0.478947 0.000000
vt 0.715789 0.000000
vt 0.568421 0.000000
vt 0.710526 0.000000
vt 0.573684 0.000000
vt 0.705263 0.000000
vt 0.584211 0.000000
vt 0.700000 0.000000
vt 0.589474 0.000000
vt 0.694737 0.000000
vt 0.594737 0.000000
vt 0.600000 0.000000
vt 0.689474 0.000000
vt 0.605263 0.000000
vt 0.610526 0.000000
vt 0.615789 0.000000
vt 0.621053 0.000000
vt 0.626316 0.000000
vt 0.636842 0.000000
vt 0.642105 0.000000
vt 0.647368 0.000000
vt 0.652632 0.000000
vt 0.657895 0.000000
vt 0.663158 0.000000
vt 0.668421 0.000000
vt 0.678947 0.000000
vt 0.673684 0.000000
s 0
usemtl マテリアル.003
f 39/1/1 37/2/1 38/3/1
f 39/1/1 36/4/1 37/2/1
f 39/1/1 35/5/1 36/4/1
f 3/6/1 1/7/1 2/8/1
f 39/1/1 34/9/1 35/5/1
f 4/10/1 1/7/1 3/6/1
f 5/11/1 1/7/1 4/10/1
f 39/1/1 33/12/1 34/9/1
f 6/13/1 1/7/1 5/11/1
f 39/1/1 32/14/1 33/12/1
f 7/15/1 1/7/1 6/13/1
f 39/1/1 31/16/1 32/14/1
f 8/17/1 1/7/1 7/15/1
f 9/18/1 1/7/1 8/17/1
f 39/1/1 30/19/1 31/16/1
f 10/20/1 1/7/1 9/18/1
f 39/1/1 29/21/1 30/19/1
f 11/22/1 1/7/1 10/20/1
f 39/1/1 28/23/1 29/21/1
f 12/24/1 1/7/1 11/22/1
f 39/1/1 27/25/1 28/23/1
f 13/26/1 1/7/1 12/24/1
f 39/1/1 26/27/1 27/25/1
f 14/28/1 1/7/1 13/26/1
f 39/1/1 25/29/1 26/27/1
f 39/1/1 24/30/1 25/29/1
f 39/1/1 23/31/1 24/30/1
f 39/1/1 22/32/1 23/31/1
f 39/1/1 21/33/1 22/32/1
f 39/1/1 20/34/1 21/33/1
f 39/1/1 19/35/1 20/34/1
f 39/1/1 18/36/1 19/35/1
f 39/1/1 17/37/1 18/36/1
f 39/1/1 16/38/1 17/37/1
f 39/1/1 15/39/1 16/38/1
f 39/1/1 14/28/1 15/39/1
f 39/1/1 40/40/1 14/28/1
f 40/40/1 41/41/1 14/28/1
f 41/41/1 42/42/1 14/28/1
f 42/42/1 43/43/1 14/28/1
f 43/43/1 44/44/1 14/28/1
f 44/44/1 45/45/1 14/28/1
f 45/45/1 1/7/1 14/28/1
f 45/45/1 46/46/1 1/7/1
f 46/46/1 99/47/1 1/7/1
f 46/46/1 98/48/1 99/47/1
f 46/46/1 47/49/1 98/48/1
f 47/49/1 97/50/1 98/48/1
f 47/49/1 96/51/1 97/50/1
f 47/49/1 48/52/1 96/51/1
f 48/52/1 95/53/1 96/51/1
f 48/52/1 94/54/1 95/53/1
f 48/52/1 49/55/1 94/54/1
f 49/55/1 93/56/1 94/54/1
f 49/55/1 92/57/1 93/56/1
f 49/55/1 50/58/1 92/57/1
f 50/58/1 91/59/1 92/57/1
f 50/58/1 90/60/1 91/59/1
f 50/58/1 51/61/1 90/60/1
f 51/61/1 89/62/1 90/60/1
f 51/61/1 52/63/1 89/62/1
f 52/63/1 53/64/1 89/62/1
f 53/64/1 54/65/1 89/62/1
f 54/65/1 55/66/1 89/62/1
f 55/66/1 56/67/1 89/62/1
f 56/67/1 57/68/1 89/62/1
f 57/68/1 58/69/1 89/62/1
f 58/69/1 59/70/1 89/62/1
f 59/70/1 60/71/1 89/62/1
f 60/71/1 62/72/1 89/62/1
f 62/72/1 63/73/1 89/62/1
f 63/73/1 88/74/1 89/62/1
f 61/75/1 62/72/1 60/71/1
f 64/76/1 88/74/1 63/73/1
f 64/76/1 87/77/1 88/74/1
f 65/78/1 87/77/1 64/76/1
f 65/78/1 86/79/1 87/77/1
f 66/80/1 86/79/1 65/78/1
f 66/80/1 85/81/1 86/79/1
f 67/82/1 85/81/1 66/80/1
f 67/82/1 84/83/1 85/81/1
f 68/84/1 84/83/1 67/82/1
f 68/84/1 83/85/1 84/83/1
f 69/86/1 83/85/1 68/84/1
f 102/87/1 100/88/1 101/89/1
f 102/87/1 149/90/1 100/88/1
f 103/91/1 149/90/1 102/87/1
f 104/92/1 149/90/1 103/91/1
f 69/86/1 82/93/1 83/85/1
f 70/94/1 82/93/1 69/86/1
f 105/95/1 149/90/1 104/92/1
f 106/96/1 149/90/1 105/95/1
f 107/97/1 149/90/1 106/96/1
f 108/98/1 149/90/1 107/97/1
f 70/94/1 81/99/1 82/93/1
f 71/100/1 81/99/1 70/94/1
f 109/101/1 149/90/1 108/98/1
f 110/102/1 149/90/1 109/101/1
f 111/103/1 149/90/1 110/102/1
f 72/104/1 81/99/1 71/100/1
f 112/105/1 149/90/1 111/103/1
f 72/104/1 80/106/1 81/99/1
f 112/105/1 148/107/1 149/90/1
f 113/108/1 148/107/1 112/105/1
f 114/109/1 148/107/1 113/108/1
f 73/110/1 80/106/1 72/104/1
f 73/110/1 79/111/1 80/106/1
f 74/112/1 79/111/1 73/110/1
f 75/113/1 79/111/1 74/112/1
f 75/113/1 78/114/1 79/111/1
f 115/115/1 148/107/1 114/109/1
f 76/116/1 78/114/1 75/113/1
f 115/115/1 147/117/1 148/107/1
f 76/116/1 77/118/1 78/114/1
f 116/119/1 147/117/1 115/115/1
f 116/119/1 146/120/1 147/117/1
f 117/121/1 146/120/1 116/119/1
f 118/122/1 146/120/1 117/121/1
f 118/122/1 145/123/1 146/120/1
f 119/124/1 145/123/1 118/122/1
f 119/124/1 144/125/1 145/123/1
f 120/126/1 144/125/1 119/124/1
f 121/127/1 144/125/1 120/126/1
f 121/127/1 143/128/1 144/125/1
f 122/129/1 143/128/1 121/127/1
f 122/129/1 142/130/1 143/128/1
f 123/131/1 142/130/1 122/129/1
f 124/132/1 142/130/1 123/131/1
f 124/132/1 141/133/1 142/130/1
f 125/134/1 141/133/1 124/132/1
f 125/134/1 140/135/1 141/133/1
f 126/136/1 140/135/1 125/134/1
f 127/137/1 140/135/1 126/136/1
f 128/138/1 140/135/1 127/137/1
f 129/139/1 140/135/1 128/138/1
f 130/140/1 140/135/1 129/139/1
f 131/141/1 140/135/1 130/140/1
f 132/142/1 140/135/1 131/141/1
f 133/143/1 140/135/1 132/142/1
f 134/144/1 140/135/1 133/143/1
f 134/144/1 139/145/1 140/135/1
f 135/146/1 139/145/1 134/144/1
f 136/147/1 139/145/1 135/146/1
f 137/148/1 139/145/1 136/147/1
f 138/149/1 139/145/1 137/148/1
f 226/150/1 224/151/1 225/152/1
f 226/150/1 321/90/1 224/151/1
f 227/153/1 321/90/1 226/150/1
f 227/153/1 320/154/1 321/90/1
f 228/155/1 320/154/1 227/153/1
f 228/155/1 319/156/1 320/154/1
f 229/157/1 319/156/1 228/155/1
f 229/157/1 318/158/1 319/156/1
f 230/159/1 318/158/1 229/157/1
f 230/159/1 317/160/1 318/158/1
f 231/161/1 317/160/1 230/159/1
f 231/161/1 316/162/1 317/160/1
f 232/163/1 316/162/1 231/161/1
f 232/163/1 315/164/1 316/162/1
f 233/165/1 315/164/1 232/163/1
f 233/165/1 314/166/1 315/164/1
f 234/167/1 314/166/1 233/165/1
f 234/167/1 313/168/1 314/166/1
f 235/169/1 313/168/1 234/167/1
f 235/169/1 312/170/1 313/168/1
f 236/171/1 312/170/1 235/169/1
f 236/171/1 311/172/1 312/170/1
f 237/173/1 311/172/1 236/171/1
f 237/173/1 310/174/1 311/172/1
f 238/175/1 310/174/1 237/173/1
f 238/175/1 309/176/1 310/174/1
f 239/177/1 309/176/1 238/175/1
f 239/177/1 308/178/1 309/176/1
f 240/179/1 308/178/1 239/177/1
f 240/179/1 307/180/1 308/178/1
f 241/181/1 307/180/1 240/179/1
f 241/181/1 306/182/1 307/180/1
f 242/183/1 306/182/1 241/181/1
f 242/183/1 305/184/1 306/182/1
f 243/185/1 305/184/1 242/183/1
f 243/185/1 304/186/1 305/184/1
f 244/187/1 304/186/1 243/185/1
f 244/187/1 303/188/1 304/186/1
f 245/189/1 303/188/1 244/187/1
f 245/189/1 302/190/1 303/188/1
f 246/191/1 302/190/1 245/189/1
f 246/191/1 301/192/1 302/190/1
f 247/193/1 301/192/1 246/191/1
f 247/193/1 300/194/1 301/192/1
f 248/195/1 300/194/1 247/193/1
f 248/195/1 299/196/1 300/194/1
f 249/197/1 299/196/1 248/195/1
f 249/197/1 298/198/1 299/196/1
f 250/199/1 298/198/1 249/197/1
f 250/199/1 297/200/1 298/198/1
f 251/201/1 297/200/1 250/199/1
f 251/201/1 296/202/1 297/200/1
f 252/203/1 296/202/1 251/201/1
f 252/203/1 295/204/1 296/202/1
f 253/205/1 295/204/1 252/203/1
f 253/205/1 294/206/1 295/204/1
f 254/207/1 294/206/1 253/205/1
f 255/208/1 294/206/1 254/207/1
f 255/208/1 293/209/1 294/206/1
f 256/210/1 293/209/1 255/208/1
f 256/210/1 292/211/1 293/209/1
f 257/212/1 292/211/1 256/210/1
f 257/212/1 291/213/1 292/211/1
f 258/214/1 291/213/1 257/212/1
f 259/215/1 291/213/1 258/214/1
f 259/215/1 290/216/1 291/213/1
f 260/217/1 290/216/1 259/215/1
f 260/217/1 289/218/1 290/216/1
f 261/219/1 289/218/1 260/217/1
f 261/219/1 288/220/1 289/218/1
f 262/221/1 288/220/1 261/219/1
f 262/221/1 287/222/1 288/220/1
f 263/223/1 287/222/1 262/221/1
f 264/224/1 287/222/1 263/223/1
f 264/224/1 286/225/1 287/222/1
f 265/226/1 286/225/1 264/224/1
f 265/226/1 285/227/1 286/225/1
f 266/228/1 285/227/1 265/226/1
f 267/229/1 285/227/1 266/228/1
f 267/229/1 284/230/1 285/227/1
f 268/231/1 284/230/1 267/229/1
f 268/231/1 283/232/1 284/230/1
f 269/233/1 283/232/1 268/231/1
f 270/234/1 283/232/1 269/233/1
f 270/234/1 282/235/1 283/232/1
f 271/236/1 282/235/1 270/234/1
f 272/237/1 282/235/1 271/236/1
f 272/237/1 281/238/1 282/235/1
f 273/239/1 281/238/1 272/237/1
f 274/240/1 281/238/1 273/239/1
f 274/240/1 280/241/1 281/238/1
f 274/240/1 279/242/1 280/241/1
f 274/240/1 278/243/1 279/242/1
f 274/240/1 277/244/1 278/243/1
f 274/240/1 276/245/1 277/244/1
f 274/240/1 275/246/1 276/245/1
f 152/247/1 150/7/1 151/248/1
f 152/247/1 223/249/1 150/7/1
f 152/247/1 222/250/1 223/249/1
f 153/251/1 222/250/1 152/247/1
f 153/251/1 221/252/1 222/250/1
f 154/253/1 221/252/1 153/251/1
f 154/253/1 220/254/1 221/252/1
f 155/255/1 220/254/1 154/253/1
f 155/255/1 219/256/1 220/254/1
f 156/257/1 219/256/1 155/255/1
f 156/257/1 218/258/1 219/256/1
f 157/259/1 218/258/1 156/257/1
f 157/259/1 217/260/1 218/258/1
f 158/261/1 217/260/1 157/259/1
f 158/261/1 216/262/1 217/260/1
f 159/263/1 216/262/1 158/261/1
f 159/263/1 215/264/1 216/262/1
f 160/265/1 215/264/1 159/263/1
f 160/265/1 214/266/1 215/264/1
f 161/267/1 214/266/1 160/265/1
f 161/267/1 213/268/1 214/266/1
f 162/269/1 213/268/1 161/267/1
f 162/269/1 212/270/1 213/268/1
f 163/271/1 212/270/1 162/269/1
f 164/272/1 212/270/1 163/271/1
f 164/272/1 211/273/1 212/270/1
f 165/274/1 211/273/1 164/272/1
f 165/274/1 210/275/1 211/273/1
f 166/276/1 210/275/1 165/274/1
f 166/276/1 209/277/1 210/275/1
f 167/278/1 209/277/1 166/276/1
f 167/278/1 208/279/1 209/277/1
f 168/280/1 208/279/1 167/278/1
f 168/280/1 207/281/1 208/279/1
f 169/282/1 207/281/1 168/280/1
f 169/282/1 206/283/1 207/281/1
f 170/284/1 206/283/1 169/282/1
f 170/284/1 205/285/1 206/283/1
f 171/286/1 205/285/1 170/284/1
f 171/286/1 204/287/1 205/285/1
f 172/288/1 204/287/1 171/286/1
f 172/288/1 203/289/1 204/287/1
f 173/290/1 203/289/1 172/288/1
f 173/290/1 202/291/1 203/289/1
f 174/292/1 202/291/1 173/290/1
f 174/292/1 201/293/1 202/291/1
f 175/294/1 201/293/1 174/292/1
f 175/294/1 200/295/1 201/293/1
f 176/296/1 200/295/1 175/294/1
f 176/296/1 199/297/1 200/295/1
f 176/296/1 198/298/1 199/297/1
f 177/299/1 198/298/1 176/296/1
f 177/299/1 197/300/1 198/298/1
f 178/301/1 197/300/1 177/299/1
f 178/301/1 196/302/1 197/300/1
f 179/303/1 196/302/1 178/301/1
f 179/303/1 195/304/1 196/302/1
f 180/305/1 195/304/1 179/303/1
f 180/305/1 194/306/1 195/304/1
f 181/307/1 194/306/1 180/305/1
f 181/307/1 193/308/1 194/306/1
f 182/309/1 193/308/1 181/307/1
f 182/309/1 192/310/1 193/308/1
f 183/311/1 192/310/1 182/309/1
f 183/311/1 191/312/1 192/310/1
f 184/313/1 191/312/1 183/311/1
f 184/313/1 190/314/1 191/312/1
f 185/315/1 190/314/1 184/313/1
f 185/315/1 189/316/1 190/314/1
f 186/317/1 189/316/1 185/315/1
f 186/317/1 188/318/1 189/316/1
f 187/319/1 188/318/1 186/317/1
f 324/320/1 322/7/1 323/321/1
f 325/322/1 322/7/1 324/320/1
f 326/323/1 322/7/1 325/322/1
f 327/324/1 322/7/1 326/323/1
f 328/325/1 322/7/1 327/324/1
f 328/325/1 448/90/1 322/7/1
f 329/326/1 448/90/1 328/325/1
f 329/326/1 447/327/1 448/90/1
f 330/328/1 447/327/1 329/326/1
f 330/328/1 446/329/1 447/327/1
f 331/330/1 446/329/1 330/328/1
f 331/330/1 445/331/1 446/329/1
f 332/332/1 445/331/1 331/330/1
f 332/332/1 444/333/1 445/331/1
f 333/334/1 444/333/1 332/332/1
f 333/334/1 443/335/1 444/333/1
f 334/336/1 443/335/1 333/334/1
f 334/336/1 442/337/1 443/335/1
f 335/338/1 442/337/1 334/336/1
f 336/282/1 442/337/1 335/338/1
f 336/282/1 441/339/1 442/337/1
f 336/282/1 440/340/1 441/339/1
f 336/282/1 439/341/1 440/340/1
f 336/282/1 438/342/1 439/341/1
f 337/343/1 438/342/1 336/282/1
f 337/343/1 437/344/1 438/342/1
f 337/343/1 436/345/1 437/344/1
f 338/346/1 436/345/1 337/343/1
f 424/347/1 422/348/1 423/349/1
f 425/350/1 422/348/1 424/347/1
f 426/351/1 422/348/1 425/350/1
f 427/352/1 422/348/1 426/351/1
f 428/353/1 422/348/1 427/352/1
f 429/354/1 422/348/1 428/353/1
f 430/355/1 422/348/1 429/354/1
f 431/356/1 422/348/1 430/355/1
f 432/357/1 422/348/1 431/356/1
f 433/358/1 422/348/1 432/357/1
f 434/190/1 422/348/1 433/358/1
f 435/359/1 422/348/1 434/190/1
f 338/346/1 435/359/1 436/345/1
f 338/346/1 422/348/1 435/359/1
f 339/360/1 422/348/1 338/346/1
f 339/360/1 421/361/1 422/348/1
f 340/362/1 421/361/1 339/360/1
f 340/362/1 420/232/1 421/361/1
f 340/362/1 419/363/1 420/232/1
f 340/362/1 418/364/1 419/363/1
f 340/362/1 417/365/1 418/364/1
f 340/362/1 416/366/1 417/365/1
f 340/362/1 415/367/1 416/366/1
f 340/362/1 414/368/1 415/367/1
f 341/369/1 360/370/1 340/362/1
f 360/370/1 414/368/1 340/362/1
f 360/370/1 413/371/1 414/368/1
f 360/370/1 361/372/1 413/371/1
f 361/372/1 412/373/1 413/371/1
f 341/369/1 359/374/1 360/370/1
f 362/375/1 412/373/1 361/372/1
f 362/375/1 411/376/1 412/373/1
f 362/375/1 410/377/1 411/376/1
f 362/375/1 409/378/1 410/377/1
f 342/379/1 359/374/1 341/369/1
f 342/379/1 358/380/1 359/374/1
f 363/381/1 409/378/1 362/375/1
f 363/381/1 408/382/1 409/378/1
f 342/379/1 357/383/1 358/380/1
f 364/281/1 408/382/1 363/381/1
f 343/384/1 357/383/1 342/379/1
f 343/384/1 356/385/1 357/383/1
f 364/281/1 407/386/1 408/382/1
f 365/387/1 407/386/1 364/281/1
f 344/388/1 356/385/1 343/384/1
f 344/388/1 355/389/1 356/385/1
f 365/387/1 406/224/1 407/386/1
f 366/390/1 406/224/1 365/387/1
f 344/388/1 354/391/1 355/389/1
f 345/392/1 354/391/1 344/388/1
f 366/390/1 405/393/1 406/224/1
f 345/392/1 353/394/1 354/391/1
f 367/395/1 405/393/1 366/390/1
f 346/396/1 353/394/1 345/392/1
f 346/396/1 352/397/1 353/394/1
f 367/395/1 404/398/1 405/393/1
f 368/399/1 404/398/1 367/395/1
f 347/400/1 352/397/1 346/396/1
f 347/400/1 351/401/1 352/397/1
f 368/399/1 403/402/1 404/398/1
f 369/403/1 403/402/1 368/399/1
f 347/400/1 350/318/1 351/401/1
f 348/404/1 350/318/1 347/400/1
f 348/404/1 349/405/1 350/318/1
f 370/406/1 403/402/1 369/403/1
f 370/406/1 402/407/1 403/402/1
f 371/408/1 402/407/1 370/406/1
f 371/408/1 401/409/1 402/407/1
f 372/410/1 401/409/1 371/408/1
f 372/410/1 400/411/1 401/409/1
f 373/412/1 400/411/1 372/410/1
f 373/412/1 399/413/1 400/411/1
f 374/414/1 399/413/1 373/412/1
f 374/414/1 398/415/1 399/413/1
f 375/416/1 398/415/1 374/414/1
f 375/416/1 397/417/1 398/415/1
f 376/418/1 397/417/1 375/416/1
f 376/418/1 396/419/1 397/417/1
f 377/420/1 396/419/1 376/418/1
f 377/420/1 395/421/1 396/419/1
f 378/150/1 395/421/1 377/420/1
f 379/422/1 395/421/1 378/150/1
f 379/422/1 394/423/1 395/421/1
f 380/424/1 394/423/1 379/422/1
f 380/424/1 393/425/1 394/423/1
f 381/426/1 393/425/1 380/424/1
f 381/426/1 392/189/1 393/425/1
f 382/427/1 392/189/1 381/426/1
f 382/427/1 391/428/1 392/189/1
f 383/429/1 391/428/1 382/427/1
f 383/429/1 390/430/1 391/428/1
f 384/431/1 390/430/1 383/429/1
f 385/113/1 390/430/1 384/431/1
f 385/113/1 389/432/1 390/430/1
f 386/433/1 389/432/1 385/113/1
f 386/433/1 388/434/1 389/432/1
f 386/433/1 387/435/1 388/434/1
f 562/436/1 560/437/1 561/438/1
f 563/439/1 560/437/1 562/436/1
f 564/440/1 560/437/1 563/439/1
f 565/441/1 560/437/1 564/440/1
f 565/441/1 559/442/1 560/437/1
f 566/443/1 559/442/1 565/441/1
f 566/443/1 558/444/1 559/442/1
f 566/443/1 557/445/1 558/444/1
f 567/446/1 557/445/1 566/443/1
f 567/446/1 556/447/1 557/445/1
f 568/448/1 556/447/1 567/446/1
f 568/448/1 555/449/1 556/447/1
f 569/450/1 555/449/1 568/448/1
f 569/450/1 554/451/1 555/449/1
f 570/452/1 554/451/1 569/450/1
f 570/452/1 553/453/1 554/451/1
f 571/454/1 553/453/1 570/452/1
f 571/454/1 552/455/1 553/453/1
f 572/456/1 552/455/1 571/454/1
f 572/456/1 551/105/1 552/455/1
f 572/456/1 550/457/1 551/105/1
f 573/458/1 550/457/1 572/456/1
f 573/458/1 549/459/1 550/457/1
f 574/460/1 549/459/1 573/458/1
f 574/460/1 548/461/1 549/459/1
f 574/460/1 547/462/1 548/461/1
f 575/463/1 547/462/1 574/460/1
f 575/463/1 546/464/1 547/462/1
f 576/465/1 546/464/1 575/463/1
f 576/465/1 545/466/1 546/464/1
f 577/467/1 545/466/1 576/465/1
f 577/467/1 544/468/1 545/466/1
f 578/469/1 544/468/1 577/467/1
f 578/469/1 543/470/1 544/468/1
f 579/471/1 543/470/1 578/469/1
f 579/471/1 542/472/1 543/470/1
f 512/473/1 510/474/1 511/475/1
f 580/476/1 542/472/1 579/471/1
f 580/476/1 541/477/1 542/472/1
f 512/473/1 509/478/1 510/474/1
f 513/479/1 509/478/1 512/473/1
f 514/480/1 509/478/1 513/479/1
f 514/480/1 508/481/1 509/478/1
f 581/482/1 541/477/1 580/476/1
f 515/483/1 508/481/1 514/480/1
f 581/482/1 540/484/1 541/477/1
f 516/485/1 508/481/1 515/483/1
f 517/113/1 508/481/1 516/485/1
f 517/113/1 507/486/1 508/481/1
f 518/487/1 507/486/1 517/113/1
f 582/488/1 540/484/1 581/482/1
f 582/488/1 539/489/1 540/484/1
f 519/490/1 507/486/1 518/487/1
f 519/490/1 506/491/1 507/486/1
f 520/492/1 506/491/1 519/490/1
f 521/493/1 506/491/1 520/492/1
f 582/488/1 538/494/1 539/489/1
f 521/493/1 505/495/1 506/491/1
f 583/496/1 538/494/1 582/488/1
f 522/497/1 505/495/1 521/493/1
f 523/498/1 505/495/1 522/497/1
f 523/498/1 504/499/1 505/495/1
f 583/496/1 537/500/1 538/494/1
f 584/501/1 537/500/1 583/496/1
f 524/502/1 504/499/1 523/498/1
f 525/503/1 504/499/1 524/502/1
f 525/503/1 503/504/1 504/499/1
f 526/505/1 503/504/1 525/503/1
f 527/506/1 503/504/1 526/505/1
f 528/507/1 503/504/1 527/506/1
f 584/501/1 536/508/1 537/500/1
f 529/509/1 503/504/1 528/507/1
f 585/90/1 536/508/1 584/501/1
f 530/510/1 503/504/1 529/509/1
f 531/511/1 503/504/1 530/510/1
f 532/512/1 503/504/1 531/511/1
f 533/513/1 503/504/1 532/512/1
f 534/514/1 503/504/1 533/513/1
f 534/514/1 502/515/1 503/504/1
f 535/516/1 502/515/1 534/514/1
f 536/508/1 502/515/1 535/516/1
f 585/90/1 502/515/1 536/508/1
f 449/7/1 502/515/1 585/90/1
f 450/517/1 502/515/1 449/7/1
f 451/518/1 502/515/1 450/517/1
f 452/519/1 502/515/1 451/518/1
f 453/520/1 502/515/1 452/519/1
f 454/521/1 502/515/1 453/520/1
f 462/522/1 460/523/1 461/524/1
f 455/525/1 502/515/1 454/521/1
f 462/522/1 459/526/1 460/523/1
f 456/527/1 502/515/1 455/525/1
f 462/522/1 458/528/1 459/526/1
f 457/529/1 502/515/1 456/527/1
f 462/522/1 457/529/1 458/528/1
f 462/522/1 467/530/1 457/529/1
f 467/530/1 468/531/1 457/529/1
f 468/531/1 469/532/1 457/529/1
f 469/532/1 470/533/1 457/529/1
f 470/533/1 471/534/1 457/529/1
f 471/534/1 472/535/1 457/529/1
f 472/535/1 486/536/1 457/529/1
f 486/536/1 502/515/1 457/529/1
f 472/535/1 485/537/1 486/536/1
f 487/538/1 502/515/1 486/536/1
f 487/538/1 501/539/1 502/515/1
f 472/535/1 484/540/1 485/537/1
f 472/535/1 483/3/1 484/540/1
f 488/541/1 501/539/1 487/538/1
f 472/535/1 482/542/1 483/3/1
f 472/535/1 481/543/1 482/542/1
f 489/544/1 501/539/1 488/541/1
f 472/535/1 473/545/1 481/543/1
f 473/545/1 480/546/1 481/543/1
f 489/544/1 500/547/1 501/539/1
f 490/548/1 500/547/1 489/544/1
f 473/545/1 479/549/1 480/546/1
f 473/545/1 478/550/1 479/549/1
f 491/551/1 500/547/1 490/548/1
f 473/545/1 477/552/1 478/550/1
f 473/545/1 476/553/1 477/552/1
f 492/554/1 500/547/1 491/551/1
f 473/545/1 475/555/1 476/553/1
f 492/554/1 499/556/1 500/547/1
f 473/545/1 474/557/1 475/555/1
f 493/558/1 499/556/1 492/554/1
f 462/522/1 466/559/1 467/530/1
f 462/522/1 465/560/1 466/559/1
f 462/522/1 464/561/1 465/560/1
f 462/522/1 463/562/1 464/561/1
f 494/563/1 499/556/1 493/558/1
f 495/564/1 499/556/1 494/563/1
f 495/564/1 496/565/1 499/556/1
f 496/565/1 497/566/1 499/556/1
f 497/566/1 498/567/1 499/556/1
f 587/568/1 659/90/1 586/7/1
f 625/569/1 623/570/1 624/571/1
f 587/568/1 658/572/1 659/90/1
f 626/573/1 623/570/1 625/569/1
f 587/568/1 657/574/1 658/572/1
f 627/575/1 623/570/1 626/573/1
f 587/568/1 656/576/1 657/574/1
f 628/577/1 623/570/1 627/575/1
f 587/568/1 655/578/1 656/576/1
f 629/579/1 623/570/1 628/577/1
f 587/568/1 654/580/1 655/578/1
f 630/581/1 623/570/1 629/579/1
f 587/568/1 653/582/1 654/580/1
f 631/583/1 623/570/1 630/581/1
f 587/568/1 652/584/1 653/582/1
f 632/585/1 623/570/1 631/583/1
f 587/568/1 651/586/1 652/584/1
f 633/587/1 623/570/1 632/585/1
f 587/568/1 650/588/1 651/586/1
f 634/589/1 623/570/1 633/587/1
f 587/568/1 649/590/1 650/588/1
f 635/591/1 623/570/1 634/589/1
f 587/568/1 648/592/1 649/590/1
f 636/593/1 623/570/1 635/591/1
f 587/568/1 647/594/1 648/592/1
f 587/568/1 646/595/1 647/594/1
f 587/568/1 645/596/1 646/595/1
f 587/568/1 644/597/1 645/596/1
f 587/568/1 643/598/1 644/597/1
f 587/568/1 642/599/1 643/598/1
f 587/568/1 641/600/1 642/599/1
f 587/568/1 640/601/1 641/600/1
f 587/568/1 639/602/1 640/601/1
f 587/568/1 638/603/1 639/602/1
f 587/568/1 637/604/1 638/603/1
f 587/568/1 636/593/1 637/604/1
f 587/568/1 588/605/1 636/593/1
f 588/605/1 589/606/1 636/593/1
f 589/606/1 590/607/1 636/593/1
f 590/607/1 591/608/1 636/593/1
f 591/608/1 592/609/1 636/593/1
f 592/609/1 593/610/1 636/593/1
f 593/610/1 594/611/1 636/593/1
f 594/611/1 595/612/1 636/593/1
f 595/612/1 596/613/1 636/593/1
f 596/613/1 597/614/1 636/593/1
f 597/614/1 598/615/1 636/593/1
f 598/615/1 599/616/1 636/593/1
f 599/616/1 600/617/1 636/593/1
f 600/617/1 601/618/1 636/593/1
f 601/618/1 602/619/1 636/593/1
f 602/619/1 605/620/1 636/593/1
f 605/620/1 607/621/1 636/593/1
f 607/621/1 611/622/1 636/593/1
f 611/622/1 612/623/1 636/593/1
f 612/623/1 613/624/1 636/593/1
f 613/624/1 614/625/1 636/593/1
f 614/625/1 615/626/1 636/593/1
f 615/626/1 616/627/1 636/593/1
f 616/627/1 617/628/1 636/593/1
f 617/628/1 618/629/1 636/593/1
f 618/629/1 623/570/1 636/593/1
f 603/630/2 605/620/2 602/619/2
f 604/631/1 605/620/1 603/630/1
f 606/632/1 607/621/1 605/620/1
f 608/633/1 611/622/1 607/621/1
f 609/634/1 611/622/1 608/633/1
f 610/635/1 611/622/1 609/634/1
f 619/636/1 623/570/1 618/629/1
f 620/637/1 623/570/1 619/636/1
f 621/638/1 623/570/1 620/637/1
f 622/639/1 623/570/1 621/638/1
f 687/640/1 711/641/1 686/642/1
f 687/640/1 710/304/1 711/641/1
f 687/640/1 709/643/1 710/304/1
f 688/644/1 709/643/1 687/640/1
f 688/644/1 708/645/1 709/643/1
f 689/646/1 708/645/1 688/644/1
f 661/647/1 685/648/1 660/7/1
f 690/299/1 708/645/1 689/646/1
f 690/299/1 707/649/1 708/645/1
f 661/647/1 684/650/1 685/648/1
f 691/651/1 707/649/1 690/299/1
f 691/651/1 706/652/1 707/649/1
f 714/653/1 712/654/1 713/655/1
f 661/647/1 683/656/1 684/650/1
f 662/657/1 683/656/1 661/647/1
f 715/658/1 712/654/1 714/653/1
f 692/659/1 706/652/1 691/651/1
f 692/659/1 705/660/1 706/652/1
f 662/657/1 682/661/1 683/656/1
f 716/662/1 712/654/1 715/658/1
f 663/663/1 682/661/1 662/657/1
f 716/662/1 850/90/1 712/654/1
f 693/664/1 705/660/1 692/659/1
f 717/665/1 850/90/1 716/662/1
f 693/664/1 704/666/1 705/660/1
f 663/663/1 681/667/1 682/661/1
f 717/665/1 849/668/1 850/90/1
f 664/669/1 681/667/1 663/663/1
f 718/670/1 849/668/1 717/665/1
f 718/670/1 848/671/1 849/668/1
f 694/672/1 704/666/1 693/664/1
f 719/673/1 848/671/1 718/670/1
f 694/672/1 703/674/1 704/666/1
f 664/669/1 680/280/1 681/667/1
f 719/673/1 847/675/1 848/671/1
f 665/676/1 680/280/1 664/669/1
f 720/287/1 847/675/1 719/673/1
f 720/287/1 846/677/1 847/675/1
f 695/678/1 703/674/1 694/672/1
f 695/678/1 702/679/1 703/674/1
f 721/680/1 846/677/1 720/287/1
f 666/681/1 680/280/1 665/676/1
f 666/681/1 679/682/1 680/280/1
f 721/680/1 845/683/1 846/677/1
f 722/684/1 845/683/1 721/680/1
f 722/684/1 844/685/1 845/683/1
f 696/686/1 702/679/1 695/678/1
f 696/686/1 701/687/1 702/679/1
f 723/688/1 844/685/1 722/684/1
f 667/689/1 679/682/1 666/681/1
f 723/688/1 843/690/1 844/685/1
f 667/689/1 678/691/1 679/682/1
f 724/692/1 843/690/1 723/688/1
f 724/692/1 842/693/1 843/690/1
f 697/694/1 701/687/1 696/686/1
f 697/694/1 700/317/1 701/687/1
f 724/692/1 841/695/1 842/693/1
f 668/696/1 678/691/1 667/689/1
f 725/697/1 841/695/1 724/692/1
f 668/696/1 677/698/1 678/691/1
f 697/694/1 698/699/1 700/317/1
f 698/699/1 699/700/1 700/317/1
f 725/697/1 840/170/1 841/695/1
f 726/701/1 840/170/1 725/697/1
f 726/701/1 839/702/1 840/170/1
f 669/703/1 677/698/1 668/696/1
f 669/703/1 676/704/1 677/698/1
f 726/701/1 838/705/1 839/702/1
f 727/706/1 838/705/1 726/701/1
f 727/706/1 837/707/1 838/705/1
f 669/703/1 675/708/1 676/704/1
f 670/263/1 675/708/1 669/703/1
f 728/709/1 837/707/1 727/706/1
f 728/709/1 836/710/1 837/707/1
f 670/263/1 674/711/1 675/708/1
f 671/712/1 674/711/1 670/263/1
f 729/713/1 836/710/1 728/709/1
f 729/713/1 835/714/1 836/710/1
f 671/712/1 672/715/1 674/711/1
f 672/715/1 673/716/1 674/711/1
f 729/713/1 834/717/1 835/714/1
f 730/268/1 834/717/1 729/713/1
f 730/268/1 833/718/1 834/717/1
f 731/719/1 833/718/1 730/268/1
f 731/719/1 832/720/1 833/718/1
f 731/719/1 831/721/1 832/720/1
f 732/722/1 831/721/1 731/719/1
f 732/722/1 830/188/1 831/721/1
f 733/723/1 830/188/1 732/722/1
f 733/723/1 829/724/1 830/188/1
f 734/725/1 829/724/1 733/723/1
f 734/725/1 828/726/1 829/724/1
f 734/725/1 827/727/1 828/726/1
f 735/728/1 827/727/1 734/725/1
f 815/729/1 813/730/1 814/731/1
f 816/732/1 813/730/1 815/729/1
f 817/733/1 813/730/1 816/732/1
f 818/734/1 813/730/1 817/733/1
f 819/735/1 813/730/1 818/734/1
f 820/206/1 813/730/1 819/735/1
f 821/736/1 813/730/1 820/206/1
f 822/737/1 813/730/1 821/736/1
f 823/738/1 813/730/1 822/737/1
f 824/739/1 813/730/1 823/738/1
f 825/740/1 813/730/1 824/739/1
f 826/741/1 813/730/1 825/740/1
f 735/728/1 826/741/1 827/727/1
f 735/728/1 813/730/1 826/741/1
f 736/742/1 813/730/1 735/728/1
f 737/743/1 813/730/1 736/742/1
f 738/744/1 811/745/1 737/743/1
f 811/745/1 812/746/1 737/743/1
f 812/746/1 813/730/1 737/743/1
f 739/747/1 806/748/1 738/744/1
f 806/748/1 807/749/1 738/744/1
f 807/749/1 808/750/1 738/744/1
f 808/750/1 809/751/1 738/744/1
f 809/751/1 810/227/1 738/744/1
f 810/227/1 811/745/1 738/744/1
f 740/250/1 762/752/1 739/747/1
f 762/752/1 763/753/1 739/747/1
f 763/753/1 800/245/1 739/747/1
f 800/245/1 801/754/1 739/747/1
f 801/754/1 802/755/1 739/747/1
f 802/755/1 803/756/1 739/747/1
f 803/756/1 804/757/1 739/747/1
f 804/757/1 805/758/1 739/747/1
f 805/758/1 806/748/1 739/747/1
f 740/250/1 761/759/1 762/752/1
f 764/760/1 800/245/1 763/753/1
f 764/760/1 799/761/1 800/245/1
f 741/762/1 761/759/1 740/250/1
f 741/762/1 760/179/1 761/759/1
f 742/763/1 760/179/1 741/762/1
f 742/763/1 759/764/1 760/179/1
f 743/765/1 759/764/1 742/763/1
f 743/765/1 758/766/1 759/764/1
f 765/767/1 799/761/1 764/760/1
f 744/768/1 758/766/1 743/765/1
f 765/767/1 798/769/1 799/761/1
f 744/768/1 757/770/1 758/766/1
f 745/771/1 757/770/1 744/768/1
f 745/771/1 756/772/1 757/770/1
f 746/773/1 756/772/1 745/771/1
f 766/774/1 798/769/1 765/767/1
f 746/773/1 755/113/1 756/772/1
f 747/775/1 755/113/1 746/773/1
f 766/774/1 797/776/1 798/769/1
f 747/775/1 754/777/1 755/113/1
f 748/778/1 754/777/1 747/775/1
f 749/779/1 754/777/1 748/778/1
f 749/779/1 753/780/1 754/777/1
f 750/161/1 753/780/1 749/779/1
f 767/781/1 797/776/1 766/774/1
f 750/161/1 752/782/1 753/780/1
f 750/161/1 751/783/1 752/782/1
f 767/781/1 796/784/1 797/776/1
f 768/785/1 796/784/1 767/781/1
f 768/785/1 795/786/1 796/784/1
f 769/787/1 795/786/1 768/785/1
f 770/197/1 795/786/1 769/787/1
f 770/197/1 794/788/1 795/786/1
f 771/789/1 794/788/1 770/197/1
f 771/789/1 793/790/1 794/788/1
f 772/791/1 793/790/1 771/789/1
f 772/791/1 792/792/1 793/790/1
f 773/793/1 792/792/1 772/791/1
f 774/794/1 792/792/1 773/793/1
f 774/794/1 791/795/1 792/792/1
f 775/796/1 791/795/1 774/794/1
f 776/797/1 791/795/1 775/796/1
f 777/798/1 791/795/1 776/797/1
f 778/799/1 791/795/1 777/798/1
f 778/799/1 790/229/1 791/795/1
f 779/800/1 790/229/1 778/799/1
f 780/214/1 790/229/1 779/800/1
f 781/801/1 790/229/1 780/214/1
f 782/802/1 790/229/1 781/801/1
f 783/803/1 790/229/1 782/802/1
f 784/804/1 790/229/1 783/803/1
f 785/805/1 790/229/1 784/804/1
f 786/806/1 790/229/1 785/805/1
f 787/807/1 790/229/1 786/806/1
f 787/807/1 789/808/1 790/229/1
f 788/809/1 789/808/1 787/807/1
