# Blender 4.4.1
# www.blender.org
mtllib skydome.mtl
o 球
v -0.000060 2.544178 0.505882
v -0.000060 2.396563 0.992504
v -0.000060 2.156849 1.440977
v -0.000060 1.834250 1.834066
v -0.000060 1.441160 2.156670
v -0.000060 0.992686 2.396383
v -0.000060 0.506063 2.543999
v -0.000060 -0.000006 2.593842
v -0.000060 -0.506076 2.543999
v -0.000060 -2.156864 1.440977
v -0.098790 2.544178 0.496158
v -0.193725 2.396563 0.973430
v -0.281218 2.156849 1.413286
v -0.357906 1.834250 1.798822
v -0.420843 1.441160 2.115225
v -0.467608 0.992686 2.350334
v -0.496407 0.506063 2.495111
v -0.506130 -0.000006 2.543999
v -0.496407 -0.506076 2.495111
v -0.467608 -0.992698 2.350334
v -0.420843 -1.441172 2.115225
v -0.357906 -1.834261 1.798823
v -0.281218 -2.156864 1.413286
v -0.193725 -2.396578 0.973430
v -0.098790 -2.544193 0.496158
v -0.193725 2.544178 0.467360
v -0.379948 2.396563 0.916941
v -0.551571 2.156849 1.331275
v -0.702000 1.834250 1.694443
v -0.825454 1.441160 1.992487
v -0.917189 0.992686 2.213955
v -0.973678 0.506063 2.350334
v -0.992753 -0.000006 2.396383
v -0.973678 -0.506076 2.350334
v -0.917189 -0.992698 2.213955
v -0.825454 -1.441172 1.992487
v -0.702000 -1.834261 1.694443
v -0.551571 -2.156864 1.331275
v -0.379947 -2.396578 0.916940
v -0.193725 -2.544193 0.467360
v -0.281218 2.544178 0.420594
v -0.551571 2.396563 0.825206
v -0.800730 2.156849 1.198097
v -1.019119 1.834250 1.524940
v -1.198345 1.441160 1.793173
v -1.331524 0.992686 1.992487
v -1.413534 0.506063 2.115225
v -1.441227 -0.000006 2.156670
v -1.413534 -0.506076 2.115225
v -1.331524 -0.992698 1.992487
v -1.198345 -1.441172 1.793173
v -1.019119 -1.834261 1.524941
v -0.800730 -2.156864 1.198097
v -0.551571 -2.396578 0.825206
v -0.281218 -2.544193 0.420593
v -0.357906 2.544178 0.357657
v -0.702000 2.396563 0.701752
v -1.019119 2.156849 1.018870
v -1.297075 1.834250 1.296827
v -1.525190 1.441160 1.524940
v -1.694691 0.992686 1.694443
v -1.799072 0.506063 1.798822
v -1.834316 -0.000006 1.834066
v -1.799072 -0.506076 1.798822
v -1.694691 -0.992699 1.694443
v -1.525190 -1.441172 1.524941
v -1.297075 -1.834261 1.296827
v -1.019119 -2.156864 1.018870
v -0.702000 -2.396578 0.701751
v -0.357906 -2.544193 0.357658
v -0.420843 2.544178 0.280969
v -0.825455 2.396563 0.551322
v -1.198347 2.156849 0.800481
v -1.525190 1.834250 1.018870
v -1.793423 1.441160 1.198097
v -1.992737 0.992686 1.331275
v -2.115475 0.506063 1.413286
v -2.156916 -0.000006 1.440977
v -2.115475 -0.506076 1.413286
v -1.992737 -0.992699 1.331275
v -1.793423 -1.441172 1.198097
v -1.525190 -1.834261 1.018870
v -1.198345 -2.156864 0.800481
v -0.825454 -2.396578 0.551322
v -0.420843 -2.544193 0.280969
v -0.467609 2.544178 0.193476
v -0.917189 2.396563 0.379698
v -1.331524 2.156849 0.551322
v -1.694691 1.834249 0.701751
v -1.992737 1.441160 0.825206
v -2.214203 0.992686 0.916940
v -2.350580 0.506063 0.973429
v -2.396633 -0.000007 0.992504
v -2.350580 -0.506076 0.973429
v -2.214203 -0.992699 0.916940
v -1.992737 -1.441172 0.825206
v -1.694691 -1.834261 0.701751
v -1.331524 -2.156864 0.551322
v -0.917189 -2.396578 0.379698
v -0.467608 -2.544193 0.193476
v -0.496407 2.544178 0.098541
v -0.973680 2.396563 0.193476
v -1.413534 2.156849 0.280969
v -1.799072 1.834249 0.357657
v -2.115475 1.441160 0.420593
v -2.350580 0.992686 0.467359
v -2.495361 0.506063 0.496157
v -2.544249 -0.000007 0.505881
v -2.495361 -0.506076 0.496157
v -2.350580 -0.992699 0.467360
v -2.115475 -1.441172 0.420593
v -1.799072 -1.834261 0.357658
v -1.413534 -2.156864 0.280969
v -0.973678 -2.396578 0.193476
v -0.496407 -2.544193 0.098541
v -0.506131 2.544178 -0.000189
v -0.992753 2.396563 -0.000189
v -1.441227 2.156849 -0.000189
v -1.834316 1.834249 -0.000189
v -2.156916 1.441160 -0.000189
v -2.396629 0.992686 -0.000189
v -2.544245 0.506063 -0.000189
v -2.594091 -0.000007 -0.000189
v -2.544245 -0.506076 -0.000189
v -2.396629 -0.992699 -0.000188
v -2.156916 -1.441172 -0.000189
v -1.834316 -1.834261 -0.000188
v -1.441227 -2.156864 -0.000189
v -0.992753 -2.396578 -0.000188
v -0.506130 -2.544193 -0.000188
v -0.496407 2.544178 -0.098918
v -0.973680 2.396563 -0.193854
v -1.413534 2.156849 -0.281346
v -1.799072 1.834249 -0.358034
v -2.115475 1.441160 -0.420971
v -2.350580 0.992686 -0.467736
v -2.495361 0.506063 -0.496535
v -2.544249 -0.000007 -0.506259
v -2.495361 -0.506076 -0.496535
v -2.350580 -0.992699 -0.467736
v -2.115475 -1.441172 -0.420970
v -1.799072 -1.834261 -0.358034
v -1.413534 -2.156864 -0.281346
v -0.973678 -2.396578 -0.193853
v -0.496407 -2.544193 -0.098918
v -0.467608 2.544178 -0.193854
v -0.917189 2.396563 -0.380076
v -1.331524 2.156849 -0.551699
v -1.694691 1.834249 -0.702128
v -1.992737 1.441160 -0.825582
v -2.214203 0.992686 -0.917317
v -2.350580 0.506063 -0.973806
v -2.396629 -0.000007 -0.992882
v -2.350580 -0.506076 -0.973806
v -2.214203 -0.992699 -0.917315
v -1.992737 -1.441172 -0.825581
v -1.694691 -1.834261 -0.702127
v -1.331524 -2.156864 -0.551699
v -0.917189 -2.396578 -0.380075
v -0.467608 -2.544193 -0.193853
v -0.420843 2.544178 -0.281346
v -0.825455 2.396563 -0.551699
v -1.198345 2.156849 -0.800858
v -1.525187 1.834249 -1.019246
v -1.793423 1.441160 -1.198474
v -1.992737 0.992686 -1.331653
v -2.115471 0.506063 -1.413664
v -2.156916 -0.000007 -1.441355
v -2.115471 -0.506076 -1.413664
v -1.992737 -0.992699 -1.331653
v -1.793423 -1.441172 -1.198474
v -1.525187 -1.834261 -1.019246
v -1.198345 -2.156864 -0.800857
v -0.825454 -2.396578 -0.551699
v -0.420843 -2.544193 -0.281346
v -0.357906 2.544178 -0.358035
v -0.702000 2.396563 -0.702129
v -1.019119 2.156849 -1.019246
v -1.297074 1.834249 -1.297203
v -1.525187 1.441160 -1.525316
v -1.694691 0.992686 -1.694819
v -1.799072 0.506063 -1.799198
v -1.834316 -0.000007 -1.834446
v -1.799072 -0.506076 -1.799198
v -1.694691 -0.992699 -1.694818
v -1.525187 -1.441172 -1.525316
v -1.297074 -1.834261 -1.297203
v -1.019117 -2.156864 -1.019246
v -0.702000 -2.396578 -0.702127
v -0.357906 -2.544193 -0.358034
v -0.281218 2.544178 -0.420971
v -0.551571 2.396563 -0.825582
v -0.800729 2.156849 -1.198474
v -1.019117 1.834249 -1.525316
v -1.198345 1.441160 -1.793549
v -1.331524 0.992686 -1.992867
v -1.413534 0.506063 -2.115602
v -1.441227 -0.000007 -2.157047
v -1.413534 -0.506077 -2.115602
v -1.331524 -0.992699 -1.992866
v -1.198345 -1.441172 -1.793548
v -1.019117 -1.834261 -1.525316
v -0.800729 -2.156864 -1.198474
v -0.551570 -2.396578 -0.825581
v -0.281218 -2.544193 -0.420970
v -0.000060 -2.594036 -0.000188
v -0.193725 2.544178 -0.467737
v -0.379948 2.396563 -0.917318
v -0.551571 2.156849 -1.331653
v -0.702000 1.834249 -1.694819
v -0.825454 1.441160 -1.992863
v -0.917189 0.992686 -2.214333
v -0.973678 0.506063 -2.350710
v -0.992752 -0.000007 -2.396759
v -0.973678 -0.506077 -2.350710
v -0.917189 -0.992699 -2.214333
v -0.825454 -1.441172 -1.992863
v -0.702000 -1.834261 -1.694818
v -0.551570 -2.156864 -1.331653
v -0.379947 -2.396578 -0.917317
v -0.193725 -2.544193 -0.467736
v -0.098790 2.544178 -0.496535
v -0.193725 2.396563 -0.973807
v -0.281218 2.156849 -1.413664
v -0.357906 1.834249 -1.799198
v -0.420842 1.441160 -2.115602
v -0.467608 0.992686 -2.350710
v -0.496406 0.506063 -2.495487
v -0.506130 -0.000007 -2.544374
v -0.496406 -0.506077 -2.495487
v -0.467608 -0.992699 -2.350710
v -0.420842 -1.441172 -2.115602
v -0.357906 -1.834261 -1.799198
v -0.281218 -2.156864 -1.413664
v -0.193725 -2.396578 -0.973806
v -0.098790 -2.544193 -0.496535
v -0.000060 2.544178 -0.506259
v -0.000060 2.396563 -0.992882
v -0.000060 2.156849 -1.441355
v -0.000060 1.834249 -1.834444
v -0.000060 1.441160 -2.157043
v -0.000060 0.992686 -2.396759
v -0.000060 0.506063 -2.544374
v -0.000060 -0.000007 -2.594219
v -0.000060 -0.506077 -2.544374
v -0.000060 -0.992699 -2.396759
v -0.000060 -1.441172 -2.157043
v -0.000060 -1.834261 -1.834444
v -0.000060 -2.156864 -1.441355
v -0.000060 -2.396578 -0.992881
v -0.000060 -2.544193 -0.506259
v 0.098669 2.544178 -0.496535
v 0.193604 2.396563 -0.973807
v 0.281097 2.156849 -1.413664
v 0.357785 1.834249 -1.799198
v 0.420722 1.441160 -2.115602
v 0.467487 0.992686 -2.350710
v 0.496286 0.506063 -2.495487
v 0.506011 -0.000007 -2.544374
v 0.496286 -0.506077 -2.495487
v 0.467487 -0.992699 -2.350710
v 0.420722 -1.441172 -2.115602
v 0.357785 -1.834261 -1.799198
v 0.281097 -2.156864 -1.413662
v 0.193604 -2.396578 -0.973806
v 0.098669 -2.544193 -0.496535
v 0.193605 2.544178 -0.467737
v 0.379827 2.396563 -0.917318
v 0.551450 2.156849 -1.331653
v 0.701880 1.834249 -1.694819
v 0.825333 1.441160 -1.992863
v 0.917068 0.992686 -2.214333
v 0.973557 0.506063 -2.350708
v 0.992633 -0.000007 -2.396759
v 0.973557 -0.506077 -2.350708
v 0.917068 -0.992699 -2.214333
v 0.825333 -1.441172 -1.992863
v 0.701880 -1.834261 -1.694818
v 0.551450 -2.156864 -1.331653
v 0.379827 -2.396578 -0.917315
v 0.193604 -2.544193 -0.467736
v 0.281098 2.544178 -0.420971
v 0.551450 2.396563 -0.825582
v 0.800610 2.156849 -1.198474
v 1.018998 1.834249 -1.525316
v 1.198225 1.441160 -1.793549
v 1.331404 0.992686 -1.992863
v 1.413414 0.506063 -2.115602
v 1.441105 -0.000007 -2.157047
v 1.413414 -0.506077 -2.115602
v 1.331404 -0.992699 -1.992863
v 1.198225 -1.441172 -1.793548
v 1.018998 -1.834261 -1.525316
v 0.800608 -2.156864 -1.198474
v 0.551450 -2.396578 -0.825581
v 0.281097 -2.544193 -0.420970
v -0.000060 2.594025 -0.000189
v 0.357786 2.544178 -0.358034
v 0.701880 2.396563 -0.702128
v 1.018998 2.156849 -1.019246
v 1.296955 1.834249 -1.297203
v 1.525068 1.441160 -1.525316
v 1.694572 0.992686 -1.694819
v 1.798950 0.506063 -1.799198
v 1.834198 -0.000007 -1.834444
v 1.798950 -0.506076 -1.799198
v 1.694572 -0.992699 -1.694818
v 1.525068 -1.441172 -1.525316
v 1.296955 -1.834261 -1.297203
v 1.018997 -2.156864 -1.019246
v 0.701879 -2.396578 -0.702127
v 0.357785 -2.544193 -0.358034
v 0.420722 2.544178 -0.281346
v 0.825333 2.396563 -0.551699
v 1.198225 2.156849 -0.800858
v 1.525068 1.834249 -1.019246
v 1.793301 1.441160 -1.198473
v 1.992615 0.992686 -1.331653
v 2.115353 0.506063 -1.413662
v 2.156797 -0.000007 -1.441355
v 2.115353 -0.506076 -1.413662
v 1.992615 -0.992699 -1.331653
v 1.793301 -1.441172 -1.198473
v 1.525068 -1.834261 -1.019246
v 1.198225 -2.156864 -0.800857
v 0.825333 -2.396578 -0.551699
v 0.420722 -2.544193 -0.281346
v 0.467488 2.544178 -0.193854
v 0.917068 2.396563 -0.380076
v 1.331404 2.156849 -0.551699
v 1.694572 1.834249 -0.702128
v 1.992615 1.441160 -0.825581
v 2.214083 0.992686 -0.917317
v 2.350462 0.506063 -0.973805
v 2.396511 -0.000007 -0.992881
v 2.350462 -0.506076 -0.973805
v 2.214083 -0.992699 -0.917317
v 1.992615 -1.441172 -0.825580
v 1.694572 -1.834261 -0.702127
v 1.331404 -2.156864 -0.551699
v 0.917068 -2.396578 -0.380075
v 0.467487 -2.544193 -0.193853
v 0.496286 2.544178 -0.098918
v 0.973557 2.396563 -0.193854
v 1.413414 2.156849 -0.281346
v 1.798950 1.834249 -0.358034
v 2.115353 1.441160 -0.420970
v 2.350462 0.992686 -0.467736
v 2.495239 0.506063 -0.496534
v 2.544127 -0.000007 -0.506258
v 2.495239 -0.506076 -0.496534
v 2.350462 -0.992699 -0.467736
v 2.115353 -1.441172 -0.420970
v 1.798950 -1.834261 -0.358034
v 1.413414 -2.156864 -0.281346
v 0.973557 -2.396578 -0.193853
v 0.496286 -2.544193 -0.098918
v 0.506011 2.544178 -0.000189
v 0.992633 2.396563 -0.000189
v 1.441105 2.156849 -0.000189
v 1.834194 1.834249 -0.000188
v 2.156796 1.441160 -0.000188
v 2.396511 0.992686 -0.000189
v 2.544125 0.506063 -0.000188
v 2.593969 -0.000007 -0.000188
v 2.544125 -0.506076 -0.000188
v 2.396511 -0.992699 -0.000189
v 2.156796 -1.441172 -0.000188
v 1.834194 -1.834261 -0.000188
v 1.441105 -2.156864 -0.000188
v 0.992631 -2.396578 -0.000188
v 0.506010 -2.544193 -0.000188
v 0.496286 2.544178 0.098541
v 0.973557 2.396563 0.193476
v 1.413414 2.156849 0.280969
v 1.798950 1.834249 0.357657
v 2.115353 1.441160 0.420593
v 2.350462 0.992686 0.467359
v 2.495239 0.506063 0.496158
v 2.544127 -0.000007 0.505882
v 2.495239 -0.506076 0.496158
v 2.350462 -0.992699 0.467360
v 2.115353 -1.441172 0.420593
v 1.798950 -1.834261 0.357658
v 1.413414 -2.156864 0.280969
v 0.973557 -2.396578 0.193476
v 0.496286 -2.544193 0.098541
v 0.467488 2.544178 0.193476
v 0.917068 2.396563 0.379698
v 1.331404 2.156849 0.551322
v 1.694571 1.834249 0.701751
v 1.992615 1.441160 0.825204
v 2.214083 0.992686 0.916940
v 2.350460 0.506063 0.973429
v 2.396511 -0.000007 0.992504
v 2.350460 -0.506076 0.973429
v 2.214083 -0.992699 0.916940
v 1.992615 -1.441172 0.825204
v 1.694571 -1.834261 0.701751
v 1.331403 -2.156864 0.551322
v 0.917067 -2.396578 0.379698
v 0.467487 -2.544193 0.193476
v 0.420722 2.544178 0.280969
v 0.825333 2.396563 0.551322
v 1.198225 2.156849 0.800481
v 1.525068 1.834250 1.018870
v 1.793301 1.441160 1.198096
v 1.992615 0.992686 1.331275
v 2.115353 0.506063 1.413286
v 2.156796 -0.000006 1.440977
v 2.115353 -0.506076 1.413286
v 1.992615 -0.992699 1.331275
v 1.793301 -1.441172 1.198096
v 1.525068 -1.834261 1.018870
v 1.198225 -2.156864 0.800480
v 0.825333 -2.396578 0.551322
v 0.420722 -2.544193 0.280969
v 0.357786 2.544178 0.357657
v 0.701879 2.396563 0.701751
v 1.018997 2.156849 1.018868
v 1.296954 1.834250 1.296827
v 1.525066 1.441160 1.524938
v 1.694572 0.992686 1.694443
v 1.798950 0.506063 1.798822
v 1.834194 -0.000006 1.834066
v 1.798950 -0.506076 1.798822
v 1.694572 -0.992699 1.694443
v 1.525066 -1.441172 1.524939
v 1.296954 -1.834261 1.296827
v 1.018997 -2.156864 1.018869
v 0.701879 -2.396578 0.701751
v 0.357785 -2.544193 0.357657
v 0.281097 2.544178 0.420593
v 0.551450 2.396563 0.825204
v 0.800608 2.156849 1.198096
v 1.018997 1.834250 1.524940
v 1.198224 1.441160 1.793171
v 1.331404 0.992686 1.992487
v 1.413414 0.506063 2.115223
v 1.441105 -0.000006 2.156668
v 1.413414 -0.506076 2.115223
v 1.331404 -0.992698 1.992487
v 1.198224 -1.441172 1.793171
v 1.018997 -1.834261 1.524941
v 0.800608 -2.156864 1.198096
v 0.551450 -2.396578 0.825204
v 0.281097 -2.544193 0.420593
v 0.193604 2.544178 0.467359
v 0.379827 2.396563 0.916940
v 0.551450 2.156849 1.331275
v 0.701879 1.834250 1.694443
v 0.825332 1.441160 1.992487
v 0.917068 0.992686 2.213953
v 0.973557 0.506063 2.350332
v 0.992631 -0.000006 2.396381
v 0.973557 -0.506076 2.350332
v 0.917068 -0.992698 2.213953
v 0.825332 -1.441172 1.992487
v 0.701879 -1.834261 1.694443
v 0.551450 -2.156864 1.331274
v 0.379827 -2.396578 0.916940
v 0.193604 -2.544193 0.467359
v 0.098669 2.544178 0.496158
v 0.193604 2.396563 0.973429
v 0.281097 2.156849 1.413284
v 0.357785 1.834250 1.798822
v 0.420721 1.441160 2.115223
v 0.467487 0.992686 2.350332
v 0.496285 0.506063 2.495110
v 0.506009 -0.000006 2.543997
v 0.496285 -0.506076 2.495110
v 0.467487 -0.992698 2.350332
v 0.420721 -1.441172 2.115223
v 0.357785 -1.834261 1.798823
v 0.281097 -2.156864 1.413284
v 0.193604 -2.396578 0.973429
v 0.098669 -2.544193 0.496157
v -0.000060 -0.992698 2.396381
v -0.000061 -1.441172 2.156668
v -0.000061 -1.834261 1.834067
v -0.000060 -2.396578 0.992503
v -0.000060 -2.544193 0.505881
vn 0.0286 0.9565 -0.2902
vn 0.0976 -0.0976 -0.9904
vn 0.0975 -0.0975 -0.9904
vn 0.0097 -0.9951 -0.0980
vn 0.0097 0.9951 -0.0980
vn 0.0976 0.0976 -0.9904
vn 0.0976 0.0975 -0.9904
vn 0.0286 -0.9565 -0.2902
vn 0.0938 0.2890 -0.9527
vn 0.0464 -0.8810 -0.4709
vn 0.0865 0.4696 -0.8786
vn 0.0624 -0.7715 -0.6332
vn 0.0759 0.6326 -0.7708
vn 0.0759 -0.6326 -0.7708
vn 0.0624 0.7715 -0.6332
vn 0.0865 -0.4696 -0.8786
vn 0.0464 0.8810 -0.4709
vn 0.0938 -0.2890 -0.9527
vn 0.2563 -0.4696 -0.8448
vn 0.1374 0.8810 -0.4528
vn 0.2779 -0.2890 -0.9161
vn 0.0846 0.9565 -0.2790
vn 0.2889 -0.0976 -0.9524
vn 0.0286 -0.9951 -0.0943
vn 0.0286 0.9951 -0.0942
vn 0.2889 0.0976 -0.9524
vn 0.0846 -0.9565 -0.2790
vn 0.2779 0.2890 -0.9161
vn 0.1374 -0.8810 -0.4528
vn 0.2563 0.4696 -0.8448
vn 0.1847 -0.7715 -0.6088
vn 0.2248 0.6326 -0.7412
vn 0.2248 -0.6326 -0.7412
vn 0.1847 0.7715 -0.6088
vn 0.4513 0.2890 -0.8443
vn 0.2230 -0.8810 -0.4173
vn 0.2231 -0.8810 -0.4173
vn 0.4162 0.4696 -0.7786
vn 0.2999 -0.7715 -0.5611
vn 0.3651 0.6326 -0.6831
vn 0.3651 -0.6326 -0.6831
vn 0.2999 0.7715 -0.5611
vn 0.4162 -0.4696 -0.7786
vn 0.2230 0.8810 -0.4173
vn 0.4513 -0.2890 -0.8443
vn 0.1374 0.9565 -0.2571
vn 0.4691 -0.0976 -0.8777
vn 0.0464 -0.9951 -0.0869
vn 0.0464 0.9951 -0.0869
vn 0.4691 0.0976 -0.8777
vn 0.1374 -0.9565 -0.2571
vn 0.3002 0.8810 -0.3658
vn 0.6073 -0.2890 -0.7400
vn 0.1850 0.9565 -0.2254
vn 0.6314 -0.0976 -0.7693
vn 0.0625 -0.9951 -0.0761
vn 0.0625 0.9951 -0.0761
vn 0.6314 0.0976 -0.7693
vn 0.1850 -0.9565 -0.2254
vn 0.6073 0.2890 -0.7400
vn 0.3002 -0.8810 -0.3658
vn 0.5601 0.4696 -0.6825
vn 0.4036 -0.7715 -0.4918
vn 0.4913 0.6326 -0.5987
vn 0.4913 -0.6326 -0.5987
vn 0.4036 0.7715 -0.4918
vn 0.5601 -0.4696 -0.6825
vn 0.6825 0.4696 -0.5601
vn 0.4918 -0.7715 -0.4036
vn 0.5987 0.6326 -0.4913
vn 0.5987 -0.6326 -0.4913
vn 0.4918 0.7715 -0.4036
vn 0.6825 -0.4696 -0.5601
vn 0.3658 0.8810 -0.3002
vn 0.7400 -0.2890 -0.6073
vn 0.2254 0.9565 -0.1850
vn 0.7693 -0.0975 -0.6314
vn 0.0761 -0.9951 -0.0625
vn 0.0761 0.9951 -0.0625
vn 0.7693 0.0975 -0.6314
vn 0.2254 -0.9565 -0.1850
vn 0.7400 0.2890 -0.6073
vn 0.3658 -0.8810 -0.3002
vn 0.2571 0.9565 -0.1374
vn 0.8777 -0.0976 -0.4691
vn 0.8777 -0.0975 -0.4692
vn 0.0869 -0.9951 -0.0464
vn 0.0869 0.9951 -0.0464
vn 0.8777 0.0976 -0.4691
vn 0.8777 0.0975 -0.4691
vn 0.2571 -0.9565 -0.1374
vn 0.8443 0.2890 -0.4513
vn 0.4173 -0.8810 -0.2230
vn 0.7786 0.4696 -0.4162
vn 0.5611 -0.7715 -0.2999
vn 0.6831 0.6326 -0.3651
vn 0.6831 -0.6326 -0.3651
vn 0.5611 0.7715 -0.2999
vn 0.7786 -0.4696 -0.4162
vn 0.4173 0.8810 -0.2231
vn 0.4173 0.8810 -0.2230
vn 0.8443 -0.2890 -0.4513
vn 0.6088 -0.7715 -0.1847
vn 0.7412 0.6326 -0.2248
vn 0.7412 -0.6326 -0.2248
vn 0.6088 0.7715 -0.1847
vn 0.8449 -0.4696 -0.2563
vn 0.4528 0.8810 -0.1374
vn 0.9161 -0.2890 -0.2779
vn 0.2790 0.9565 -0.0846
vn 0.9524 -0.0976 -0.2889
vn 0.0943 -0.9951 -0.0286
vn 0.0942 0.9951 -0.0286
vn 0.9524 0.0976 -0.2889
vn 0.2790 -0.9565 -0.0846
vn 0.9161 0.2890 -0.2779
vn 0.4528 -0.8810 -0.1374
vn 0.8448 0.4696 -0.2563
vn 0.9904 -0.0976 -0.0975
vn 0.0980 -0.9951 -0.0097
vn 0.0980 0.9951 -0.0097
vn 0.9904 0.0976 -0.0975
vn 0.2902 -0.9565 -0.0286
vn 0.9527 0.2890 -0.0938
vn 0.4709 -0.8810 -0.0464
vn 0.8786 0.4696 -0.0865
vn 0.6332 -0.7715 -0.0624
vn 0.7708 0.6326 -0.0759
vn 0.7708 -0.6326 -0.0759
vn 0.6332 0.7715 -0.0624
vn 0.8786 -0.4696 -0.0865
vn 0.4709 0.8810 -0.0464
vn 0.9527 -0.2890 -0.0938
vn 0.2902 0.9565 -0.0286
vn 0.7708 0.6326 0.0759
vn 0.7708 -0.6326 0.0759
vn 0.6332 0.7715 0.0624
vn 0.8786 -0.4696 0.0865
vn 0.4709 0.8810 0.0464
vn 0.9527 -0.2890 0.0938
vn 0.2902 0.9565 0.0286
vn 0.9904 -0.0976 0.0975
vn 0.0980 -0.9951 0.0097
vn 0.0980 0.9951 0.0097
vn 0.9904 0.0976 0.0975
vn 0.2902 -0.9565 0.0286
vn 0.9527 0.2890 0.0938
vn 0.4709 -0.8810 0.0464
vn 0.8786 0.4696 0.0865
vn 0.6332 -0.7715 0.0624
vn 0.0943 -0.9951 0.0286
vn 0.0942 0.9951 0.0286
vn 0.9524 0.0976 0.2889
vn 0.2790 -0.9565 0.0846
vn 0.9161 0.2890 0.2779
vn 0.4528 -0.8810 0.1374
vn 0.8448 0.4696 0.2563
vn 0.8449 0.4696 0.2563
vn 0.6088 -0.7715 0.1847
vn 0.7412 0.6326 0.2248
vn 0.7412 -0.6326 0.2248
vn 0.6088 0.7715 0.1847
vn 0.8449 -0.4696 0.2563
vn 0.8448 -0.4696 0.2563
vn 0.4528 0.8810 0.1374
vn 0.9161 -0.2890 0.2779
vn 0.2790 0.9565 0.0846
vn 0.9524 -0.0976 0.2889
vn 0.6831 -0.6326 0.3651
vn 0.5611 0.7715 0.2999
vn 0.7786 -0.4696 0.4162
vn 0.4173 0.8810 0.2231
vn 0.4173 0.8810 0.2230
vn 0.8443 -0.2890 0.4513
vn 0.2571 0.9565 0.1374
vn 0.8777 -0.0976 0.4691
vn 0.0869 -0.9951 0.0464
vn 0.0869 0.9951 0.0464
vn 0.8777 0.0976 0.4691
vn 0.2571 -0.9565 0.1374
vn 0.8443 0.2890 0.4513
vn 0.4173 -0.8810 0.2230
vn 0.4173 -0.8810 0.2231
vn 0.7786 0.4696 0.4162
vn 0.5611 -0.7715 0.2999
vn 0.6831 0.6326 0.3651
vn 0.7693 0.0976 0.6314
vn 0.2254 -0.9565 0.1850
vn 0.7400 0.2890 0.6073
vn 0.3658 -0.8810 0.3002
vn 0.6825 0.4696 0.5601
vn 0.4918 -0.7715 0.4036
vn 0.5987 0.6326 0.4913
vn 0.5987 -0.6326 0.4913
vn 0.4918 0.7715 0.4036
vn 0.6825 -0.4696 0.5601
vn 0.3658 0.8810 0.3002
vn 0.7400 -0.2890 0.6073
vn 0.2254 0.9565 0.1850
vn 0.7693 -0.0976 0.6314
vn 0.0761 -0.9951 0.0625
vn 0.0761 0.9951 0.0625
vn 0.4036 0.7715 0.4918
vn 0.5601 -0.4696 0.6825
vn 0.3002 0.8810 0.3658
vn 0.6073 -0.2890 0.7400
vn 0.1850 0.9565 0.2254
vn 0.6314 -0.0976 0.7693
vn 0.0625 -0.9951 0.0761
vn 0.0625 0.9951 0.0761
vn 0.6314 0.0976 0.7693
vn 0.1850 -0.9565 0.2254
vn 0.6073 0.2890 0.7400
vn 0.3002 -0.8810 0.3658
vn 0.5601 0.4696 0.6825
vn 0.4036 -0.7715 0.4918
vn 0.4913 0.6326 0.5987
vn 0.4913 -0.6326 0.5987
vn 0.4513 0.2890 0.8443
vn 0.2231 -0.8810 0.4173
vn 0.4162 0.4696 0.7786
vn 0.2999 -0.7715 0.5611
vn 0.3651 0.6326 0.6831
vn 0.3651 -0.6326 0.6831
vn 0.2999 0.7715 0.5611
vn 0.4162 -0.4696 0.7786
vn 0.2231 0.8810 0.4173
vn 0.4513 -0.2890 0.8443
vn 0.1374 0.9565 0.2571
vn 0.4691 -0.0976 0.8777
vn 0.0464 -0.9951 0.0869
vn 0.0464 0.9951 0.0869
vn 0.4691 0.0976 0.8777
vn 0.1374 -0.9565 0.2571
vn 0.1374 0.8810 0.4528
vn 0.2779 -0.2890 0.9161
vn 0.0846 0.9565 0.2790
vn 0.2889 -0.0976 0.9524
vn 0.2889 -0.0975 0.9524
vn 0.0286 -0.9951 0.0943
vn 0.0286 0.9951 0.0942
vn 0.2889 0.0976 0.9524
vn 0.2889 0.0975 0.9524
vn 0.0846 -0.9565 0.2790
vn 0.2779 0.2890 0.9161
vn 0.1374 -0.8810 0.4528
vn 0.2563 0.4696 0.8448
vn 0.1847 -0.7715 0.6088
vn 0.2248 0.6326 0.7412
vn 0.2248 -0.6326 0.7412
vn 0.1847 0.7715 0.6088
vn 0.2563 -0.4696 0.8448
vn 0.0464 -0.8810 0.4709
vn 0.0865 0.4696 0.8786
vn 0.0624 -0.7715 0.6332
vn 0.0759 0.6326 0.7708
vn 0.0759 -0.6326 0.7708
vn 0.0624 0.7715 0.6332
vn 0.0865 -0.4696 0.8786
vn 0.0464 0.8810 0.4709
vn 0.0938 -0.2890 0.9527
vn 0.0286 0.9565 0.2902
vn 0.0976 -0.0976 0.9904
vn 0.0097 -0.9951 0.0980
vn 0.0097 0.9951 0.0980
vn 0.0976 0.0976 0.9904
vn 0.0286 -0.9565 0.2902
vn 0.0938 0.2890 0.9527
vn -0.0938 -0.2890 0.9527
vn -0.0286 0.9565 0.2902
vn -0.0976 -0.0976 0.9904
vn -0.0097 -0.9951 0.0980
vn -0.0097 0.9951 0.0980
vn -0.0976 0.0976 0.9904
vn -0.0286 -0.9565 0.2902
vn -0.0938 0.2890 0.9527
vn -0.0464 -0.8810 0.4709
vn -0.0865 0.4696 0.8786
vn -0.0624 -0.7715 0.6332
vn -0.0759 0.6326 0.7708
vn -0.0759 -0.6326 0.7708
vn -0.0624 0.7715 0.6332
vn -0.0865 -0.4696 0.8786
vn -0.0464 0.8810 0.4709
vn -0.2563 0.4696 0.8448
vn -0.1847 -0.7715 0.6088
vn -0.2248 0.6326 0.7412
vn -0.2248 -0.6326 0.7412
vn -0.1847 0.7715 0.6088
vn -0.2563 -0.4696 0.8448
vn -0.2563 -0.4696 0.8449
vn -0.1374 0.8810 0.4528
vn -0.2779 -0.2890 0.9161
vn -0.0846 0.9565 0.2790
vn -0.2889 -0.0976 0.9524
vn -0.0286 -0.9951 0.0943
vn -0.0286 0.9951 0.0942
vn -0.2889 0.0976 0.9524
vn -0.0846 -0.9565 0.2790
vn -0.2779 0.2890 0.9161
vn -0.1374 -0.8810 0.4528
vn -0.1374 0.9565 0.2571
vn -0.4691 -0.0976 0.8777
vn -0.0464 -0.9951 0.0869
vn -0.0464 0.9951 0.0869
vn -0.4691 0.0976 0.8777
vn -0.1374 -0.9565 0.2571
vn -0.4513 0.2890 0.8443
vn -0.2231 -0.8810 0.4173
vn -0.4162 0.4696 0.7786
vn -0.2999 -0.7715 0.5611
vn -0.3651 0.6326 0.6831
vn -0.3651 -0.6326 0.6831
vn -0.2999 0.7715 0.5611
vn -0.4162 -0.4696 0.7786
vn -0.2230 0.8810 0.4173
vn -0.2231 0.8810 0.4173
vn -0.4513 -0.2890 0.8443
vn -0.4036 -0.7715 0.4918
vn -0.4913 0.6326 0.5987
vn -0.4913 -0.6326 0.5987
vn -0.4036 0.7715 0.4918
vn -0.5601 -0.4696 0.6825
vn -0.3002 0.8810 0.3658
vn -0.6073 -0.2890 0.7400
vn -0.1850 0.9565 0.2254
vn -0.6314 -0.0976 0.7693
vn -0.0625 -0.9951 0.0761
vn -0.0625 0.9951 0.0761
vn -0.6314 0.0976 0.7693
vn -0.1850 -0.9565 0.2254
vn -0.6073 0.2890 0.7400
vn -0.3002 -0.8810 0.3658
vn -0.5601 0.4696 0.6825
vn -0.7693 -0.0976 0.6314
vn -0.0761 -0.9951 0.0625
vn -0.0761 0.9951 0.0625
vn -0.7693 0.0976 0.6314
vn -0.2254 -0.9565 0.1850
vn -0.7400 0.2890 0.6073
vn -0.3658 -0.8810 0.3002
vn -0.6825 0.4696 0.5601
vn -0.4918 -0.7715 0.4036
vn -0.5987 0.6326 0.4913
vn -0.5987 -0.6326 0.4913
vn -0.4918 0.7715 0.4036
vn -0.6825 -0.4696 0.5601
vn -0.3658 0.8810 0.3002
vn -0.7400 -0.2890 0.6073
vn -0.2254 0.9565 0.1850
vn -0.6831 0.6326 0.3651
vn -0.6831 -0.6326 0.3651
vn -0.5611 0.7715 0.2999
vn -0.7786 -0.4696 0.4162
vn -0.4173 0.8810 0.2231
vn -0.8443 -0.2890 0.4513
vn -0.2571 0.9565 0.1374
vn -0.8777 -0.0976 0.4691
vn -0.0869 -0.9951 0.0464
vn -0.0869 0.9951 0.0464
vn -0.8777 0.0976 0.4691
vn -0.8777 0.0976 0.4692
vn -0.2571 -0.9565 0.1374
vn -0.8443 0.2890 0.4513
vn -0.4173 -0.8810 0.2231
vn -0.4173 -0.8810 0.2230
vn -0.7786 0.4696 0.4162
vn -0.5611 -0.7715 0.2999
vn -0.0942 0.9951 0.0286
vn -0.9524 0.0976 0.2889
vn -0.2790 -0.9565 0.0846
vn -0.9161 0.2890 0.2779
vn -0.4528 -0.8810 0.1374
vn -0.8448 0.4696 0.2563
vn -0.6088 -0.7715 0.1847
vn -0.7412 0.6326 0.2248
vn -0.7412 -0.6326 0.2248
vn -0.6088 0.7715 0.1847
vn -0.8448 -0.4696 0.2563
vn -0.4528 0.8810 0.1374
vn -0.9161 -0.2890 0.2779
vn -0.2790 0.9565 0.0846
vn -0.9524 -0.0976 0.2889
vn -0.0943 -0.9951 0.0286
vn -0.6332 0.7715 0.0624
vn -0.8786 -0.4696 0.0865
vn -0.4709 0.8810 0.0464
vn -0.9527 -0.2890 0.0938
vn -0.2902 0.9565 0.0286
vn -0.9904 -0.0976 0.0975
vn -0.0980 -0.9951 0.0096
vn -0.0980 0.9951 0.0097
vn -0.9904 0.0976 0.0975
vn -0.2902 -0.9565 0.0286
vn -0.9527 0.2890 0.0938
vn -0.4709 -0.8810 0.0464
vn -0.8786 0.4696 0.0865
vn -0.6332 -0.7715 0.0624
vn -0.7708 0.6326 0.0759
vn -0.7708 -0.6326 0.0759
vn -0.2902 -0.9565 -0.0286
vn -0.9527 0.2890 -0.0938
vn -0.4709 -0.8810 -0.0464
vn -0.8786 0.4696 -0.0865
vn -0.6332 -0.7715 -0.0624
vn -0.7708 0.6326 -0.0759
vn -0.7708 -0.6326 -0.0759
vn -0.6332 0.7715 -0.0624
vn -0.8786 -0.4696 -0.0865
vn -0.4709 0.8810 -0.0464
vn -0.9527 -0.2890 -0.0938
vn -0.2902 0.9565 -0.0286
vn -0.9904 -0.0976 -0.0975
vn -0.0980 -0.9951 -0.0096
vn -0.0980 0.9951 -0.0097
vn -0.9904 0.0976 -0.0975
vn -0.8448 -0.4696 -0.2563
vn -0.4528 0.8810 -0.1374
vn -0.9161 -0.2890 -0.2779
vn -0.2790 0.9565 -0.0846
vn -0.9524 -0.0976 -0.2889
vn -0.0943 -0.9951 -0.0286
vn -0.0942 0.9951 -0.0286
vn -0.9524 0.0976 -0.2889
vn -0.2790 -0.9565 -0.0846
vn -0.9161 0.2890 -0.2779
vn -0.4528 -0.8810 -0.1374
vn -0.8448 0.4696 -0.2563
vn -0.6088 -0.7715 -0.1847
vn -0.7412 0.6326 -0.2248
vn -0.7412 -0.6326 -0.2248
vn -0.6088 0.7715 -0.1847
vn -0.8443 0.2890 -0.4513
vn -0.4173 -0.8810 -0.2231
vn -0.4173 -0.8810 -0.2230
vn -0.7786 0.4696 -0.4162
vn -0.5611 -0.7715 -0.2999
vn -0.6831 0.6326 -0.3651
vn -0.6831 -0.6326 -0.3651
vn -0.5611 0.7715 -0.2999
vn -0.7786 -0.4696 -0.4162
vn -0.4173 0.8810 -0.2230
vn -0.8443 -0.2890 -0.4513
vn -0.2571 0.9565 -0.1374
vn -0.8777 -0.0976 -0.4691
vn -0.8777 -0.0976 -0.4692
vn -0.0869 -0.9951 -0.0464
vn -0.0869 0.9951 -0.0464
vn -0.8777 0.0976 -0.4691
vn -0.8777 0.0976 -0.4692
vn -0.2571 -0.9565 -0.1374
vn -0.3658 0.8810 -0.3002
vn -0.7400 -0.2890 -0.6073
vn -0.2254 0.9565 -0.1850
vn -0.7693 -0.0975 -0.6314
vn -0.0761 -0.9951 -0.0625
vn -0.0761 0.9951 -0.0625
vn -0.7693 0.0975 -0.6314
vn -0.2254 -0.9565 -0.1850
vn -0.7400 0.2890 -0.6073
vn -0.3658 -0.8810 -0.3002
vn -0.6825 0.4696 -0.5601
vn -0.4918 -0.7715 -0.4036
vn -0.5987 0.6326 -0.4913
vn -0.5987 -0.6326 -0.4913
vn -0.4918 0.7715 -0.4036
vn -0.6825 -0.4696 -0.5601
vn -0.3002 -0.8810 -0.3658
vn -0.5601 0.4696 -0.6825
vn -0.4036 -0.7715 -0.4918
vn -0.4913 0.6326 -0.5987
vn -0.4913 -0.6326 -0.5987
vn -0.4036 0.7715 -0.4918
vn -0.5601 -0.4696 -0.6825
vn -0.3002 0.8810 -0.3658
vn -0.6073 -0.2890 -0.7400
vn -0.1850 0.9565 -0.2254
vn -0.6314 -0.0975 -0.7693
vn -0.0625 -0.9951 -0.0761
vn -0.0625 0.9951 -0.0761
vn -0.6314 0.0975 -0.7693
vn -0.1850 -0.9565 -0.2254
vn -0.6073 0.2890 -0.7400
vn -0.4513 -0.2890 -0.8443
vn -0.1374 0.9565 -0.2571
vn -0.4691 -0.0976 -0.8777
vn -0.0464 -0.9951 -0.0869
vn -0.0464 0.9951 -0.0869
vn -0.4691 0.0976 -0.8777
vn -0.1374 -0.9565 -0.2571
vn -0.4513 0.2890 -0.8443
vn -0.2231 -0.8810 -0.4173
vn -0.4162 0.4696 -0.7786
vn -0.2999 -0.7715 -0.5611
vn -0.3651 0.6326 -0.6831
vn -0.3651 -0.6326 -0.6831
vn -0.2999 0.7715 -0.5611
vn -0.4162 -0.4696 -0.7786
vn -0.2231 0.8810 -0.4173
vn -0.2230 0.8810 -0.4173
vn -0.2563 0.4696 -0.8448
vn -0.1847 -0.7715 -0.6088
vn -0.2248 0.6326 -0.7412
vn -0.2248 -0.6326 -0.7412
vn -0.1847 0.7715 -0.6088
vn -0.2563 -0.4696 -0.8448
vn -0.1374 0.8810 -0.4528
vn -0.2779 -0.2890 -0.9161
vn -0.0846 0.9565 -0.2790
vn -0.2889 -0.0976 -0.9524
vn -0.2889 -0.0975 -0.9524
vn -0.0286 -0.9951 -0.0943
vn -0.0286 0.9951 -0.0942
vn -0.2889 0.0976 -0.9524
vn -0.2889 0.0975 -0.9524
vn -0.0846 -0.9565 -0.2790
vn -0.2779 0.2890 -0.9161
vn -0.1374 -0.8810 -0.4528
vn -0.0286 0.9565 -0.2902
vn -0.0976 -0.0976 -0.9904
vn -0.0097 -0.9951 -0.0980
vn -0.0097 0.9951 -0.0980
vn -0.0976 0.0976 -0.9904
vn -0.0286 -0.9565 -0.2902
vn -0.0938 0.2890 -0.9527
vn -0.0464 -0.8810 -0.4709
vn -0.0865 0.4696 -0.8786
vn -0.0624 -0.7715 -0.6332
vn -0.0759 0.6326 -0.7708
vn -0.0759 -0.6326 -0.7708
vn -0.0624 0.7715 -0.6332
vn -0.0865 -0.4696 -0.8786
vn -0.0464 0.8810 -0.4709
vn -0.0938 -0.2890 -0.9527
vn 0.0975 0.0976 -0.9904
vn 0.2889 -0.0975 -0.9524
vn 0.2889 0.0975 -0.9524
vn 0.6314 -0.0975 -0.7693
vn 0.6314 0.0975 -0.7693
vn 0.8777 0.0976 -0.4692
vn 0.8449 0.4696 -0.2563
vn 0.9524 0.0975 0.2889
vn 0.4691 -0.0975 0.8777
vn 0.4691 0.0975 0.8777
vn -0.8777 -0.0976 0.4692
vn -0.4173 0.8810 -0.2231
vn -0.8777 -0.0975 -0.4691
vn -0.8777 0.0975 -0.4691
vn -0.6314 -0.0976 -0.7693
vn -0.6314 0.0976 -0.7693
vn -0.4691 -0.0975 -0.8777
vn -0.4691 0.0975 -0.8777
vn -0.0976 -0.0975 -0.9904
vn -0.0976 0.0975 -0.9904
vt 0.718750 0.062500
vt 0.750000 0.125000
vt 0.750000 0.062500
vt 0.718750 0.500000
vt 0.750000 0.562500
vt 0.750000 0.500000
vt 0.750000 0.937500
vt 0.718750 0.937500
vt 0.734375 1.000000
vt 0.734375 0.000000
vt 0.718750 0.437500
vt 0.750000 0.437500
vt 0.750000 0.875000
vt 0.718750 0.375000
vt 0.750000 0.375000
vt 0.750000 0.812500
vt 0.718750 0.875000
vt 0.718750 0.312500
vt 0.750000 0.312500
vt 0.718750 0.750000
vt 0.750000 0.750000
vt 0.718750 0.250000
vt 0.750000 0.250000
vt 0.718750 0.687500
vt 0.750000 0.687500
vt 0.718750 0.187500
vt 0.750000 0.187500
vt 0.750000 0.625000
vt 0.718750 0.125000
vt 0.718750 0.562500
vt 0.687500 0.625000
vt 0.718750 0.625000
vt 0.687500 0.125000
vt 0.687500 0.062500
vt 0.687500 0.500000
vt 0.687500 0.937500
vt 0.703125 1.000000
vt 0.703125 0.000000
vt 0.687500 0.437500
vt 0.687500 0.875000
vt 0.687500 0.812500
vt 0.718750 0.812500
vt 0.687500 0.312500
vt 0.687500 0.750000
vt 0.687500 0.687500
vt 0.687500 0.187500
vt 0.656250 0.375000
vt 0.687500 0.375000
vt 0.656250 0.812500
vt 0.656250 0.250000
vt 0.687500 0.250000
vt 0.656250 0.687500
vt 0.656250 0.187500
vt 0.656250 0.625000
vt 0.656250 0.125000
vt 0.687500 0.562500
vt 0.656250 0.062500
vt 0.656250 0.500000
vt 0.656250 0.937500
vt 0.671875 1.000000
vt 0.671875 0.000000
vt 0.656250 0.437500
vt 0.656250 0.875000
vt 0.625000 0.125000
vt 0.625000 0.562500
vt 0.656250 0.562500
vt 0.625000 0.937500
vt 0.640625 1.000000
vt 0.640625 0.000000
vt 0.625000 0.062500
vt 0.625000 0.437500
vt 0.625000 0.875000
vt 0.625000 0.812500
vt 0.656250 0.312500
vt 0.625000 0.375000
vt 0.625000 0.750000
vt 0.656250 0.750000
vt 0.625000 0.250000
vt 0.625000 0.687500
vt 0.625000 0.187500
vt 0.625000 0.625000
vt 0.625000 0.312500
vt 0.593750 0.375000
vt 0.593750 0.750000
vt 0.593750 0.250000
vt 0.593750 0.625000
vt 0.593750 0.125000
vt 0.593750 0.562500
vt 0.593750 0.062500
vt 0.625000 0.500000
vt 0.593750 0.937500
vt 0.609375 1.000000
vt 0.609375 0.000000
vt 0.593750 0.437500
vt 0.593750 0.875000
vt 0.593750 0.812500
vt 0.562500 0.125000
vt 0.562500 0.500000
vt 0.593750 0.500000
vt 0.562500 0.937500
vt 0.578125 1.000000
vt 0.578125 0.000000
vt 0.562500 0.062500
vt 0.562500 0.437500
vt 0.562500 0.875000
vt 0.562500 0.375000
vt 0.562500 0.812500
vt 0.593750 0.312500
vt 0.562500 0.312500
vt 0.562500 0.687500
vt 0.593750 0.687500
vt 0.562500 0.187500
vt 0.593750 0.187500
vt 0.562500 0.625000
vt 0.562500 0.750000
vt 0.531250 0.812500
vt 0.531250 0.250000
vt 0.562500 0.250000
vt 0.531250 0.687500
vt 0.531250 0.187500
vt 0.531250 0.625000
vt 0.531250 0.125000
vt 0.562500 0.562500
vt 0.531250 0.062500
vt 0.531250 0.500000
vt 0.531250 0.937500
vt 0.546875 1.000000
vt 0.546875 0.000000
vt 0.531250 0.437500
vt 0.531250 0.875000
vt 0.531250 0.375000
vt 0.500000 0.500000
vt 0.531250 0.562500
vt 0.500000 0.937500
vt 0.515625 1.000000
vt 0.515625 0.000000
vt 0.500000 0.062500
vt 0.500000 0.437500
vt 0.500000 0.875000
vt 0.500000 0.375000
vt 0.500000 0.812500
vt 0.531250 0.312500
vt 0.500000 0.750000
vt 0.531250 0.750000
vt 0.500000 0.250000
vt 0.500000 0.687500
vt 0.500000 0.625000
vt 0.500000 0.187500
vt 0.468750 0.250000
vt 0.500000 0.312500
vt 0.468750 0.750000
vt 0.468750 0.187500
vt 0.468750 0.625000
vt 0.468750 0.125000
vt 0.500000 0.125000
vt 0.500000 0.562500
vt 0.468750 0.500000
vt 0.468750 0.937500
vt 0.484374 1.000000
vt 0.484375 0.000000
vt 0.468750 0.062500
vt 0.468750 0.437500
vt 0.468750 0.875000
vt 0.468750 0.375000
vt 0.468750 0.812500
vt 0.437500 0.937500
vt 0.453124 1.000000
vt 0.453125 0.000000
vt 0.437500 0.062500
vt 0.437500 0.437500
vt 0.437500 0.875000
vt 0.437500 0.375000
vt 0.468750 0.312500
vt 0.437500 0.750000
vt 0.437500 0.250000
vt 0.468750 0.687500
vt 0.437500 0.187500
vt 0.437500 0.625000
vt 0.437500 0.125000
vt 0.468750 0.562500
vt 0.437500 0.500000
vt 0.437500 0.687500
vt 0.406250 0.750000
vt 0.406250 0.250000
vt 0.406250 0.625000
vt 0.406250 0.125000
vt 0.437500 0.562500
vt 0.406250 0.500000
vt 0.406250 0.937500
vt 0.421874 1.000000
vt 0.421875 0.000000
vt 0.406250 0.062500
vt 0.406250 0.875000
vt 0.406250 0.375000
vt 0.406250 0.812500
vt 0.437500 0.812500
vt 0.437500 0.312500
vt 0.375000 0.437500
vt 0.406250 0.437500
vt 0.375000 0.875000
vt 0.375000 0.375000
vt 0.406250 0.312500
vt 0.375000 0.750000
vt 0.375000 0.250000
vt 0.375000 0.687500
vt 0.406250 0.687500
vt 0.406250 0.187500
vt 0.375000 0.625000
vt 0.375000 0.125000
vt 0.406250 0.562500
vt 0.375000 0.062500
vt 0.375000 0.500000
vt 0.375000 0.937500
vt 0.390625 1.000000
vt 0.390625 0.000000
vt 0.375000 0.187500
vt 0.343750 0.250000
vt 0.343750 0.625000
vt 0.343750 0.187500
vt 0.375000 0.562500
vt 0.343750 0.125000
vt 0.343750 0.500000
vt 0.343750 0.937500
vt 0.359375 1.000000
vt 0.359375 0.000000
vt 0.343750 0.062500
vt 0.343750 0.875000
vt 0.343750 0.375000
vt 0.343750 0.812500
vt 0.375000 0.812500
vt 0.375000 0.312500
vt 0.343750 0.750000
vt 0.312500 0.375000
vt 0.343750 0.437500
vt 0.312500 0.812500
vt 0.343750 0.312500
vt 0.312500 0.750000
vt 0.312500 0.250000
vt 0.312500 0.687500
vt 0.343750 0.687500
vt 0.312500 0.187500
vt 0.312500 0.625000
vt 0.343750 0.562500
vt 0.312500 0.062500
vt 0.312500 0.500000
vt 0.312500 0.937500
vt 0.328125 1.000000
vt 0.328125 0.000000
vt 0.312500 0.437500
vt 0.312500 0.875000
vt 0.281250 0.125000
vt 0.312500 0.125000
vt 0.312500 0.562500
vt 0.281250 0.625000
vt 0.281250 0.062500
vt 0.281250 0.500000
vt 0.281250 0.937500
vt 0.296875 1.000000
vt 0.296875 0.000000
vt 0.281250 0.437500
vt 0.281250 0.875000
vt 0.281250 0.375000
vt 0.281250 0.812500
vt 0.312500 0.312500
vt 0.281250 0.250000
vt 0.281250 0.687500
vt 0.281250 0.187500
vt 0.250000 0.812500
vt 0.281250 0.312500
vt 0.250000 0.375000
vt 0.281250 0.750000
vt 0.250000 0.250000
vt 0.250000 0.750000
vt 0.250000 0.625000
vt 0.250000 0.187500
vt 0.281250 0.562500
vt 0.250000 0.125000
vt 0.250000 0.500000
vt 0.250000 0.937500
vt 0.265625 1.000000
vt 0.265625 0.000000
vt 0.250000 0.062500
vt 0.250000 0.437500
vt 0.250000 0.875000
vt 0.250000 0.562500
vt 0.218750 0.625000
vt 0.218750 0.125000
vt 0.218750 0.500000
vt 0.218750 0.937500
vt 0.234375 1.000000
vt 0.234375 0.000000
vt 0.218750 0.062500
vt 0.218750 0.437500
vt 0.218750 0.875000
vt 0.218750 0.375000
vt 0.218750 0.812500
vt 0.250000 0.312500
vt 0.218750 0.250000
vt 0.250000 0.687500
vt 0.218750 0.750000
vt 0.218750 0.187500
vt 0.218750 0.312500
vt 0.187500 0.375000
vt 0.187500 0.812500
vt 0.187500 0.250000
vt 0.187500 0.687500
vt 0.218750 0.687500
vt 0.187500 0.187500
vt 0.187500 0.625000
vt 0.187500 0.125000
vt 0.218750 0.562500
vt 0.187500 0.062500
vt 0.187500 0.562500
vt 0.187500 0.937500
vt 0.203125 1.000000
vt 0.203125 0.000000
vt 0.187500 0.437500
vt 0.187500 0.875000
vt 0.156250 0.125000
vt 0.156250 0.500000
vt 0.187500 0.500000
vt 0.156250 0.937500
vt 0.171875 1.000000
vt 0.171875 0.000000
vt 0.156250 0.062500
vt 0.156250 0.437500
vt 0.156250 0.875000
vt 0.156250 0.375000
vt 0.156250 0.812500
vt 0.187500 0.312500
vt 0.156250 0.750000
vt 0.187500 0.750000
vt 0.156250 0.250000
vt 0.156250 0.625000
vt 0.125000 0.812500
vt 0.125000 0.250000
vt 0.156250 0.312500
vt 0.156250 0.687500
vt 0.125000 0.750000
vt 0.125000 0.187500
vt 0.156250 0.187500
vt 0.125000 0.625000
vt 0.156250 0.562500
vt 0.125000 0.062500
vt 0.125000 0.562500
vt 0.125000 0.937500
vt 0.140625 1.000000
vt 0.140625 0.000000
vt 0.125000 0.437500
vt 0.125000 0.875000
vt 0.125000 0.375000
vt 0.093750 0.500000
vt 0.125000 0.500000
vt 0.093750 0.937500
vt 0.109375 1.000000
vt 0.109375 0.000000
vt 0.093750 0.062500
vt 0.093750 0.437500
vt 0.093750 0.375000
vt 0.093750 0.812500
vt 0.125000 0.312500
vt 0.093750 0.250000
vt 0.125000 0.687500
vt 0.093750 0.750000
vt 0.093750 0.187500
vt 0.093750 0.625000
vt 0.125000 0.125000
vt 0.062500 0.250000
vt 0.093750 0.312500
vt 0.093750 0.687500
vt 0.062500 0.750000
vt 0.062500 0.187500
vt 0.062500 0.625000
vt 0.093750 0.125000
vt 0.093750 0.562500
vt 0.062500 0.062500
vt 0.062500 0.500000
vt 0.062500 0.937500
vt 0.078125 1.000000
vt 0.078125 0.000000
vt 0.062500 0.437500
vt 0.062500 0.875000
vt 0.093750 0.875000
vt 0.062500 0.375000
vt 0.062500 0.812500
vt 0.046875 0.000000
vt 0.031250 0.062500
vt 0.031250 0.500000
vt 0.031250 0.937500
vt 0.031250 0.375000
vt 0.031250 0.812500
vt 0.062500 0.312500
vt 0.031250 0.250000
vt 0.062500 0.687500
vt 0.031250 0.750000
vt 0.031250 0.187500
vt 0.031250 0.625000
vt 0.031250 0.125000
vt 0.062500 0.125000
vt 0.062500 0.562500
vt 0.046875 1.000000
vt 0.000000 0.187500
vt 0.000000 0.625000
vt 0.031250 0.687500
vt 0.031250 0.562500
vt 0.000000 0.062500
vt 0.000000 0.500000
vt 0.000000 0.937500
vt 0.015625 1.000000
vt 0.015625 0.000000
vt 0.031250 0.437500
vt 0.031250 0.875000
vt 0.000000 0.375000
vt 0.000000 0.812500
vt 0.031250 0.312500
vt 0.000000 0.750000
vt 0.000000 0.312500
vt 0.000000 0.687500
vt 1.000000 0.875000
vt 0.968750 0.937500
vt 1.000000 0.937500
vt 0.968750 0.375000
vt 1.000000 0.437500
vt 1.000000 0.375000
vt 0.968750 0.812500
vt 1.000000 0.812500
vt 1.000000 0.312500
vt 0.968750 0.750000
vt 1.000000 0.750000
vt 1.000000 0.250000
vt 0.968750 0.312500
vt 0.968750 0.687500
vt 1.000000 0.687500
vt 0.968750 0.187500
vt 1.000000 0.187500
vt 0.968750 0.625000
vt 1.000000 0.625000
vt 0.968750 0.125000
vt 1.000000 0.125000
vt 1.000000 0.562500
vt 0.968750 0.062500
vt 1.000000 0.062500
vt 0.968750 0.500000
vt 1.000000 0.500000
vt 0.984375 1.000000
vt 0.984375 0.000000
vt 0.937500 0.625000
vt 0.937500 0.125000
vt 0.968750 0.562500
vt 0.937500 0.062500
vt 0.937500 0.500000
vt 0.937500 0.937500
vt 0.953125 1.000000
vt 0.953125 0.000000
vt 0.937500 0.437500
vt 0.968750 0.437500
vt 0.937500 0.875000
vt 0.968750 0.875000
vt 0.937500 0.375000
vt 0.937500 0.812500
vt 0.937500 0.750000
vt 0.937500 0.250000
vt 0.968750 0.250000
vt 0.937500 0.687500
vt 0.937500 0.187500
vt 0.906250 0.375000
vt 0.906250 0.812500
vt 0.937500 0.312500
vt 0.906250 0.250000
vt 0.906250 0.750000
vt 0.906250 0.625000
vt 0.906250 0.125000
vt 0.937500 0.562500
vt 0.906250 0.062500
vt 0.906250 0.500000
vt 0.906250 0.937500
vt 0.921875 1.000000
vt 0.921875 0.000000
vt 0.906250 0.875000
vt 0.875000 0.125000
vt 0.906250 0.187500
vt 0.906250 0.562500
vt 0.875000 0.625000
vt 0.875000 0.062500
vt 0.875000 0.500000
vt 0.875000 0.937500
vt 0.890625 1.000000
vt 0.890625 0.000000
vt 0.906250 0.437500
vt 0.875000 0.875000
vt 0.875000 0.375000
vt 0.875000 0.812500
vt 0.906250 0.312500
vt 0.875000 0.250000
vt 0.906250 0.687500
vt 0.875000 0.750000
vt 0.875000 0.187500
vt 0.843750 0.812500
vt 0.875000 0.312500
vt 0.843750 0.375000
vt 0.843750 0.750000
vt 0.843750 0.250000
vt 0.875000 0.687500
vt 0.843750 0.625000
vt 0.843750 0.125000
vt 0.875000 0.562500
vt 0.843750 0.062500
vt 0.843750 0.500000
vt 0.843750 0.937500
vt 0.859375 1.000000
vt 0.859375 0.000000
vt 0.843750 0.437500
vt 0.875000 0.437500
vt 0.843750 0.875000
vt 0.843750 0.562500
vt 0.812500 0.625000
vt 0.812500 0.062500
vt 0.812500 0.500000
vt 0.812500 0.937500
vt 0.828125 1.000000
vt 0.828125 0.000000
vt 0.812500 0.437500
vt 0.812500 0.375000
vt 0.812500 0.812500
vt 0.843750 0.312500
vt 0.812500 0.750000
vt 0.812500 0.250000
vt 0.843750 0.687500
vt 0.812500 0.187500
vt 0.843750 0.187500
vt 0.812500 0.312500
vt 0.781250 0.375000
vt 0.781250 0.750000
vt 0.781250 0.250000
vt 0.812500 0.687500
vt 0.781250 0.187500
vt 0.781250 0.625000
vt 0.781250 0.125000
vt 0.812500 0.125000
vt 0.812500 0.562500
vt 0.781250 0.062500
vt 0.781250 0.500000
vt 0.781250 0.937500
vt 0.796875 1.000000
vt 0.796875 0.000000
vt 0.781250 0.437500
vt 0.781250 0.875000
vt 0.812500 0.875000
vt 0.781250 0.812500
vt 0.781250 0.562500
vt 0.765625 1.000000
vt 0.765625 0.000000
vt 0.781250 0.312500
vt 0.781250 0.687500
vt 0.000000 0.250000
vt 0.000000 0.125000
vt 0.000000 0.562500
vt 0.000000 0.437500
vt 0.000000 0.875000
s 1
usemtl マテリアル
f 25/1/1 481/2/1 482/3/1
f 18/4/2 7/5/2 8/6/3
f 1/7/4 11/8/4 297/9/4
f 206/10/5 25/1/5 482/3/5
f 19/11/6 8/6/6 9/12/7
f 2/13/8 11/8/8 1/7/8
f 20/14/9 9/12/9 478/15/9
f 3/16/10 12/17/10 2/13/10
f 21/18/11 478/15/11 479/19/11
f 14/20/12 3/16/12 4/21/12
f 22/22/13 479/19/13 480/23/13
f 15/24/14 4/21/14 5/25/14
f 23/26/15 480/23/15 10/27/15
f 6/28/16 15/24/16 5/25/16
f 24/29/17 10/27/17 481/2/17
f 17/30/18 6/28/18 7/5/18
f 31/31/19 15/24/19 16/32/19
f 39/33/20 23/26/20 24/29/20
f 17/30/21 31/31/21 16/32/21
f 40/34/22 24/29/22 25/1/22
f 33/35/23 17/30/23 18/4/23
f 11/8/24 26/36/24 297/37/24
f 206/38/25 40/34/25 25/1/25
f 34/39/26 18/4/26 19/11/26
f 27/40/27 11/8/27 12/17/27
f 20/14/28 34/39/28 19/11/28
f 28/41/29 12/17/29 13/42/29
f 36/43/30 20/14/30 21/18/30
f 29/44/31 13/42/31 14/20/31
f 22/22/32 36/43/32 21/18/32
f 30/45/33 14/20/33 15/24/33
f 38/46/34 22/22/34 23/26/34
f 50/47/35 34/39/35 35/48/35
f 43/49/36 27/40/37 28/41/36
f 36/43/38 50/47/38 35/48/38
f 29/44/39 43/49/39 28/41/39
f 52/50/40 36/43/40 37/51/40
f 45/52/41 29/44/41 30/45/41
f 53/53/42 37/51/42 38/46/42
f 46/54/43 30/45/43 31/31/43
f 54/55/44 38/46/44 39/33/44
f 32/56/45 46/54/45 31/31/45
f 55/57/46 39/33/46 40/34/46
f 48/58/47 32/56/47 33/35/47
f 26/36/48 41/59/48 297/60/48
f 206/61/49 55/57/49 40/34/49
f 49/62/50 33/35/50 34/39/50
f 42/63/51 26/36/51 27/40/51
f 69/64/52 53/53/52 54/55/52
f 62/65/53 46/54/53 47/66/53
f 55/57/54 69/64/54 54/55/54
f 48/58/55 62/65/55 47/66/55
f 41/59/56 56/67/56 297/68/56
f 206/69/57 70/70/57 55/57/57
f 64/71/58 48/58/58 49/62/58
f 57/72/59 41/59/59 42/63/59
f 50/47/60 64/71/60 49/62/60
f 58/73/61 42/63/61 43/49/61
f 51/74/62 65/75/62 50/47/62
f 59/76/63 43/49/63 44/77/63
f 67/78/64 51/74/64 52/50/64
f 60/79/65 44/77/65 45/52/65
f 68/80/66 52/50/66 53/53/66
f 61/81/67 45/52/67 46/54/67
f 66/82/68 80/83/68 65/75/68
f 74/84/69 58/73/69 59/76/69
f 82/85/70 66/82/70 67/78/70
f 60/79/71 74/84/71 59/76/71
f 68/80/72 82/85/72 67/78/72
f 76/86/73 60/79/73 61/81/73
f 84/87/74 68/80/74 69/64/74
f 77/88/75 61/81/75 62/65/75
f 85/89/76 69/64/76 70/70/76
f 63/90/77 77/88/77 62/65/77
f 56/67/78 71/91/78 297/92/78
f 206/93/79 85/89/79 70/70/79
f 79/94/80 63/90/80 64/71/80
f 72/95/81 56/67/81 57/72/81
f 80/83/82 64/71/82 65/75/82
f 73/96/83 57/72/83 58/73/83
f 85/89/84 99/97/84 84/87/84
f 93/98/85 77/88/85 78/99/86
f 71/91/87 86/100/87 297/101/87
f 206/102/88 100/103/88 85/89/88
f 94/104/89 78/99/89 79/94/90
f 87/105/91 71/91/91 72/95/91
f 95/106/92 79/94/92 80/83/92
f 88/107/93 72/95/93 73/96/93
f 81/108/94 95/106/94 80/83/94
f 74/84/95 88/107/95 73/96/95
f 82/85/96 96/109/96 81/108/96
f 90/110/97 74/84/97 75/111/97
f 98/112/98 82/85/98 83/113/98
f 91/114/99 75/111/99 76/86/99
f 99/97/100 83/113/101 84/87/100
f 77/88/102 91/114/102 76/86/102
f 89/115/103 103/116/103 88/107/103
f 112/117/104 96/109/104 97/118/104
f 105/119/105 89/115/105 90/110/105
f 113/120/106 97/118/106 98/112/106
f 106/121/107 90/110/107 91/114/107
f 114/122/108 98/112/108 99/97/108
f 92/123/109 106/121/109 91/114/109
f 115/124/110 99/97/110 100/103/110
f 108/125/111 92/123/111 93/98/111
f 86/100/112 101/126/112 297/127/112
f 206/128/113 115/124/113 100/103/113
f 109/129/114 93/98/114 94/104/114
f 102/130/115 86/100/115 87/105/115
f 110/131/116 94/104/116 95/106/116
f 103/116/117 87/105/117 88/107/117
f 96/109/118 110/131/118 95/106/118
f 123/132/119 107/133/119 108/125/119
f 101/126/120 116/134/120 297/135/120
f 206/136/121 130/137/121 115/124/121
f 124/138/122 108/125/122 109/129/122
f 117/139/123 101/126/123 102/130/123
f 125/140/124 109/129/124 110/131/124
f 118/141/125 102/130/125 103/116/125
f 111/142/126 125/140/126 110/131/126
f 119/143/127 103/116/127 104/144/127
f 127/145/128 111/142/128 112/117/128
f 120/146/129 104/144/129 105/119/129
f 113/120/130 127/145/130 112/117/130
f 121/147/131 105/119/131 106/121/131
f 114/122/132 128/148/132 113/120/132
f 107/133/133 121/147/133 106/121/133
f 130/137/134 114/122/134 115/124/134
f 142/149/135 126/150/135 127/145/135
f 120/146/136 134/151/136 119/143/136
f 143/152/137 127/145/137 128/148/137
f 136/153/138 120/146/138 121/147/138
f 144/154/139 128/148/139 129/155/139
f 122/156/140 136/153/140 121/147/140
f 130/137/141 144/154/141 129/155/141
f 138/157/142 122/156/142 123/132/142
f 116/134/143 131/158/143 297/159/143
f 206/160/144 145/161/144 130/137/144
f 139/162/145 123/132/145 124/138/145
f 132/163/146 116/134/146 117/139/146
f 140/164/147 124/138/147 125/140/147
f 133/165/148 117/139/148 118/141/148
f 126/150/149 140/164/149 125/140/149
f 134/151/150 118/141/150 119/143/150
f 131/158/151 146/166/151 297/167/151
f 206/168/152 160/169/152 145/161/152
f 154/170/153 138/157/153 139/162/153
f 147/171/154 131/158/154 132/163/154
f 155/172/155 139/162/155 140/164/155
f 133/165/156 147/171/156 132/163/156
f 141/173/157 155/172/157 140/164/158
f 149/174/159 133/165/159 134/151/159
f 157/175/160 141/173/160 142/149/160
f 135/176/161 149/174/161 134/151/161
f 158/177/162 142/149/162 143/152/162
f 151/178/163 135/176/164 136/153/163
f 159/179/165 143/152/165 144/154/165
f 137/180/166 151/178/166 136/153/166
f 160/169/167 144/154/167 145/161/167
f 153/181/168 137/180/168 138/157/168
f 150/182/169 164/183/169 149/174/169
f 158/177/170 172/184/170 157/175/170
f 166/185/171 150/182/171 151/178/171
f 174/186/172 158/177/172 159/179/173
f 152/187/174 166/185/174 151/178/174
f 160/169/175 174/186/175 159/179/175
f 168/188/176 152/187/176 153/181/176
f 146/166/177 161/189/177 297/190/177
f 206/191/178 175/192/178 160/169/178
f 154/170/179 168/188/179 153/181/179
f 162/193/180 146/166/180 147/171/180
f 170/194/181 154/170/181 155/172/181
f 163/195/182 147/171/182 148/196/183
f 156/197/184 170/194/184 155/172/184
f 164/183/185 148/196/185 149/174/185
f 172/184/186 156/197/186 157/175/186
f 184/198/187 168/188/187 169/199/187
f 177/200/188 161/189/188 162/193/188
f 185/201/189 169/199/189 170/194/189
f 163/195/190 177/200/190 162/193/190
f 171/202/191 185/201/191 170/194/191
f 179/203/192 163/195/192 164/183/192
f 187/204/193 171/202/193 172/184/193
f 180/205/194 164/183/194 165/206/194
f 173/207/195 187/204/195 172/184/195
f 181/208/196 165/206/196 166/185/196
f 189/209/197 173/207/197 174/186/197
f 167/210/198 181/208/198 166/185/198
f 190/211/199 174/186/199 175/192/199
f 183/212/200 167/210/200 168/188/200
f 161/189/201 176/213/201 297/214/201
f 206/215/202 190/211/202 175/192/202
f 188/216/203 202/217/203 187/204/203
f 196/218/204 180/205/204 181/208/204
f 189/209/205 203/219/205 188/216/205
f 182/220/206 196/218/206 181/208/206
f 190/211/207 204/221/207 189/209/207
f 198/222/208 182/220/208 183/212/208
f 176/213/209 191/223/209 297/224/209
f 206/225/210 205/226/210 190/211/210
f 184/198/211 198/222/211 183/212/211
f 192/227/212 176/213/212 177/200/212
f 200/228/213 184/198/213 185/201/213
f 193/229/214 177/200/214 178/230/214
f 186/231/215 200/228/215 185/201/215
f 194/232/216 178/230/216 179/203/216
f 202/217/217 186/231/217 187/204/217
f 180/205/218 194/232/218 179/203/218
f 216/233/219 199/234/219 200/228/219
f 209/235/220 192/227/220 193/229/220
f 201/236/221 216/233/221 200/228/221
f 210/237/222 193/229/222 194/232/222
f 218/238/223 201/236/223 202/217/223
f 211/239/224 194/232/224 195/240/224
f 219/241/225 202/217/225 203/219/225
f 212/242/226 195/240/226 196/218/226
f 204/221/227 219/241/227 203/219/227
f 197/243/228 212/242/228 196/218/228
f 221/244/229 204/221/229 205/226/229
f 214/245/230 197/243/230 198/222/230
f 191/223/231 207/246/231 297/247/231
f 206/248/232 221/244/232 205/226/232
f 215/249/233 198/222/233 199/234/233
f 208/250/234 191/223/234 192/227/234
f 235/251/235 219/241/235 220/252/235
f 213/253/236 227/254/236 212/242/236
f 236/255/237 220/252/237 221/244/237
f 229/256/238 213/253/238 214/245/239
f 207/246/240 222/257/240 297/258/240
f 206/259/241 236/255/241 221/244/241
f 230/260/242 214/245/242 215/249/243
f 223/261/244 207/246/244 208/250/244
f 231/262/245 215/249/245 216/233/245
f 224/263/246 208/250/246 209/235/246
f 217/264/247 231/262/247 216/233/247
f 210/237/248 224/263/248 209/235/248
f 233/265/249 217/264/249 218/238/249
f 226/266/250 210/237/250 211/239/250
f 234/267/251 218/238/251 219/241/251
f 227/254/252 211/239/252 212/242/252
f 239/268/253 223/261/253 224/263/253
f 232/269/254 246/270/254 231/262/254
f 225/271/255 239/268/255 224/263/255
f 248/272/256 232/269/256 233/265/256
f 226/266/257 240/273/257 225/271/257
f 234/267/258 248/272/258 233/265/258
f 242/274/259 226/266/259 227/254/259
f 235/251/260 249/275/260 234/267/260
f 228/276/261 242/274/261 227/254/261
f 236/255/262 250/277/262 235/251/262
f 244/278/263 228/276/263 229/256/263
f 222/257/264 237/279/264 297/280/264
f 206/281/265 251/282/265 236/255/265
f 245/283/266 229/256/266 230/260/266
f 238/284/267 222/257/267 223/261/267
f 246/270/268 230/260/268 231/262/268
f 243/285/269 257/286/269 242/274/269
f 251/282/270 265/287/270 250/277/270
f 259/288/271 243/285/271 244/278/271
f 237/279/272 252/289/272 297/290/272
f 206/291/273 266/292/273 251/282/273
f 260/293/274 244/278/274 245/283/274
f 253/294/275 237/279/275 238/284/275
f 261/295/276 245/283/276 246/270/276
f 254/296/277 238/284/277 239/268/277
f 247/297/278 261/295/278 246/270/278
f 240/273/279 254/296/279 239/268/279
f 263/298/280 247/297/280 248/272/280
f 241/299/281 255/300/281 240/273/281
f 264/301/282 248/272/282 249/275/282
f 257/286/283 241/299/283 242/274/283
f 265/287/284 249/275/284 250/277/284
f 262/302/285 276/303/285 261/295/285
f 255/300/286 269/304/286 254/296/286
f 278/305/287 262/302/287 263/298/287
f 271/306/288 255/300/288 256/307/288
f 279/308/289 263/298/289 264/301/289
f 272/309/290 256/307/290 257/286/291
f 280/310/292 264/301/292 265/287/292
f 258/311/293 272/309/293 257/286/293
f 281/312/294 265/287/294 266/292/294
f 259/288/295 273/313/295 258/311/295
f 252/289/296 267/314/296 297/315/296
f 206/316/297 281/312/297 266/292/297
f 275/317/298 259/288/298 260/293/298
f 268/318/299 252/289/299 253/294/299
f 276/303/300 260/293/300 261/295/300
f 269/304/301 253/294/301 254/296/301
f 281/312/302 295/319/302 280/310/302
f 289/320/303 273/313/303 274/321/303
f 267/314/304 282/322/304 297/323/304
f 206/324/305 296/325/305 281/312/305
f 290/326/306 274/321/306 275/317/306
f 283/327/307 267/314/307 268/318/307
f 291/328/308 275/317/308 276/303/308
f 284/329/309 268/318/309 269/304/309
f 277/330/310 291/328/310 276/303/310
f 285/331/311 269/304/311 270/332/311
f 293/333/312 277/330/312 278/305/312
f 271/306/313 285/331/313 270/332/313
f 279/308/314 293/333/314 278/305/314
f 287/334/315 271/306/315 272/309/315
f 295/319/316 279/308/317 280/310/316
f 273/313/318 287/334/318 272/309/318
f 285/331/319 300/335/319 284/329/319
f 309/336/320 292/337/320 293/333/320
f 286/338/321 301/339/321 285/331/321
f 310/340/322 293/333/322 294/341/322
f 303/342/323 286/338/323 287/334/323
f 295/319/324 310/340/324 294/341/324
f 288/343/325 303/342/325 287/334/325
f 312/344/326 295/319/326 296/325/326
f 289/320/327 304/345/327 288/343/327
f 282/322/328 298/346/328 297/347/328
f 206/348/329 312/344/329 296/325/329
f 306/349/330 289/320/330 290/326/330
f 299/350/331 282/322/331 283/327/331
f 307/351/332 290/326/332 291/328/332
f 300/335/333 283/327/333 284/329/333
f 292/337/334 307/351/334 291/328/334
f 320/352/335 304/345/335 305/353/335
f 298/346/336 313/354/336 297/355/336
f 206/356/337 327/357/337 312/344/337
f 321/358/338 305/353/338 306/349/338
f 299/350/339 313/354/339 298/346/339
f 322/359/340 306/349/340 307/351/340
f 315/360/341 299/350/341 300/335/341
f 308/361/342 322/359/342 307/351/342
f 301/339/343 315/360/343 300/335/343
f 324/362/344 308/361/344 309/336/344
f 302/363/345 316/364/345 301/339/345
f 325/365/346 309/336/346 310/340/346
f 318/366/347 302/363/347 303/342/347
f 311/367/348 325/365/348 310/340/348
f 304/345/349 318/366/349 303/342/349
f 327/357/350 311/367/350 312/344/350
f 339/368/351 323/369/351 324/362/351
f 317/370/352 331/371/352 316/364/352
f 340/372/353 324/362/353 325/365/353
f 333/373/354 317/370/354 318/366/354
f 326/374/355 340/372/355 325/365/355
f 319/375/356 333/373/356 318/366/356
f 342/376/357 326/374/357 327/357/357
f 335/377/358 319/375/358 320/352/358
f 313/354/359 328/378/359 297/379/359
f 206/380/360 342/376/360 327/357/360
f 336/381/361 320/352/361 321/358/362
f 329/382/363 313/354/363 314/383/363
f 337/384/364 321/358/364 322/359/364
f 330/385/365 314/383/365 315/360/366
f 323/369/367 337/384/367 322/359/367
f 331/371/368 315/360/368 316/364/368
f 206/386/369 357/387/369 342/376/369
f 336/381/370 350/388/370 335/377/370
f 329/382/371 343/389/371 328/378/371
f 352/390/372 336/381/372 337/384/372
f 345/391/373 329/382/373 330/385/373
f 338/392/374 352/390/374 337/384/374
f 331/371/375 345/391/375 330/385/375
f 354/393/376 338/392/376 339/368/376
f 332/394/377 346/395/377 331/371/377
f 355/396/378 339/368/378 340/372/378
f 348/397/379 332/394/379 333/373/379
f 356/398/380 340/372/380 341/399/380
f 334/400/381 348/397/381 333/373/381
f 357/387/382 341/399/382 342/376/382
f 350/388/383 334/400/383 335/377/383
f 328/378/384 343/389/384 297/401/384
f 370/402/385 354/393/385 355/396/385
f 363/403/386 347/404/386 348/397/386
f 356/398/387 370/402/387 355/396/387
f 349/405/388 363/403/388 348/397/388
f 372/406/389 356/398/389 357/387/389
f 365/407/390 349/405/390 350/388/390
f 343/389/391 358/408/391 297/409/391
f 206/410/392 372/406/392 357/387/392
f 351/411/393 365/407/393 350/388/393
f 344/412/394 358/408/394 343/389/394
f 367/413/395 351/411/395 352/390/395
f 360/414/396 344/412/396 345/391/396
f 353/415/397 367/413/397 352/390/397
f 361/416/398 345/391/398 346/395/398
f 354/393/399 368/417/399 353/415/399
f 362/418/400 346/395/400 347/404/400
f 359/419/401 373/420/401 358/421/401
f 382/422/402 366/423/402 367/424/402
f 375/425/403 359/419/403 360/426/403
f 368/427/404 382/422/404 367/424/404
f 376/428/405 360/426/405 361/429/405
f 369/430/406 383/431/406 368/427/406
f 377/432/407 361/429/407 362/433/407
f 385/434/408 369/430/408 370/435/408
f 378/436/409 362/433/409 363/437/409
f 386/438/410 370/435/410 371/439/410
f 364/440/411 378/436/411 363/437/411
f 387/441/412 371/439/412 372/442/412
f 380/443/413 364/440/413 365/444/413
f 358/421/414 373/420/414 297/445/414
f 206/446/415 387/441/415 372/442/415
f 366/423/416 380/443/416 365/444/416
f 393/447/417 377/432/417 378/436/417
f 401/448/418 385/434/418 386/438/418
f 379/449/419 393/447/419 378/436/419
f 402/450/420 386/438/420 387/441/420
f 395/451/421 379/449/421 380/443/421
f 373/420/422 388/452/422 297/453/422
f 206/454/423 402/450/423 387/441/423
f 396/455/424 380/443/424 381/456/424
f 389/457/425 373/420/425 374/458/425
f 397/459/426 381/456/426 382/422/426
f 390/460/427 374/458/427 375/425/427
f 383/431/428 397/459/428 382/422/428
f 391/461/429 375/425/429 376/428/429
f 399/462/430 383/431/430 384/463/430
f 392/464/431 376/428/431 377/432/431
f 400/465/432 384/463/432 385/434/432
f 412/466/433 396/455/433 397/459/433
f 405/467/434 389/457/434 390/460/435
f 398/468/436 412/466/436 397/459/436
f 391/461/437 405/467/437 390/460/437
f 414/469/438 398/468/438 399/462/438
f 392/464/439 406/470/439 391/461/439
f 400/465/440 414/469/440 399/462/440
f 408/471/441 392/464/441 393/447/441
f 416/472/442 400/465/442 401/448/442
f 394/473/443 408/471/443 393/447/443
f 417/474/444 401/448/444 402/450/444
f 410/475/445 394/473/445 395/451/446
f 388/452/447 403/476/447 297/477/447
f 206/478/448 417/474/448 402/450/448
f 396/455/449 410/475/449 395/451/450
f 404/479/451 388/452/451 389/457/451
f 431/480/452 415/481/452 416/472/452
f 409/482/453 423/483/453 408/471/453
f 432/484/454 416/472/454 417/474/454
f 425/485/455 409/482/455 410/475/455
f 403/476/456 418/486/456 297/487/456
f 206/488/457 432/484/457 417/474/457
f 411/489/458 425/485/458 410/475/458
f 419/490/459 403/476/459 404/479/459
f 427/491/460 411/489/460 412/466/460
f 420/492/461 404/479/461 405/467/461
f 413/493/462 427/491/462 412/466/462
f 406/470/463 420/492/463 405/467/463
f 429/494/464 413/493/464 414/469/464
f 407/495/465 421/496/465 406/470/465
f 430/497/466 414/469/466 415/481/466
f 423/483/467 407/495/467 408/471/467
f 435/498/468 419/490/468 420/492/468
f 428/499/469 442/500/469 427/491/469
f 436/501/470 420/492/470 421/496/470
f 444/502/471 428/499/471 429/494/471
f 422/503/472 436/501/472 421/496/472
f 430/497/473 444/502/473 429/494/473
f 438/504/474 422/503/474 423/483/474
f 446/505/475 430/497/475 431/480/475
f 424/506/476 438/504/476 423/483/476
f 447/507/477 431/480/477 432/484/477
f 440/508/478 424/506/478 425/485/478
f 418/486/479 433/509/479 297/510/479
f 206/511/480 447/507/480 432/484/480
f 441/512/481 425/485/481 426/513/481
f 434/514/482 418/486/482 419/490/482
f 442/500/483 426/513/483 427/491/483
f 439/515/484 453/516/484 438/504/484
f 462/517/485 446/505/485 447/507/485
f 455/518/486 439/515/486 440/508/486
f 433/509/487 448/519/487 297/520/487
f 206/521/488 462/517/488 447/507/488
f 456/522/489 440/508/489 441/512/489
f 434/514/490 448/519/490 433/509/490
f 457/523/491 441/512/491 442/500/491
f 450/524/492 434/514/492 435/498/492
f 443/525/493 457/523/493 442/500/493
f 451/526/494 435/498/494 436/501/494
f 459/527/495 443/525/495 444/502/495
f 437/528/496 451/526/496 436/501/496
f 460/529/497 444/502/497 445/530/497
f 453/516/498 437/528/498 438/504/498
f 446/505/499 460/529/499 445/530/500
f 458/531/501 472/532/501 457/523/501
f 466/533/502 450/524/502 451/526/502
f 474/534/503 458/531/503 459/527/503
f 452/535/504 466/533/504 451/526/504
f 475/536/505 459/527/505 460/529/505
f 468/537/506 452/535/506 453/516/506
f 476/538/507 460/529/507 461/539/507
f 454/540/508 468/537/508 453/516/508
f 477/541/509 461/539/509 462/517/509
f 470/542/510 454/540/510 455/518/511
f 448/519/512 463/543/512 297/544/512
f 206/545/513 477/541/513 462/517/513
f 471/546/514 455/518/514 456/522/515
f 464/547/516 448/519/516 449/548/516
f 472/532/517 456/522/517 457/523/517
f 465/549/518 449/548/518 450/524/518
f 482/3/519 476/538/519 477/541/519
f 470/542/520 7/5/520 469/550/520
f 463/543/521 1/7/521 297/551/521
f 206/552/522 482/3/522 477/541/522
f 9/12/523 470/542/523 471/546/523
f 464/547/524 1/7/524 463/543/524
f 478/15/525 471/546/525 472/532/525
f 465/549/526 2/13/526 464/547/526
f 473/553/527 478/15/527 472/532/527
f 466/533/528 3/16/528 465/549/528
f 480/23/529 473/553/529 474/534/529
f 467/554/530 4/21/530 466/533/530
f 10/27/531 474/534/531 475/536/531
f 468/537/532 5/25/532 467/554/532
f 481/2/533 475/536/533 476/538/533
f 469/550/534 6/28/534 468/537/534
f 25/1/1 24/29/1 481/2/1
f 18/4/2 17/30/2 7/5/2
f 19/11/6 18/4/535 8/6/6
f 2/13/8 12/17/8 11/8/8
f 20/14/9 19/11/9 9/12/9
f 3/16/10 13/42/10 12/17/10
f 21/18/11 20/14/11 478/15/11
f 14/20/12 13/42/12 3/16/12
f 22/22/13 21/18/13 479/19/13
f 15/24/14 14/20/14 4/21/14
f 23/26/15 22/22/15 480/23/15
f 6/28/16 16/32/16 15/24/16
f 24/29/17 23/26/17 10/27/17
f 17/30/18 16/32/18 6/28/18
f 31/31/19 30/45/19 15/24/19
f 39/33/20 38/46/20 23/26/20
f 17/30/21 32/56/21 31/31/21
f 40/34/22 39/33/22 24/29/22
f 33/35/23 32/56/536 17/30/23
f 34/39/26 33/35/537 18/4/26
f 27/40/27 26/36/27 11/8/27
f 20/14/28 35/48/28 34/39/28
f 28/41/29 27/40/29 12/17/29
f 36/43/30 35/48/30 20/14/30
f 29/44/31 28/41/31 13/42/31
f 22/22/32 37/51/32 36/43/32
f 30/45/33 29/44/33 14/20/33
f 38/46/34 37/51/34 22/22/34
f 50/47/35 49/62/35 34/39/35
f 43/49/36 42/63/37 27/40/37
f 36/43/38 51/74/38 50/47/38
f 29/44/39 44/77/39 43/49/39
f 52/50/40 51/74/40 36/43/40
f 45/52/41 44/77/41 29/44/41
f 53/53/42 52/50/42 37/51/42
f 46/54/43 45/52/43 30/45/43
f 54/55/44 53/53/44 38/46/44
f 32/56/45 47/66/45 46/54/45
f 55/57/46 54/55/46 39/33/46
f 48/58/47 47/66/47 32/56/47
f 49/62/50 48/58/50 33/35/50
f 42/63/51 41/59/51 26/36/51
f 69/64/52 68/80/52 53/53/52
f 62/65/53 61/81/53 46/54/53
f 55/57/54 70/70/54 69/64/54
f 48/58/55 63/90/538 62/65/55
f 64/71/58 63/90/539 48/58/58
f 57/72/59 56/67/59 41/59/59
f 50/47/60 65/75/60 64/71/60
f 58/73/61 57/72/61 42/63/61
f 51/74/62 66/82/62 65/75/62
f 59/76/63 58/73/63 43/49/63
f 67/78/64 66/82/64 51/74/64
f 60/79/65 59/76/65 44/77/65
f 68/80/66 67/78/66 52/50/66
f 61/81/67 60/79/67 45/52/67
f 66/82/68 81/108/68 80/83/68
f 74/84/69 73/96/69 58/73/69
f 82/85/70 81/108/70 66/82/70
f 60/79/71 75/111/71 74/84/71
f 68/80/72 83/113/72 82/85/72
f 76/86/73 75/111/73 60/79/73
f 84/87/74 83/113/74 68/80/74
f 77/88/75 76/86/75 61/81/75
f 85/89/76 84/87/76 69/64/76
f 63/90/77 78/99/77 77/88/77
f 79/94/80 78/99/80 63/90/80
f 72/95/81 71/91/81 56/67/81
f 80/83/82 79/94/82 64/71/82
f 73/96/83 72/95/83 57/72/83
f 85/89/84 100/103/84 99/97/84
f 93/98/85 92/123/85 77/88/85
f 94/104/89 93/98/540 78/99/89
f 87/105/91 86/100/91 71/91/91
f 95/106/92 94/104/92 79/94/92
f 88/107/93 87/105/93 72/95/93
f 81/108/94 96/109/94 95/106/94
f 74/84/95 89/115/95 88/107/95
f 82/85/96 97/118/96 96/109/96
f 90/110/97 89/115/97 74/84/97
f 98/112/98 97/118/98 82/85/98
f 91/114/99 90/110/99 75/111/99
f 99/97/100 98/112/101 83/113/101
f 77/88/102 92/123/102 91/114/102
f 89/115/103 104/144/103 103/116/103
f 112/117/104 111/142/104 96/109/104
f 105/119/105 104/144/105 89/115/105
f 113/120/106 112/117/106 97/118/106
f 106/121/107 105/119/107 90/110/107
f 114/122/108 113/120/108 98/112/108
f 92/123/109 107/133/109 106/121/109
f 115/124/110 114/122/110 99/97/110
f 108/125/111 107/133/111 92/123/111
f 109/129/114 108/125/114 93/98/114
f 102/130/115 101/126/115 86/100/115
f 110/131/116 109/129/116 94/104/116
f 103/116/117 102/130/117 87/105/117
f 96/109/118 111/142/541 110/131/118
f 123/132/119 122/156/119 107/133/119
f 124/138/122 123/132/122 108/125/122
f 117/139/123 116/134/123 101/126/123
f 125/140/124 124/138/124 109/129/124
f 118/141/125 117/139/125 102/130/125
f 111/142/126 126/150/126 125/140/126
f 119/143/127 118/141/127 103/116/127
f 127/145/128 126/150/128 111/142/128
f 120/146/129 119/143/129 104/144/129
f 113/120/130 128/148/130 127/145/130
f 121/147/131 120/146/131 105/119/131
f 114/122/132 129/155/132 128/148/132
f 107/133/133 122/156/133 121/147/133
f 130/137/134 129/155/134 114/122/134
f 142/149/135 141/173/135 126/150/135
f 120/146/136 135/176/136 134/151/136
f 143/152/137 142/149/137 127/145/137
f 136/153/138 135/176/138 120/146/138
f 144/154/139 143/152/139 128/148/139
f 122/156/140 137/180/140 136/153/140
f 130/137/141 145/161/141 144/154/141
f 138/157/142 137/180/142 122/156/142
f 139/162/145 138/157/145 123/132/145
f 132/163/146 131/158/146 116/134/146
f 140/164/147 139/162/147 124/138/147
f 133/165/148 132/163/148 117/139/148
f 126/150/149 141/173/149 140/164/149
f 134/151/150 133/165/150 118/141/150
f 154/170/153 153/181/542 138/157/153
f 147/171/154 146/166/154 131/158/154
f 155/172/155 154/170/155 139/162/155
f 133/165/156 148/196/156 147/171/156
f 141/173/157 156/197/157 155/172/157
f 149/174/159 148/196/159 133/165/159
f 157/175/160 156/197/160 141/173/160
f 135/176/161 150/182/161 149/174/161
f 158/177/162 157/175/162 142/149/162
f 151/178/163 150/182/164 135/176/164
f 159/179/165 158/177/165 143/152/165
f 137/180/166 152/187/166 151/178/166
f 160/169/167 159/179/167 144/154/167
f 153/181/168 152/187/168 137/180/168
f 150/182/169 165/206/169 164/183/169
f 158/177/170 173/207/170 172/184/170
f 166/185/171 165/206/171 150/182/171
f 174/186/172 173/207/172 158/177/172
f 152/187/174 167/210/174 166/185/174
f 160/169/175 175/192/175 174/186/175
f 168/188/176 167/210/176 152/187/176
f 154/170/179 169/199/179 168/188/179
f 162/193/180 161/189/180 146/166/180
f 170/194/181 169/199/181 154/170/181
f 163/195/182 162/193/182 147/171/182
f 156/197/184 171/202/184 170/194/184
f 164/183/185 163/195/185 148/196/185
f 172/184/186 171/202/186 156/197/186
f 184/198/187 183/212/187 168/188/187
f 177/200/188 176/213/188 161/189/188
f 185/201/189 184/198/189 169/199/189
f 163/195/190 178/230/190 177/200/190
f 171/202/191 186/231/191 185/201/191
f 179/203/192 178/230/192 163/195/192
f 187/204/193 186/231/193 171/202/193
f 180/205/194 179/203/194 164/183/194
f 173/207/195 188/216/195 187/204/195
f 181/208/196 180/205/196 165/206/196
f 189/209/197 188/216/197 173/207/197
f 167/210/198 182/220/198 181/208/198
f 190/211/199 189/209/199 174/186/199
f 183/212/200 182/220/200 167/210/200
f 188/216/203 203/219/203 202/217/203
f 196/218/204 195/240/204 180/205/204
f 189/209/205 204/221/205 203/219/205
f 182/220/206 197/243/206 196/218/206
f 190/211/207 205/226/207 204/221/207
f 198/222/208 197/243/208 182/220/208
f 184/198/211 199/234/211 198/222/211
f 192/227/212 191/223/212 176/213/212
f 200/228/213 199/234/213 184/198/213
f 193/229/214 192/227/214 177/200/214
f 186/231/215 201/236/215 200/228/215
f 194/232/216 193/229/216 178/230/216
f 202/217/217 201/236/217 186/231/217
f 180/205/218 195/240/218 194/232/218
f 216/233/219 215/249/219 199/234/219
f 209/235/220 208/250/220 192/227/220
f 201/236/221 217/264/221 216/233/221
f 210/237/222 209/235/222 193/229/222
f 218/238/223 217/264/223 201/236/223
f 211/239/224 210/237/224 194/232/224
f 219/241/225 218/238/225 202/217/225
f 212/242/226 211/239/226 195/240/226
f 204/221/227 220/252/227 219/241/227
f 197/243/228 213/253/228 212/242/228
f 221/244/229 220/252/229 204/221/229
f 214/245/230 213/253/543 197/243/230
f 215/249/233 214/245/544 198/222/233
f 208/250/234 207/246/234 191/223/234
f 235/251/235 234/267/235 219/241/235
f 213/253/236 228/276/236 227/254/236
f 236/255/237 235/251/237 220/252/237
f 229/256/238 228/276/238 213/253/238
f 230/260/242 229/256/242 214/245/242
f 223/261/244 222/257/244 207/246/244
f 231/262/245 230/260/245 215/249/245
f 224/263/246 223/261/246 208/250/246
f 217/264/247 232/269/247 231/262/247
f 210/237/248 225/271/248 224/263/248
f 233/265/249 232/269/249 217/264/249
f 226/266/250 225/271/250 210/237/250
f 234/267/251 233/265/251 218/238/251
f 227/254/252 226/266/252 211/239/252
f 239/268/253 238/284/253 223/261/253
f 232/269/254 247/297/254 246/270/254
f 225/271/255 240/273/255 239/268/255
f 248/272/256 247/297/256 232/269/256
f 226/266/257 241/299/257 240/273/257
f 234/267/258 249/275/258 248/272/258
f 242/274/259 241/299/259 226/266/259
f 235/251/260 250/277/260 249/275/260
f 228/276/261 243/285/261 242/274/261
f 236/255/262 251/282/262 250/277/262
f 244/278/263 243/285/263 228/276/263
f 245/283/266 244/278/266 229/256/266
f 238/284/267 237/279/267 222/257/267
f 246/270/268 245/283/268 230/260/268
f 243/285/269 258/311/269 257/286/269
f 251/282/270 266/292/270 265/287/270
f 259/288/271 258/311/271 243/285/271
f 260/293/274 259/288/274 244/278/274
f 253/294/275 252/289/275 237/279/275
f 261/295/276 260/293/276 245/283/276
f 254/296/277 253/294/277 238/284/277
f 247/297/278 262/302/278 261/295/278
f 240/273/279 255/300/279 254/296/279
f 263/298/280 262/302/280 247/297/280
f 241/299/281 256/307/281 255/300/281
f 264/301/282 263/298/282 248/272/282
f 257/286/283 256/307/283 241/299/283
f 265/287/284 264/301/284 249/275/284
f 262/302/285 277/330/285 276/303/285
f 255/300/286 270/332/286 269/304/286
f 278/305/287 277/330/287 262/302/287
f 271/306/288 270/332/288 255/300/288
f 279/308/289 278/305/289 263/298/289
f 272/309/290 271/306/290 256/307/290
f 280/310/292 279/308/292 264/301/292
f 258/311/293 273/313/293 272/309/293
f 281/312/294 280/310/294 265/287/294
f 259/288/295 274/321/295 273/313/295
f 275/317/298 274/321/298 259/288/298
f 268/318/299 267/314/299 252/289/299
f 276/303/300 275/317/300 260/293/300
f 269/304/301 268/318/301 253/294/301
f 281/312/302 296/325/302 295/319/302
f 289/320/303 288/343/303 273/313/303
f 290/326/306 289/320/306 274/321/306
f 283/327/307 282/322/307 267/314/307
f 291/328/308 290/326/308 275/317/308
f 284/329/309 283/327/309 268/318/309
f 277/330/310 292/337/310 291/328/310
f 285/331/311 284/329/311 269/304/311
f 293/333/312 292/337/312 277/330/312
f 271/306/313 286/338/313 285/331/313
f 279/308/314 294/341/314 293/333/314
f 287/334/315 286/338/315 271/306/315
f 295/319/316 294/341/317 279/308/317
f 273/313/318 288/343/318 287/334/318
f 285/331/319 301/339/319 300/335/319
f 309/336/320 308/361/320 292/337/320
f 286/338/321 302/363/321 301/339/321
f 310/340/322 309/336/322 293/333/322
f 303/342/323 302/363/323 286/338/323
f 295/319/324 311/367/324 310/340/324
f 288/343/325 304/345/325 303/342/325
f 312/344/326 311/367/326 295/319/326
f 289/320/327 305/353/327 304/345/327
f 306/349/330 305/353/330 289/320/330
f 299/350/331 298/346/331 282/322/331
f 307/351/332 306/349/332 290/326/332
f 300/335/333 299/350/333 283/327/333
f 292/337/334 308/361/334 307/351/334
f 320/352/335 319/375/335 304/345/335
f 321/358/338 320/352/338 305/353/338
f 299/350/339 314/383/339 313/354/339
f 322/359/340 321/358/340 306/349/340
f 315/360/341 314/383/341 299/350/341
f 308/361/342 323/369/342 322/359/342
f 301/339/343 316/364/343 315/360/343
f 324/362/344 323/369/344 308/361/344
f 302/363/345 317/370/345 316/364/345
f 325/365/346 324/362/346 309/336/346
f 318/366/347 317/370/347 302/363/347
f 311/367/348 326/374/348 325/365/348
f 304/345/349 319/375/349 318/366/349
f 327/357/350 326/374/350 311/367/350
f 339/368/351 338/392/351 323/369/351
f 317/370/352 332/394/352 331/371/352
f 340/372/353 339/368/353 324/362/353
f 333/373/354 332/394/354 317/370/354
f 326/374/355 341/399/355 340/372/355
f 319/375/356 334/400/356 333/373/356
f 342/376/357 341/399/357 326/374/357
f 335/377/358 334/400/545 319/375/358
f 336/381/361 335/377/361 320/352/361
f 329/382/363 328/378/363 313/354/363
f 337/384/364 336/381/364 321/358/364
f 330/385/365 329/382/365 314/383/365
f 323/369/367 338/392/367 337/384/367
f 331/371/368 330/385/368 315/360/368
f 336/381/370 351/411/370 350/388/370
f 329/382/371 344/412/371 343/389/371
f 352/390/372 351/411/372 336/381/372
f 345/391/373 344/412/373 329/382/373
f 338/392/374 353/415/374 352/390/374
f 331/371/375 346/395/375 345/391/375
f 354/393/376 353/415/376 338/392/376
f 332/394/377 347/404/377 346/395/377
f 355/396/378 354/393/378 339/368/378
f 348/397/379 347/404/379 332/394/379
f 356/398/380 355/396/380 340/372/380
f 334/400/381 349/405/381 348/397/381
f 357/387/382 356/398/382 341/399/382
f 350/388/383 349/405/383 334/400/383
f 370/402/385 369/555/385 354/393/385
f 363/403/386 362/418/386 347/404/386
f 356/398/387 371/556/387 370/402/387
f 349/405/388 364/557/388 363/403/388
f 372/406/389 371/556/389 356/398/389
f 365/407/390 364/557/390 349/405/390
f 351/411/393 366/558/393 365/407/393
f 344/412/394 359/559/394 358/408/394
f 367/413/395 366/558/395 351/411/395
f 360/414/396 359/559/396 344/412/396
f 353/415/397 368/417/397 367/413/397
f 361/416/398 360/414/398 345/391/398
f 354/393/399 369/555/399 368/417/399
f 362/418/400 361/416/400 346/395/400
f 359/419/401 374/458/401 373/420/401
f 382/422/402 381/456/402 366/423/402
f 375/425/403 374/458/403 359/419/403
f 368/427/404 383/431/404 382/422/404
f 376/428/405 375/425/405 360/426/405
f 369/430/406 384/463/406 383/431/406
f 377/432/407 376/428/407 361/429/407
f 385/434/408 384/463/408 369/430/408
f 378/436/409 377/432/409 362/433/409
f 386/438/410 385/434/410 370/435/410
f 364/440/411 379/449/411 378/436/411
f 387/441/412 386/438/412 371/439/412
f 380/443/413 379/449/413 364/440/413
f 366/423/416 381/456/416 380/443/416
f 393/447/417 392/464/417 377/432/417
f 401/448/418 400/465/418 385/434/418
f 379/449/419 394/473/419 393/447/419
f 402/450/420 401/448/420 386/438/420
f 395/451/421 394/473/421 379/449/421
f 396/455/424 395/451/424 380/443/424
f 389/457/425 388/452/425 373/420/425
f 397/459/426 396/455/426 381/456/426
f 390/460/427 389/457/427 374/458/427
f 383/431/428 398/468/428 397/459/428
f 391/461/429 390/460/429 375/425/429
f 399/462/430 398/468/430 383/431/430
f 392/464/431 391/461/431 376/428/431
f 400/465/432 399/462/432 384/463/432
f 412/466/433 411/489/433 396/455/433
f 405/467/434 404/479/434 389/457/434
f 398/468/436 413/493/436 412/466/436
f 391/461/437 406/470/437 405/467/437
f 414/469/438 413/493/438 398/468/438
f 392/464/439 407/495/439 406/470/439
f 400/465/440 415/481/440 414/469/440
f 408/471/441 407/495/441 392/464/441
f 416/472/442 415/481/546 400/465/442
f 394/473/443 409/482/443 408/471/443
f 417/474/444 416/472/444 401/448/444
f 410/475/445 409/482/547 394/473/445
f 396/455/449 411/489/548 410/475/449
f 404/479/451 403/476/451 388/452/451
f 431/480/452 430/497/452 415/481/452
f 409/482/453 424/506/453 423/483/453
f 432/484/454 431/480/454 416/472/454
f 425/485/455 424/506/455 409/482/455
f 411/489/458 426/513/458 425/485/458
f 419/490/459 418/486/459 403/476/459
f 427/491/460 426/513/460 411/489/460
f 420/492/461 419/490/461 404/479/461
f 413/493/462 428/499/462 427/491/462
f 406/470/463 421/496/463 420/492/463
f 429/494/464 428/499/464 413/493/464
f 407/495/465 422/503/465 421/496/465
f 430/497/466 429/494/466 414/469/466
f 423/483/467 422/503/467 407/495/467
f 435/498/468 434/514/468 419/490/468
f 428/499/469 443/525/469 442/500/469
f 436/501/470 435/498/470 420/492/470
f 444/502/471 443/525/471 428/499/471
f 422/503/472 437/528/472 436/501/472
f 430/497/473 445/530/473 444/502/473
f 438/504/474 437/528/474 422/503/474
f 446/505/475 445/530/475 430/497/475
f 424/506/476 439/515/476 438/504/476
f 447/507/477 446/505/477 431/480/477
f 440/508/478 439/515/549 424/506/478
f 441/512/481 440/508/550 425/485/481
f 434/514/482 433/509/482 418/486/482
f 442/500/483 441/512/483 426/513/483
f 439/515/484 454/540/484 453/516/484
f 462/517/485 461/539/485 446/505/485
f 455/518/486 454/540/551 439/515/486
f 456/522/489 455/518/552 440/508/489
f 434/514/490 449/548/490 448/519/490
f 457/523/491 456/522/491 441/512/491
f 450/524/492 449/548/492 434/514/492
f 443/525/493 458/531/493 457/523/493
f 451/526/494 450/524/494 435/498/494
f 459/527/495 458/531/495 443/525/495
f 437/528/496 452/535/496 451/526/496
f 460/529/497 459/527/497 444/502/497
f 453/516/498 452/535/498 437/528/498
f 446/505/499 461/539/499 460/529/499
f 458/531/501 473/553/501 472/532/501
f 466/533/502 465/549/502 450/524/502
f 474/534/503 473/553/503 458/531/503
f 452/535/504 467/554/504 466/533/504
f 475/536/505 474/534/505 459/527/505
f 468/537/506 467/554/506 452/535/506
f 476/538/507 475/536/507 460/529/507
f 454/540/508 469/550/508 468/537/508
f 477/541/509 476/538/509 461/539/509
f 470/542/510 469/550/510 454/540/510
f 471/546/514 470/542/514 455/518/514
f 464/547/516 463/543/516 448/519/516
f 472/532/517 471/546/517 456/522/517
f 465/549/518 464/547/518 449/548/518
f 482/3/519 481/2/519 476/538/519
f 470/542/520 8/6/553 7/5/520
f 9/12/523 8/6/554 470/542/523
f 464/547/524 2/13/524 1/7/524
f 478/15/525 9/12/525 471/546/525
f 465/549/526 3/16/526 2/13/526
f 473/553/527 479/19/527 478/15/527
f 466/533/528 4/21/528 3/16/528
f 480/23/529 479/19/529 473/553/529
f 467/554/530 5/25/530 4/21/530
f 10/27/531 480/23/531 474/534/531
f 468/537/532 6/28/532 5/25/532
f 481/2/533 10/27/533 475/536/533
f 469/550/534 7/5/534 6/28/534
